<svg id="Laag_1" data-name="Laag 1" xmlns="http://www.w3.org/2000/svg" width="486.0771" height="357.2418" viewBox="0 0 486.0771 357.2418">
  <defs>
    <style>
      .cls-1 {
        fill: #b3b3b3;
      }

      .cls-2, .cls-3 {
        fill: none;
        stroke: #000;
        stroke-miterlimit: 10;
        stroke-width: 0.3985px;
      }

      .cls-3 {
        stroke-linecap: round;
      }
    </style>
  </defs>
  <title>ahrs</title>
  <rect class="cls-1" x="326.2986" y="0.1992" width="58.3678" height="23.7978"/>
  <rect class="cls-2" x="326.2986" y="0.1992" width="58.3678" height="23.7978"/>
  <g>
    <path d="M338.4683,12.8441a2.512,2.512,0,0,1-.9815,2.1089,4.2531,4.2531,0,0,1-2.6611.7563,6.6692,6.6692,0,0,1-2.8028-.4692V14.0912a7.4,7.4,0,0,0,1.3731.42,7.2416,7.2416,0,0,0,1.4717.1538,2.9657,2.9657,0,0,0,1.7929-.4517,1.4833,1.4833,0,0,0,.6026-1.2573,1.6125,1.6125,0,0,0-.2139-.8721,1.9859,1.9859,0,0,0-.7148-.6269,9.9976,9.9976,0,0,0-1.5235-.6514,4.8721,4.8721,0,0,1-2.042-1.2119,2.6786,2.6786,0,0,1-.6123-1.8286,2.2724,2.2724,0,0,1,.89-1.8843,3.696,3.696,0,0,1,2.3535-.7,6.9356,6.9356,0,0,1,2.8086.56l-.3711,1.0371a6.3482,6.3482,0,0,0-2.4658-.5327,2.3874,2.3874,0,0,0-1.4776.4062,1.3388,1.3388,0,0,0-.5332,1.1279,1.728,1.728,0,0,0,.1963.8721,1.846,1.846,0,0,0,.6621.6235,8.2612,8.2612,0,0,0,1.4258.627,5.6419,5.6419,0,0,1,2.2168,1.2329A2.4236,2.4236,0,0,1,338.4683,12.8441Z"/>
    <path d="M339.1685,7.8919h1.247l1.6817,4.378a16.8139,16.8139,0,0,1,.6865,2.1645h.0557q.0908-.3575.3818-1.2221t1.9014-5.32h1.247l-3.2988,8.7422a4.3631,4.3631,0,0,1-1.1455,1.8384,2.4335,2.4335,0,0,1-1.6074.543,4.6635,4.6635,0,0,1-1.0508-.1192v-.9316a4.0456,4.0456,0,0,0,.8613.0845,1.7759,1.7759,0,0,0,1.709-1.3453l.4277-1.0927Z"/>
    <path d="M352.5688,13.4745a1.9237,1.9237,0,0,1-.7988,1.6533,3.7515,3.7515,0,0,1-2.2412.5815,4.8715,4.8715,0,0,1-2.3818-.4834V14.1473a5.7759,5.7759,0,0,0,1.1875.4414,4.9514,4.9514,0,0,0,1.2217.1607,2.7721,2.7721,0,0,0,1.4013-.2906,1.0011,1.0011,0,0,0,.1016-1.6533,6.11,6.11,0,0,0-1.5166-.7529,8.2112,8.2112,0,0,1-1.5235-.6968,2.0813,2.0813,0,0,1-.6728-.6763,1.7673,1.7673,0,0,1-.2207-.9033,1.724,1.724,0,0,1,.7637-1.4819,3.558,3.558,0,0,1,2.0947-.5425,6.1265,6.1265,0,0,1,2.4238.5044l-.4131.9453A5.5657,5.5657,0,0,0,349.9,8.7254a2.4113,2.4113,0,0,0-1.2471.2593.8008.8008,0,0,0-.42.7144.8675.8675,0,0,0,.1572.5254,1.559,1.559,0,0,0,.5078.413,11.313,11.313,0,0,0,1.3448.5674,5.0206,5.0206,0,0,1,1.8457,1.002A1.7643,1.7643,0,0,1,352.5688,13.4745Z"/>
    <path d="M356.94,14.7494a3.7406,3.7406,0,0,0,.5948-.0455,3.86,3.86,0,0,0,.456-.0942v.89a2.1262,2.1262,0,0,1-.5576.15,4.2023,4.2023,0,0,1-.6611.0595q-2.2281,0-2.2276-2.3467V8.7953h-1.1006v-.56l1.1006-.4834.49-1.6392h.6718V7.8919h2.2276v.9034h-2.2276v4.5185a1.5585,1.5585,0,0,0,.3291,1.0645A1.1477,1.1477,0,0,0,356.94,14.7494Z"/>
    <path d="M362.7681,15.7093a3.5289,3.5289,0,0,1-2.6866-1.0366,4.0141,4.0141,0,0,1-.9843-2.8794,4.4511,4.4511,0,0,1,.914-2.9487,3.0364,3.0364,0,0,1,2.4551-1.0928,2.897,2.897,0,0,1,2.2842.9492,3.6406,3.6406,0,0,1,.84,2.5039v.7359h-5.2881a3.0443,3.0443,0,0,0,.6827,2.0522,2.3607,2.3607,0,0,0,1.8252.7007,6.18,6.18,0,0,0,2.4511-.5186v1.0367a6.1567,6.1567,0,0,1-1.166.3818A6.5569,6.5569,0,0,1,362.7681,15.7093Zm-.3155-6.9839a1.898,1.898,0,0,0-1.4746.6026,2.7717,2.7717,0,0,0-.6484,1.667h4.0146A2.5546,2.5546,0,0,0,363.853,9.31,1.724,1.724,0,0,0,362.4526,8.7254Z"/>
    <path d="M377.3589,15.5692V10.5746a2.078,2.078,0,0,0-.3916-1.3765,1.5192,1.5192,0,0,0-1.22-.459,1.9675,1.9675,0,0,0-1.6036.6235,2.9638,2.9638,0,0,0-.5185,1.9195v4.2871h-1.1631V10.5746a2.078,2.078,0,0,0-.3916-1.3765,1.5291,1.5291,0,0,0-1.2266-.459,1.8993,1.8993,0,0,0-1.6005.6553,3.542,3.542,0,0,0-.5079,2.147v4.0278h-1.163V7.8919h.9462l.19,1.05h.0557a2.2874,2.2874,0,0,1,.9277-.8755,2.84,2.84,0,0,1,1.3418-.3149,2.2807,2.2807,0,0,1,2.3535,1.3027h.0566a2.4448,2.4448,0,0,1,.9942-.9526,3.09,3.09,0,0,1,1.4853-.35,2.6012,2.6012,0,0,1,1.9512.6689,2.9932,2.9932,0,0,1,.6475,2.14v5.0088Z"/>
  </g>
  <path class="cls-1" d="M341.8762,37.6033a13.6063,13.6063,0,1,1,27.2125,0V58.0124H341.8762Z"/>
  <path class="cls-2" d="M341.8762,37.6033a13.6063,13.6063,0,1,1,27.2125,0V58.0124H341.8762Z"/>
  <path class="cls-1" d="M302.3322,120.0923V103.0842h-31.89v17.0081Zm-63.78-21.26h63.78m0-21.26h-63.78v42.52h63.78Z"/>
  <path class="cls-3" d="M302.3322,120.0923V103.0842h-31.89v17.0081Zm-63.78-21.26h63.78m0-21.26h-63.78v42.52h63.78Z"/>
  <g>
    <path d="M250.4829,91.868l-1.2754-3.2573H245.103l-1.2607,3.2573h-1.2051l4.0488-10.2832h1.002l4.0273,10.2832Zm-1.6465-4.3291-1.19-3.1733q-.2314-.6021-.4766-1.4781a13.2431,13.2431,0,0,1-.4414,1.4781l-1.2051,3.1733Z"/>
    <path d="M260.11,85.0941h-1.9541V91.868h-1.1631V85.0941H255.62v-.5254l1.3731-.42V83.721q0-2.8293,2.4726-2.83a5.0783,5.0783,0,0,1,1.4287.2452l-.3007.9316a3.8392,3.8392,0,0,0-1.1485-.2173,1.1211,1.1211,0,0,0-.9746.438,2.4444,2.4444,0,0,0-.3144,1.4043v.4976H260.11Z"/>
    <path d="M266.2329,91.868l-.2314-1.0928h-.0557a3.2265,3.2265,0,0,1-1.1455.9771,3.4906,3.4906,0,0,1-1.4248.2558,2.5646,2.5646,0,0,1-1.79-.5883,2.1446,2.1446,0,0,1-.6484-1.6743q0-2.3255,3.72-2.4375l1.3028-.042v-.4766a1.9432,1.9432,0,0,0-.3887-1.3345,1.5988,1.5988,0,0,0-1.2432-.4306,5.0669,5.0669,0,0,0-2.1718.5883l-.3565-.89a5.4384,5.4384,0,0,1,1.2432-.4834,5.3839,5.3839,0,0,1,1.3554-.1753,2.9257,2.9257,0,0,1,2.0352.6094,2.5484,2.5484,0,0,1,.6611,1.9546v5.24Zm-2.6269-.82a2.3611,2.3611,0,0,0,1.706-.5952,2.2035,2.2035,0,0,0,.62-1.667v-.6939l-1.1631.0493a4.2311,4.2311,0,0,0-2,.4307,1.3007,1.3007,0,0,0-.6132,1.1875,1.1992,1.1992,0,0,0,.3818.9595A1.5856,1.5856,0,0,0,263.606,91.0482Z"/>
    <path d="M269.3921,82.11a.772.772,0,0,1,.1963-.585.7264.7264,0,0,1,.9736.0035.7566.7566,0,0,1,.2031.5815.77.77,0,0,1-.2031.585.6792.6792,0,0,1-.4834.1923.671.671,0,0,1-.49-.1923A.787.787,0,0,1,269.3921,82.11Zm1.2607,9.7578H269.49V84.1908h1.1631Z"/>
    <path d="M274.2808,91.868h-1.1631v-10.9h1.1631Z"/>
    <path d="M277.8394,84.1908v4.98a2.0022,2.0022,0,0,0,.4277,1.4009,1.741,1.741,0,0,0,1.3379.4624,2.182,2.182,0,0,0,1.7617-.6587,3.3222,3.3222,0,0,0,.5566-2.15V84.1908h1.1631V91.868h-.96l-.168-1.03h-.0625a2.3213,2.3213,0,0,1-.9912.8687,3.3365,3.3365,0,0,1-1.4473.3012,2.9335,2.9335,0,0,1-2.0976-.6655,2.831,2.831,0,0,1-.6973-2.1294V84.1908Z"/>
    <path d="M289.0552,84.0506a4.5531,4.5531,0,0,1,.9179.084l-.1611,1.0786a3.9814,3.9814,0,0,0-.8408-.105,2.0464,2.0464,0,0,0-1.5938.7564,2.7589,2.7589,0,0,0-.6621,1.8843V91.868h-1.1631V84.1908h.96l.1328,1.4218h.0567a3.3709,3.3709,0,0,1,1.0293-1.1557A2.3183,2.3183,0,0,1,289.0552,84.0506Z"/>
    <path d="M294.6519,92.0081a3.5289,3.5289,0,0,1-2.6866-1.0366,4.0141,4.0141,0,0,1-.9843-2.8794,4.4505,4.4505,0,0,1,.914-2.9487,3.0364,3.0364,0,0,1,2.4551-1.0928A2.897,2.897,0,0,1,296.6343,85a3.6414,3.6414,0,0,1,.84,2.504V88.24H292.186a3.0441,3.0441,0,0,0,.6827,2.0522,2.3606,2.3606,0,0,0,1.8251.7007,6.18,6.18,0,0,0,2.4512-.5185v1.0366a6.15,6.15,0,0,1-1.166.3818A6.55,6.55,0,0,1,294.6519,92.0081Zm-.3155-6.9838a1.8979,1.8979,0,0,0-1.4746.6025,2.772,2.772,0,0,0-.6484,1.667h4.0146a2.5548,2.5548,0,0,0-.4912-1.6846A1.724,1.724,0,0,0,294.3364,85.0243Z"/>
  </g>
  <path class="cls-1" d="M440.5229,120.0923V103.0842h-31.89v17.0081Zm-31.89-21.26h63.78m0-21.26h-63.78v42.52h63.78Z"/>
  <path class="cls-3" d="M440.5229,120.0923V103.0842h-31.89v17.0081Zm-31.89-21.26h63.78m0-21.26h-63.78v42.52h63.78Z"/>
  <g>
    <path d="M414.0161,81.6268h2.8926a5.4585,5.4585,0,0,1,2.9492.6094,2.1506,2.1506,0,0,1,.9111,1.9262,2.2281,2.2281,0,0,1-.5078,1.5025,2.445,2.445,0,0,1-1.4814.7671v.07q2.332.3991,2.332,2.4516a2.6346,2.6346,0,0,1-.9277,2.1436,3.9528,3.9528,0,0,1-2.5957.77h-3.5723Zm1.19,4.3853h1.962a3.1974,3.1974,0,0,0,1.8144-.396,1.5293,1.5293,0,0,0,.5527-1.3345,1.35,1.35,0,0,0-.6162-1.2432,3.8481,3.8481,0,0,0-1.9619-.3818h-1.751Zm0,1.0083v3.832h2.1368a3.0455,3.0455,0,0,0,1.8671-.48,1.7714,1.7714,0,0,0,.627-1.5024,1.59,1.59,0,0,0-.6416-1.4009,3.423,3.423,0,0,0-1.95-.4487Z"/>
    <path d="M430.2983,85.0941h-1.9541V91.868h-1.163V85.0941h-1.3731v-.5254l1.3731-.42V83.721q0-2.8293,2.4726-2.83a5.0783,5.0783,0,0,1,1.4287.2452l-.3008.9316a3.8381,3.8381,0,0,0-1.1484-.2173,1.1209,1.1209,0,0,0-.9746.438,2.4436,2.4436,0,0,0-.3145,1.4043v.4976h1.9541Z"/>
    <path d="M436.42,91.868l-.2314-1.0928h-.0557a3.2265,3.2265,0,0,1-1.1455.9771,3.4906,3.4906,0,0,1-1.4248.2558,2.5646,2.5646,0,0,1-1.79-.5883,2.1446,2.1446,0,0,1-.6484-1.6743q0-2.3255,3.72-2.4375l1.3028-.042v-.4766a1.9432,1.9432,0,0,0-.3887-1.3345,1.5988,1.5988,0,0,0-1.2432-.4306,5.0669,5.0669,0,0,0-2.1718.5883l-.3565-.89A5.4384,5.4384,0,0,1,433.23,84.24a5.3839,5.3839,0,0,1,1.3554-.1753,2.9257,2.9257,0,0,1,2.0352.6094,2.5484,2.5484,0,0,1,.6611,1.9546v5.24Zm-2.6269-.82a2.3611,2.3611,0,0,0,1.706-.5952,2.2035,2.2035,0,0,0,.62-1.667v-.6939l-1.1631.0493a4.2311,4.2311,0,0,0-2,.4307,1.3007,1.3007,0,0,0-.6132,1.1875,1.1992,1.1992,0,0,0,.3818.9595A1.5856,1.5856,0,0,0,433.7935,91.0482Z"/>
    <path d="M439.58,82.11a.772.772,0,0,1,.1963-.585.7264.7264,0,0,1,.9736.0035.7566.7566,0,0,1,.2031.5815.77.77,0,0,1-.2031.585.6792.6792,0,0,1-.4834.1923.671.671,0,0,1-.49-.1923A.787.787,0,0,1,439.58,82.11ZM440.84,91.868h-1.1631V84.1908H440.84Z"/>
    <path d="M444.4692,91.868h-1.163v-10.9h1.163Z"/>
    <path d="M448.0269,84.1908v4.98a2.0022,2.0022,0,0,0,.4277,1.4009,1.741,1.741,0,0,0,1.3379.4624,2.182,2.182,0,0,0,1.7617-.6587,3.3222,3.3222,0,0,0,.5566-2.15V84.1908h1.1631V91.868h-.96l-.168-1.03h-.0625a2.3213,2.3213,0,0,1-.9912.8687,3.3365,3.3365,0,0,1-1.4473.3012,2.9335,2.9335,0,0,1-2.0976-.6655,2.831,2.831,0,0,1-.6973-2.1294V84.1908Z"/>
    <path d="M459.2427,84.0506a4.5531,4.5531,0,0,1,.9179.084L460,85.2132a3.9814,3.9814,0,0,0-.8408-.105,2.0464,2.0464,0,0,0-1.5938.7564,2.7589,2.7589,0,0,0-.6621,1.8843V91.868H455.74V84.1908h.96l.1328,1.4218h.0567a3.3709,3.3709,0,0,1,1.0293-1.1557A2.3183,2.3183,0,0,1,459.2427,84.0506Z"/>
    <path d="M464.84,92.0081a3.5288,3.5288,0,0,1-2.6865-1.0366,4.0141,4.0141,0,0,1-.9844-2.8794,4.4506,4.4506,0,0,1,.9141-2.9487,3.0363,3.0363,0,0,1,2.4551-1.0928A2.897,2.897,0,0,1,466.8228,85a3.6414,3.6414,0,0,1,.84,2.504V88.24h-5.2881a3.0441,3.0441,0,0,0,.6826,2.0522,2.361,2.361,0,0,0,1.8252.7007,6.18,6.18,0,0,0,2.4512-.5185v1.0366a6.15,6.15,0,0,1-1.166.3818A6.55,6.55,0,0,1,464.84,92.0081Zm-.3154-6.9838a1.8979,1.8979,0,0,0-1.4746.6025,2.772,2.772,0,0,0-.6484,1.667h4.0146a2.5554,2.5554,0,0,0-.4912-1.6846A1.7242,1.7242,0,0,0,464.5249,85.0243Z"/>
  </g>
  <rect class="cls-1" x="228.4731" y="145.4028" width="27.2443" height="20.2462"/>
  <rect class="cls-2" x="228.4731" y="145.4028" width="27.2443" height="20.2462"/>
  <g>
    <path d="M241.3022,160.6659l-1.2753-3.2574h-4.1045l-1.2608,3.2574h-1.2051l4.0489-10.2832h1.0019l4.0274,10.2832Zm-1.6464-4.3291-1.19-3.1734q-.2314-.6019-.4765-1.478a13.2694,13.2694,0,0,1-.4414,1.478l-1.2051,3.1734Z"/>
    <path d="M247.5435,160.6659h-1.1348v-7.2994q0-.91.0557-1.7231c-.0977.0981-.2081.2007-.3291.3081s-.6768.563-1.667,1.3662l-.6162-.7988,2.7109-2.0942h.9805Z"/>
  </g>
  <circle class="cls-1" cx="242.0952" cy="182.6571" r="17.0081" transform="translate(-35.4897 60.5083) rotate(-13.2825)"/>
  <circle class="cls-2" cx="242.0952" cy="182.6571" r="17.0081" transform="translate(-35.4897 60.5083) rotate(-13.2825)"/>
  <rect class="cls-1" x="270.9933" y="145.3503" width="27.2443" height="20.3513"/>
  <rect class="cls-2" x="270.9933" y="145.3503" width="27.2443" height="20.3513"/>
  <g>
    <path d="M283.8208,160.7181l-1.2754-3.2573h-4.1045l-1.2607,3.2573h-1.2051l4.0488-10.2832h1.002l4.0273,10.2832Zm-1.6465-4.3291-1.19-3.1733q-.2314-.6021-.4766-1.4781a13.2431,13.2431,0,0,1-.4414,1.4781l-1.2051,3.1733Z"/>
    <path d="M292.4858,160.7181h-6.7324v-1.0019l2.6973-2.71a19.856,19.856,0,0,0,1.625-1.7793,4.5426,4.5426,0,0,0,.5889-1.0371,2.9859,2.9859,0,0,0,.1953-1.0854,1.7215,1.7215,0,0,0-.4971-1.3,1.9034,1.9034,0,0,0-1.38-.4794,3.4657,3.4657,0,0,0-1.208.21,4.8057,4.8057,0,0,0-1.2715.7637l-.6162-.7915a4.72,4.72,0,0,1,3.082-1.1768,3.257,3.257,0,0,1,2.2627.7388,2.5435,2.5435,0,0,1,.8194,1.9858,3.8337,3.8337,0,0,1-.5469,1.9263,12.2428,12.2428,0,0,1-2.0449,2.41l-2.2422,2.1923v.0562h5.2685Z"/>
  </g>
  <circle class="cls-1" cx="284.6154" cy="182.7096" r="17.0081"/>
  <circle class="cls-2" cx="284.6154" cy="182.7096" r="17.0081"/>
  <rect class="cls-1" x="412.6188" y="145.3503" width="27.4614" height="20.3513"/>
  <rect class="cls-2" x="412.6188" y="145.3503" width="27.4614" height="20.3513"/>
  <g>
    <path d="M419.0073,150.4769H421.9a5.4585,5.4585,0,0,1,2.9492.6094,2.1507,2.1507,0,0,1,.9112,1.9262,2.2282,2.2282,0,0,1-.5079,1.5025,2.445,2.445,0,0,1-1.4814.7671v.07q2.332.3992,2.332,2.4516a2.6343,2.6343,0,0,1-.9277,2.1436,3.9526,3.9526,0,0,1-2.5957.77h-3.5723Zm1.19,4.3853H422.16a3.1974,3.1974,0,0,0,1.8144-.396,1.5293,1.5293,0,0,0,.5528-1.3345,1.35,1.35,0,0,0-.6163-1.2432,3.8481,3.8481,0,0,0-1.9619-.3818h-1.7509Zm0,1.0083v3.832h2.1367a3.046,3.046,0,0,0,1.8672-.48,1.7716,1.7716,0,0,0,.6269-1.5024,1.59,1.59,0,0,0-.6416-1.4009,3.4228,3.4228,0,0,0-1.95-.4487Z"/>
    <path d="M434.3276,160.7181h-6.7324v-1.0019l2.6973-2.71a19.856,19.856,0,0,0,1.625-1.7793,4.5382,4.5382,0,0,0,.5888-1.0371,2.9838,2.9838,0,0,0,.1954-1.0854,1.7215,1.7215,0,0,0-.4971-1.3,1.9034,1.9034,0,0,0-1.38-.4794,3.4657,3.4657,0,0,0-1.208.21,4.8057,4.8057,0,0,0-1.2715.7637l-.6162-.7915a4.72,4.72,0,0,1,3.082-1.1768,3.2572,3.2572,0,0,1,2.2627.7388,2.5435,2.5435,0,0,1,.8194,1.9858,3.8347,3.8347,0,0,1-.5469,1.9263,12.2428,12.2428,0,0,1-2.0449,2.41l-2.2422,2.1923v.0562h5.2685Z"/>
  </g>
  <circle class="cls-1" cx="426.3495" cy="182.7096" r="17.0081"/>
  <circle class="cls-2" cx="426.3495" cy="182.7096" r="17.0081"/>
  <rect class="cls-1" x="455.139" y="145.4238" width="27.4614" height="20.2042"/>
  <rect class="cls-2" x="455.139" y="145.4238" width="27.4614" height="20.2042"/>
  <g>
    <path d="M461.5278,150.4037H464.42a5.46,5.46,0,0,1,2.9492.6093,2.1507,2.1507,0,0,1,.9112,1.9263,2.2281,2.2281,0,0,1-.5079,1.5024,2.4444,2.4444,0,0,1-1.4814.7671v.07q2.3321.3993,2.332,2.4517a2.6345,2.6345,0,0,1-.9277,2.1436,3.9531,3.9531,0,0,1-2.5957.77h-3.5723Zm1.19,4.3852H464.68a3.1966,3.1966,0,0,0,1.8144-.396,1.5293,1.5293,0,0,0,.5528-1.3345,1.35,1.35,0,0,0-.6162-1.2431,3.8487,3.8487,0,0,0-1.962-.3819h-1.7509Zm0,1.0083v3.832h2.1367a3.0458,3.0458,0,0,0,1.8672-.48,1.7718,1.7718,0,0,0,.6269-1.5025,1.59,1.59,0,0,0-.6416-1.4009,3.4228,3.4228,0,0,0-1.95-.4487Z"/>
    <path d="M474.4243,160.6449H473.29v-7.2993q0-.9105.0556-1.7232c-.0976.0982-.208.2007-.3291.3081s-.6767.563-1.667,1.3662l-.6162-.7988,2.7109-2.0942h.9805Z"/>
  </g>
  <circle class="cls-1" cx="468.8697" cy="182.636" r="17.0081" transform="translate(-34.2012 193.3308) rotate(-22.5)"/>
  <circle class="cls-2" cx="468.8697" cy="182.636" r="17.0081" transform="translate(-34.2012 193.3308) rotate(-22.5)"/>
  <rect class="cls-1" x="455.139" y="145.4238" width="27.4614" height="20.2042"/>
  <rect class="cls-2" x="455.139" y="145.4238" width="27.4614" height="20.2042"/>
  <g>
    <path d="M461.5278,150.4037H464.42a5.46,5.46,0,0,1,2.9492.6093,2.1507,2.1507,0,0,1,.9112,1.9263,2.2281,2.2281,0,0,1-.5079,1.5024,2.4444,2.4444,0,0,1-1.4814.7671v.07q2.3321.3993,2.332,2.4517a2.6345,2.6345,0,0,1-.9277,2.1436,3.9531,3.9531,0,0,1-2.5957.77h-3.5723Zm1.19,4.3852H464.68a3.1966,3.1966,0,0,0,1.8144-.396,1.5293,1.5293,0,0,0,.5528-1.3345,1.35,1.35,0,0,0-.6162-1.2431,3.8487,3.8487,0,0,0-1.962-.3819h-1.7509Zm0,1.0083v3.832h2.1367a3.0458,3.0458,0,0,0,1.8672-.48,1.7718,1.7718,0,0,0,.6269-1.5025,1.59,1.59,0,0,0-.6416-1.4009,3.4228,3.4228,0,0,0-1.95-.4487Z"/>
    <path d="M474.4243,160.6449H473.29v-7.2993q0-.9105.0556-1.7232c-.0976.0982-.208.2007-.3291.3081s-.6767.563-1.667,1.3662l-.6162-.7988,2.7109-2.0942h.9805Z"/>
  </g>
  <circle class="cls-1" cx="468.8697" cy="182.636" r="17.0081" transform="translate(-34.2012 193.3308) rotate(-22.5)"/>
  <circle class="cls-2" cx="468.8697" cy="182.636" r="17.0081" transform="translate(-34.2012 193.3308) rotate(-22.5)"/>
  <rect class="cls-1" x="331.2267" y="143.627" width="48.5117" height="23.7978"/>
  <rect class="cls-2" x="331.2267" y="143.627" width="48.5117" height="23.7978"/>
  <g>
    <path d="M343.396,156.27a2.5123,2.5123,0,0,1-.9814,2.1089,4.2536,4.2536,0,0,1-2.6612.7563,6.669,6.669,0,0,1-2.8027-.4692v-1.149a7.3834,7.3834,0,0,0,1.373.42,7.2355,7.2355,0,0,0,1.4717.1539,2.966,2.966,0,0,0,1.793-.4517,1.4834,1.4834,0,0,0,.6025-1.2573,1.6134,1.6134,0,0,0-.2138-.8721,1.9864,1.9864,0,0,0-.7149-.627,10.0017,10.0017,0,0,0-1.5234-.6513,4.8714,4.8714,0,0,1-2.042-1.2119,2.6786,2.6786,0,0,1-.6123-1.8286,2.2726,2.2726,0,0,1,.89-1.8843,3.6961,3.6961,0,0,1,2.3535-.7,6.9372,6.9372,0,0,1,2.8086.56l-.3711,1.0371a6.35,6.35,0,0,0-2.4658-.5327,2.3871,2.3871,0,0,0-1.4775.4063,1.3385,1.3385,0,0,0-.5332,1.1279,1.727,1.727,0,0,0,.1963.8721,1.8452,1.8452,0,0,0,.6621.6235,8.254,8.254,0,0,0,1.4258.627,5.6419,5.6419,0,0,1,2.2168,1.2329A2.4238,2.4238,0,0,1,343.396,156.27Z"/>
    <path d="M348.8882,159.1351a3.3247,3.3247,0,0,1-1.37-.2769,2.57,2.57,0,0,1-1.04-.851h-.084a10.1719,10.1719,0,0,1,.084,1.2749v3.1592h-1.1631V151.3177h.9463l.1612,1.05h.0556a2.7022,2.7022,0,0,1,1.044-.9106,3.1754,3.1754,0,0,1,1.3662-.28,2.8356,2.8356,0,0,1,2.3564,1.0434,5.5536,5.5536,0,0,1-.0136,5.8667A2.8417,2.8417,0,0,1,348.8882,159.1351Zm-.168-6.97a2.0584,2.0584,0,0,0-1.7021.6518,3.3521,3.3521,0,0,0-.54,2.0733v.2593a3.8347,3.8347,0,0,0,.54,2.3149,2.0491,2.0491,0,0,0,1.7295.6973,1.7993,1.7993,0,0,0,1.5586-.8057,3.82,3.82,0,0,0,.5644-2.2207,3.6783,3.6783,0,0,0-.5644-2.2031A1.854,1.854,0,0,0,348.72,152.1649Z"/>
    <path d="M358.8276,158.995l-.2314-1.0928h-.0557a3.2271,3.2271,0,0,1-1.1455.977,3.4882,3.4882,0,0,1-1.4248.2559,2.5642,2.5642,0,0,1-1.79-.5884,2.1447,2.1447,0,0,1-.6485-1.6743q0-2.3254,3.72-2.4375l1.3027-.042v-.4765a1.943,1.943,0,0,0-.3887-1.3345,1.5987,1.5987,0,0,0-1.2431-.4307,5.0658,5.0658,0,0,0-2.1719.5884l-.3565-.89a5.4448,5.4448,0,0,1,1.2432-.4834,5.3845,5.3845,0,0,1,1.3555-.1752,2.926,2.926,0,0,1,2.0351.6093,2.5482,2.5482,0,0,1,.6612,1.9546v5.24Zm-2.6269-.82a2.3605,2.3605,0,0,0,1.706-.5952,2.2032,2.2032,0,0,0,.62-1.667v-.6938l-1.1631.0493a4.23,4.23,0,0,0-2,.4307,1.3006,1.3006,0,0,0-.6133,1.1875,1.1988,1.1988,0,0,0,.3818.9594A1.5853,1.5853,0,0,0,356.2007,158.1751Z"/>
    <path d="M365.5874,151.1776a4.5475,4.5475,0,0,1,.918.084l-.1612,1.0786a3.9814,3.9814,0,0,0-.8408-.105,2.0464,2.0464,0,0,0-1.5937.7563,2.7591,2.7591,0,0,0-.6621,1.8843v4.1192h-1.1631v-7.6773h.96l.1328,1.4219h.0567a3.3723,3.3723,0,0,1,1.0293-1.1558A2.3184,2.3184,0,0,1,365.5874,151.1776Z"/>
    <path d="M371.1851,159.1351a3.5289,3.5289,0,0,1-2.6866-1.0366,4.0141,4.0141,0,0,1-.9843-2.8794,4.4505,4.4505,0,0,1,.914-2.9487,3.0361,3.0361,0,0,1,2.4551-1.0928,2.897,2.897,0,0,1,2.2842.9492,3.6406,3.6406,0,0,1,.84,2.5039v.7358h-5.2881a3.0444,3.0444,0,0,0,.6827,2.0523,2.3607,2.3607,0,0,0,1.8252.7007,6.18,6.18,0,0,0,2.4511-.5186v1.0366a6.15,6.15,0,0,1-1.166.3819A6.5569,6.5569,0,0,1,371.1851,159.1351Zm-.3155-6.9839a1.898,1.898,0,0,0-1.4746.6026,2.7717,2.7717,0,0,0-.6484,1.6669h4.0146a2.5543,2.5543,0,0,0-.4912-1.6845A1.7238,1.7238,0,0,0,370.87,152.1512Z"/>
  </g>
  <circle class="cls-1" cx="355.4825" cy="184.4329" r="17.0081" transform="translate(49.0515 442.2765) rotate(-67.5)"/>
  <circle class="cls-2" cx="355.4825" cy="184.4329" r="17.0081" transform="translate(49.0515 442.2765) rotate(-67.5)"/>
  <polyline class="cls-2" points="350.947 58.013 350.947 72.186 270.442 72.186 270.442 77.572"/>
  <polyline class="cls-2" points="360.018 58.013 360.018 72.186 440.523 72.186 440.523 77.572"/>
  <polyline class="cls-2" points="254.497 120.092 254.497 134.266 242.095 134.266 242.095 145.403"/>
  <polyline class="cls-2" points="273.631 120.092 273.631 134.266 284.615 134.266 284.615 145.35"/>
  <polyline class="cls-2" points="280.009 120.092 280.009 128.596 355.482 128.596 355.482 143.627"/>
  <polyline class="cls-2" points="456.468 120.092 456.468 134.266 468.87 134.266 468.87 145.424"/>
  <polyline class="cls-2" points="430.956 120.092 430.956 128.596 355.482 128.596 355.482 143.627"/>
  <path class="cls-1" d="M283.1983,241.1275l14.882,9.92-14.882,9.92Zm0-.001h59.528m0-19.8427h-59.528v39.6853h59.528Z"/>
  <path class="cls-3" d="M283.1983,241.1275l14.882,9.92-14.882,9.92Zm0-.001h59.528m0-19.8427h-59.528v39.6853h59.528Z"/>
  <g>
    <path d="M292.3579,234.99h-1.19V224.7489h5.709v1.0576h-4.5186v3.7475h4.2451v1.0582h-4.2451Z"/>
    <path d="M306.7466,229.7713a5.17,5.17,0,0,1-1.377,3.8775,5.4463,5.4463,0,0,1-3.9609,1.3413h-2.8369V224.7489H301.71a4.5973,4.5973,0,0,1,5.0371,5.0224Zm-1.2608.042a4.1243,4.1243,0,0,0-1.0058-3.019,4.0271,4.0271,0,0,0-2.9873-1.0156h-1.7305V233.96h1.45a4.4067,4.4067,0,0,0,3.2012-1.0474A4.1438,4.1438,0,0,0,305.4858,229.8133Z"/>
    <path d="M314.7388,234.99H309.03V224.7489h5.709v1.0576H310.22v3.2993h4.2451v1.0508H310.22v3.7685h4.5186Z"/>
    <path d="M323.5024,227.7328a2.8693,2.8693,0,0,1-1.0605,2.3925,4.8087,4.8087,0,0,1-3.0371.837H318.2V234.99h-1.19V224.7489h2.6543Q323.5028,224.7489,323.5024,227.7328ZM318.2,229.9393h1.0723a3.9833,3.9833,0,0,0,2.29-.5112,1.8846,1.8846,0,0,0,.708-1.6392,1.7663,1.7663,0,0,0-.666-1.5132,3.4764,3.4764,0,0,0-2.0732-.497H318.2Z"/>
    <path d="M335.0005,227.1585a2.3367,2.3367,0,0,1-.55,1.604,2.7448,2.7448,0,0,1-1.5586.8335v.0562a2.9287,2.9287,0,0,1,1.8281.7847,2.307,2.307,0,0,1,.5957,1.6533,2.6823,2.6823,0,0,1-1.0156,2.2519,4.6208,4.6208,0,0,1-2.8857.7881,8.3964,8.3964,0,0,1-1.4893-.1225,5.0886,5.0886,0,0,1-1.3135-.4307V233.47a6.7064,6.7064,0,0,0,2.8447.6723q2.6544,0,2.6543-2.0805,0-1.8633-2.9277-1.8633h-1.0088v-1.0015h1.0225a3.0793,3.0793,0,0,0,1.8984-.5288,1.7358,1.7358,0,0,0,.7-1.4678,1.4448,1.4448,0,0,0-.5146-1.1767,2.1208,2.1208,0,0,0-1.3975-.4273,4.3025,4.3025,0,0,0-1.2676.1822,5.6766,5.6766,0,0,0-1.3594.6723l-.5878-.7846a4.8931,4.8931,0,0,1,1.4531-.7808,5.2742,5.2742,0,0,1,1.7334-.2837,3.5459,3.5459,0,0,1,2.3193.6826A2.3011,2.3011,0,0,1,335.0005,227.1585Z"/>
  </g>
  <rect class="cls-1" x="212.8004" y="259.2276" width="64.259" height="20.4914"/>
  <rect class="cls-2" x="212.8004" y="259.2276" width="64.259" height="20.4914"/>
  <g>
    <path d="M225.6855,267.3373a2.8686,2.8686,0,0,1-1.0615,2.3925,4.8071,4.8071,0,0,1-3.0366.8369h-1.2051v4.0279h-1.19V264.3534h2.6548Q225.6854,264.3534,225.6855,267.3373Zm-5.3032,2.2065h1.0718a3.9859,3.9859,0,0,0,2.291-.5112,1.8844,1.8844,0,0,0,.7075-1.6392,1.7683,1.7683,0,0,0-.6655-1.5132,3.4778,3.4778,0,0,0-2.0737-.4971h-1.3311Z"/>
    <path d="M234.2808,270.7489a4.2421,4.2421,0,0,1-.9454,2.9316,3.3307,3.3307,0,0,1-2.6132,1.0537,3.4654,3.4654,0,0,1-1.8286-.4824,3.1931,3.1931,0,0,1-1.233-1.3877,4.8311,4.8311,0,0,1-.434-2.1152,4.2288,4.2288,0,0,1,.9384-2.9248,3.3215,3.3215,0,0,1,2.606-1.0469,3.2468,3.2468,0,0,1,2.5605,1.0718A4.2158,4.2158,0,0,1,234.2808,270.7489Zm-5.85,0a3.6447,3.6447,0,0,0,.5883,2.2412,2.3363,2.3363,0,0,0,3.4644.0039,3.6271,3.6271,0,0,0,.5918-2.2451,3.568,3.568,0,0,0-.5918-2.2241,2.0787,2.0787,0,0,0-1.7481-.76,2.0458,2.0458,0,0,0-1.7231.75A3.6076,3.6076,0,0,0,228.4312,270.7489Z"/>
    <path d="M242.5884,274.5946l-1.4072-4.5044q-.1334-.4131-.4981-1.877h-.0557q-.28,1.2254-.49,1.8911l-1.45,4.49h-1.3447l-2.0947-7.6773h1.2187q.7427,2.893,1.1318,4.4058a17.836,17.836,0,0,1,.4444,2.0391h.0556q.0777-.4.2491-1.0333t.2978-1.0058l1.4082-4.4058h1.2608l1.373,4.4058a14.9205,14.9205,0,0,1,.5322,2.0244h.0557a7.3742,7.3742,0,0,1,.1514-.7773q.1215-.5259,1.46-5.6529h1.2051l-2.123,7.6773Z"/>
    <path d="M250.7212,274.7342a3.5264,3.5264,0,0,1-2.6865-1.0361,4.0145,4.0145,0,0,1-.9844-2.8794,4.4506,4.4506,0,0,1,.9141-2.9487,3.0358,3.0358,0,0,1,2.455-1.0928,2.8968,2.8968,0,0,1,2.2842.9492,3.6407,3.6407,0,0,1,.84,2.5039v.7359h-5.2881a3.0447,3.0447,0,0,0,.6826,2.0522,2.3622,2.3622,0,0,0,1.8252.7,6.1787,6.1787,0,0,0,2.4512-.5176v1.0362a6.1575,6.1575,0,0,1-1.1661.3818A6.559,6.559,0,0,1,250.7212,274.7342Zm-.3154-6.9834a1.898,1.898,0,0,0-1.4746.6026,2.7718,2.7718,0,0,0-.6485,1.667h4.0147a2.555,2.555,0,0,0-.4912-1.6846A1.7239,1.7239,0,0,0,250.4058,267.7508Z"/>
    <path d="M259.0288,266.7772a4.5475,4.5475,0,0,1,.918.084l-.1612,1.0786a3.9814,3.9814,0,0,0-.8408-.105,2.0462,2.0462,0,0,0-1.5937.7564,2.7588,2.7588,0,0,0-.6621,1.8842v4.1192h-1.1631v-7.6773h.96l.1329,1.4219h.0566a3.3723,3.3723,0,0,1,1.0293-1.1558A2.3184,2.3184,0,0,1,259.0288,266.7772Z"/>
    <path d="M270.9126,266.763a2.3367,2.3367,0,0,1-.55,1.604,2.7445,2.7445,0,0,1-1.5586.8335v.0562a2.9287,2.9287,0,0,1,1.8281.7847,2.3064,2.3064,0,0,1,.5957,1.6528,2.6806,2.6806,0,0,1-1.0156,2.2519,4.6206,4.6206,0,0,1-2.8857.7881,8.3518,8.3518,0,0,1-1.4893-.122,5.1271,5.1271,0,0,1-1.3135-.4307v-1.1074a6.7171,6.7171,0,0,0,2.8448.6728q2.6542,0,2.6542-2.08,0-1.8639-2.9277-1.8637h-1.0088v-1.0015h1.0225a3.0793,3.0793,0,0,0,1.8984-.5288,1.7358,1.7358,0,0,0,.7-1.4678,1.4448,1.4448,0,0,0-.5146-1.1767,2.1208,2.1208,0,0,0-1.3975-.4273,4.3058,4.3058,0,0,0-1.2676.1821,5.6789,5.6789,0,0,0-1.3593.6724l-.5879-.7847a4.8929,4.8929,0,0,1,1.4531-.7807,5.2742,5.2742,0,0,1,1.7334-.2837,3.5459,3.5459,0,0,1,2.3193.6826A2.3011,2.3011,0,0,1,270.9126,266.763Z"/>
  </g>
  <circle class="cls-1" cx="244.9299" cy="296.7271" r="17.0081"/>
  <circle class="cls-2" cx="244.9299" cy="296.7271" r="17.0081"/>
  <polyline class="cls-2" points="244.93 259.228 244.93 251.048 283.198 251.048"/>
  <polyline class="cls-2" points="333.797 260.969 333.797 275.143 355.482 275.143 355.482 201.441"/>
  <path class="cls-1" d="M110.9912,141.3536l15.945,10.6289-15.945,10.6289Zm0-.0012h63.78m0-21.26h-63.78v42.52h63.78Z"/>
  <path class="cls-3" d="M110.9912,141.3536l15.945,10.6289-15.945,10.6289Zm0-.0012h63.78m0-21.26h-63.78v42.52h63.78Z"/>
  <g>
    <path d="M122.2793,133.6532h-1.19V123.412h5.709V124.47h-4.5186v3.7475h4.2451v1.0581h-4.2451Z"/>
    <path d="M136.668,128.4344a5.1724,5.1724,0,0,1-1.3765,3.8775,5.4483,5.4483,0,0,1-3.9614,1.3413h-2.8369V123.412h3.1381a4.5973,4.5973,0,0,1,5.0367,5.0224Zm-1.2613.042a4.1241,4.1241,0,0,0-1.0048-3.019,4.0293,4.0293,0,0,0-2.9878-1.0157h-1.73v8.1817h1.45a4.4083,4.4083,0,0,0,3.2012-1.0474A4.1436,4.1436,0,0,0,135.4067,128.4764Z"/>
    <path d="M144.6606,133.6532h-5.7089V123.412h5.7089V124.47h-4.5185v3.2993h4.2451V128.82h-4.2451v3.7685h4.5185Z"/>
    <path d="M153.4238,126.3958a2.8687,2.8687,0,0,1-1.0615,2.3926,4.8071,4.8071,0,0,1-3.0366.8369h-1.2051v4.0279h-1.19V123.412h2.6548Q153.4235,123.412,153.4238,126.3958Zm-5.3032,2.2066h1.0718a3.9861,3.9861,0,0,0,2.291-.5112,1.8846,1.8846,0,0,0,.7075-1.6392,1.7682,1.7682,0,0,0-.6655-1.5132,3.478,3.478,0,0,0-2.0737-.4971h-1.3311Z"/>
    <path d="M162.8838,133.6532h-1.1353v-7.2993q0-.91.0562-1.7232c-.0982.0982-.2075.2007-.3291.3081s-.6773.563-1.667,1.3662l-.6167-.7988,2.7109-2.0942h.981Z"/>
  </g>
  <rect class="cls-1" x="42.7195" y="159.5271" width="64.259" height="20.3443"/>
  <rect class="cls-2" x="42.7195" y="159.5271" width="64.259" height="20.3443"/>
  <g>
    <path d="M55.6074,167.4906a2.8686,2.8686,0,0,1-1.0615,2.3925,4.8065,4.8065,0,0,1-3.0366.837H50.3042v4.0278h-1.19V164.5067h2.6548Q55.6071,164.5067,55.6074,167.4906Zm-5.3032,2.2065H51.376a3.9861,3.9861,0,0,0,2.291-.5112,1.8843,1.8843,0,0,0,.7075-1.6392,1.7686,1.7686,0,0,0-.6655-1.5132,3.4781,3.4781,0,0,0-2.0737-.497H50.3042Z"/>
    <path d="M64.2021,170.9022a4.236,4.236,0,0,1-.9453,2.9316,3.3307,3.3307,0,0,1-2.6128,1.0542,3.4619,3.4619,0,0,1-1.8286-.4834,3.191,3.191,0,0,1-1.2329-1.3872,4.8311,4.8311,0,0,1-.4341-2.1152,4.2283,4.2283,0,0,1,.9385-2.9248,3.3214,3.3214,0,0,1,2.606-1.0469,3.2475,3.2475,0,0,1,2.56,1.0718A4.2184,4.2184,0,0,1,64.2021,170.9022Zm-5.8491,0a3.6461,3.6461,0,0,0,.5884,2.2417,2.3358,2.3358,0,0,0,3.4644.0034,3.6261,3.6261,0,0,0,.5918-2.2451,3.568,3.568,0,0,0-.5918-2.2241,2.0808,2.0808,0,0,0-1.7481-.76,2.0471,2.0471,0,0,0-1.7231.75A3.6078,3.6078,0,0,0,58.353,170.9022Z"/>
    <path d="M72.51,174.7479l-1.4082-4.5044q-.1333-.4131-.4971-1.877h-.0562q-.28,1.2254-.49,1.8912l-1.45,4.49H67.2632l-2.0943-7.6773h1.2188q.7427,2.8932,1.1313,4.4058a17.8982,17.8982,0,0,1,.4449,2.0386H68.02q.0769-.3991.2486-1.0332t.2978-1.0054l1.4077-4.4058h1.2613l1.373,4.4058a14.8827,14.8827,0,0,1,.5322,2.0244h.0562a7.3981,7.3981,0,0,1,.15-.7773q.1223-.5251,1.46-5.6529h1.2051L73.89,174.7479Z"/>
    <path d="M80.6431,174.888a3.5289,3.5289,0,0,1-2.6866-1.0366,4.016,4.016,0,0,1-.9838-2.8794,4.4505,4.4505,0,0,1,.914-2.9487,3.0364,3.0364,0,0,1,2.4551-1.0928,2.8952,2.8952,0,0,1,2.2837.9492,3.6368,3.6368,0,0,1,.8408,2.5039v.7359H78.1772a3.0419,3.0419,0,0,0,.6832,2.0522,2.3617,2.3617,0,0,0,1.8247.7007,6.18,6.18,0,0,0,2.4516-.5185v1.0366a6.1266,6.1266,0,0,1-1.166.3818A6.5447,6.5447,0,0,1,80.6431,174.888Zm-.315-6.9839a1.8973,1.8973,0,0,0-1.4746.6026,2.7748,2.7748,0,0,0-.6479,1.667h4.0136a2.5575,2.5575,0,0,0-.49-1.6846A1.7257,1.7257,0,0,0,80.3281,167.9041Z"/>
    <path d="M88.9507,166.9305a4.5354,4.5354,0,0,1,.9175.084l-.1612,1.0786a3.9741,3.9741,0,0,0-.84-.105,2.0465,2.0465,0,0,0-1.5938.7564,2.7589,2.7589,0,0,0-.6621,1.8843v4.1191H85.4482v-7.6773h.96l.1333,1.4219h.0562a3.372,3.372,0,0,1,1.03-1.1557A2.3156,2.3156,0,0,1,88.9507,166.9305Z"/>
    <path d="M98.7959,174.7479H97.6606v-7.2993q0-.9105.0562-1.7232-.1472.1473-.3291.3081T95.7207,167.4l-.6167-.7989,2.7109-2.0942h.981Z"/>
  </g>
  <circle class="cls-1" cx="74.849" cy="196.8795" r="17.0081" transform="translate(-30.5701 14.5317) rotate(-9.2175)"/>
  <circle class="cls-2" cx="74.849" cy="196.8795" r="17.0081" transform="translate(-30.5701 14.5317) rotate(-9.2175)"/>
  <polyline class="cls-2" points="74.849 159.527 74.849 151.983 110.991 151.983"/>
  <polyline class="cls-2" points="165.204 162.613 165.204 182.657 225.087 182.657"/>
  <polyline class="cls-2" points="146.071 162.613 146.071 332.693 426.349 332.693 426.349 199.718"/>
  <path class="cls-1" d="M68.471,247.6542l15.945,10.6289L68.471,268.912Zm0-.0012h63.78m0-21.26H68.471v42.52h63.78Z"/>
  <path class="cls-3" d="M68.471,247.6542l15.945,10.6289L68.471,268.912Zm0-.0012h63.78m0-21.26H68.471v42.52h63.78Z"/>
  <g>
    <path d="M79.7593,240.099h-1.19V229.8578h5.709v1.0576H79.7593v3.7475h4.2451v1.0581H79.7593Z"/>
    <path d="M94.1479,234.88a5.1723,5.1723,0,0,1-1.3764,3.8775A5.4483,5.4483,0,0,1,88.81,240.099h-2.837V229.8578h3.1382a4.5973,4.5973,0,0,1,5.0366,5.0224Zm-1.2612.042a4.1237,4.1237,0,0,0-1.0049-3.019,4.0292,4.0292,0,0,0-2.9878-1.0157h-1.73v8.1817h1.45a4.4079,4.4079,0,0,0,3.2011-1.0474A4.1433,4.1433,0,0,0,92.8867,234.9222Z"/>
    <path d="M102.1406,240.099h-5.709V229.8578h5.709v1.0576H97.6221v3.2993h4.2451v1.0508H97.6221v3.7685h4.5185Z"/>
    <path d="M110.9038,232.8416a2.8687,2.8687,0,0,1-1.0615,2.3926,4.8071,4.8071,0,0,1-3.0366.8369h-1.2051v4.0279h-1.19V229.8578h2.6547Q110.9036,229.8578,110.9038,232.8416Zm-5.3032,2.2066h1.0718a3.9861,3.9861,0,0,0,2.291-.5112,1.8844,1.8844,0,0,0,.7075-1.6392,1.7685,1.7685,0,0,0-.6655-1.5132,3.4782,3.4782,0,0,0-2.0738-.4971h-1.331Z"/>
    <path d="M122.7871,240.099h-6.7314v-1.002l2.6967-2.71a19.9345,19.9345,0,0,0,1.625-1.7793,4.532,4.532,0,0,0,.5884-1.0371,2.9639,2.9639,0,0,0,.1963-1.0855,1.7232,1.7232,0,0,0-.4975-1.3,1.9052,1.9052,0,0,0-1.38-.48,3.47,3.47,0,0,0-1.2085.21,4.8111,4.8111,0,0,0-1.271.7636l-.6167-.7915a4.7209,4.7209,0,0,1,3.0825-1.1767,3.2552,3.2552,0,0,1,2.2622.7388,2.5418,2.5418,0,0,1,.82,1.9858,3.833,3.833,0,0,1-.5464,1.9263,12.2448,12.2448,0,0,1-2.0454,2.41l-2.2417,2.1924v.0562h5.2676Z"/>
  </g>
  <rect class="cls-1" x="0.1992" y="265.7542" width="64.259" height="20.4914"/>
  <rect class="cls-2" x="0.1992" y="265.7542" width="64.259" height="20.4914"/>
  <g>
    <path d="M13.0874,273.8631a2.8674,2.8674,0,0,1-1.0615,2.3916,4.804,4.804,0,0,1-3.0366.8369H7.7842V281.12h-1.19V270.8788H9.2485Q13.0872,270.8788,13.0874,273.8631Zm-5.3032,2.2061H8.856a3.9857,3.9857,0,0,0,2.291-.5108,1.8852,1.8852,0,0,0,.7075-1.64,1.7669,1.7669,0,0,0-.6655-1.5127,3.4746,3.4746,0,0,0-2.0738-.4971H7.7842Z"/>
    <path d="M21.6821,277.2743a4.2353,4.2353,0,0,1-.9453,2.9316A3.3291,3.3291,0,0,1,18.124,281.26a3.47,3.47,0,0,1-1.8286-.4824,3.1935,3.1935,0,0,1-1.2329-1.3877,4.8327,4.8327,0,0,1-.4341-2.1152,4.2275,4.2275,0,0,1,.9385-2.9248,3.32,3.32,0,0,1,2.606-1.0469,3.25,3.25,0,0,1,2.5605,1.0713A4.2207,4.2207,0,0,1,21.6821,277.2743Zm-5.8491,0a3.6447,3.6447,0,0,0,.5884,2.2412,2.0435,2.0435,0,0,0,1.7305.7705,2.0555,2.0555,0,0,0,1.7338-.7666,3.6265,3.6265,0,0,0,.5918-2.2451,3.5653,3.5653,0,0,0-.5918-2.2237,2.081,2.081,0,0,0-1.748-.7607,2.0459,2.0459,0,0,0-1.7231.75A3.606,3.606,0,0,0,15.833,277.2743Z"/>
    <path d="M29.99,281.12l-1.4082-4.5039q-.1332-.4131-.497-1.878h-.0562q-.28,1.2261-.49,1.8916l-1.45,4.49H24.7432l-2.0943-7.6778h1.2188q.7427,2.893,1.1313,4.4063a17.8493,17.8493,0,0,1,.4448,2.039H25.5q.077-.4.2485-1.0332t.2979-1.0058l1.4077-4.4063h1.2612l1.3731,4.4063a14.9354,14.9354,0,0,1,.5322,2.0244h.0562a7.4327,7.4327,0,0,1,.15-.7773q.1224-.5259,1.46-5.6534h1.2051L31.37,281.12Z"/>
    <path d="M38.123,281.26a3.5267,3.5267,0,0,1-2.6865-1.0361,4.0164,4.0164,0,0,1-.9839-2.8789,4.452,4.452,0,0,1,.9141-2.9492,3.036,3.036,0,0,1,2.4551-1.0928,2.8952,2.8952,0,0,1,2.2837.9492,3.6376,3.6376,0,0,1,.8408,2.5039v.7354H35.6572a3.0438,3.0438,0,0,0,.6831,2.0527,2.3635,2.3635,0,0,0,1.8247.7,6.1789,6.1789,0,0,0,2.4517-.5176v1.0361a6.1273,6.1273,0,0,1-1.166.3819A6.5557,6.5557,0,0,1,38.123,281.26Zm-.3149-6.9834a1.899,1.899,0,0,0-1.4746.6026,2.7752,2.7752,0,0,0-.648,1.6669h4.0137a2.5567,2.5567,0,0,0-.49-1.6845A1.7272,1.7272,0,0,0,37.8081,274.2762Z"/>
    <path d="M46.4307,273.3026a4.5707,4.5707,0,0,1,.9174.084l-.1611,1.0791a3.9453,3.9453,0,0,0-.84-.1055,2.0455,2.0455,0,0,0-1.5938.7568,2.756,2.756,0,0,0-.6621,1.8838V281.12H42.9282v-7.6778h.96l.1333,1.4219h.0561a3.3726,3.3726,0,0,1,1.03-1.1553A2.32,2.32,0,0,1,46.4307,273.3026Z"/>
    <path d="M58.6992,281.12H51.9678v-1.002l2.6968-2.7109a19.8383,19.8383,0,0,0,1.625-1.7793,4.5283,4.5283,0,0,0,.5883-1.0362,2.97,2.97,0,0,0,.1963-1.0859,1.7224,1.7224,0,0,0-.4975-1.3,1.9029,1.9029,0,0,0-1.38-.4795,3.4584,3.4584,0,0,0-1.2085.21,4.8247,4.8247,0,0,0-1.271.7636l-.6167-.791a4.7188,4.7188,0,0,1,3.0825-1.1772,3.2552,3.2552,0,0,1,2.2622.7388,2.5421,2.5421,0,0,1,.82,1.9863,3.8349,3.8349,0,0,1-.5463,1.9258,12.2352,12.2352,0,0,1-2.0455,2.41l-2.2417,2.1924v.0557h5.2676Z"/>
  </g>
  <circle class="cls-1" cx="32.3288" cy="303.2536" r="17.0081" transform="translate(-154.6015 62.2868) rotate(-31.7174)"/>
  <circle class="cls-2" cx="32.3288" cy="303.2536" r="17.0081" transform="translate(-154.6015 62.2868) rotate(-31.7174)"/>
  <polyline class="cls-2" points="32.329 265.754 32.329 258.283 68.471 258.283"/>
  <polyline class="cls-2" points="122.684 268.913 122.684 353.954 468.87 353.954 468.87 199.644"/>
  <rect class="cls-1" x="81.0696" y="294.1711" width="27.2443" height="20.3513"/>
  <rect class="cls-2" x="81.0696" y="294.1711" width="27.2443" height="20.3513"/>
  <g>
    <path d="M93.9,309.537,92.6255,306.28h-4.105L87.26,309.537H86.0547l4.0488-10.2832h1.002l4.0278,10.2832Zm-1.6465-4.3291-1.19-3.1729q-.2315-.6035-.4766-1.4785a13.2541,13.2541,0,0,1-.4414,1.4785l-1.2046,3.1729Z"/>
    <path d="M102.5654,309.537H95.834v-1.002l2.6968-2.7109a19.8383,19.8383,0,0,0,1.625-1.7793,4.5283,4.5283,0,0,0,.5883-1.0362,2.97,2.97,0,0,0,.1963-1.0859,1.7224,1.7224,0,0,0-.4975-1.3,1.9072,1.9072,0,0,0-1.38-.48,3.4819,3.4819,0,0,0-1.2085.21,4.8247,4.8247,0,0,0-1.271.7636l-.6167-.792a4.7237,4.7237,0,0,1,3.0825-1.1767,3.2582,3.2582,0,0,1,2.2622.7392,2.5425,2.5425,0,0,1,.82,1.9864,3.8349,3.8349,0,0,1-.5463,1.9258,12.2375,12.2375,0,0,1-2.0454,2.41l-2.2417,2.1924v.0557h5.2675Z"/>
  </g>
  <polyline class="cls-1" points="94.692 314.522 72.014 357.043 117.369 357.043 94.692 314.522"/>
  <polyline class="cls-2" points="94.692 314.522 72.014 357.043 117.369 357.043 94.692 314.522"/>
  <line class="cls-2" x1="94.6917" y1="294.171" x2="94.6917" y2="268.9131"/>
</svg>
