<svg id="Laag_1" data-name="Laag 1" xmlns="http://www.w3.org/2000/svg" width="310.4194" height="164.6518" viewBox="0 0 310.4194 164.6518">
  <defs>
    <style>
      .cls-1 {
        fill: #ccc;
      }

      .cls-2 {
        fill: none;
        stroke: #000;
        stroke-miterlimit: 10;
        stroke-width: 0.2771px;
      }

      .cls-15, .cls-3 {
        font-size: 6.2421px;
      }

      .cls-3 {
        font-family: TimesNewRomanPSMT, Times New Roman;
      }

      .cls-4 {
        letter-spacing: 0.342em;
      }

      .cls-5 {
        letter-spacing: 0.343em;
      }

      .cls-6 {
        letter-spacing: 0.001em;
      }

      .cls-7 {
        letter-spacing: -0.0001em;
      }

      .cls-8 {
        letter-spacing: 0.0001em;
      }

      .cls-9 {
        letter-spacing: 0.0009em;
      }

      .cls-10 {
        letter-spacing: -0.026em;
      }

      .cls-11 {
        letter-spacing: 0.3429em;
      }

      .cls-12 {
        letter-spacing: -0.0269em;
      }

      .cls-13 {
        letter-spacing: 0.3431em;
      }

      .cls-14 {
        letter-spacing: 0.0011em;
      }

      .cls-15 {
        font-family: TimesNewRomanPS-ItalicMT, Times New Roman;
        font-style: italic;
      }

      .cls-16 {
        letter-spacing: -0.028em;
      }

      .cls-17 {
        letter-spacing: 0.172em;
      }

      .cls-18 {
        letter-spacing: 0.1719em;
      }
    </style>
  </defs>
  <title>cabinets</title>
  <rect class="cls-1" x="117.5936" y="0.1385" width="75.808" height="10.854"/>
  <rect class="cls-2" x="117.5936" y="0.1385" width="75.808" height="10.854"/>
  <text class="cls-3" transform="translate(122.2688 7.1147)">2 o<tspan class="cls-4" x="7.8027" y="0">r</tspan><tspan x="12.0161" y="0">mor</tspan><tspan class="cls-5" x="22.0713" y="0">e</tspan><tspan x="26.9829" y="0">ca</tspan><tspan class="cls-6" x="32.5239" y="0">b</tspan><tspan class="cls-7" x="35.6514" y="0">i</tspan><tspan class="cls-6" x="37.3853" y="0">n</tspan><tspan x="40.5127" y="0">et</tspan><tspan class="cls-4" x="45.0176" y="0">s</tspan><tspan x="49.5815" y="0">faili</tspan><tspan class="cls-6" x="59.6333" y="0">n</tspan><tspan class="cls-8" x="62.7607" y="0">g</tspan></text>
  <path class="cls-1" d="M146.8294,26.0061a17.3382,17.3382,0,0,1,8.668-15.0136,17.3382,17.3382,0,0,1,8.668,15.0136v8.668a17.3372,17.3372,0,0,0-17.336,0Z"/>
  <path class="cls-2" d="M146.8294,26.0061a17.3382,17.3382,0,0,1,8.668-15.0136,17.3382,17.3382,0,0,1,8.668,15.0136v8.668a17.3372,17.3372,0,0,0-17.336,0Z"/>
  <rect class="cls-1" x="106.5425" y="46.7624" width="97.8578" height="10.854"/>
  <rect class="cls-2" x="106.5425" y="46.7624" width="97.8578" height="10.854"/>
  <text class="cls-3" transform="translate(111.4722 54.3461)">2 cabi<tspan class="cls-9" x="15.0781" y="0">n</tspan><tspan class="cls-8" x="18.2051" y="0">ets fail wit</tspan><tspan class="cls-6" x="44.5542" y="0">h d</tspan><tspan class="cls-7" x="52.376" y="0">iﬀere</tspan><tspan class="cls-10" x="65.5" y="0">n</tspan><tspan class="cls-7" x="68.459" y="0">t ca</tspan><tspan class="cls-9" x="77.2949" y="0">u</tspan><tspan x="80.4219" y="0">ses</tspan></text>
  <path class="cls-1" d="M146.0251,67.0886a9.4721,9.4721,0,1,1,18.9441,0V81.2967H146.0251Z"/>
  <path class="cls-2" d="M146.0251,67.0886a9.4721,9.4721,0,1,1,18.9441,0V81.2967H146.0251Z"/>
  <rect class="cls-1" x="220.7904" y="46.7624" width="79.6996" height="10.854"/>
  <rect class="cls-2" x="220.7904" y="46.7624" width="79.6996" height="10.854"/>
  <text class="cls-3" transform="translate(226.0364 53.7387)"><tspan class="cls-9">2 h</tspan><tspan x="7.8213" y="0">ig</tspan><tspan class="cls-11" x="12.6768" y="0">h</tspan><tspan class="cls-12" x="17.9385" y="0">v</tspan><tspan x="20.8916" y="0">oltag</tspan><tspan class="cls-13" x="33.3721" y="0">e</tspan><tspan x="38.2842" y="0">ca</tspan><tspan class="cls-9" x="43.8252" y="0">b</tspan><tspan x="46.9521" y="0">i</tspan><tspan class="cls-14" x="48.6865" y="0">n</tspan><tspan x="51.8145" y="0">et</tspan><tspan class="cls-13" x="56.3184" y="0">s</tspan><tspan x="60.8887" y="0">fail</tspan></text>
  <path class="cls-1" d="M251.9721,72.63A17.3385,17.3385,0,0,1,260.64,57.616a17.3387,17.3387,0,0,1,8.668,15.0136v8.668a17.3372,17.3372,0,0,0-17.336,0Z"/>
  <path class="cls-2" d="M251.9721,72.63A17.3385,17.3385,0,0,1,260.64,57.616a17.3387,17.3387,0,0,1,8.668,15.0136v8.668a17.3372,17.3372,0,0,0-17.336,0Z"/>
  <text class="cls-3" transform="translate(255.4957 72.7446)">2</text>
  <text class="cls-15" transform="translate(258.7037 72.7446)">/n</text>
  <rect class="cls-1" x="19.3223" y="46.7624" width="59.0422" height="10.854"/>
  <rect class="cls-2" x="19.3223" y="46.7624" width="59.0422" height="10.854"/>
  <text class="cls-3" transform="translate(24.4007 53.7387)">2 rel<tspan class="cls-16" x="11.2651" y="0">a</tspan><tspan x="13.8608" y="0">y ca</tspan><tspan class="cls-6" x="24.0835" y="0">b</tspan><tspan class="cls-7" x="27.2109" y="0">i</tspan><tspan class="cls-6" x="28.9448" y="0">n</tspan><tspan x="32.0723" y="0">ets fail</tspan></text>
  <path class="cls-1" d="M40.1752,72.63a17.3385,17.3385,0,0,1,8.668-15.0136A17.3385,17.3385,0,0,1,57.5112,72.63v8.668a17.3372,17.3372,0,0,0-17.336,0Z"/>
  <path class="cls-2" d="M40.1752,72.63a17.3385,17.3385,0,0,1,8.668-15.0136A17.3385,17.3385,0,0,1,57.5112,72.63v8.668a17.3372,17.3372,0,0,0-17.336,0Z"/>
  <text class="cls-3" transform="translate(43.7013 72.7446)">2</text>
  <text class="cls-15" transform="translate(46.9093 72.7446)">/n</text>
  <line class="cls-2" x1="155.4973" y1="46.7625" x2="155.4973" y2="32.3518"/>
  <polyline class="cls-2" points="48.843 46.763 48.843 40.842 151.163 40.842 151.163 32.907"/>
  <polyline class="cls-2" points="260.64 46.763 260.64 40.842 159.831 40.842 159.831 32.907"/>
  <text class="cls-15" transform="translate(45.1021 101.1225)">.</text>
  <text class="cls-15" transform="translate(47.9615 101.1137)"><tspan class="cls-17">.</tspan><tspan x="2.6343" y="0">.</tspan></text>
  <path class="cls-1" d="M39.1805,100.7863c0-5.9592-8.74-10.7892-19.5207-10.7892S.1385,94.8271.1385,100.7863s8.74,10.7893,19.5213,10.7893S39.1805,106.7456,39.1805,100.7863Z"/>
  <path class="cls-2" d="M39.1805,100.7863c0-5.9592-8.74-10.7892-19.5207-10.7892S.1385,94.8271.1385,100.7863s8.74,10.7893,19.5213,10.7893S39.1805,106.7456,39.1805,100.7863Z"/>
  <text class="cls-3" transform="translate(11.7745 98.4965)">Relay</text>
  <text class="cls-3" transform="translate(6.8346 106.1176)">ca<tspan class="cls-6" x="5.541" y="0">b</tspan><tspan x="8.6685" y="0">i</tspan><tspan class="cls-9" x="10.4028" y="0">n</tspan><tspan x="13.5298" y="0">e</tspan><tspan class="cls-4" x="16.3003" y="0">t</tspan><tspan x="20.1694" y="0">1</tspan></text>
  <ellipse class="cls-1" cx="78.4949" cy="100.7863" rx="19.9891" ry="10.7892"/>
  <ellipse class="cls-2" cx="78.4949" cy="100.7863" rx="19.9891" ry="10.7892"/>
  <text class="cls-3" transform="translate(70.609 98.4965)">Relay</text>
  <text class="cls-3" transform="translate(65.3404 106.1176)">ca<tspan class="cls-6" x="5.541" y="0">b</tspan><tspan x="8.6685" y="0">i</tspan><tspan class="cls-9" x="10.4028" y="0">n</tspan><tspan x="13.5298" y="0">et</tspan></text>
  <text class="cls-15" transform="translate(87.7974 106.1176)">n</text>
  <polyline class="cls-2" points="19.66 89.997 19.66 86.05 44.509 86.05 44.509 79.531"/>
  <polyline class="cls-2" points="78.495 89.997 78.495 86.05 53.177 86.05 53.177 79.531"/>
  <line class="cls-2" x1="48.8431" y1="78.9751" x2="48.8431" y2="96.7358"/>
  <text class="cls-15" transform="translate(256.8971 101.1225)">.</text>
  <text class="cls-15" transform="translate(259.7652 101.1137)"><tspan class="cls-18">.</tspan><tspan x="2.6338" y="0">.</tspan></text>
  <path class="cls-1" d="M250.9773,100.7863c0-5.9592-8.74-10.7892-19.5206-10.7892s-19.5213,4.83-19.5213,10.7892,8.74,10.7893,19.5213,10.7893S250.9773,106.7456,250.9773,100.7863Z"/>
  <path class="cls-2" d="M250.9773,100.7863c0-5.9592-8.74-10.7892-19.5206-10.7892s-19.5213,4.83-19.5213,10.7892,8.74,10.7893,19.5213,10.7893S250.9773,106.7456,250.9773,100.7863Z"/>
  <text class="cls-3" transform="translate(226.6441 98.4965)">HV</text>
  <text class="cls-3" transform="translate(218.6226 106.1254)">ca<tspan class="cls-9" x="5.541" y="0">b</tspan><tspan x="8.668" y="0">i</tspan><tspan class="cls-14" x="10.4023" y="0">n</tspan><tspan x="13.5303" y="0">et</tspan></text>
  <text class="cls-3" transform="translate(241.0914 106.1176)">1</text>
  <ellipse class="cls-1" cx="290.2918" cy="100.7863" rx="19.9891" ry="10.7892"/>
  <ellipse class="cls-2" cx="290.2918" cy="100.7863" rx="19.9891" ry="10.7892"/>
  <text class="cls-3" transform="translate(285.4791 98.4965)">HV</text>
  <text class="cls-3" transform="translate(277.1265 106.1254)">ca<tspan class="cls-9" x="5.541" y="0">b</tspan><tspan x="8.668" y="0">i</tspan><tspan class="cls-14" x="10.4023" y="0">n</tspan><tspan x="13.5303" y="0">et</tspan></text>
  <text class="cls-15" transform="translate(299.5846 106.1254)">n</text>
  <polyline class="cls-2" points="231.456 89.997 231.456 86.05 256.306 86.05 256.306 79.531"/>
  <polyline class="cls-2" points="290.292 89.997 290.292 86.05 264.974 86.05 264.974 79.531"/>
  <line class="cls-2" x1="260.6399" y1="78.9751" x2="260.6399" y2="96.7358"/>
  <rect class="cls-1" x="104.404" y="91.0187" width="43.7452" height="19.5352"/>
  <rect class="cls-2" x="104.404" y="91.0187" width="43.7452" height="19.5352"/>
  <text class="cls-3" transform="translate(109.2056 98.4965)">Relay cabinet</text>
  <text class="cls-3" transform="translate(120.6554 106.1176)">fails</text>
  <path class="cls-1" d="M117.6089,125.5673a17.3385,17.3385,0,0,1,8.668-15.0136,17.3385,17.3385,0,0,1,8.668,15.0136v8.668a17.3372,17.3372,0,0,0-17.336,0Z"/>
  <path class="cls-2" d="M117.6089,125.5673a17.3385,17.3385,0,0,1,8.668-15.0136,17.3385,17.3385,0,0,1,8.668,15.0136v8.668a17.3372,17.3372,0,0,0-17.336,0Z"/>
  <rect class="cls-1" x="168.1905" y="91.0187" width="37.825" height="19.5352"/>
  <rect class="cls-2" x="168.1905" y="91.0187" width="37.825" height="19.5352"/>
  <text class="cls-3" transform="translate(171.064 98.4965)">HV</text>
  <text class="cls-3" transform="translate(182.8365 98.4878)">cabi<tspan class="cls-9" x="10.3965" y="0">n</tspan><tspan x="13.5234" y="0">et</tspan></text>
  <text class="cls-3" transform="translate(181.484 106.1176)">fails</text>
  <path class="cls-1" d="M178.435,125.5673a17.3387,17.3387,0,0,1,8.668-15.0136,17.3385,17.3385,0,0,1,8.668,15.0136v8.668a17.3372,17.3372,0,0,0-17.336,0Z"/>
  <path class="cls-2" d="M178.435,125.5673a17.3387,17.3387,0,0,1,8.668-15.0136,17.3385,17.3385,0,0,1,8.668,15.0136v8.668a17.3372,17.3372,0,0,0-17.336,0Z"/>
  <polyline class="cls-2" points="126.277 91.019 126.277 87.072 152.34 87.072 152.34 81.297"/>
  <polyline class="cls-2" points="187.103 91.019 187.103 87.072 158.655 87.072 158.655 81.297"/>
  <text class="cls-15" transform="translate(83.067 154.059)">.</text>
  <text class="cls-15" transform="translate(85.9283 154.0532)"><tspan class="cls-17">.</tspan><tspan x="2.6343" y="0">.</tspan></text>
  <path class="cls-1" d="M77.1457,153.724c0-5.9592-8.74-10.7892-19.5206-10.7892s-19.5213,4.83-19.5213,10.7892,8.74,10.7892,19.5213,10.7892S77.1457,159.6832,77.1457,153.724Z"/>
  <path class="cls-2" d="M77.1457,153.724c0-5.9592-8.74-10.7892-19.5206-10.7892s-19.5213,4.83-19.5213,10.7892,8.74,10.7892,19.5213,10.7892S77.1457,159.6832,77.1457,153.724Z"/>
  <text class="cls-3" transform="translate(49.7393 151.4331)">Relay</text>
  <text class="cls-3" transform="translate(44.8004 159.0561)">ca<tspan class="cls-6" x="5.541" y="0">b</tspan><tspan x="8.6685" y="0">i</tspan><tspan class="cls-9" x="10.4028" y="0">n</tspan><tspan x="13.5298" y="0">e</tspan><tspan class="cls-5" x="16.3003" y="0">t</tspan><tspan x="20.1758" y="0">1</tspan></text>
  <ellipse class="cls-1" cx="116.4603" cy="153.724" rx="19.9891" ry="10.7892"/>
  <ellipse class="cls-2" cx="116.4603" cy="153.724" rx="19.9891" ry="10.7892"/>
  <text class="cls-3" transform="translate(108.5743 151.4331)">Relay</text>
  <text class="cls-3" transform="translate(103.3067 159.0561)">ca<tspan class="cls-6" x="5.541" y="0">b</tspan><tspan x="8.6685" y="0">i</tspan><tspan class="cls-9" x="10.4028" y="0">n</tspan><tspan x="13.5298" y="0">et</tspan></text>
  <text class="cls-15" transform="translate(125.7642 159.0561)">n</text>
  <polyline class="cls-2" points="121.943 132.469 121.943 136.415 57.625 136.415 57.625 142.935"/>
  <polyline class="cls-2" points="126.277 131.913 126.277 138.425 86.808 138.425 86.808 149.266"/>
  <polyline class="cls-2" points="130.611 132.469 130.611 140.362 116.46 140.362 116.46 142.935"/>
  <text class="cls-15" transform="translate(222.8277 154.059)">.</text>
  <text class="cls-15" transform="translate(225.6949 154.0532)"><tspan class="cls-18">.</tspan><tspan x="2.6338" y="0">.</tspan></text>
  <path class="cls-1" d="M216.9087,153.724c0-5.9592-8.74-10.7892-19.5207-10.7892s-19.5213,4.83-19.5213,10.7892,8.74,10.7892,19.5213,10.7892S216.9087,159.6832,216.9087,153.724Z"/>
  <path class="cls-2" d="M216.9087,153.724c0-5.9592-8.74-10.7892-19.5207-10.7892s-19.5213,4.83-19.5213,10.7892,8.74,10.7892,19.5213,10.7892S216.9087,159.6832,216.9087,153.724Z"/>
  <text class="cls-3" transform="translate(192.5767 151.4331)">HV</text>
  <text class="cls-3" transform="translate(184.5553 159.0629)">ca<tspan class="cls-9" x="5.541" y="0">b</tspan><tspan x="8.668" y="0">i</tspan><tspan class="cls-14" x="10.4023" y="0">n</tspan><tspan x="13.5303" y="0">et</tspan></text>
  <text class="cls-3" transform="translate(207.0221 159.0561)">1</text>
  <ellipse class="cls-1" cx="256.2232" cy="153.724" rx="19.9891" ry="10.7892"/>
  <ellipse class="cls-2" cx="256.2232" cy="153.724" rx="19.9891" ry="10.7892"/>
  <text class="cls-3" transform="translate(251.4117 151.4331)">HV</text>
  <text class="cls-3" transform="translate(243.0582 159.0629)">ca<tspan class="cls-9" x="5.541" y="0">b</tspan><tspan x="8.668" y="0">i</tspan><tspan class="cls-14" x="10.4023" y="0">n</tspan><tspan x="13.5303" y="0">et</tspan></text>
  <text class="cls-15" transform="translate(265.5162 159.0629)">n</text>
  <polyline class="cls-2" points="182.769 132.469 182.769 140.362 197.388 140.362 197.388 142.935"/>
  <polyline class="cls-2" points="187.103 131.913 187.103 138.425 226.572 138.425 226.572 149.266"/>
  <polyline class="cls-2" points="191.437 132.469 191.437 136.415 256.223 136.415 256.223 142.935"/>
</svg>
