<svg id="Laag_1" data-name="Laag 1" xmlns="http://www.w3.org/2000/svg" xmlns:xlink="http://www.w3.org/1999/xlink" width="453.2946" height="404.7027" viewBox="0 0 453.2946 404.7027">
  <defs>
    <style>
      .cls-1, .cls-3 {
        fill: none;
      }

      .cls-2, .cls-9 {
        fill: #fff;
      }

      .cls-3 {
        stroke: #000;
        stroke-linecap: square;
        stroke-miterlimit: 10;
        stroke-width: 0.612px;
      }

      .cls-4 {
        font-size: 5.3154px;
        font-family: ArialMT, Arial;
      }

      .cls-5 {
        letter-spacing: 0.0101em;
      }

      .cls-6 {
        letter-spacing: 0.0119em;
      }

      .cls-7 {
        letter-spacing: 0.1429em;
      }

      .cls-8 {
        letter-spacing: 0.1321em;
      }

      .cls-9 {
        fill-rule: evenodd;
      }

      .cls-10 {
        letter-spacing: 0.023em;
      }

      .cls-11 {
        letter-spacing: 0.1319em;
      }

      .cls-12 {
        letter-spacing: 0.0441em;
      }

      .cls-13 {
        letter-spacing: 0.0551em;
      }

      .cls-14 {
        font-size: 10.6308px;
      }

      .cls-14, .cls-18 {
        font-family: TimesNewRomanPSMT, Times New Roman;
      }

      .cls-15 {
        clip-path: url(#clip-path);
      }

      .cls-16 {
        font-size: 7.973px;
        font-family: SymbolMT, Symbol;
      }

      .cls-17 {
        clip-path: url(#clip-path-2);
      }

      .cls-18 {
        font-size: 9px;
      }

      .cls-19 {
        letter-spacing: 0.001em;
      }

      .cls-20 {
        letter-spacing: 0.001em;
      }

      .cls-21 {
        letter-spacing: 0.003em;
      }

      .cls-22 {
        letter-spacing: -0.003em;
      }

      .cls-23 {
        letter-spacing: 6.886em;
      }

      .cls-24 {
        letter-spacing: -0.003em;
      }

      .cls-25 {
        letter-spacing: 0.003em;
      }

      .cls-26 {
        letter-spacing: -0.006em;
      }

      .cls-27 {
        letter-spacing: 2.053em;
      }

      .cls-28 {
        letter-spacing: 7.333em;
      }

      .cls-29 {
        letter-spacing: 7.443em;
      }

      .cls-30 {
        letter-spacing: -0.001em;
      }

      .cls-31 {
        letter-spacing: 6.946em;
      }

      .cls-32 {
        letter-spacing: -0.002em;
      }

      .cls-33 {
        letter-spacing: -0.001em;
      }

      .cls-34 {
        letter-spacing: 6.78em;
      }

      .cls-35 {
        letter-spacing: -0.002em;
      }

      .cls-36 {
        letter-spacing: 7.389em;
      }

      .cls-37 {
        letter-spacing: 0.0001em;
      }
    </style>
    <clipPath id="clip-path">
      <rect class="cls-1" x="285.843" y="184.7288" width="4.08" height="8.52"/>
    </clipPath>
    <clipPath id="clip-path-2">
      <rect class="cls-1" x="289.863" y="184.7288" width="2.46" height="8.52"/>
    </clipPath>
  </defs>
  <title>pt</title>
  <rect class="cls-2" x="249.8343" y="0.3061" width="74.9379" height="32.9392"/>
  <rect class="cls-3" x="249.8343" y="0.306" width="74.9379" height="32.9392"/>
  <text class="cls-4" transform="translate(282.7231 16.3686)"><tspan class="cls-5">E</tspan><tspan x="3.5986" y="0">1</tspan></text>
  <line class="cls-3" x1="287.2729" y1="33.2452" x2="287.3327" y2="36.545"/>
  <rect class="cls-2" x="276.7738" y="36.545" width="21.0591" height="8.5801"/>
  <rect class="cls-3" x="276.7738" y="36.545" width="21.0591" height="8.5801"/>
  <text class="cls-4" transform="translate(279.7827 41.9287)"><tspan class="cls-6">G</tspan><tspan class="cls-7" x="4.1982" y="0">1</tspan><tspan class="cls-8" x="7.9141" y="0">0</tspan><tspan x="11.5723" y="0">0</tspan></text>
  <polygon class="cls-9" points="287.273 45.125 289.253 46.445 290.633 47.765 291.893 49.745 293.213 51.725 293.812 53.705 293.812 58.985 290.633 56.945 287.273 56.345 283.973 56.945 280.673 58.985 280.673 53.705 281.393 51.725 282.713 49.745 283.973 47.765 285.353 46.445 287.273 45.125"/>
  <polygon class="cls-3" points="287.273 45.125 289.253 46.445 290.633 47.765 291.893 49.745 293.213 51.725 293.812 53.705 293.812 58.985 290.633 56.945 287.273 56.345 283.973 56.945 280.673 58.985 280.673 53.705 281.393 51.725 282.713 49.745 283.973 47.765 285.353 46.445 287.273 45.125"/>
  <path class="cls-3" d="M244.5544,66.2444l.06,3.3m46.0187-12.5992v9.2993m-6.66-9.2993.0609,9.2993"/>
  <rect class="cls-2" x="207.0549" y="69.5443" width="74.938" height="32.9392"/>
  <rect class="cls-3" x="207.0549" y="69.5443" width="74.938" height="32.9392"/>
  <text class="cls-4" transform="translate(241.6226 84.1689)">T</text>
  <line class="cls-3" x1="244.5544" y1="102.4835" x2="244.6142" y2="105.7833"/>
  <rect class="cls-2" x="234.0542" y="105.7833" width="21.0591" height="8.5801"/>
  <rect class="cls-3" x="234.0542" y="105.7833" width="21.0591" height="8.5801"/>
  <text class="cls-4" transform="translate(242.6431 111.1689)">T</text>
  <path class="cls-9" d="M251.1538,120.9031a6.57,6.57,0,1,0-6.5994,6.6A6.568,6.568,0,0,0,251.1538,120.9031Z"/>
  <path class="cls-3" d="M251.1538,120.9031a6.57,6.57,0,1,0-6.5994,6.6A6.568,6.568,0,0,0,251.1538,120.9031Z"/>
  <path class="cls-3" d="M330.0522,66.2444l.06,3.3M283.9726,56.9451v9.2993H244.5544"/>
  <rect class="cls-2" x="292.5528" y="69.5443" width="74.938" height="32.9392"/>
  <rect class="cls-3" x="292.5529" y="69.5443" width="74.9379" height="32.9392"/>
  <text class="cls-4" transform="translate(325.5034 84.1689)"><tspan class="cls-5">E</tspan><tspan x="3.5986" y="0">2</tspan></text>
  <line class="cls-3" x1="330.0522" y1="102.4835" x2="330.1121" y2="105.7833"/>
  <rect class="cls-2" x="319.4923" y="105.7833" width="21.0591" height="8.5801"/>
  <rect class="cls-3" x="319.4923" y="105.7833" width="21.0591" height="8.5801"/>
  <text class="cls-4" transform="translate(321.4829 111.1689)"><tspan class="cls-6">G</tspan><tspan class="cls-8" x="4.1982" y="0">1</tspan><tspan class="cls-7" x="7.8564" y="0">0</tspan><tspan x="11.5723" y="0">1</tspan></text>
  <polygon class="cls-9" points="330.052 114.363 331.972 115.624 333.351 117.003 334.612 118.924 335.991 120.903 336.532 122.884 336.532 128.223 333.351 126.183 330.052 125.523 326.692 126.183 323.452 128.223 323.452 122.884 324.112 120.903 325.431 118.924 326.692 117.003 328.071 115.624 330.052 114.363"/>
  <polygon class="cls-3" points="330.052 114.363 331.972 115.624 333.351 117.003 334.612 118.924 335.991 120.903 336.532 122.884 336.532 128.223 333.351 126.183 330.052 125.523 326.692 126.183 323.452 128.223 323.452 122.884 324.112 120.903 325.431 118.924 326.692 117.003 328.071 115.624 330.052 114.363"/>
  <path class="cls-3" d="M287.2728,135.4226l.06,3.3m3.3-81.7775v9.2993h39.4193m3.2992,59.939v9.2393m-6.6593-9.2393.06,9.2393"/>
  <rect class="cls-2" x="249.8343" y="138.7226" width="74.9379" height="32.9392"/>
  <rect class="cls-3" x="249.8343" y="138.7225" width="74.9379" height="32.9393"/>
  <text class="cls-4" transform="translate(282.7231 155.3886)"><tspan class="cls-5">E</tspan><tspan x="3.5986" y="0">3</tspan></text>
  <line class="cls-3" x1="287.2729" y1="171.6618" x2="287.3327" y2="174.9616"/>
  <rect class="cls-2" x="276.7738" y="174.9616" width="21.0591" height="8.5801"/>
  <rect class="cls-3" x="276.7738" y="174.9616" width="21.0591" height="8.5801"/>
  <text class="cls-4" transform="translate(279.4829 180.4087)"><tspan class="cls-10">G</tspan><tspan class="cls-11" x="4.2568" y="0">10</tspan><tspan x="11.5723" y="0">2</tspan></text>
  <polygon class="cls-9" points="287.273 183.542 288.593 183.542 290.633 184.862 291.893 185.521 293.213 188.162 293.812 188.822 293.812 196.741 280.673 196.741 280.673 188.822 281.393 188.162 281.993 186.842 282.713 185.521 283.973 184.862 285.953 183.542 287.273 183.542"/>
  <polygon class="cls-3" points="287.273 183.542 288.593 183.542 290.633 184.862 291.893 185.521 293.213 188.162 293.812 188.822 293.812 196.741 280.673 196.741 280.673 188.822 281.393 188.162 281.993 186.842 282.713 185.521 283.973 184.862 285.953 183.542 287.273 183.542"/>
  <path class="cls-3" d="M244.5544,204.661l.06,3.24m82.0779-81.7174v9.2394H287.2729m3.36,61.3183v7.92m-6.66-7.92.0609,7.92"/>
  <rect class="cls-2" x="207.0549" y="207.9008" width="74.938" height="32.9992"/>
  <rect class="cls-3" x="207.0549" y="207.9008" width="74.938" height="32.9992"/>
  <text class="cls-4" transform="translate(241.6226 224.6289)">S</text>
  <line class="cls-3" x1="244.5544" y1="240.9" x2="244.6142" y2="244.1998"/>
  <rect class="cls-2" x="234.0542" y="244.1999" width="21.0591" height="8.5201"/>
  <rect class="cls-3" x="234.0542" y="244.1999" width="21.0591" height="8.5201"/>
  <text class="cls-4" transform="translate(242.5229 249.5888)">S</text>
  <path class="cls-9" d="M251.1538,259.32a6.57,6.57,0,1,0-6.5994,6.6A6.5807,6.5807,0,0,0,251.1538,259.32Z"/>
  <path class="cls-3" d="M251.1538,259.32a6.57,6.57,0,1,0-6.5994,6.6A6.5808,6.5808,0,0,0,251.1538,259.32Z"/>
  <path class="cls-3" d="M330.0522,204.661l.06,3.24m-46.1395-11.16v7.92H244.5544"/>
  <rect class="cls-2" x="292.5528" y="207.9008" width="74.938" height="32.9992"/>
  <rect class="cls-3" x="292.5529" y="207.9008" width="74.9379" height="32.9992"/>
  <text class="cls-4" transform="translate(325.5034 224.6289)"><tspan class="cls-5">E</tspan><tspan x="3.5986" y="0">4</tspan></text>
  <line class="cls-3" x1="330.0522" y1="240.9" x2="330.1121" y2="244.1998"/>
  <rect class="cls-2" x="319.4923" y="244.1999" width="21.0591" height="8.5201"/>
  <rect class="cls-3" x="319.4923" y="244.1999" width="21.0591" height="8.5201"/>
  <text class="cls-4" transform="translate(322.3833 249.5888)"><tspan class="cls-10">G</tspan><tspan class="cls-11" x="4.2568" y="0">10</tspan><tspan x="11.5723" y="0">3</tspan></text>
  <polygon class="cls-9" points="330.052 252.72 331.972 254.04 333.351 255.42 334.612 257.34 335.991 259.32 336.532 261.36 336.532 266.579 333.351 264.6 330.052 263.94 326.692 264.6 323.452 266.579 323.452 261.36 324.112 259.32 325.431 257.34 326.692 255.42 328.071 254.04 330.052 252.72"/>
  <polygon class="cls-3" points="330.052 252.72 331.972 254.04 333.351 255.42 334.612 257.34 335.991 259.32 336.532 261.36 336.532 266.579 333.351 264.6 330.052 263.94 326.692 264.6 323.452 266.579 323.452 261.36 324.112 259.32 325.431 257.34 326.692 255.42 328.071 254.04 330.052 252.72"/>
  <path class="cls-3" d="M287.2728,273.8392l.06,3.3m3.3-80.398v7.92h39.4193M333.3514,264.6v9.2393M326.6921,264.6l.06,9.2393"/>
  <rect class="cls-2" x="249.8343" y="277.1391" width="74.9379" height="32.9392"/>
  <rect class="cls-3" x="249.8343" y="277.1391" width="74.9379" height="32.9392"/>
  <text class="cls-4" transform="translate(282.7231 293.8086)"><tspan class="cls-12">S</tspan><tspan x="3.7793" y="0">1</tspan></text>
  <line class="cls-3" x1="287.2729" y1="310.0783" x2="287.3327" y2="313.3781"/>
  <rect class="cls-2" x="276.7738" y="313.3781" width="21.0591" height="8.5801"/>
  <rect class="cls-3" x="276.7738" y="313.3781" width="21.0591" height="8.5801"/>
  <text class="cls-4" transform="translate(283.4429 318.8286)"><tspan class="cls-12">S</tspan><tspan x="3.7793" y="0">1</tspan></text>
  <path class="cls-9" d="M293.8734,328.5579a6.57,6.57,0,1,0-6.6006,6.5406A6.53,6.53,0,0,0,293.8734,328.5579Z"/>
  <path class="cls-3" d="M293.8734,328.5579a6.57,6.57,0,1,0-6.6005,6.5406A6.53,6.53,0,0,0,293.8734,328.5579Z"/>
  <path class="cls-3" d="M372.7707,273.8392l.06,3.3M326.6921,264.6v9.2393H287.2728"/>
  <rect class="cls-2" x="335.2713" y="277.1391" width="74.9379" height="32.9392"/>
  <rect class="cls-3" x="335.2713" y="277.1391" width="74.938" height="32.9392"/>
  <text class="cls-4" transform="translate(368.2231 293.8086)"><tspan class="cls-5">E</tspan><tspan x="3.5986" y="0">5</tspan></text>
  <line class="cls-3" x1="372.7708" y1="310.0783" x2="372.8306" y2="313.3781"/>
  <rect class="cls-2" x="362.2108" y="313.3781" width="21.1199" height="8.5801"/>
  <rect class="cls-3" x="362.2108" y="313.3781" width="21.1199" height="8.5801"/>
  <text class="cls-4" transform="translate(365.103 318.8286)"><tspan class="cls-6">G</tspan><tspan class="cls-7" x="4.1982" y="0">1</tspan><tspan class="cls-8" x="7.9141" y="0">0</tspan><tspan x="11.5723" y="0">4</tspan></text>
  <polygon class="cls-9" points="372.771 321.958 374.691 323.279 376.071 324.598 377.331 326.578 378.65 328.558 379.31 330.478 379.31 335.758 376.071 333.778 372.771 333.178 369.411 333.778 366.171 335.758 366.171 330.478 366.831 328.558 368.151 326.578 369.411 324.598 370.791 323.279 372.771 321.958"/>
  <polygon class="cls-3" points="372.771 321.958 374.691 323.279 376.071 324.598 377.331 326.578 378.65 328.558 379.31 330.478 379.31 335.758 376.071 333.778 372.771 333.178 369.411 333.778 366.171 335.758 366.171 330.478 366.831 328.558 368.151 326.578 369.411 324.598 370.791 323.279 372.771 321.958"/>
  <path class="cls-3" d="M330.0522,343.0175l.06,3.3M333.3514,264.6v9.2393h39.4194m3.3,59.939v9.2393m-6.66-9.2393.06,9.2393"/>
  <rect class="cls-2" x="292.5528" y="346.3173" width="74.938" height="32.9992"/>
  <rect class="cls-3" x="292.5529" y="346.3173" width="74.9379" height="32.9992"/>
  <text class="cls-4" transform="translate(325.5034 363.0488)"><tspan class="cls-13">K</tspan><tspan x="3.8379" y="0">1</tspan></text>
  <line class="cls-3" x1="330.0522" y1="379.3166" x2="330.1121" y2="382.6173"/>
  <rect class="cls-2" x="319.4923" y="382.6164" width="21.0591" height="8.5201"/>
  <rect class="cls-3" x="319.4923" y="382.6164" width="21.0591" height="8.5201"/>
  <text class="cls-4" transform="translate(326.2827 387.9492)"><tspan class="cls-13">K</tspan><tspan x="3.8379" y="0">1</tspan></text>
  <path class="cls-9" d="M336.5919,397.7361a6.5707,6.5707,0,1,0-6.6006,6.6607A6.581,6.581,0,0,0,336.5919,397.7361Z"/>
  <path class="cls-3" d="M336.5919,397.7361a6.5707,6.5707,0,1,0-6.6005,6.6607A6.581,6.581,0,0,0,336.5919,397.7361Z"/>
  <path class="cls-3" d="M415.4893,343.0175l.06,3.3m-46.1384-12.5391v9.2393H330.0522"/>
  <rect class="cls-2" x="378.0507" y="346.3173" width="74.9379" height="32.9992"/>
  <rect class="cls-3" x="378.0507" y="346.3173" width="74.9379" height="32.9992"/>
  <text class="cls-4" transform="translate(412.2026 363.0488)">R</text>
  <line class="cls-3" x1="415.4893" y1="379.3166" x2="415.5491" y2="382.6173"/>
  <rect class="cls-2" x="404.9304" y="382.6164" width="21.0591" height="8.5201"/>
  <rect class="cls-3" x="404.9304" y="382.6164" width="21.0591" height="8.5201"/>
  <text class="cls-4" transform="translate(413.5229 387.9492)">R</text>
  <path class="cls-9" d="M422.0289,397.7361a6.57,6.57,0,1,0-6.6,6.6607A6.58,6.58,0,0,0,422.0289,397.7361Z"/>
  <path class="cls-3" d="M422.0289,397.7361a6.57,6.57,0,1,0-6.6,6.6607A6.58,6.58,0,0,0,422.0289,397.7361Z"/>
  <path class="cls-3" d="M372.7708,135.4227l.06,3.3m3.24,195.0557v9.2393h39.4183"/>
  <rect class="cls-2" x="335.2713" y="138.7226" width="74.9379" height="32.9392"/>
  <rect class="cls-3" x="335.2713" y="138.7225" width="74.938" height="32.9393"/>
  <text class="cls-4" transform="translate(368.2231 155.3886)"><tspan class="cls-13">K</tspan><tspan x="3.8379" y="0">2</tspan></text>
  <line class="cls-3" x1="372.7708" y1="171.6618" x2="372.8306" y2="174.9616"/>
  <rect class="cls-2" x="362.2108" y="174.9616" width="21.1199" height="8.5801"/>
  <rect class="cls-3" x="362.2108" y="174.9616" width="21.1199" height="8.5801"/>
  <text class="cls-4" transform="translate(369.0034 180.4087)"><tspan class="cls-13">K</tspan><tspan x="3.8379" y="0">2</tspan></text>
  <path class="cls-9" d="M379.31,190.1413a6.57,6.57,0,1,0-6.6,6.6A6.5808,6.5808,0,0,0,379.31,190.1413Z"/>
  <path class="cls-3" d="M379.31,190.1413a6.57,6.57,0,1,0-6.6,6.6A6.5809,6.5809,0,0,0,379.31,190.1413Z"/>
  <polyline class="cls-3" points="333.351 126.183 333.351 135.423 372.771 135.423"/>
  <text class="cls-14" transform="translate(283.9829 55.249)">+</text>
  <text class="cls-14" transform="translate(326.7612 124.4873)">+</text>
  <text class="cls-14" transform="translate(326.7612 262.7832)">+</text>
  <text class="cls-14" transform="translate(369.3062 331.9687)">+</text>
  <g class="cls-15">
    <text class="cls-16" transform="translate(285.8433 192.7089)">•</text>
  </g>
  <g class="cls-17">
    <text class="cls-16" transform="translate(289.8628 192.7089)"> </text>
  </g>
  <text class="cls-18" transform="translate(92.7632 298.9687)"><tspan class="cls-19">LE</tspan><tspan x="11.0132" y="0">G</tspan><tspan class="cls-19" x="17.5127" y="0">E</tspan><tspan x="23.019" y="0">ND</tspan><tspan class="cls-20" x="36.0181" y="0">:</tspan><tspan class="cls-21" x="38.5278" y="0" xml:space="preserve">  </tspan><tspan class="cls-22" x="43.0815" y="0">F</tspan><tspan x="48.0601" y="0">AU</tspan><tspan class="cls-19" x="61.0591" y="0">LT</tspan><tspan x="72.0723" y="0">S</tspan></text>
  <text class="cls-18" transform="translate(0 319.6689)">E<tspan class="cls-23" x="5.4976" y="0">1</tspan><tspan x="71.9717" y="0">TO</tspan><tspan class="cls-24" x="83.9687" y="0">P</tspan><tspan class="cls-25" x="88.9468" y="0"> </tspan><tspan x="91.2241" y="0">EVENT</tspan></text>
  <text class="cls-18" transform="translate(0 330.0459)"><tspan class="cls-19">E2,</tspan><tspan class="cls-22" x="12.2744" y="0"> </tspan><tspan class="cls-19" x="14.4976" y="0">E3</tspan><tspan class="cls-22" x="24.5132" y="0">,</tspan><tspan class="cls-21" x="26.7363" y="0"> </tspan><tspan class="cls-19" x="29.0132" y="0">E</tspan><tspan class="cls-26" x="34.5195" y="0">4</tspan><tspan class="cls-19" x="38.9658" y="0">,</tspan><tspan class="cls-22" x="41.2246" y="0"> </tspan><tspan class="cls-19" x="43.4478" y="0">E</tspan><tspan class="cls-27" x="48.9541" y="0">5</tspan><tspan class="cls-20" x="71.9312" y="0">INTERM</tspan><tspan x="106.4824" y="0">E</tspan></text>
  <text class="cls-18" transform="translate(112.0229 330.0459)">DIATE<tspan class="cls-21" x="26.9912" y="0"> </tspan><tspan class="cls-22" x="29.2681" y="0">F</tspan><tspan x="34.2466" y="0">AULT</tspan><tspan class="cls-22" x="58.2407" y="0"> </tspan><tspan x="60.4639" y="0">EVENTS</tspan></text>
  <text class="cls-18" transform="translate(0 340.3691)"><tspan class="cls-28">R</tspan><tspan class="cls-22" x="72" y="0">P</tspan><tspan x="76.9785" y="0">RIMARY</tspan><tspan class="cls-21" x="112.9829" y="0"> </tspan><tspan x="115.2598" y="0">FAILURE</tspan><tspan class="cls-21" x="153.2593" y="0"> </tspan><tspan x="155.5361" y="0">OF</tspan><tspan class="cls-21" x="167.041" y="0"> </tspan><tspan x="169.3179" y="0">TIMER</tspan><tspan class="cls-25" x="197.3154" y="0"> </tspan><tspan x="199.5928" y="0">RELAY</tspan></text>
  <text class="cls-18" transform="translate(0 350.7461)"><tspan class="cls-29">S</tspan><tspan class="cls-22" x="71.9922" y="0">P</tspan><tspan x="76.9707" y="0">RIMARY</tspan><tspan class="cls-21" x="112.9751" y="0"> </tspan><tspan x="115.252" y="0">FAILURE</tspan><tspan class="cls-25" x="153.2515" y="0"> </tspan><tspan x="155.5288" y="0">OF</tspan><tspan class="cls-21" x="167.0337" y="0"> </tspan><tspan x="169.3105" y="0">PRESSURE</tspan><tspan class="cls-21" x="213.8271" y="0"> </tspan><tspan x="216.104" y="0">SWITCH</tspan></text>
  <text class="cls-18" transform="translate(0 361.0693)"><tspan class="cls-30">S</tspan><tspan class="cls-31" x="4.9966" y="0">1</tspan><tspan class="cls-30" x="72.0103" y="0">PRIMARY</tspan><tspan class="cls-25" x="112.957" y="0" xml:space="preserve"> F</tspan><tspan class="cls-32" x="120.2666" y="0">A</tspan><tspan class="cls-30" x="126.748" y="0">I</tspan><tspan x="129.7363" y="0">L</tspan><tspan class="cls-33" x="135.2339" y="0">UR</tspan><tspan x="147.7183" y="0">E</tspan><tspan class="cls-21" x="153.2158" y="0"> </tspan><tspan class="cls-30" x="155.4927" y="0">OF</tspan><tspan class="cls-21" x="166.9795" y="0"> </tspan><tspan class="cls-30" x="169.2563" y="0">S</tspan><tspan x="174.2529" y="0">W</tspan><tspan class="cls-30" x="182.7476" y="0">I</tspan><tspan x="185.7358" y="0">T</tspan><tspan class="cls-33" x="191.2334" y="0">CH</tspan><tspan class="cls-21" x="203.7178" y="0"> </tspan><tspan class="cls-30" x="205.9946" y="0">S</tspan><tspan x="210.9912" y="0">1</tspan></text>
  <text class="cls-18" transform="translate(0 371.4463)"><tspan class="cls-30">K</tspan><tspan class="cls-34" x="6.4907" y="0">1</tspan><tspan class="cls-33" x="72.0107" y="0">P</tspan><tspan x="77.0068" y="0">RI</tspan><tspan class="cls-30" x="86.0068" y="0">MA</tspan><tspan x="100.4907" y="0">R</tspan><tspan class="cls-30" x="106.4937" y="0">Y</tspan><tspan class="cls-21" x="112.9844" y="0" xml:space="preserve"> F</tspan><tspan class="cls-35" x="120.2935" y="0">A</tspan><tspan x="126.7754" y="0">IL</tspan><tspan class="cls-33" x="135.27" y="0">U</tspan><tspan x="141.7603" y="0">RE</tspan><tspan class="cls-21" x="153.2607" y="0"> </tspan><tspan class="cls-30" x="155.5376" y="0">OF</tspan><tspan class="cls-21" x="167.0249" y="0"> </tspan><tspan x="169.3018" y="0">REL</tspan><tspan class="cls-33" x="186.2998" y="0">AY</tspan><tspan class="cls-21" x="199.2808" y="0"> </tspan><tspan class="cls-30" x="201.5576" y="0">K</tspan><tspan x="208.0483" y="0">1</tspan></text>
  <text class="cls-18" transform="translate(0 381.7685)"><tspan class="cls-30">K</tspan><tspan class="cls-34" x="6.4907" y="0">2</tspan><tspan class="cls-33" x="72.0107" y="0">P</tspan><tspan x="77.0068" y="0">RI</tspan><tspan class="cls-30" x="86.0068" y="0">MA</tspan><tspan x="100.4907" y="0">R</tspan><tspan class="cls-30" x="106.4937" y="0">Y</tspan><tspan class="cls-21" x="112.9844" y="0" xml:space="preserve"> F</tspan><tspan class="cls-35" x="120.2935" y="0">A</tspan><tspan x="126.7754" y="0">IL</tspan><tspan class="cls-33" x="135.27" y="0">U</tspan><tspan x="141.7603" y="0">RE</tspan><tspan class="cls-21" x="153.2607" y="0"> </tspan><tspan class="cls-30" x="155.5376" y="0">OF</tspan><tspan class="cls-21" x="167.0249" y="0"> </tspan><tspan x="169.3018" y="0">REL</tspan><tspan class="cls-33" x="186.2998" y="0">AY</tspan><tspan class="cls-21" x="199.2808" y="0"> </tspan><tspan class="cls-30" x="201.5576" y="0">K</tspan><tspan x="208.0483" y="0">2</tspan></text>
  <text class="cls-18" transform="translate(0 392.2714)"><tspan class="cls-36">T</tspan><tspan class="cls-32" x="71.9985" y="0">P</tspan><tspan x="76.9858" y="0">RIMARY</tspan><tspan class="cls-21" x="112.9902" y="0" xml:space="preserve"> F</tspan><tspan class="cls-32" x="120.2998" y="0">A</tspan><tspan x="126.7812" y="0">ILURE</tspan><tspan class="cls-21" x="153.2759" y="0"> </tspan><tspan x="155.5527" y="0">OF</tspan><tspan class="cls-21" x="167.0576" y="0"> </tspan><tspan class="cls-37" x="169.3345" y="0">PRESSURE</tspan><tspan class="cls-25" x="213.8511" y="0"> </tspan><tspan x="216.1284" y="0">TANK</tspan></text>
</svg>
