<svg id="Laag_1" data-name="Laag 1" xmlns="http://www.w3.org/2000/svg" width="171.0357" height="146.6279" viewBox="0 0 171.0357 146.6279">
  <defs>
    <style>
      .cls-1 {
        fill: #ccc;
      }

      .cls-11, .cls-15, .cls-2 {
        fill: none;
        stroke: #000;
        stroke-miterlimit: 10;
        stroke-width: 0.199px;
      }

      .cls-10, .cls-16, .cls-3 {
        font-size: 7.173px;
      }

      .cls-12, .cls-16, .cls-3 {
        font-family: TimesNewRomanPSMT, Times New Roman;
      }

      .cls-4 {
        letter-spacing: 0.001em;
      }

      .cls-5 {
        letter-spacing: 0.0001em;
      }

      .cls-6 {
        letter-spacing: 0.327em;
      }

      .cls-7 {
        letter-spacing: 0.001em;
      }

      .cls-8 {
        letter-spacing: 0.328em;
      }

      .cls-9 {
        letter-spacing: 0.326em;
      }

      .cls-10 {
        font-family: TimesNewRomanPS-ItalicMT, Times New Roman;
        font-style: italic;
      }

      .cls-11 {
        stroke-linecap: round;
      }

      .cls-12 {
        font-size: 12.3935px;
      }

      .cls-13 {
        fill: #fff;
      }

      .cls-14, .cls-15 {
        opacity: 0.2;
      }

      .cls-16 {
        letter-spacing: 0.0011em;
      }

      .cls-17 {
        letter-spacing: 0.0001em;
      }
    </style>
  </defs>
  <title>FTPP</title>
  <rect class="cls-1" x="49.0595" y="0.0995" width="80.759" height="11.3575"/>
  <rect class="cls-2" x="49.0595" y="0.0995" width="80.759" height="11.3575"/>
  <text class="cls-3" transform="translate(51.551 7.5712)">Co<tspan class="cls-4" x="8.3706" y="0">mpu</tspan><tspan class="cls-5" x="21.1445" y="0">ter</tspan></text>
  <text class="cls-3" transform="translate(84.7199 7.5712)">syste<tspan class="cls-6" x="14.3457" y="0">m</tspan><tspan x="22.2705" y="0">fa</tspan><tspan class="cls-7" x="27.8438" y="0">ilu</tspan><tspan x="35.4375" y="0">re</tspan></text>
  <path class="cls-1" d="M83.2137,22.24a12.4526,12.4526,0,0,1,6.2254-10.7829A12.4527,12.4527,0,0,1,95.6646,22.24V28.465a12.4522,12.4522,0,0,0-12.4509,0Z"/>
  <path class="cls-2" d="M83.2137,22.24a12.4526,12.4526,0,0,1,6.2254-10.7829A12.4527,12.4527,0,0,1,95.6646,22.24V28.465a12.4522,12.4522,0,0,0-12.4509,0Z"/>
  <rect class="cls-1" x="11.828" y="34.646" width="70.182" height="9.963"/>
  <rect class="cls-2" x="11.828" y="34.646" width="70.182" height="9.963"/>
  <text class="cls-3" transform="translate(14.3195 42.1176)">W</text>
  <text class="cls-3" transform="translate(20.9475 42.1176)">orkstat<tspan class="cls-4" x="19.5225" y="0">i</tspan><tspan class="cls-5" x="21.5225" y="0">o</tspan><tspan class="cls-8" x="25.1094" y="0">n</tspan><tspan class="cls-9" x="31.0483" y="0">1</tspan><tspan x="36.9731" y="0">fa</tspan><tspan class="cls-4" x="42.5459" y="0">ilu</tspan><tspan x="50.1396" y="0">re</tspan></text>
  <path class="cls-1" d="M40.6934,55.3916a12.4527,12.4527,0,0,1,6.2255-10.7829,12.4527,12.4527,0,0,1,6.2255,10.7829v6.2255a12.4524,12.4524,0,0,0-12.451,0Z"/>
  <path class="cls-2" d="M40.6934,55.3916a12.4527,12.4527,0,0,1,6.2255-10.7829,12.4527,12.4527,0,0,1,6.2255,10.7829v6.2255a12.4524,12.4524,0,0,0-12.451,0Z"/>
  <rect class="cls-1" x="96.528" y="34.646" width="70.8625" height="9.963"/>
  <rect class="cls-2" x="96.528" y="34.646" width="70.8625" height="9.963"/>
  <text class="cls-3" transform="translate(99.0188 42.1176)">W</text>
  <text class="cls-3" transform="translate(105.6467 42.1176)">orkstat<tspan class="cls-7" x="19.5225" y="0">i</tspan><tspan x="21.5225" y="0">on</tspan></text>
  <text class="cls-10" transform="translate(139.051 42.1176)">n</text>
  <text class="cls-3" transform="translate(145.5842 42.1176)">fa<tspan class="cls-7" x="5.5723" y="0">ilu</tspan><tspan x="13.166" y="0">re</tspan></text>
  <path class="cls-1" d="M125.7339,55.3916a12.4526,12.4526,0,0,1,6.2254-10.7829,12.4527,12.4527,0,0,1,6.2255,10.7829v6.2255a12.4522,12.4522,0,0,0-12.4509,0Z"/>
  <path class="cls-2" d="M125.7339,55.3916a12.4526,12.4526,0,0,1,6.2254-10.7829,12.4527,12.4527,0,0,1,6.2255,10.7829v6.2255a12.4522,12.4522,0,0,0-12.4509,0Z"/>
  <path class="cls-1" d="M22.1156,135.143l5.315,3.543-5.315,3.543Zm0,0h21.26m-21.26,7.0865h21.26V128.0555h-21.26Z"/>
  <path class="cls-11" d="M22.1156,135.143l5.315,3.543-5.315,3.543Zm0,0h21.26m-21.26,7.0865h21.26V128.0555h-21.26Z"/>
  <circle class="cls-1" cx="7.942" cy="138.6859" r="7.8425" transform="translate(-45.4582 10.4468) rotate(-19.3299)"/>
  <circle class="cls-2" cx="7.942" cy="138.6859" r="7.8425" transform="translate(-45.4582 10.4468) rotate(-19.3299)"/>
  <text class="cls-3" transform="translate(2.6779 141.1351)">NA</text>
  <line class="cls-2" x1="15.7845" y1="138.6859" x2="22.1155" y2="138.6859"/>
  <path class="cls-1" d="M78.809,135.143l5.3151,3.543-5.3151,3.543Zm0,0h21.26m-21.26,7.0865h21.26V128.0555H78.809Z"/>
  <path class="cls-11" d="M78.809,135.143l5.3151,3.543-5.3151,3.543Zm0,0h21.26m-21.26,7.0865h21.26V128.0555H78.809Z"/>
  <path class="cls-1" d="M72.3448,138.6859a7.7093,7.7093,0,1,0-7.709,7.709A7.7091,7.7091,0,0,0,72.3448,138.6859Z"/>
  <path class="cls-2" d="M72.3448,138.6859a7.7093,7.7093,0,1,0-7.709,7.709A7.7091,7.7091,0,0,0,72.3448,138.6859Z"/>
  <text class="cls-3" transform="translate(59.5168 141.1351)">NB</text>
  <line class="cls-2" x1="72.3448" y1="138.6859" x2="78.8088" y2="138.6859"/>
  <text class="cls-12" transform="translate(113.1447 135.6488)">...</text>
  <path class="cls-13" d="M46.919,77.0315h10.63V82.701H46.919Zm-10.63-1.4175H57.549m-21.26,7.087h21.26V68.5275h-21.26Z"/>
  <path class="cls-11" d="M46.919,77.0315h10.63V82.701H46.919Zm-10.63-1.4175H57.549m-21.26,7.087h21.26V68.5275h-21.26Z"/>
  <g>
    <rect class="cls-14" x="36.2889" y="68.5275" width="21.26" height="14.1735"/>
    <rect class="cls-15" x="36.2889" y="68.5275" width="21.26" height="14.1735"/>
  </g>
  <path class="cls-13" d="M75.2655,77.0315h10.63V82.701h-10.63Zm-10.63-1.4175h21.26m-21.26,7.087h21.26V68.5275h-21.26Z"/>
  <path class="cls-11" d="M75.2655,77.0315h10.63V82.701h-10.63Zm-10.63-1.4175h21.26m-21.26,7.087h21.26V68.5275h-21.26Z"/>
  <g>
    <rect class="cls-14" x="64.6357" y="68.5275" width="21.26" height="14.1735"/>
    <rect class="cls-15" x="64.6357" y="68.5275" width="21.26" height="14.1735"/>
  </g>
  <path class="cls-13" d="M18.572,77.0315h10.63V82.701H18.572ZM7.942,75.614h21.26M7.942,82.701h21.26V68.5275H7.942Z"/>
  <path class="cls-11" d="M18.572,77.0315h10.63V82.701H18.572ZM7.942,75.614h21.26M7.942,82.701h21.26V68.5275H7.942Z"/>
  <g>
    <rect class="cls-14" x="7.942" y="68.5275" width="21.26" height="14.1735"/>
    <rect class="cls-15" x="7.942" y="68.5275" width="21.26" height="14.1735"/>
  </g>
  <circle class="cls-1" cx="52.2339" cy="115.2997" r="6.579" transform="translate(-40.1472 28.7657) rotate(-22.5)"/>
  <circle class="cls-2" cx="52.2339" cy="115.2997" r="6.579" transform="translate(-40.1472 28.7657) rotate(-22.5)"/>
  <text class="cls-3" transform="translate(48.5276 117.7489)"><tspan class="cls-4">S</tspan><tspan x="3.9966" y="0">1</tspan></text>
  <path class="cls-1" d="M48.5817,96.8743a6.9778,6.9778,0,1,0-6.9781,6.9781A6.9779,6.9779,0,0,0,48.5817,96.8743Z"/>
  <path class="cls-2" d="M48.5817,96.8743a6.9778,6.9778,0,1,0-6.9781,6.9781A6.9779,6.9779,0,0,0,48.5817,96.8743Z"/>
  <text class="cls-3" transform="translate(37.3615 99.3241)">B1</text>
  <line class="cls-2" x1="41.6038" y1="89.8965" x2="41.6038" y2="82.701"/>
  <circle class="cls-1" cx="69.9507" cy="96.8744" r="7.0375" transform="translate(-31.7475 34.143) rotate(-22.5)"/>
  <circle class="cls-2" cx="69.9507" cy="96.8744" r="7.0375" transform="translate(-31.7475 34.143) rotate(-22.5)"/>
  <text class="cls-3" transform="translate(65.6584 99.3241)">C1</text>
  <line class="cls-2" x1="69.9506" y1="89.8367" x2="69.9506" y2="82.7008"/>
  <path class="cls-1" d="M20.3773,96.8743a7.12,7.12,0,1,0-7.12,7.12A7.12,7.12,0,0,0,20.3773,96.8743Z"/>
  <path class="cls-2" d="M20.3773,96.8743a7.12,7.12,0,1,0-7.12,7.12A7.12,7.12,0,0,0,20.3773,96.8743Z"/>
  <text class="cls-3" transform="translate(8.8694 99.3241)">A1</text>
  <line class="cls-2" x1="13.257" y1="89.754" x2="13.257" y2="82.7011"/>
  <polyline class="cls-2" points="52.234 82.701 52.234 106.796 52.234 108.721"/>
  <polyline class="cls-2" points="80.581 82.701 80.581 106.796 52.234 106.796 52.234 108.721"/>
  <polyline class="cls-2" points="23.887 82.701 23.887 106.796 52.234 106.796 52.234 108.721"/>
  <polyline class="cls-2" points="46.919 68.527 46.919 64.276 46.919 59.949"/>
  <polyline class="cls-2" points="75.266 68.527 75.266 64.276 50.032 64.276 50.032 60.348"/>
  <polyline class="cls-2" points="18.572 68.527 18.572 64.276 43.806 64.276 43.806 60.348"/>
  <polyline class="cls-2" points="46.919 34.646 46.919 31.812 86.326 31.812 86.326 27.196"/>
  <polyline class="cls-2" points="32.745 128.056 32.745 125.221 13.257 125.221 13.257 103.994"/>
  <path class="cls-13" d="M131.959,77.0315h10.63V82.701h-10.63Zm-10.63-1.4175h21.26m-21.26,7.087h21.26V68.5275h-21.26Z"/>
  <path class="cls-11" d="M131.959,77.0315h10.63V82.701h-10.63Zm-10.63-1.4175h21.26m-21.26,7.087h21.26V68.5275h-21.26Z"/>
  <g>
    <rect class="cls-14" x="121.3293" y="68.5275" width="21.26" height="14.1735"/>
    <rect class="cls-15" x="121.3293" y="68.5275" width="21.26" height="14.1735"/>
  </g>
  <path class="cls-13" d="M160.306,77.0315h10.63V82.701h-10.63Zm-10.63-1.4175h21.26m-21.26,7.087h21.26V68.5275h-21.26Z"/>
  <path class="cls-11" d="M160.306,77.0315h10.63V82.701h-10.63Zm-10.63-1.4175h21.26m-21.26,7.087h21.26V68.5275h-21.26Z"/>
  <g>
    <rect class="cls-14" x="149.6761" y="68.5275" width="21.26" height="14.1735"/>
    <rect class="cls-15" x="149.6761" y="68.5275" width="21.26" height="14.1735"/>
  </g>
  <path class="cls-13" d="M103.6125,77.0315h10.63V82.701h-10.63Zm-10.63-1.4175h21.26m-21.26,7.087h21.26V68.5275h-21.26Z"/>
  <path class="cls-11" d="M103.6125,77.0315h10.63V82.701h-10.63Zm-10.63-1.4175h21.26m-21.26,7.087h21.26V68.5275h-21.26Z"/>
  <g>
    <rect class="cls-14" x="92.9825" y="68.5275" width="21.26" height="14.1735"/>
    <rect class="cls-15" x="92.9825" y="68.5275" width="21.26" height="14.1735"/>
  </g>
  <circle class="cls-1" cx="137.2743" cy="115.2997" r="6.725" transform="translate(-33.6739 61.3092) rotate(-22.5)"/>
  <circle class="cls-2" cx="137.2743" cy="115.2997" r="6.725" transform="translate(-33.6739 61.3092) rotate(-22.5)"/>
  <text class="cls-3" transform="translate(133.3713 117.7489)"><tspan class="cls-7">S</tspan><tspan x="3.9961" y="0">n</tspan></text>
  <circle class="cls-1" cx="126.6443" cy="96.8744" r="7.146" transform="translate(-22.3428 153.6745) rotate(-58.2825)"/>
  <circle class="cls-2" cx="126.6443" cy="96.8744" r="7.146" transform="translate(-22.3428 153.6745) rotate(-58.2825)"/>
  <text class="cls-3" transform="translate(122.2063 99.3241)">Bn</text>
  <line class="cls-2" x1="126.6443" y1="89.7283" x2="126.6443" y2="82.7008"/>
  <path class="cls-1" d="M162.1962,96.8743a7.2053,7.2053,0,1,0-7.205,7.2051A7.2049,7.2049,0,0,0,162.1962,96.8743Z"/>
  <path class="cls-2" d="M162.1962,96.8743a7.2053,7.2053,0,1,0-7.205,7.2051A7.2049,7.2049,0,0,0,162.1962,96.8743Z"/>
  <text class="cls-3" transform="translate(150.5031 99.3241)">Cn</text>
  <line class="cls-2" x1="154.9911" y1="89.6691" x2="154.9911" y2="82.7007"/>
  <path class="cls-1" d="M105.5837,96.8743a7.2863,7.2863,0,1,0-7.286,7.2861A7.2859,7.2859,0,0,0,105.5837,96.8743Z"/>
  <path class="cls-2" d="M105.5837,96.8743a7.2863,7.2863,0,1,0-7.286,7.2861A7.2859,7.2859,0,0,0,105.5837,96.8743Z"/>
  <text class="cls-3" transform="translate(93.7131 99.3241)">An</text>
  <line class="cls-2" x1="98.2975" y1="89.5881" x2="98.2975" y2="82.7011"/>
  <polyline class="cls-2" points="137.274 82.701 137.274 106.796 137.274 108.575"/>
  <polyline class="cls-2" points="165.621 82.701 165.621 106.796 137.274 106.796 137.274 108.575"/>
  <polyline class="cls-2" points="108.928 82.701 108.928 106.796 137.275 106.796 137.275 108.575"/>
  <polyline class="cls-2" points="131.959 68.527 131.959 64.276 131.959 59.949"/>
  <polyline class="cls-2" points="160.306 68.527 160.306 64.276 135.072 64.276 135.072 60.348"/>
  <polyline class="cls-2" points="103.612 68.527 103.612 64.276 128.846 64.276 128.846 60.348"/>
  <polyline class="cls-2" points="131.959 34.646 131.959 31.812 92.552 31.812 92.552 27.196"/>
  <polyline class="cls-2" points="32.745 128.056 32.745 125.221 98.297 125.221 98.297 104.16"/>
  <text class="cls-16" transform="translate(86.5129 57.3764)">..<tspan class="cls-17" x="3.6006" y="0">.</tspan></text>
  <line class="cls-2" x1="89.4391" y1="26.7969" x2="89.4391" y2="55.144"/>
</svg>
