<svg id="Laag_1" data-name="Laag 1" xmlns="http://www.w3.org/2000/svg" width="615.8204" height="354.1592" viewBox="0 0 615.8204 354.1592">
  <defs>
    <style>
      .cls-1 {
        fill: #b3b3b3;
      }

      .cls-2 {
        fill: none;
        stroke: #000;
        stroke-miterlimit: 10;
        stroke-width: 0.3985px;
      }
    </style>
  </defs>
  <title>csd</title>
  <rect class="cls-1" x="261.3266" y="0.1992" width="58.3678" height="23.7978"/>
  <rect class="cls-2" x="261.3266" y="0.1992" width="58.3678" height="23.7978"/>
  <g>
    <path d="M273.4956,12.8441a2.5126,2.5126,0,0,1-.9805,2.1089,4.2552,4.2552,0,0,1-2.6621.7563,6.6639,6.6639,0,0,1-2.8017-.4692V14.0912a7.3752,7.3752,0,0,0,1.373.42,7.2327,7.2327,0,0,0,1.4707.1538,2.9687,2.9687,0,0,0,1.7935-.4517,1.4834,1.4834,0,0,0,.6025-1.2573,1.6125,1.6125,0,0,0-.2139-.8721,1.9872,1.9872,0,0,0-.7143-.6269,9.9877,9.9877,0,0,0-1.5239-.6514,4.8593,4.8593,0,0,1-2.0415-1.2119,2.6766,2.6766,0,0,1-.6133-1.8286,2.2753,2.2753,0,0,1,.89-1.8843,3.7,3.7,0,0,1,2.354-.7,6.9356,6.9356,0,0,1,2.8086.56l-.3711,1.0371a6.3464,6.3464,0,0,0-2.4658-.5327,2.3887,2.3887,0,0,0-1.478.4062,1.339,1.339,0,0,0-.5322,1.1279,1.728,1.728,0,0,0,.1962.8721,1.84,1.84,0,0,0,.6617.6235,8.2363,8.2363,0,0,0,1.4258.627,5.6413,5.6413,0,0,1,2.2167,1.2329A2.4251,2.4251,0,0,1,273.4956,12.8441Z"/>
    <path d="M274.1963,7.8919h1.2466l1.6811,4.378a16.54,16.54,0,0,1,.6865,2.1645h.0562q.0908-.3575.3818-1.2221t1.9019-5.32h1.2471l-3.2994,8.7422a4.3621,4.3621,0,0,1-1.1455,1.8384,2.4337,2.4337,0,0,1-1.6079.543,4.6624,4.6624,0,0,1-1.05-.1192v-.9316a4.0439,4.0439,0,0,0,.8614.0845,1.7768,1.7768,0,0,0,1.7094-1.3453l.4273-1.0927Z"/>
    <path d="M287.5967,13.4745a1.9225,1.9225,0,0,1-.7988,1.6533,3.7524,3.7524,0,0,1-2.2417.5815,4.8709,4.8709,0,0,1-2.3814-.4834V14.1473a5.7758,5.7758,0,0,0,1.187.4414,4.96,4.96,0,0,0,1.2227.1607,2.7707,2.7707,0,0,0,1.4009-.2906,1.0011,1.0011,0,0,0,.1015-1.6533,6.1179,6.1179,0,0,0-1.5166-.7529,8.2417,8.2417,0,0,1-1.5234-.6968,2.0789,2.0789,0,0,1-.6724-.6763,1.7584,1.7584,0,0,1-.2207-.9033,1.7236,1.7236,0,0,1,.7632-1.4819,3.56,3.56,0,0,1,2.0947-.5425,6.1265,6.1265,0,0,1,2.4238.5044l-.4135.9453a5.5659,5.5659,0,0,0-2.0943-.4761,2.41,2.41,0,0,0-1.247.2593.8011.8011,0,0,0-.42.7144.87.87,0,0,0,.1577.5254,1.5515,1.5515,0,0,0,.5078.413,11.3279,11.3279,0,0,0,1.3452.5674,5.0285,5.0285,0,0,1,1.8457,1.002A1.7661,1.7661,0,0,1,287.5967,13.4745Z"/>
    <path d="M291.9678,14.7494a3.7484,3.7484,0,0,0,.5957-.0455,3.8219,3.8219,0,0,0,.4551-.0942v.89a2.1294,2.1294,0,0,1-.5567.15,4.2039,4.2039,0,0,1-.6621.0595q-2.2274,0-2.2275-2.3467V8.7953h-1.1v-.56l1.1-.4834.49-1.6392h.6729V7.8919h2.2275v.9034h-2.2275v4.5185a1.5529,1.5529,0,0,0,.3291,1.0645A1.1447,1.1447,0,0,0,291.9678,14.7494Z"/>
    <path d="M297.7959,15.7093a3.5285,3.5285,0,0,1-2.6865-1.0366,4.0156,4.0156,0,0,1-.9839-2.8794,4.4506,4.4506,0,0,1,.9141-2.9487,3.0361,3.0361,0,0,1,2.455-1.0928,2.8951,2.8951,0,0,1,2.2837.9492,3.6363,3.6363,0,0,1,.8408,2.5039v.7359H295.33a3.0419,3.0419,0,0,0,.6831,2.0522,2.3617,2.3617,0,0,0,1.8247.7007,6.1806,6.1806,0,0,0,2.4517-.5186v1.0367a6.1368,6.1368,0,0,1-1.1661.3818A6.5512,6.5512,0,0,1,297.7959,15.7093Zm-.3149-6.9839a1.8976,1.8976,0,0,0-1.4747.6026,2.7745,2.7745,0,0,0-.6479,1.667h4.0137a2.5573,2.5573,0,0,0-.49-1.6846A1.7256,1.7256,0,0,0,297.481,8.7254Z"/>
    <path d="M312.3877,15.5692V10.5746a2.0724,2.0724,0,0,0-.3926-1.3765,1.5184,1.5184,0,0,0-1.2187-.459,1.967,1.967,0,0,0-1.604.6235,2.9637,2.9637,0,0,0-.5186,1.9195v4.2871h-1.1626V10.5746a2.0719,2.0719,0,0,0-.3926-1.3765,1.5269,1.5269,0,0,0-1.2256-.459,1.9,1.9,0,0,0-1.601.6553,3.5456,3.5456,0,0,0-.5078,2.147v4.0278h-1.1626V7.8919h.9458l.1889,1.05h.0562a2.2856,2.2856,0,0,1,.9282-.8755,2.8364,2.8364,0,0,1,1.3413-.3149,2.28,2.28,0,0,1,2.3535,1.3027h.0562a2.4514,2.4514,0,0,1,.9946-.9526,3.0884,3.0884,0,0,1,1.4854-.35,2.5984,2.5984,0,0,1,1.9506.6689,2.9909,2.9909,0,0,1,.648,2.14v5.0088Z"/>
  </g>
  <path class="cls-1" d="M278.06,45.5626A24.9045,24.9045,0,0,1,290.5105,23.997a24.9044,24.9044,0,0,1,12.4508,21.5656V58.0135a24.9017,24.9017,0,0,0-24.9017,0Z"/>
  <path class="cls-2" d="M278.06,45.5626A24.9045,24.9045,0,0,1,290.5105,23.997a24.9044,24.9044,0,0,1,12.4508,21.5656V58.0135a24.9017,24.9017,0,0,0-24.9017,0Z"/>
  <rect class="cls-1" x="63.0853" y="77.2669" width="126.0274" height="45.8287"/>
  <rect class="cls-2" x="63.0853" y="77.2669" width="126.0274" height="45.8287"/>
  <g>
    <path d="M79.84,85.4764a3.3478,3.3478,0,0,0-2.665,1.1245,4.5329,4.5329,0,0,0-.9775,3.0786A4.6225,4.6225,0,0,0,77.14,92.786a3.3491,3.3491,0,0,0,2.6866,1.0967,9.1708,9.1708,0,0,0,2.4443-.3853v1.0435a7.5285,7.5285,0,0,1-2.6265.3994,4.4434,4.4434,0,0,1-3.4922-1.3731,5.6549,5.6549,0,0,1-1.2294-3.9018,6.1541,6.1541,0,0,1,.5922-2.774,4.2482,4.2482,0,0,1,1.709-1.8354,5.1771,5.1771,0,0,1,2.63-.644A6.3428,6.3428,0,0,1,82.67,85l-.5044,1.0225A5.4257,5.4257,0,0,0,79.84,85.4764Z"/>
    <path d="M90.957,90.9544a4.2363,4.2363,0,0,1-.9453,2.9317A3.3311,3.3311,0,0,1,87.3989,94.94a3.4628,3.4628,0,0,1-1.8286-.4834A3.1921,3.1921,0,0,1,84.3374,93.07a4.8318,4.8318,0,0,1-.4341-2.1153,4.2287,4.2287,0,0,1,.9385-2.9248,3.3217,3.3217,0,0,1,2.606-1.0468,3.2478,3.2478,0,0,1,2.5605,1.0717A4.2188,4.2188,0,0,1,90.957,90.9544Zm-5.8491,0a3.6459,3.6459,0,0,0,.5884,2.2417,2.3358,2.3358,0,0,0,3.4643.0035,3.6258,3.6258,0,0,0,.5918-2.2452,3.5678,3.5678,0,0,0-.5918-2.2241,2.0806,2.0806,0,0,0-1.748-.76A2.0469,2.0469,0,0,0,85.69,88.72,3.6075,3.6075,0,0,0,85.1079,90.9544Z"/>
    <path d="M102.7822,94.8V89.8055a2.0722,2.0722,0,0,0-.3926-1.3765,1.5185,1.5185,0,0,0-1.2187-.4589,1.9671,1.9671,0,0,0-1.604.6235,2.9634,2.9634,0,0,0-.5186,1.9194V94.8H97.8857V89.8055a2.0728,2.0728,0,0,0-.3925-1.3765,1.5275,1.5275,0,0,0-1.2256-.4589,1.9006,1.9006,0,0,0-1.6011.6552,3.546,3.546,0,0,0-.5078,2.147V94.8H92.9961V87.1229h.9458l.189,1.05h.0561a2.2856,2.2856,0,0,1,.9282-.8755,2.8355,2.8355,0,0,1,1.3413-.3149A2.28,2.28,0,0,1,98.81,88.2855h.0561a2.4514,2.4514,0,0,1,.9946-.9526,3.0884,3.0884,0,0,1,1.4854-.35,2.5984,2.5984,0,0,1,1.9507.6689,2.9913,2.9913,0,0,1,.6479,2.14V94.8Z"/>
    <path d="M116.1265,94.8V89.8055a2.0728,2.0728,0,0,0-.3926-1.3765,1.5187,1.5187,0,0,0-1.2188-.4589,1.9671,1.9671,0,0,0-1.604.6235,2.9634,2.9634,0,0,0-.5185,1.9194V94.8H111.23V89.8055a2.0728,2.0728,0,0,0-.3926-1.3765,1.5272,1.5272,0,0,0-1.2256-.4589,1.9006,1.9006,0,0,0-1.6011.6552,3.5467,3.5467,0,0,0-.5078,2.147V94.8H106.34V87.1229h.9458l.189,1.05h.0562a2.2849,2.2849,0,0,1,.9282-.8755,2.8353,2.8353,0,0,1,1.3413-.3149,2.28,2.28,0,0,1,2.3535,1.3027h.0561a2.4517,2.4517,0,0,1,.9947-.9526,3.088,3.088,0,0,1,1.4853-.35,2.5981,2.5981,0,0,1,1.9507.6689,2.9913,2.9913,0,0,1,.648,2.14V94.8Z"/>
    <path d="M126.3115,90.9544a4.2363,4.2363,0,0,1-.9453,2.9317,3.3313,3.3313,0,0,1-2.6128,1.0542,3.4628,3.4628,0,0,1-1.8286-.4834,3.1915,3.1915,0,0,1-1.2329-1.3872,4.83,4.83,0,0,1-.4341-2.1153,4.2287,4.2287,0,0,1,.9385-2.9248,3.3216,3.3216,0,0,1,2.6059-1.0468,3.2479,3.2479,0,0,1,2.5606,1.0717A4.2188,4.2188,0,0,1,126.3115,90.9544Zm-5.8491,0a3.6459,3.6459,0,0,0,.5884,2.2417,2.3358,2.3358,0,0,0,3.4643.0035,3.6258,3.6258,0,0,0,.5918-2.2452,3.5678,3.5678,0,0,0-.5918-2.2241,2.0806,2.0806,0,0,0-1.748-.76,2.0473,2.0473,0,0,0-1.7232.7495A3.6082,3.6082,0,0,0,120.4624,90.9544Z"/>
    <path d="M133.604,94.8V89.8338a2.004,2.004,0,0,0-.4277-1.4013,1.74,1.74,0,0,0-1.3379-.4624,2.2057,2.2057,0,0,0-1.7652.6518,3.2885,3.2885,0,0,0-.5605,2.15V94.8H128.35V87.1229h.9458l.189,1.05h.0561a2.3774,2.3774,0,0,1,1.0015-.8789,3.2587,3.2587,0,0,1,1.436-.3115,2.9139,2.9139,0,0,1,2.0874.6689,2.8452,2.8452,0,0,1,.7007,2.14V94.8Z"/>
    <path d="M143.94,94.94a3.2768,3.2768,0,0,1-2.5816-1.0264,4.22,4.22,0,0,1-.9141-2.9033,4.3491,4.3491,0,0,1,.9283-2.9771,3.3407,3.3407,0,0,1,2.644-1.0507,5.2341,5.2341,0,0,1,1.1069.1191,3.6372,3.6372,0,0,1,.8687.28l-.3574.9878a5.456,5.456,0,0,0-.84-.2554,3.7438,3.7438,0,0,0-.8056-.1016q-2.34,0-2.34,2.9839a3.5514,3.5514,0,0,0,.5713,2.1714,1.9858,1.9858,0,0,0,1.6914.7569,5.1655,5.1655,0,0,0,1.9683-.4136v1.03A4.1947,4.1947,0,0,1,143.94,94.94Z"/>
    <path d="M152.4219,94.8l-.231-1.0927h-.0561a3.228,3.228,0,0,1-1.1455.977,3.49,3.49,0,0,1-1.4253.2559,2.564,2.564,0,0,1-1.79-.5884,2.1461,2.1461,0,0,1-.6479-1.6743q0-2.3254,3.7192-2.4375l1.3032-.042v-.4766a1.9485,1.9485,0,0,0-.3886-1.3344,1.6,1.6,0,0,0-1.2437-.4307,5.0606,5.0606,0,0,0-2.1714.5884l-.3574-.89a5.4571,5.4571,0,0,1,1.2436-.4834,5.3847,5.3847,0,0,1,1.3555-.1753,2.9248,2.9248,0,0,1,2.0347.6094,2.5449,2.5449,0,0,1,.6621,1.9546V94.8Zm-2.627-.82a2.3609,2.3609,0,0,0,1.7061-.5952,2.2031,2.2031,0,0,0,.62-1.667v-.6938l-1.1626.0493a4.2316,4.2316,0,0,0-2,.4306,1.2994,1.2994,0,0,0-.6128,1.1875,1.1958,1.1958,0,0,0,.3819.96A1.5822,1.5822,0,0,0,149.7949,93.98Z"/>
    <path d="M156.772,87.1229v4.98a2.0048,2.0048,0,0,0,.4272,1.4008,1.7411,1.7411,0,0,0,1.3379.4624,2.183,2.183,0,0,0,1.7617-.6586,3.3193,3.3193,0,0,0,.5572-2.15V87.1229h1.1626V94.8h-.9595l-.168-1.03h-.0635a2.3124,2.3124,0,0,1-.9912.8686,3.3317,3.3317,0,0,1-1.4463.3013,2.9346,2.9346,0,0,1-2.0981-.6655,2.8313,2.8313,0,0,1-.6968-2.1294V87.1229Z"/>
    <path d="M169.4375,92.7054a1.9224,1.9224,0,0,1-.7988,1.6533,3.7524,3.7524,0,0,1-2.2417.5816,4.8723,4.8723,0,0,1-2.3814-.4834V93.3783a5.7758,5.7758,0,0,0,1.187.4414,4.96,4.96,0,0,0,1.2227.1606,2.7719,2.7719,0,0,0,1.4009-.29,1.0011,1.0011,0,0,0,.1015-1.6533,6.1189,6.1189,0,0,0-1.5166-.753,8.2461,8.2461,0,0,1-1.5234-.6967,2.0808,2.0808,0,0,1-.6724-.6763,1.7586,1.7586,0,0,1-.2207-.9033,1.7238,1.7238,0,0,1,.7632-1.482,3.56,3.56,0,0,1,2.0947-.5424,6.1256,6.1256,0,0,1,2.4239.5044l-.4136.9453a5.5659,5.5659,0,0,0-2.0942-.4761,2.409,2.409,0,0,0-1.2471.2593.8008.8008,0,0,0-.42.7143.87.87,0,0,0,.1577.5254,1.554,1.554,0,0,0,.5078.4131,11.3453,11.3453,0,0,0,1.3452.5674,5.0263,5.0263,0,0,1,1.8457,1.0019A1.7663,1.7663,0,0,1,169.4375,92.7054Z"/>
    <path d="M174.5718,94.94a3.5285,3.5285,0,0,1-2.6865-1.0366,4.0156,4.0156,0,0,1-.9839-2.8794,4.4513,4.4513,0,0,1,.914-2.9488,3.0364,3.0364,0,0,1,2.4551-1.0927,2.8952,2.8952,0,0,1,2.2837.9492,3.6368,3.6368,0,0,1,.8408,2.5039v.7358h-5.289a3.0414,3.0414,0,0,0,.6831,2.0523,2.3617,2.3617,0,0,0,1.8247.7007,6.18,6.18,0,0,0,2.4516-.5186v1.0366a6.1273,6.1273,0,0,1-1.166.3819A6.5519,6.5519,0,0,1,174.5718,94.94Zm-.315-6.9839a1.8975,1.8975,0,0,0-1.4746.6025,2.7751,2.7751,0,0,0-.6479,1.667h4.0136a2.557,2.557,0,0,0-.49-1.6845A1.7254,1.7254,0,0,0,174.2568,87.9564Z"/>
  </g>
  <g>
    <path d="M95.77,110.6385a1.9224,1.9224,0,0,1-.7988,1.6533,3.7522,3.7522,0,0,1-2.2417.5816,4.8711,4.8711,0,0,1-2.3814-.4834v-1.0786a5.7745,5.7745,0,0,0,1.1871.4414,4.9581,4.9581,0,0,0,1.2226.1606,2.7719,2.7719,0,0,0,1.4009-.29A1.0012,1.0012,0,0,0,94.26,109.97a6.1227,6.1227,0,0,0-1.5166-.753A8.2445,8.2445,0,0,1,91.22,108.52a2.0794,2.0794,0,0,1-.6723-.6763,1.7576,1.7576,0,0,1-.2208-.9033,1.7238,1.7238,0,0,1,.7632-1.482,3.5606,3.5606,0,0,1,2.0948-.5424,6.1255,6.1255,0,0,1,2.4238.5044l-.4136.9453a5.5654,5.5654,0,0,0-2.0942-.4761,2.409,2.409,0,0,0-1.2471.2593.8008.8008,0,0,0-.42.7143.87.87,0,0,0,.1577.5254,1.5527,1.5527,0,0,0,.5078.4131,11.353,11.353,0,0,0,1.3452.5674,5.0263,5.0263,0,0,1,1.8457,1.0019A1.7659,1.7659,0,0,1,95.77,110.6385Z"/>
    <path d="M100.9043,112.8734a3.5285,3.5285,0,0,1-2.6865-1.0366,4.0156,4.0156,0,0,1-.9839-2.8794,4.4515,4.4515,0,0,1,.914-2.9488,3.0364,3.0364,0,0,1,2.4551-1.0927,2.8951,2.8951,0,0,1,2.2837.9492,3.6363,3.6363,0,0,1,.8408,2.5039v.7358h-5.289a3.042,3.042,0,0,0,.6831,2.0523,2.3617,2.3617,0,0,0,1.8247.7007,6.18,6.18,0,0,0,2.4516-.5186v1.0366a6.1273,6.1273,0,0,1-1.166.3819A6.5512,6.5512,0,0,1,100.9043,112.8734Zm-.3149-6.9839a1.8979,1.8979,0,0,0-1.4747.6025,2.7751,2.7751,0,0,0-.6479,1.667h4.0137a2.5571,2.5571,0,0,0-.49-1.6845A1.7253,1.7253,0,0,0,100.5894,105.89Z"/>
    <path d="M110.4312,112.7332l-.231-1.0927h-.0562a3.2271,3.2271,0,0,1-1.1455.977,3.4891,3.4891,0,0,1-1.4253.2559,2.5637,2.5637,0,0,1-1.79-.5884,2.1461,2.1461,0,0,1-.648-1.6743q0-2.3254,3.7193-2.4375l1.3032-.042v-.4766a1.948,1.948,0,0,0-.3887-1.3344,1.6,1.6,0,0,0-1.2436-.4307,5.06,5.06,0,0,0-2.1714.5884l-.3574-.89a5.4571,5.4571,0,0,1,1.2436-.4834,5.3847,5.3847,0,0,1,1.3555-.1753,2.9249,2.9249,0,0,1,2.0347.6094,2.5449,2.5449,0,0,1,.6621,1.9546v5.24Zm-2.627-.82a2.3609,2.3609,0,0,0,1.7061-.5952,2.2034,2.2034,0,0,0,.62-1.667v-.6938l-1.1626.0493a4.2329,4.2329,0,0,0-2,.4306,1.2994,1.2994,0,0,0-.6128,1.1875,1.1957,1.1957,0,0,0,.3818.96A1.5826,1.5826,0,0,0,107.8042,111.9134Z"/>
    <path d="M114.8511,112.7332h-1.1626v-10.9h1.1626Z"/>
    <path d="M124.479,105.9593h-1.9546v6.7739h-1.1626v-6.7739h-1.373v-.5254l1.373-.42v-.4272q0-2.8294,2.4727-2.83a5.0843,5.0843,0,0,1,1.4292.2451l-.3013.9316a3.84,3.84,0,0,0-1.1489-.2172,1.1189,1.1189,0,0,0-.9737.4379,2.4436,2.4436,0,0,0-.3154,1.4043v.4976h1.9546Z"/>
    <path d="M130.6011,112.7332l-.231-1.0927h-.0561a3.228,3.228,0,0,1-1.1455.977,3.49,3.49,0,0,1-1.4253.2559,2.564,2.564,0,0,1-1.79-.5884,2.1461,2.1461,0,0,1-.6479-1.6743q0-2.3254,3.7192-2.4375l1.3032-.042v-.4766a1.9485,1.9485,0,0,0-.3886-1.3344,1.6,1.6,0,0,0-1.2437-.4307,5.0606,5.0606,0,0,0-2.1714.5884l-.3574-.89a5.4571,5.4571,0,0,1,1.2436-.4834,5.3847,5.3847,0,0,1,1.3555-.1753,2.9248,2.9248,0,0,1,2.0347.6094,2.5449,2.5449,0,0,1,.6621,1.9546v5.24Zm-2.627-.82a2.3609,2.3609,0,0,0,1.7061-.5952,2.2031,2.2031,0,0,0,.62-1.667v-.6938l-1.1626.0493a4.2329,4.2329,0,0,0-2,.4306,1.2994,1.2994,0,0,0-.6128,1.1875,1.1958,1.1958,0,0,0,.3819.96A1.5822,1.5822,0,0,0,127.9741,111.9134Z"/>
    <path d="M133.76,102.9754a.772.772,0,0,1,.1962-.5849.7263.7263,0,0,1,.9737.0034.759.759,0,0,1,.2031.5815.7717.7717,0,0,1-.2031.585.68.68,0,0,1-.4834.1924.6706.6706,0,0,1-.49-.1924A.787.787,0,0,1,133.76,102.9754Zm1.2607,9.7578h-1.1626V105.056h1.1626Z"/>
    <path d="M138.65,112.7332h-1.1626v-10.9H138.65Z"/>
    <path d="M142.2085,105.056v4.9805a2.0048,2.0048,0,0,0,.4272,1.4008,1.7408,1.7408,0,0,0,1.3379.4625,2.1831,2.1831,0,0,0,1.7618-.6587,3.32,3.32,0,0,0,.5571-2.15V105.056h1.1626v7.6772h-.9595l-.168-1.03h-.0634a2.3127,2.3127,0,0,1-.9913.8686,3.3312,3.3312,0,0,1-1.4462.3013,2.9349,2.9349,0,0,1-2.0982-.6655,2.8317,2.8317,0,0,1-.6968-2.1294V105.056Z"/>
    <path d="M153.4233,104.9159a4.5423,4.5423,0,0,1,.9175.0839l-.1611,1.0787a3.9683,3.9683,0,0,0-.84-.105,2.0463,2.0463,0,0,0-1.5938.7563,2.7589,2.7589,0,0,0-.6621,1.8843v4.1191h-1.1626V105.056h.96l.1333,1.4219h.0561a3.3744,3.3744,0,0,1,1.03-1.1558A2.3159,2.3159,0,0,1,153.4233,104.9159Z"/>
    <path d="M159.0205,112.8734a3.5285,3.5285,0,0,1-2.6865-1.0366,4.0156,4.0156,0,0,1-.9839-2.8794,4.451,4.451,0,0,1,.9141-2.9488,3.036,3.036,0,0,1,2.455-1.0927,2.8949,2.8949,0,0,1,2.2837.9492,3.6363,3.6363,0,0,1,.8409,2.5039v.7358h-5.2891a3.042,3.042,0,0,0,.6831,2.0523,2.3617,2.3617,0,0,0,1.8247.7007,6.1806,6.1806,0,0,0,2.4517-.5186v1.0366a6.13,6.13,0,0,1-1.1661.3819A6.5512,6.5512,0,0,1,159.0205,112.8734Zm-.3149-6.9839a1.8975,1.8975,0,0,0-1.4746.6025,2.7751,2.7751,0,0,0-.648,1.667h4.0137a2.5571,2.5571,0,0,0-.49-1.6845A1.7253,1.7253,0,0,0,158.7056,105.89Z"/>
  </g>
  <path class="cls-1" d="M112.4927,136.7019a13.6063,13.6063,0,1,1,27.2125,0V157.111H112.4927Z"/>
  <path class="cls-2" d="M112.4927,136.7019a13.6063,13.6063,0,1,1,27.2125,0V157.111H112.4927Z"/>
  <rect class="cls-1" x="395.7191" y="77.2669" width="118.4058" height="45.8287"/>
  <rect class="cls-2" x="395.7191" y="77.2669" width="118.4058" height="45.8287"/>
  <g>
    <path d="M433.0093,92.075a2.512,2.512,0,0,1-.9815,2.1089,4.2531,4.2531,0,0,1-2.6611.7564,6.6688,6.6688,0,0,1-2.8027-.4693V93.3221a7.3909,7.3909,0,0,0,1.373.42,7.2353,7.2353,0,0,0,1.4717.1538,2.9669,2.9669,0,0,0,1.793-.4516,1.4835,1.4835,0,0,0,.6025-1.2574,1.6122,1.6122,0,0,0-.2139-.872,1.9842,1.9842,0,0,0-.7148-.627,9.9915,9.9915,0,0,0-1.5234-.6513,4.8718,4.8718,0,0,1-2.042-1.212,2.6782,2.6782,0,0,1-.6123-1.8286,2.2724,2.2724,0,0,1,.89-1.8842,3.6961,3.6961,0,0,1,2.3535-.7,6.9372,6.9372,0,0,1,2.8086.56l-.3711,1.0371a6.3482,6.3482,0,0,0-2.4658-.5327,2.3871,2.3871,0,0,0-1.4775.4063,1.3384,1.3384,0,0,0-.5332,1.1279,1.728,1.728,0,0,0,.1962.8721,1.8473,1.8473,0,0,0,.6622.6235,8.2571,8.2571,0,0,0,1.4257.6269,5.6423,5.6423,0,0,1,2.2168,1.233A2.4232,2.4232,0,0,1,433.0093,92.075Z"/>
    <path d="M438.1724,94.94a3.5289,3.5289,0,0,1-2.6866-1.0366,4.0141,4.0141,0,0,1-.9843-2.8794,4.4513,4.4513,0,0,1,.914-2.9488,3.0364,3.0364,0,0,1,2.4551-1.0927,2.897,2.897,0,0,1,2.2842.9492,3.6406,3.6406,0,0,1,.84,2.5039v.7358h-5.2881a3.0444,3.0444,0,0,0,.6827,2.0523,2.3607,2.3607,0,0,0,1.8252.7007,6.18,6.18,0,0,0,2.4511-.5186v1.0366a6.15,6.15,0,0,1-1.166.3819A6.5569,6.5569,0,0,1,438.1724,94.94Zm-.3155-6.9839a1.8982,1.8982,0,0,0-1.4746.6025,2.7722,2.7722,0,0,0-.6484,1.667h4.0146a2.5543,2.5543,0,0,0-.4912-1.6845A1.7237,1.7237,0,0,0,437.8569,87.9564Z"/>
    <path d="M447.6978,94.8l-.2315-1.0927h-.0557a3.2271,3.2271,0,0,1-1.1455.977,3.49,3.49,0,0,1-1.4248.2559,2.5642,2.5642,0,0,1-1.79-.5884,2.1446,2.1446,0,0,1-.6484-1.6743q0-2.3254,3.72-2.4375l1.3027-.042v-.4766a1.9429,1.9429,0,0,0-.3887-1.3344,1.5982,1.5982,0,0,0-1.2431-.4307,5.0658,5.0658,0,0,0-2.1719.5884l-.3564-.89a5.444,5.444,0,0,1,1.2431-.4834,5.3847,5.3847,0,0,1,1.3555-.1753,2.926,2.926,0,0,1,2.0351.6094,2.5481,2.5481,0,0,1,.6612,1.9546V94.8Zm-2.627-.82a2.3609,2.3609,0,0,0,1.7061-.5952,2.2037,2.2037,0,0,0,.62-1.667v-.6938l-1.1631.0493a4.23,4.23,0,0,0-2,.4306,1.3008,1.3008,0,0,0-.6133,1.1875,1.1989,1.1989,0,0,0,.3818.96A1.5858,1.5858,0,0,0,445.0708,93.98Z"/>
    <path d="M452.1187,94.8h-1.1631V83.9h1.1631Z"/>
    <path d="M459.5366,92.7054a1.9236,1.9236,0,0,1-.7988,1.6533,3.7515,3.7515,0,0,1-2.2412.5816,4.8731,4.8731,0,0,1-2.3819-.4834V93.3783a5.78,5.78,0,0,0,1.1875.4414,4.9517,4.9517,0,0,0,1.2217.1606,2.7739,2.7739,0,0,0,1.4014-.29,1.0012,1.0012,0,0,0,.1016-1.6533,6.1132,6.1132,0,0,0-1.5166-.753,8.2124,8.2124,0,0,1-1.5235-.6967,2.0823,2.0823,0,0,1-.6728-.6763,1.7675,1.7675,0,0,1-.2207-.9033,1.7241,1.7241,0,0,1,.7636-1.482,3.5585,3.5585,0,0,1,2.0948-.5424,6.1255,6.1255,0,0,1,2.4238.5044l-.4131.9453a5.5657,5.5657,0,0,0-2.0947-.4761,2.41,2.41,0,0,0-1.2471.2593.8.8,0,0,0-.42.7143.8664.8664,0,0,0,.1572.5254,1.5594,1.5594,0,0,0,.5078.4131,11.3343,11.3343,0,0,0,1.3447.5674,5.019,5.019,0,0,1,1.8458,1.0019A1.7645,1.7645,0,0,1,459.5366,92.7054Z"/>
    <path d="M468.604,88.0262H466.65V94.8h-1.1631V88.0262h-1.373v-.5254l1.373-.42v-.4272q0-2.8294,2.4727-2.83a5.0783,5.0783,0,0,1,1.4287.2451L469.0874,85a3.8381,3.8381,0,0,0-1.1484-.2172,1.1208,1.1208,0,0,0-.9746.4379,2.4436,2.4436,0,0,0-.3145,1.4043v.4976h1.9541Z"/>
    <path d="M474.7261,94.8l-.2315-1.0927h-.0556a3.228,3.228,0,0,1-1.1455.977,3.4905,3.4905,0,0,1-1.4248.2559,2.5645,2.5645,0,0,1-1.79-.5884,2.1446,2.1446,0,0,1-.6484-1.6743q0-2.3254,3.72-2.4375l1.3027-.042v-.4766a1.9434,1.9434,0,0,0-.3886-1.3344,1.5986,1.5986,0,0,0-1.2432-.4307,5.0661,5.0661,0,0,0-2.1719.5884l-.3564-.89a5.444,5.444,0,0,1,1.2431-.4834,5.3847,5.3847,0,0,1,1.3555-.1753,2.9262,2.9262,0,0,1,2.0352.6094,2.5484,2.5484,0,0,1,.6611,1.9546V94.8Zm-2.627-.82a2.3608,2.3608,0,0,0,1.7061-.5952,2.2033,2.2033,0,0,0,.62-1.667v-.6938l-1.1631.0493a4.23,4.23,0,0,0-2,.4306,1.3008,1.3008,0,0,0-.6133,1.1875,1.199,1.199,0,0,0,.3819.96A1.5854,1.5854,0,0,0,472.0991,93.98Z"/>
    <path d="M477.8853,85.0423a.772.772,0,0,1,.1962-.5849.7263.7263,0,0,1,.9737.0034.7571.7571,0,0,1,.2031.5815.77.77,0,0,1-.2031.585.68.68,0,0,1-.4834.1924.6714.6714,0,0,1-.49-.1924A.787.787,0,0,1,477.8853,85.0423ZM479.146,94.8h-1.1631V87.1229h1.1631Z"/>
    <path d="M482.7749,94.8h-1.1631V83.9h1.1631Z"/>
  </g>
  <g>
    <path d="M407.811,102.9754a.772.772,0,0,1,.1963-.5849.7263.7263,0,0,1,.9737.0034.759.759,0,0,1,.2031.5815.7717.7717,0,0,1-.2031.585.68.68,0,0,1-.4834.1924.6706.6706,0,0,1-.49-.1924A.7871.7871,0,0,1,407.811,102.9754Zm1.2608,9.7578h-1.1626V105.056h1.1626Z"/>
    <path d="M416.7915,112.7332v-4.9663a2.004,2.004,0,0,0-.4277-1.4013,1.74,1.74,0,0,0-1.3379-.4624,2.2061,2.2061,0,0,0-1.7652.6518,3.2885,3.2885,0,0,0-.56,2.15v4.0278h-1.1626V105.056h.9458l.189,1.05h.0561a2.3774,2.3774,0,0,1,1.0015-.8789,3.2587,3.2587,0,0,1,1.436-.3115,2.9139,2.9139,0,0,1,2.0874.6689,2.8452,2.8452,0,0,1,.7007,2.14v5.0087Z"/>
    <path d="M425.5688,111.7035h-.0634a2.7327,2.7327,0,0,1-2.41,1.17,2.85,2.85,0,0,1-2.3428-1.03,4.5326,4.5326,0,0,1-.8369-2.9282,4.6078,4.6078,0,0,1,.8408-2.9488,2.8276,2.8276,0,0,1,2.3389-1.0507,2.7918,2.7918,0,0,1,2.3965,1.1347h.0908l-.0488-.5537-.0283-.539v-3.1246h1.1631v10.9h-.9463Zm-2.3261.1963a2.1164,2.1164,0,0,0,1.7265-.648,3.273,3.273,0,0,0,.5362-2.0913v-.2451a3.85,3.85,0,0,0-.543-2.3291,2.062,2.062,0,0,0-1.7334-.6968,1.7793,1.7793,0,0,0-1.5654.7949,3.9506,3.9506,0,0,0-.543,2.2451,3.7931,3.7931,0,0,0,.5391,2.2207A1.8271,1.8271,0,0,0,423.2427,111.9Z"/>
    <path d="M432.3774,112.8734a3.5288,3.5288,0,0,1-2.6865-1.0366,4.0141,4.0141,0,0,1-.9844-2.8794,4.451,4.451,0,0,1,.9141-2.9488,3.0362,3.0362,0,0,1,2.4551-1.0927,2.897,2.897,0,0,1,2.2842.9492,3.6411,3.6411,0,0,1,.84,2.5039v.7358h-5.2881a3.0449,3.0449,0,0,0,.6826,2.0523,2.361,2.361,0,0,0,1.8252.7007,6.18,6.18,0,0,0,2.4512-.5186v1.0366a6.15,6.15,0,0,1-1.166.3819A6.5573,6.5573,0,0,1,432.3774,112.8734Zm-.3154-6.9839a1.8982,1.8982,0,0,0-1.4746.6025,2.7722,2.7722,0,0,0-.6484,1.667h4.0146a2.5543,2.5543,0,0,0-.4912-1.6845A1.7238,1.7238,0,0,0,432.062,105.89Z"/>
    <path d="M440.7554,112.8734a3.3247,3.3247,0,0,1-1.37-.2769,2.5709,2.5709,0,0,1-1.04-.851h-.084a10.1719,10.1719,0,0,1,.084,1.2749V116.18h-1.1631V105.056h.9463l.1612,1.05h.0556a2.7026,2.7026,0,0,1,1.044-.9107,3.1765,3.1765,0,0,1,1.3662-.28,2.8357,2.8357,0,0,1,2.3564,1.0434,5.5533,5.5533,0,0,1-.0137,5.8667A2.8415,2.8415,0,0,1,440.7554,112.8734Zm-.168-6.97a2.0583,2.0583,0,0,0-1.7021.6518,3.3521,3.3521,0,0,0-.54,2.0733v.2592a3.8349,3.8349,0,0,0,.54,2.315,2.049,2.049,0,0,0,1.7294.6973,1.7991,1.7991,0,0,0,1.5586-.8057,3.82,3.82,0,0,0,.5645-2.2207,3.6776,3.6776,0,0,0-.5645-2.2031A1.8539,1.8539,0,0,0,440.5874,105.9032Z"/>
    <path d="M449.2183,112.8734a3.5289,3.5289,0,0,1-2.6866-1.0366,4.0141,4.0141,0,0,1-.9843-2.8794,4.4515,4.4515,0,0,1,.914-2.9488,3.0364,3.0364,0,0,1,2.4551-1.0927,2.897,2.897,0,0,1,2.2842.9492,3.6406,3.6406,0,0,1,.84,2.5039v.7358h-5.2881a3.0444,3.0444,0,0,0,.6827,2.0523,2.3607,2.3607,0,0,0,1.8252.7007,6.18,6.18,0,0,0,2.4511-.5186v1.0366a6.15,6.15,0,0,1-1.166.3819A6.5569,6.5569,0,0,1,449.2183,112.8734Zm-.3155-6.9839a1.8982,1.8982,0,0,0-1.4746.6025,2.7722,2.7722,0,0,0-.6484,1.667h4.0146a2.5543,2.5543,0,0,0-.4912-1.6845A1.7237,1.7237,0,0,0,448.9028,105.89Z"/>
    <path d="M459.2759,112.7332v-4.9663a2.0082,2.0082,0,0,0-.4268-1.4013,1.7423,1.7423,0,0,0-1.3379-.4624,2.2068,2.2068,0,0,0-1.7656.6518,3.2856,3.2856,0,0,0-.5605,2.15v4.0278H454.022V105.056h.9463l.1894,1.05h.0557a2.3785,2.3785,0,0,1,1.0019-.8789,3.2582,3.2582,0,0,1,1.4356-.3115,2.9169,2.9169,0,0,1,2.0879.6689,2.8471,2.8471,0,0,1,.7,2.14v5.0087Z"/>
    <path d="M468.0542,111.7035h-.0635a2.7325,2.7325,0,0,1-2.41,1.17,2.85,2.85,0,0,1-2.3428-1.03,4.5356,4.5356,0,0,1-.8369-2.9282,4.6078,4.6078,0,0,1,.8408-2.9488,2.8273,2.8273,0,0,1,2.3389-1.0507,2.7918,2.7918,0,0,1,2.3965,1.1347h.0908l-.0489-.5537-.0283-.539v-3.1246h1.1631v10.9h-.9463Zm-2.3262.1963a2.1165,2.1165,0,0,0,1.7266-.648,3.2737,3.2737,0,0,0,.5361-2.0913v-.2451a3.85,3.85,0,0,0-.5429-2.3291,2.0622,2.0622,0,0,0-1.7334-.6968,1.78,1.78,0,0,0-1.5655.7949,3.9507,3.9507,0,0,0-.5429,2.2451,3.7931,3.7931,0,0,0,.539,2.2207A1.8272,1.8272,0,0,0,465.728,111.9Z"/>
    <path d="M474.8628,112.8734a3.5285,3.5285,0,0,1-2.6865-1.0366,4.0137,4.0137,0,0,1-.9844-2.8794,4.451,4.451,0,0,1,.9141-2.9488,3.036,3.036,0,0,1,2.455-1.0927,2.8968,2.8968,0,0,1,2.2842.9492,3.6407,3.6407,0,0,1,.84,2.5039v.7358H472.397a3.0439,3.0439,0,0,0,.6826,2.0523,2.3607,2.3607,0,0,0,1.8252.7007,6.18,6.18,0,0,0,2.4512-.5186v1.0366a6.1511,6.1511,0,0,1-1.1661.3819A6.5556,6.5556,0,0,1,474.8628,112.8734Zm-.3154-6.9839a1.8982,1.8982,0,0,0-1.4746.6025,2.7723,2.7723,0,0,0-.6485,1.667h4.0147a2.5549,2.5549,0,0,0-.4912-1.6845A1.7239,1.7239,0,0,0,474.5474,105.89Z"/>
    <path d="M484.9214,112.7332v-4.9663a2.0082,2.0082,0,0,0-.4268-1.4013,1.7423,1.7423,0,0,0-1.3379-.4624,2.2068,2.2068,0,0,0-1.7656.6518,3.2856,3.2856,0,0,0-.56,2.15v4.0278h-1.1631V105.056h.9463l.1894,1.05h.0557a2.3791,2.3791,0,0,1,1.0019-.8789,3.2582,3.2582,0,0,1,1.4356-.3115,2.9169,2.9169,0,0,1,2.0879.6689,2.8471,2.8471,0,0,1,.7,2.14v5.0087Z"/>
    <path d="M490.9536,111.9134a3.74,3.74,0,0,0,.5947-.0454,3.8832,3.8832,0,0,0,.4561-.0942v.89a2.1184,2.1184,0,0,1-.5576.15,4.1916,4.1916,0,0,1-.6612.06q-2.228,0-2.2275-2.3467v-4.5674h-1.1006v-.56l1.1006-.4834.49-1.6392h.6719v1.7793h2.2276v.9033H489.72v4.5186a1.558,1.558,0,0,0,.3291,1.0644A1.1472,1.1472,0,0,0,490.9536,111.9134Z"/>
    <path d="M494.7007,112.7332h-1.1631v-10.9h1.1631Z"/>
    <path d="M495.9478,105.056h1.247l1.6817,4.3779a16.8091,16.8091,0,0,1,.6865,2.1646h.0557q.0907-.3575.3818-1.2222t1.9014-5.32h1.247l-3.2988,8.7422a4.364,4.364,0,0,1-1.1455,1.8384,2.4334,2.4334,0,0,1-1.6074.5429,4.6634,4.6634,0,0,1-1.0508-.1191v-.9316a4.046,4.046,0,0,0,.8613.0844,1.7758,1.7758,0,0,0,1.709-1.3452l.4277-1.0928Z"/>
  </g>
  <path class="cls-1" d="M441.3158,136.7019a13.6063,13.6063,0,1,1,27.2125,0V157.111H441.3158Z"/>
  <path class="cls-2" d="M441.3158,136.7019a13.6063,13.6063,0,1,1,27.2125,0V157.111H441.3158Z"/>
  <polyline class="cls-2" points="286.36 55.03 286.36 66.368 126.099 66.368 126.099 77.267"/>
  <polyline class="cls-2" points="294.661 55.03 294.661 66.368 454.922 66.368 454.922 77.267"/>
  <rect class="cls-1" x="0.1992" y="175.0164" width="121.404" height="45.8287"/>
  <rect class="cls-2" x="0.1992" y="175.0164" width="121.404" height="45.8287"/>
  <g>
    <path d="M16.9546,183.2245a3.3477,3.3477,0,0,0-2.665,1.1245,4.5328,4.5328,0,0,0-.9776,3.0786,4.6223,4.6223,0,0,0,.9424,3.1064,3.3484,3.3484,0,0,0,2.6865,1.0967,9.171,9.171,0,0,0,2.4444-.3852v1.0434a7.5285,7.5285,0,0,1-2.6265.3994,4.4435,4.4435,0,0,1-3.4922-1.373,5.6552,5.6552,0,0,1-1.2295-3.9019,6.1534,6.1534,0,0,1,.5923-2.7739,4.2479,4.2479,0,0,1,1.709-1.8355,5.1768,5.1768,0,0,1,2.63-.644,6.3417,6.3417,0,0,1,2.8159.5884l-.5044,1.0224A5.427,5.427,0,0,0,16.9546,183.2245Z"/>
    <path d="M28.0713,188.7025a4.2367,4.2367,0,0,1-.9453,2.9316,3.3309,3.3309,0,0,1-2.6128,1.0542,3.4619,3.4619,0,0,1-1.8286-.4834,3.19,3.19,0,0,1-1.2329-1.3872,4.83,4.83,0,0,1-.4341-2.1152,4.2283,4.2283,0,0,1,.9385-2.9248,3.3212,3.3212,0,0,1,2.6059-1.0469,3.2478,3.2478,0,0,1,2.5606,1.0718A4.2184,4.2184,0,0,1,28.0713,188.7025Zm-5.8491,0a3.6468,3.6468,0,0,0,.5883,2.2417,2.0434,2.0434,0,0,0,1.73.77,2.0574,2.0574,0,0,0,1.7339-.7671,3.6261,3.6261,0,0,0,.5918-2.2451,3.568,3.568,0,0,0-.5918-2.2241,2.08,2.08,0,0,0-1.748-.76,2.0471,2.0471,0,0,0-1.7232.75A3.6078,3.6078,0,0,0,22.2222,188.7025Z"/>
    <path d="M35.3643,192.5482v-4.9663a2.0036,2.0036,0,0,0-.4278-1.4014,1.74,1.74,0,0,0-1.3379-.4624,2.2054,2.2054,0,0,0-1.7651.6519,3.2881,3.2881,0,0,0-.5606,2.15v4.0278H30.11v-7.6773h.9458l.1889,1.05h.0562a2.3771,2.3771,0,0,1,1.0014-.8789,3.2589,3.2589,0,0,1,1.4361-.3115,2.914,2.914,0,0,1,2.0874.669,2.8449,2.8449,0,0,1,.7007,2.14v5.0088Z"/>
    <path d="M41.395,191.7284a3.7594,3.7594,0,0,0,.5957-.0454,3.8347,3.8347,0,0,0,.4551-.0943v.89a2.1285,2.1285,0,0,1-.5566.15,4.206,4.206,0,0,1-.6621.0595Q39,192.6883,39,190.3416v-4.5673H37.9v-.56l1.1-.4834.49-1.6392h.6729v1.7793H42.39v.9034H40.1626v4.5185a1.5534,1.5534,0,0,0,.3291,1.0645A1.1447,1.1447,0,0,0,41.395,191.7284Z"/>
    <path d="M48.7012,192.5482l-.231-1.0928h-.0561a3.2274,3.2274,0,0,1-1.1455.9771,3.49,3.49,0,0,1-1.4253.2558,2.564,2.564,0,0,1-1.79-.5884,2.1458,2.1458,0,0,1-.6479-1.6743q0-2.3254,3.7192-2.4375l1.3032-.042V187.47a1.9486,1.9486,0,0,0-.3886-1.3345,1.6,1.6,0,0,0-1.2437-.4307,5.0606,5.0606,0,0,0-2.1714.5884l-.3574-.89a5.4525,5.4525,0,0,1,1.2436-.4834,5.3847,5.3847,0,0,1,1.3555-.1753,2.9243,2.9243,0,0,1,2.0347.6094,2.5448,2.5448,0,0,1,.6621,1.9545v5.24Zm-2.627-.82a2.361,2.361,0,0,0,1.7061-.5953,2.2028,2.2028,0,0,0,.62-1.6669v-.6939l-1.1626.0493a4.2315,4.2315,0,0,0-2,.4307,1.2994,1.2994,0,0,0-.6128,1.1875,1.1963,1.1963,0,0,0,.3818.96A1.5826,1.5826,0,0,0,46.0742,191.7284Z"/>
    <path d="M61.7446,192.5482v-4.9946a2.0724,2.0724,0,0,0-.3925-1.3765,1.5186,1.5186,0,0,0-1.2188-.459,1.9671,1.9671,0,0,0-1.604.6235,2.9637,2.9637,0,0,0-.5186,1.9195v4.2871H56.8481v-4.9946a2.0724,2.0724,0,0,0-.3925-1.3765,1.5272,1.5272,0,0,0-1.2256-.459,1.9007,1.9007,0,0,0-1.6011.6553,3.5456,3.5456,0,0,0-.5078,2.147v4.0278H51.9585v-7.6773h.9458l.189,1.05h.0561a2.2862,2.2862,0,0,1,.9282-.8755,2.8367,2.8367,0,0,1,1.3413-.3149,2.28,2.28,0,0,1,2.3536,1.3027h.0561a2.452,2.452,0,0,1,.9946-.9526,3.0884,3.0884,0,0,1,1.4854-.35,2.5984,2.5984,0,0,1,1.9507.669,2.9911,2.9911,0,0,1,.6479,2.14v5.0088Z"/>
    <path d="M65.2051,182.79a.7718.7718,0,0,1,.1963-.585.7265.7265,0,0,1,.9736.0034.7589.7589,0,0,1,.2031.5816.7712.7712,0,0,1-.2031.5849.6789.6789,0,0,1-.4834.1924.67.67,0,0,1-.49-.1924A.7866.7866,0,0,1,65.2051,182.79Zm1.2607,9.7578H65.3032v-7.6773h1.1626Z"/>
    <path d="M74.1855,192.5482v-4.9663a2.0036,2.0036,0,0,0-.4277-1.4014,1.74,1.74,0,0,0-1.3379-.4624,2.2054,2.2054,0,0,0-1.7651.6519,3.2881,3.2881,0,0,0-.5606,2.15v4.0278H68.9316v-7.6773h.9458l.189,1.05h.0562a2.3765,2.3765,0,0,1,1.0014-.8789,3.2589,3.2589,0,0,1,1.4361-.3115,2.914,2.914,0,0,1,2.0874.669,2.8453,2.8453,0,0,1,.7006,2.14v5.0088Z"/>
    <path d="M82.458,192.5482l-.2309-1.0928h-.0562a3.2265,3.2265,0,0,1-1.1455.9771,3.49,3.49,0,0,1-1.4253.2558,2.5642,2.5642,0,0,1-1.79-.5884,2.1458,2.1458,0,0,1-.6479-1.6743q0-2.3254,3.7192-2.4375l1.3033-.042V187.47a1.9481,1.9481,0,0,0-.3887-1.3345,1.6,1.6,0,0,0-1.2437-.4307,5.061,5.061,0,0,0-2.1714.5884l-.3574-.89a5.4515,5.4515,0,0,1,1.2437-.4834,5.3839,5.3839,0,0,1,1.3554-.1753,2.9243,2.9243,0,0,1,2.0347.6094,2.5448,2.5448,0,0,1,.6621,1.9545v5.24Zm-2.6269-.82a2.3607,2.3607,0,0,0,1.706-.5953,2.2028,2.2028,0,0,0,.62-1.6669v-.6939l-1.1626.0493a4.2315,4.2315,0,0,0-2,.4307,1.2994,1.2994,0,0,0-.6128,1.1875,1.196,1.196,0,0,0,.3819.96A1.5824,1.5824,0,0,0,79.8311,191.7284Z"/>
    <path d="M88.1953,191.7284a3.7594,3.7594,0,0,0,.5957-.0454,3.8347,3.8347,0,0,0,.4551-.0943v.89a2.1285,2.1285,0,0,1-.5566.15,4.2061,4.2061,0,0,1-.6622.0595q-2.2272,0-2.2275-2.3467v-4.5673H84.7v-.56l1.1-.4834.49-1.6392h.6729v1.7793H89.19v.9034H86.9629v4.5185a1.5534,1.5534,0,0,0,.3291,1.0645A1.1447,1.1447,0,0,0,88.1953,191.7284Z"/>
    <path d="M90.6821,182.79a.7722.7722,0,0,1,.1963-.585.7266.7266,0,0,1,.9737.0034.7592.7592,0,0,1,.2031.5816.7716.7716,0,0,1-.2031.5849.6791.6791,0,0,1-.4834.1924.67.67,0,0,1-.49-.1924A.787.787,0,0,1,90.6821,182.79Zm1.2608,9.7578H90.78v-7.6773h1.1626Z"/>
    <path d="M101.0352,188.7025a4.2362,4.2362,0,0,1-.9454,2.9316,3.3306,3.3306,0,0,1-2.6127,1.0542,3.4622,3.4622,0,0,1-1.8287-.4834,3.191,3.191,0,0,1-1.2329-1.3872,4.8311,4.8311,0,0,1-.4341-2.1152,4.2283,4.2283,0,0,1,.9385-2.9248,3.3215,3.3215,0,0,1,2.606-1.0469,3.2475,3.2475,0,0,1,2.5605,1.0718A4.218,4.218,0,0,1,101.0352,188.7025Zm-5.8492,0a3.6461,3.6461,0,0,0,.5884,2.2417,2.3358,2.3358,0,0,0,3.4644.0034,3.6261,3.6261,0,0,0,.5918-2.2451,3.568,3.568,0,0,0-.5918-2.2241,2.0806,2.0806,0,0,0-1.7481-.76,2.0471,2.0471,0,0,0-1.7231.75A3.6078,3.6078,0,0,0,95.186,188.7025Z"/>
    <path d="M108.3276,192.5482v-4.9663a2.0036,2.0036,0,0,0-.4277-1.4014,1.74,1.74,0,0,0-1.3379-.4624,2.2054,2.2054,0,0,0-1.7651.6519,3.2875,3.2875,0,0,0-.5606,2.15v4.0278h-1.1626v-7.6773h.9458l.189,1.05h.0561a2.3774,2.3774,0,0,1,1.0015-.8789,3.2587,3.2587,0,0,1,1.436-.3115,2.9141,2.9141,0,0,1,2.0875.669,2.8453,2.8453,0,0,1,.7006,2.14v5.0088Z"/>
  </g>
  <g>
    <path d="M34.3408,209.6615a3.7594,3.7594,0,0,0,.5957-.0454,3.8347,3.8347,0,0,0,.4551-.0943v.89a2.1285,2.1285,0,0,1-.5566.15,4.206,4.206,0,0,1-.6621.0595q-2.2273,0-2.2276-2.3466v-4.5674h-1.1v-.56l1.1-.4834.49-1.6391h.6729v1.7792h2.2275v.9034H33.1084v4.5185a1.5534,1.5534,0,0,0,.3291,1.0645A1.1447,1.1447,0,0,0,34.3408,209.6615Z"/>
    <path d="M41.647,210.4813l-.231-1.0928H41.36a3.2274,3.2274,0,0,1-1.1455.9771,3.49,3.49,0,0,1-1.4253.2558,2.5644,2.5644,0,0,1-1.79-.5883,2.1461,2.1461,0,0,1-.6479-1.6744q0-2.3254,3.7192-2.4375l1.3032-.042v-.4765a1.9486,1.9486,0,0,0-.3886-1.3345,1.6,1.6,0,0,0-1.2437-.4307,5.0606,5.0606,0,0,0-2.1714.5884l-.3574-.89a5.4525,5.4525,0,0,1,1.2436-.4834,5.3847,5.3847,0,0,1,1.3555-.1753,2.9243,2.9243,0,0,1,2.0347.6094,2.5448,2.5448,0,0,1,.6621,1.9545v5.24Zm-2.627-.82a2.3614,2.3614,0,0,0,1.7061-.5952,2.2032,2.2032,0,0,0,.62-1.667v-.6939l-1.1626.0493a4.2315,4.2315,0,0,0-2,.4307,1.2994,1.2994,0,0,0-.6128,1.1875,1.1963,1.1963,0,0,0,.3818.96A1.5826,1.5826,0,0,0,39.02,209.6615Z"/>
    <path d="M48.4771,210.6214a3.32,3.32,0,0,1-1.3692-.2768,2.569,2.569,0,0,1-1.0405-.8511h-.084a10.2675,10.2675,0,0,1,.084,1.2749v3.1592H44.9048V202.804h.9458l.1611,1.05h.0557a2.7055,2.7055,0,0,1,1.0439-.9106,3.1766,3.1766,0,0,1,1.3658-.28,2.8377,2.8377,0,0,1,2.3574,1.0435,5.5576,5.5576,0,0,1-.0142,5.8667A2.8421,2.8421,0,0,1,48.4771,210.6214Zm-.168-6.97a2.06,2.06,0,0,0-1.7022.6519,3.3522,3.3522,0,0,0-.54,2.0732v.2593a3.8393,3.8393,0,0,0,.54,2.3149,2.0512,2.0512,0,0,0,1.73.6973,1.7992,1.7992,0,0,0,1.5586-.8057,3.8236,3.8236,0,0,0,.5635-2.2207,3.6813,3.6813,0,0,0-.5635-2.2031A1.856,1.856,0,0,0,48.3091,203.6512Z"/>
    <path d="M56.939,210.6214a3.5289,3.5289,0,0,1-2.6866-1.0366,4.016,4.016,0,0,1-.9838-2.8794,4.4505,4.4505,0,0,1,.914-2.9487,3.0364,3.0364,0,0,1,2.4551-1.0928,2.8952,2.8952,0,0,1,2.2837.9492,3.6368,3.6368,0,0,1,.8408,2.5039v.7359H54.4731a3.0419,3.0419,0,0,0,.6832,2.0522,2.3617,2.3617,0,0,0,1.8247.7007,6.18,6.18,0,0,0,2.4516-.5185v1.0366a6.1266,6.1266,0,0,1-1.166.3818A6.5447,6.5447,0,0,1,56.939,210.6214Zm-.315-6.9839a1.8973,1.8973,0,0,0-1.4746.6026,2.7745,2.7745,0,0,0-.6479,1.667h4.0136a2.5575,2.5575,0,0,0-.49-1.6846A1.7257,1.7257,0,0,0,56.624,203.6375Z"/>
    <path d="M68.9063,203.7074H66.9517v6.7739H65.7891v-6.7739H64.416v-.5254l1.3731-.42v-.4273q0-2.8293,2.4726-2.83a5.0873,5.0873,0,0,1,1.4292.2451l-.3013.9317a3.8409,3.8409,0,0,0-1.1489-.2173,1.1186,1.1186,0,0,0-.9736.438,2.4428,2.4428,0,0,0-.3154,1.4043v.4975h1.9546Z"/>
    <path d="M75.0283,210.4813l-.2309-1.0928h-.0562a3.2265,3.2265,0,0,1-1.1455.9771,3.49,3.49,0,0,1-1.4253.2558,2.5642,2.5642,0,0,1-1.79-.5883,2.1459,2.1459,0,0,1-.648-1.6744q0-2.3254,3.7192-2.4375l1.3033-.042v-.4765a1.9481,1.9481,0,0,0-.3887-1.3345,1.6,1.6,0,0,0-1.2437-.4307,5.06,5.06,0,0,0-2.1713.5884l-.3575-.89a5.4533,5.4533,0,0,1,1.2437-.4834,5.3841,5.3841,0,0,1,1.3555-.1753,2.9242,2.9242,0,0,1,2.0346.6094,2.5448,2.5448,0,0,1,.6621,1.9545v5.24Zm-2.6269-.82a2.3611,2.3611,0,0,0,1.706-.5952,2.2033,2.2033,0,0,0,.62-1.667v-.6939l-1.1626.0493a4.2308,4.2308,0,0,0-2,.4307,1.2994,1.2994,0,0,0-.6128,1.1875,1.196,1.196,0,0,0,.3818.96A1.5824,1.5824,0,0,0,72.4014,209.6615Z"/>
    <path d="M78.188,200.7235a.772.772,0,0,1,.1963-.585.7265.7265,0,0,1,.9736.0034.7589.7589,0,0,1,.2031.5816.7712.7712,0,0,1-.2031.5849.6789.6789,0,0,1-.4834.1924.67.67,0,0,1-.49-.1924A.7866.7866,0,0,1,78.188,200.7235Zm1.2607,9.7578H78.2861V202.804h1.1626Z"/>
    <path d="M83.0771,210.4813H81.9146v-10.9h1.1625Z"/>
    <path d="M90.4956,208.3866a1.9225,1.9225,0,0,1-.7988,1.6533,3.7522,3.7522,0,0,1-2.2417.5815,4.8711,4.8711,0,0,1-2.3814-.4834v-1.0786a5.7758,5.7758,0,0,0,1.187.4414,4.96,4.96,0,0,0,1.2227.1607,2.7707,2.7707,0,0,0,1.4009-.2906,1.0011,1.0011,0,0,0,.1015-1.6533,6.116,6.116,0,0,0-1.5166-.7529,8.2382,8.2382,0,0,1-1.5234-.6968,2.0789,2.0789,0,0,1-.6724-.6763,1.7584,1.7584,0,0,1-.2207-.9033,1.7236,1.7236,0,0,1,.7632-1.4819,3.56,3.56,0,0,1,2.0947-.5425,6.1274,6.1274,0,0,1,2.4239.5044l-.4136.9453a5.5659,5.5659,0,0,0-2.0942-.4761,2.41,2.41,0,0,0-1.2471.2593.8011.8011,0,0,0-.42.7144.87.87,0,0,0,.1577.5254,1.554,1.554,0,0,0,.5078.4131,11.35,11.35,0,0,0,1.3452.5673,5.0276,5.0276,0,0,1,1.8457,1.002A1.7661,1.7661,0,0,1,90.4956,208.3866Z"/>
  </g>
  <circle class="cls-1" cx="60.9013" cy="237.8532" r="17.0081" transform="translate(-43.881 15.8086) rotate(-10.9007)"/>
  <circle class="cls-2" cx="60.9013" cy="237.8532" r="17.0081" transform="translate(-43.881 15.8086) rotate(-10.9007)"/>
  <rect class="cls-1" x="128.2829" y="175.0164" width="126.0274" height="45.8287"/>
  <rect class="cls-2" x="128.2829" y="175.0164" width="126.0274" height="45.8287"/>
  <g>
    <path d="M145.0376,183.2245a3.3477,3.3477,0,0,0-2.665,1.1245,4.5328,4.5328,0,0,0-.9776,3.0786,4.6223,4.6223,0,0,0,.9424,3.1064,3.3484,3.3484,0,0,0,2.6865,1.0967,9.171,9.171,0,0,0,2.4444-.3852v1.0434a7.5285,7.5285,0,0,1-2.6265.3994,4.4435,4.4435,0,0,1-3.4922-1.373,5.6552,5.6552,0,0,1-1.23-3.9019,6.1534,6.1534,0,0,1,.5923-2.7739,4.2479,4.2479,0,0,1,1.709-1.8355,5.1768,5.1768,0,0,1,2.63-.644,6.3414,6.3414,0,0,1,2.8159.5884l-.5044,1.0224A5.427,5.427,0,0,0,145.0376,183.2245Z"/>
    <path d="M156.1543,188.7025a4.2362,4.2362,0,0,1-.9453,2.9316,3.3309,3.3309,0,0,1-2.6128,1.0542,3.4619,3.4619,0,0,1-1.8286-.4834,3.19,3.19,0,0,1-1.2329-1.3872,4.83,4.83,0,0,1-.4341-2.1152,4.2283,4.2283,0,0,1,.9385-2.9248,3.3212,3.3212,0,0,1,2.6059-1.0469,3.2478,3.2478,0,0,1,2.5606,1.0718A4.2184,4.2184,0,0,1,156.1543,188.7025Zm-5.8491,0a3.6461,3.6461,0,0,0,.5884,2.2417,2.3357,2.3357,0,0,0,3.4643.0034,3.6261,3.6261,0,0,0,.5918-2.2451,3.568,3.568,0,0,0-.5918-2.2241,2.08,2.08,0,0,0-1.748-.76,2.0471,2.0471,0,0,0-1.7232.75A3.6078,3.6078,0,0,0,150.3052,188.7025Z"/>
    <path d="M167.98,192.5482v-4.9946a2.0724,2.0724,0,0,0-.3926-1.3765,1.5184,1.5184,0,0,0-1.2187-.459,1.967,1.967,0,0,0-1.604.6235,2.9637,2.9637,0,0,0-.5186,1.9195v4.2871H163.083v-4.9946a2.0724,2.0724,0,0,0-.3926-1.3765,1.5269,1.5269,0,0,0-1.2256-.459,1.9,1.9,0,0,0-1.601.6553,3.5456,3.5456,0,0,0-.5078,2.147v4.0278h-1.1626v-7.6773h.9458l.1889,1.05h.0562a2.2856,2.2856,0,0,1,.9282-.8755,2.8364,2.8364,0,0,1,1.3413-.3149,2.28,2.28,0,0,1,2.3535,1.3027h.0562a2.4514,2.4514,0,0,1,.9946-.9526,3.0884,3.0884,0,0,1,1.4854-.35,2.598,2.598,0,0,1,1.9506.669,2.9906,2.9906,0,0,1,.648,2.14v5.0088Z"/>
    <path d="M181.3237,192.5482v-4.9946a2.0724,2.0724,0,0,0-.3925-1.3765,1.5186,1.5186,0,0,0-1.2188-.459,1.9671,1.9671,0,0,0-1.604.6235,2.9637,2.9637,0,0,0-.5186,1.9195v4.2871h-1.1626v-4.9946a2.0724,2.0724,0,0,0-.3925-1.3765,1.5272,1.5272,0,0,0-1.2256-.459,1.9007,1.9007,0,0,0-1.6011.6553,3.5456,3.5456,0,0,0-.5078,2.147v4.0278h-1.1626v-7.6773h.9458l.189,1.05h.0561a2.2862,2.2862,0,0,1,.9282-.8755,2.8367,2.8367,0,0,1,1.3413-.3149,2.28,2.28,0,0,1,2.3536,1.3027h.0561a2.452,2.452,0,0,1,.9946-.9526,3.0884,3.0884,0,0,1,1.4854-.35,2.5983,2.5983,0,0,1,1.9507.669,2.9911,2.9911,0,0,1,.6479,2.14v5.0088Z"/>
    <path d="M191.5088,188.7025a4.2367,4.2367,0,0,1-.9453,2.9316,3.3309,3.3309,0,0,1-2.6128,1.0542,3.4619,3.4619,0,0,1-1.8286-.4834,3.19,3.19,0,0,1-1.2329-1.3872,4.83,4.83,0,0,1-.4341-2.1152,4.2283,4.2283,0,0,1,.9385-2.9248A3.3212,3.3212,0,0,1,188,184.7308a3.2478,3.2478,0,0,1,2.5606,1.0718A4.2184,4.2184,0,0,1,191.5088,188.7025Zm-5.8491,0a3.6468,3.6468,0,0,0,.5883,2.2417,2.3358,2.3358,0,0,0,3.4644.0034,3.6261,3.6261,0,0,0,.5918-2.2451,3.568,3.568,0,0,0-.5918-2.2241,2.08,2.08,0,0,0-1.748-.76,2.0471,2.0471,0,0,0-1.7232.75A3.6078,3.6078,0,0,0,185.66,188.7025Z"/>
    <path d="M198.8013,192.5482v-4.9663a2.0036,2.0036,0,0,0-.4278-1.4014,1.74,1.74,0,0,0-1.3379-.4624,2.2054,2.2054,0,0,0-1.7651.6519,3.2881,3.2881,0,0,0-.56,2.15v4.0278h-1.1626v-7.6773h.9458l.1889,1.05h.0562a2.3777,2.3777,0,0,1,1.0014-.8789,3.2589,3.2589,0,0,1,1.4361-.3115,2.914,2.914,0,0,1,2.0874.669,2.8449,2.8449,0,0,1,.7007,2.14v5.0088Z"/>
    <path d="M209.1367,192.6883a3.277,3.277,0,0,1-2.5815-1.0263,4.22,4.22,0,0,1-.9141-2.9034,4.35,4.35,0,0,1,.9282-2.977,3.3406,3.3406,0,0,1,2.6441-1.0508,5.2413,5.2413,0,0,1,1.1069.1191,3.6372,3.6372,0,0,1,.8687.28l-.3575.9878a5.4548,5.4548,0,0,0-.84-.2553,3.7446,3.7446,0,0,0-.8057-.1016q-2.34,0-2.34,2.9839a3.5509,3.5509,0,0,0,.5713,2.1714,1.9856,1.9856,0,0,0,1.6914.7568,5.1659,5.1659,0,0,0,1.9683-.4136v1.03A4.1949,4.1949,0,0,1,209.1367,192.6883Z"/>
    <path d="M217.6191,192.5482l-.2309-1.0928h-.0562a3.2265,3.2265,0,0,1-1.1455.9771,3.4892,3.4892,0,0,1-1.4253.2558,2.5637,2.5637,0,0,1-1.79-.5884,2.1458,2.1458,0,0,1-.648-1.6743q0-2.3254,3.7193-2.4375l1.3032-.042V187.47a1.9481,1.9481,0,0,0-.3887-1.3345,1.6,1.6,0,0,0-1.2436-.4307,5.06,5.06,0,0,0-2.1714.5884l-.3574-.89a5.4507,5.4507,0,0,1,1.2436-.4834,5.3847,5.3847,0,0,1,1.3555-.1753,2.9242,2.9242,0,0,1,2.0346.6094,2.5444,2.5444,0,0,1,.6622,1.9545v5.24Zm-2.6269-.82a2.3606,2.3606,0,0,0,1.706-.5953,2.2029,2.2029,0,0,0,.62-1.6669v-.6939l-1.1626.0493a4.2315,4.2315,0,0,0-2,.4307,1.2994,1.2994,0,0,0-.6128,1.1875,1.196,1.196,0,0,0,.3818.96A1.5826,1.5826,0,0,0,214.9922,191.7284Z"/>
    <path d="M221.9692,184.8709v4.9805a2.0046,2.0046,0,0,0,.4273,1.4009,1.741,1.741,0,0,0,1.3379.4624,2.1827,2.1827,0,0,0,1.7617-.6587,3.3194,3.3194,0,0,0,.5571-2.15v-4.0347h1.1626v7.6773h-.9595l-.1679-1.03h-.0635a2.3132,2.3132,0,0,1-.9912.8687,3.3334,3.3334,0,0,1-1.4463.3012,2.9345,2.9345,0,0,1-2.0981-.6655,2.8311,2.8311,0,0,1-.6968-2.1294v-5.0225Z"/>
    <path d="M234.6348,190.4535a1.9223,1.9223,0,0,1-.7989,1.6533,3.7522,3.7522,0,0,1-2.2417.5815,4.8707,4.8707,0,0,1-2.3813-.4834v-1.0786a5.7715,5.7715,0,0,0,1.187.4414,4.96,4.96,0,0,0,1.2227.1607,2.77,2.77,0,0,0,1.4008-.2906,1.0011,1.0011,0,0,0,.1016-1.6533,6.1179,6.1179,0,0,0-1.5166-.7529,8.2317,8.2317,0,0,1-1.5234-.6968,2.0789,2.0789,0,0,1-.6724-.6763,1.7574,1.7574,0,0,1-.2207-.9033,1.7236,1.7236,0,0,1,.7632-1.4819,3.56,3.56,0,0,1,2.0947-.5425,6.1265,6.1265,0,0,1,2.4238.5044l-.4135.9453a5.5659,5.5659,0,0,0-2.0943-.4761,2.41,2.41,0,0,0-1.247.2593.8012.8012,0,0,0-.42.7144.8705.8705,0,0,0,.1578.5254,1.5515,1.5515,0,0,0,.5078.413,11.3279,11.3279,0,0,0,1.3452.5674,5.0285,5.0285,0,0,1,1.8457,1.002A1.7661,1.7661,0,0,1,234.6348,190.4535Z"/>
    <path d="M239.769,192.6883a3.5288,3.5288,0,0,1-2.6865-1.0366,4.0161,4.0161,0,0,1-.9839-2.8794,4.4506,4.4506,0,0,1,.9141-2.9487,3.0363,3.0363,0,0,1,2.4551-1.0928,2.8952,2.8952,0,0,1,2.2837.9492,3.6368,3.6368,0,0,1,.8408,2.5039v.7359h-5.2891a3.0424,3.0424,0,0,0,.6831,2.0522,2.362,2.362,0,0,0,1.8247.7007,6.18,6.18,0,0,0,2.4517-.5186v1.0367a6.1266,6.1266,0,0,1-1.166.3818A6.545,6.545,0,0,1,239.769,192.6883Zm-.3149-6.9839a1.8973,1.8973,0,0,0-1.4746.6026,2.7752,2.7752,0,0,0-.648,1.667h4.0137a2.5579,2.5579,0,0,0-.49-1.6846A1.7259,1.7259,0,0,0,239.4541,185.7044Z"/>
  </g>
  <g>
    <path d="M160.9673,208.3866a1.9225,1.9225,0,0,1-.7988,1.6533,3.7524,3.7524,0,0,1-2.2417.5815,4.8709,4.8709,0,0,1-2.3814-.4834v-1.0786a5.7758,5.7758,0,0,0,1.187.4414,4.96,4.96,0,0,0,1.2227.1607,2.7707,2.7707,0,0,0,1.4009-.2906,1.0011,1.0011,0,0,0,.1015-1.6533,6.1179,6.1179,0,0,0-1.5166-.7529,8.2382,8.2382,0,0,1-1.5234-.6968,2.0789,2.0789,0,0,1-.6724-.6763,1.7584,1.7584,0,0,1-.2207-.9033,1.7236,1.7236,0,0,1,.7632-1.4819,3.56,3.56,0,0,1,2.0947-.5425,6.1274,6.1274,0,0,1,2.4239.5044l-.4136.9453a5.5659,5.5659,0,0,0-2.0943-.4761,2.41,2.41,0,0,0-1.247.2593.8011.8011,0,0,0-.42.7144.87.87,0,0,0,.1577.5254,1.554,1.554,0,0,0,.5078.4131,11.35,11.35,0,0,0,1.3452.5673,5.0285,5.0285,0,0,1,1.8457,1.002A1.7661,1.7661,0,0,1,160.9673,208.3866Z"/>
    <path d="M166.1016,210.6214a3.5289,3.5289,0,0,1-2.6866-1.0366,4.016,4.016,0,0,1-.9838-2.8794,4.4505,4.4505,0,0,1,.914-2.9487,3.0363,3.0363,0,0,1,2.4551-1.0928,2.8952,2.8952,0,0,1,2.2837.9492,3.6368,3.6368,0,0,1,.8408,2.5039v.7359h-5.2891a3.0424,3.0424,0,0,0,.6831,2.0522,2.3621,2.3621,0,0,0,1.8248.7007,6.18,6.18,0,0,0,2.4516-.5185v1.0366a6.1266,6.1266,0,0,1-1.166.3818A6.5447,6.5447,0,0,1,166.1016,210.6214Zm-.315-6.9839a1.8973,1.8973,0,0,0-1.4746.6026,2.7745,2.7745,0,0,0-.6479,1.667h4.0136a2.5575,2.5575,0,0,0-.49-1.6846A1.7257,1.7257,0,0,0,165.7866,203.6375Z"/>
    <path d="M175.6284,210.4813l-.2309-1.0928h-.0562a3.2265,3.2265,0,0,1-1.1455.9771,3.49,3.49,0,0,1-1.4253.2558,2.5642,2.5642,0,0,1-1.79-.5883,2.1459,2.1459,0,0,1-.648-1.6744q0-2.3254,3.7192-2.4375l1.3033-.042v-.4765a1.9481,1.9481,0,0,0-.3887-1.3345,1.6,1.6,0,0,0-1.2437-.4307,5.06,5.06,0,0,0-2.1713.5884l-.3575-.89a5.4533,5.4533,0,0,1,1.2437-.4834,5.3841,5.3841,0,0,1,1.3555-.1753,2.9242,2.9242,0,0,1,2.0346.6094,2.5448,2.5448,0,0,1,.6621,1.9545v5.24Zm-2.6269-.82a2.3611,2.3611,0,0,0,1.706-.5952,2.2032,2.2032,0,0,0,.62-1.667v-.6939l-1.1625.0493a4.2308,4.2308,0,0,0-2,.4307,1.2994,1.2994,0,0,0-.6128,1.1875,1.196,1.196,0,0,0,.3818.96A1.5824,1.5824,0,0,0,173.0015,209.6615Z"/>
    <path d="M180.0483,210.4813h-1.1626v-10.9h1.1626Z"/>
    <path d="M189.6763,203.7074h-1.9546v6.7739h-1.1626v-6.7739H185.186v-.5254l1.3731-.42v-.4273q0-2.8293,2.4726-2.83a5.0868,5.0868,0,0,1,1.4292.2451l-.3012.9317a3.8421,3.8421,0,0,0-1.149-.2173,1.1186,1.1186,0,0,0-.9736.438,2.4428,2.4428,0,0,0-.3154,1.4043v.4975h1.9546Z"/>
    <path d="M195.7983,210.4813l-.2309-1.0928h-.0562a3.2265,3.2265,0,0,1-1.1455.9771,3.4892,3.4892,0,0,1-1.4253.2558,2.5642,2.5642,0,0,1-1.79-.5883,2.1462,2.1462,0,0,1-.648-1.6744q0-2.3254,3.7193-2.4375l1.3032-.042v-.4765a1.9481,1.9481,0,0,0-.3887-1.3345,1.6,1.6,0,0,0-1.2436-.4307,5.06,5.06,0,0,0-2.1714.5884l-.3574-.89a5.4507,5.4507,0,0,1,1.2436-.4834,5.3847,5.3847,0,0,1,1.3555-.1753,2.9242,2.9242,0,0,1,2.0346.6094,2.5444,2.5444,0,0,1,.6622,1.9545v5.24Zm-2.6269-.82a2.361,2.361,0,0,0,1.706-.5952,2.2033,2.2033,0,0,0,.62-1.667v-.6939l-1.1626.0493a4.2315,4.2315,0,0,0-2,.4307,1.2994,1.2994,0,0,0-.6128,1.1875,1.196,1.196,0,0,0,.3818.96A1.5826,1.5826,0,0,0,193.1714,209.6615Z"/>
    <path d="M198.9575,200.7235a.772.772,0,0,1,.1963-.585.7265.7265,0,0,1,.9736.0034.7589.7589,0,0,1,.2032.5816.7712.7712,0,0,1-.2032.5849.6788.6788,0,0,1-.4834.1924.67.67,0,0,1-.49-.1924A.7866.7866,0,0,1,198.9575,200.7235Zm1.2608,9.7578h-1.1626V202.804h1.1626Z"/>
    <path d="M203.8472,210.4813h-1.1626v-10.9h1.1626Z"/>
    <path d="M207.4058,202.804v4.9805a2.0046,2.0046,0,0,0,.4272,1.4009,1.7411,1.7411,0,0,0,1.3379.4624,2.1827,2.1827,0,0,0,1.7617-.6587,3.3194,3.3194,0,0,0,.5571-2.15V202.804h1.1626v7.6773h-.9594l-.168-1.03h-.0635a2.3126,2.3126,0,0,1-.9912.8687,3.3331,3.3331,0,0,1-1.4463.3012,2.934,2.934,0,0,1-2.0981-.6655,2.8311,2.8311,0,0,1-.6968-2.1294V202.804Z"/>
    <path d="M218.6206,202.6639a4.5354,4.5354,0,0,1,.9175.084l-.1611,1.0786a3.9749,3.9749,0,0,0-.84-.105,2.0462,2.0462,0,0,0-1.5937.7564,2.7589,2.7589,0,0,0-.6621,1.8843v4.1191h-1.1626V202.804h.9594l.1333,1.4219h.0562a3.3731,3.3731,0,0,1,1.03-1.1557A2.3156,2.3156,0,0,1,218.6206,202.6639Z"/>
    <path d="M224.2178,210.6214a3.5285,3.5285,0,0,1-2.6865-1.0366,4.0156,4.0156,0,0,1-.9839-2.8794,4.4511,4.4511,0,0,1,.914-2.9487,3.0364,3.0364,0,0,1,2.4551-1.0928,2.8952,2.8952,0,0,1,2.2837.9492,3.6368,3.6368,0,0,1,.8408,2.5039v.7359h-5.289a3.0414,3.0414,0,0,0,.6831,2.0522,2.3617,2.3617,0,0,0,1.8247.7007,6.18,6.18,0,0,0,2.4516-.5185v1.0366a6.1266,6.1266,0,0,1-1.166.3818A6.5447,6.5447,0,0,1,224.2178,210.6214Zm-.315-6.9839a1.8973,1.8973,0,0,0-1.4746.6026,2.7745,2.7745,0,0,0-.6479,1.667h4.0136a2.5575,2.5575,0,0,0-.49-1.6846A1.7257,1.7257,0,0,0,223.9028,203.6375Z"/>
  </g>
  <circle class="cls-1" cx="191.2966" cy="237.8532" r="17.0081" transform="translate(-60.7179 65.6405) rotate(-16.845)"/>
  <circle class="cls-2" cx="191.2966" cy="237.8532" r="17.0081" transform="translate(-60.7179 65.6405) rotate(-16.845)"/>
  <polyline class="cls-2" points="121.564 157.111 121.564 168.45 60.901 168.45 60.901 175.016"/>
  <polyline class="cls-2" points="130.634 157.111 130.634 168.45 191.297 168.45 191.297 175.016"/>
  <rect class="cls-1" x="267.0516" y="175.0164" width="120.6195" height="45.8287"/>
  <rect class="cls-2" x="267.0516" y="175.0164" width="120.6195" height="45.8287"/>
  <g>
    <path d="M283.9507,192.5482l-3.4746-9.0786H280.42q.0983,1.0788.0982,2.5639v6.5147h-1.1V182.307h1.7929l3.2437,8.4477h.0556l3.2715-8.4477h1.7793v10.2412h-1.1909V185.95q0-1.1353.0982-2.4659h-.0562l-3.5024,9.0645Z"/>
    <path d="M295.4385,192.6883a3.5285,3.5285,0,0,1-2.6865-1.0366,4.0156,4.0156,0,0,1-.9839-2.8794,4.4511,4.4511,0,0,1,.914-2.9487,3.0364,3.0364,0,0,1,2.4551-1.0928,2.8952,2.8952,0,0,1,2.2837.9492,3.6368,3.6368,0,0,1,.8408,2.5039v.7359h-5.289a3.0414,3.0414,0,0,0,.6831,2.0522,2.3617,2.3617,0,0,0,1.8247.7007,6.18,6.18,0,0,0,2.4516-.5186v1.0367a6.1266,6.1266,0,0,1-1.166.3818A6.5447,6.5447,0,0,1,295.4385,192.6883Zm-.315-6.9839a1.8973,1.8973,0,0,0-1.4746.6026,2.7745,2.7745,0,0,0-.6479,1.667h4.0136a2.5573,2.5573,0,0,0-.49-1.6846A1.7257,1.7257,0,0,0,295.1235,185.7044Z"/>
    <path d="M302.7236,191.7284a3.7594,3.7594,0,0,0,.5957-.0454,3.8347,3.8347,0,0,0,.4551-.0943v.89a2.1285,2.1285,0,0,1-.5566.15,4.2039,4.2039,0,0,1-.6621.0595q-2.2274,0-2.2276-2.3467v-4.5673h-1.1v-.56l1.1-.4834.49-1.6392h.6728v1.7793h2.2276v.9034h-2.2276v4.5185a1.5534,1.5534,0,0,0,.3291,1.0645A1.1448,1.1448,0,0,0,302.7236,191.7284Z"/>
    <path d="M310.03,192.5482l-.231-1.0928h-.0561a3.2274,3.2274,0,0,1-1.1455.9771,3.49,3.49,0,0,1-1.4253.2558,2.564,2.564,0,0,1-1.79-.5884,2.1458,2.1458,0,0,1-.6479-1.6743q0-2.3254,3.7192-2.4375l1.3032-.042V187.47a1.9481,1.9481,0,0,0-.3886-1.3345,1.6,1.6,0,0,0-1.2437-.4307,5.0606,5.0606,0,0,0-2.1714.5884l-.3574-.89a5.4515,5.4515,0,0,1,1.2437-.4834,5.3839,5.3839,0,0,1,1.3554-.1753,2.9243,2.9243,0,0,1,2.0347.6094,2.5448,2.5448,0,0,1,.6621,1.9545v5.24Zm-2.627-.82a2.3608,2.3608,0,0,0,1.7061-.5953,2.2028,2.2028,0,0,0,.62-1.6669v-.6939l-1.1626.0493a4.2315,4.2315,0,0,0-2,.4307,1.2994,1.2994,0,0,0-.6128,1.1875,1.196,1.196,0,0,0,.3819.96A1.5823,1.5823,0,0,0,307.4028,191.7284Z"/>
    <path d="M314.45,192.5482h-1.1626v-10.9H314.45Z"/>
    <path d="M316.2715,189.2347V188.17h3.4394v1.0644Z"/>
    <path d="M324.0117,191.7284a3.7594,3.7594,0,0,0,.5957-.0454,3.8347,3.8347,0,0,0,.4551-.0943v.89a2.1285,2.1285,0,0,1-.5566.15,4.206,4.206,0,0,1-.6621.0595q-2.2274,0-2.2276-2.3467v-4.5673h-1.1v-.56l1.1-.4834.49-1.6392h.6729v1.7793h2.2275v.9034h-2.2275v4.5185a1.5534,1.5534,0,0,0,.3291,1.0645A1.1447,1.1447,0,0,0,324.0117,191.7284Z"/>
    <path d="M333.2231,188.7025a4.2362,4.2362,0,0,1-.9453,2.9316,3.3307,3.3307,0,0,1-2.6128,1.0542,3.4619,3.4619,0,0,1-1.8286-.4834,3.191,3.191,0,0,1-1.2329-1.3872,4.8311,4.8311,0,0,1-.4341-2.1152,4.2283,4.2283,0,0,1,.9385-2.9248,3.3214,3.3214,0,0,1,2.606-1.0469,3.2475,3.2475,0,0,1,2.56,1.0718A4.2184,4.2184,0,0,1,333.2231,188.7025Zm-5.8491,0a3.6461,3.6461,0,0,0,.5884,2.2417,2.3358,2.3358,0,0,0,3.4644.0034,3.6261,3.6261,0,0,0,.5918-2.2451,3.568,3.568,0,0,0-.5918-2.2241,2.0808,2.0808,0,0,0-1.7481-.76,2.0471,2.0471,0,0,0-1.7231.75A3.6078,3.6078,0,0,0,327.374,188.7025Z"/>
    <path d="M334.6172,189.2347V188.17h3.4394v1.0644Z"/>
    <path d="M349.6646,192.5482v-4.9946a2.0724,2.0724,0,0,0-.3926-1.3765,1.5184,1.5184,0,0,0-1.2188-.459,1.9671,1.9671,0,0,0-1.604.6235,2.9638,2.9638,0,0,0-.5185,1.9195v4.2871h-1.1626v-4.9946a2.0724,2.0724,0,0,0-.3926-1.3765,1.5269,1.5269,0,0,0-1.2256-.459,1.9007,1.9007,0,0,0-1.6011.6553,3.5456,3.5456,0,0,0-.5078,2.147v4.0278h-1.1626v-7.6773h.9458l.189,1.05h.0561a2.2859,2.2859,0,0,1,.9283-.8755,2.8364,2.8364,0,0,1,1.3413-.3149,2.28,2.28,0,0,1,2.3535,1.3027h.0561a2.4517,2.4517,0,0,1,.9947-.9526,3.088,3.088,0,0,1,1.4853-.35,2.5981,2.5981,0,0,1,1.9507.669,2.9911,2.9911,0,0,1,.6479,2.14v5.0088Z"/>
    <path d="M356.4658,192.6883a3.5287,3.5287,0,0,1-2.6865-1.0366,4.0156,4.0156,0,0,1-.9839-2.8794,4.4506,4.4506,0,0,1,.9141-2.9487,3.0362,3.0362,0,0,1,2.4551-1.0928,2.8948,2.8948,0,0,1,2.2836.9492,3.6363,3.6363,0,0,1,.8409,2.5039v.7359H354a3.0419,3.0419,0,0,0,.6831,2.0522,2.3617,2.3617,0,0,0,1.8247.7007,6.18,6.18,0,0,0,2.4517-.5186v1.0367a6.1289,6.1289,0,0,1-1.166.3818A6.545,6.545,0,0,1,356.4658,192.6883Zm-.3149-6.9839a1.8973,1.8973,0,0,0-1.4746.6026,2.7752,2.7752,0,0,0-.648,1.667h4.0137a2.5579,2.5579,0,0,0-.49-1.6846A1.7259,1.7259,0,0,0,356.1509,185.7044Z"/>
    <path d="M363.751,191.7284a3.76,3.76,0,0,0,.5957-.0454,3.839,3.839,0,0,0,.4551-.0943v.89a2.1294,2.1294,0,0,1-.5567.15,4.2039,4.2039,0,0,1-.6621.0595q-2.2274,0-2.2275-2.3467v-4.5673h-1.1v-.56l1.1-.4834.49-1.6392h.6729v1.7793h2.2275v.9034h-2.2275v4.5185a1.5529,1.5529,0,0,0,.3291,1.0645A1.1447,1.1447,0,0,0,363.751,191.7284Z"/>
    <path d="M371.0571,192.5482l-.2309-1.0928H370.77a3.2265,3.2265,0,0,1-1.1455.9771,3.49,3.49,0,0,1-1.4253.2558,2.5637,2.5637,0,0,1-1.79-.5884,2.1455,2.1455,0,0,1-.648-1.6743q0-2.3254,3.7193-2.4375l1.3032-.042V187.47a1.9481,1.9481,0,0,0-.3887-1.3345,1.6,1.6,0,0,0-1.2436-.4307,5.06,5.06,0,0,0-2.1714.5884l-.3575-.89a5.4533,5.4533,0,0,1,1.2437-.4834,5.3841,5.3841,0,0,1,1.3555-.1753,2.9242,2.9242,0,0,1,2.0346.6094,2.5448,2.5448,0,0,1,.6621,1.9545v5.24Zm-2.6269-.82a2.3606,2.3606,0,0,0,1.706-.5953,2.2029,2.2029,0,0,0,.62-1.6669v-.6939l-1.1626.0493a4.2315,4.2315,0,0,0-2,.4307,1.2994,1.2994,0,0,0-.6128,1.1875,1.196,1.196,0,0,0,.3818.96A1.5826,1.5826,0,0,0,368.43,191.7284Z"/>
    <path d="M375.4771,192.5482h-1.1626v-10.9h1.1626Z"/>
  </g>
  <g>
    <path d="M304.9629,208.3866a1.9225,1.9225,0,0,1-.7988,1.6533,3.7524,3.7524,0,0,1-2.2417.5815,4.8711,4.8711,0,0,1-2.3814-.4834v-1.0786a5.7758,5.7758,0,0,0,1.187.4414,4.96,4.96,0,0,0,1.2227.1607,2.7707,2.7707,0,0,0,1.4009-.2906,1.0011,1.0011,0,0,0,.1015-1.6533,6.1179,6.1179,0,0,0-1.5166-.7529,8.2382,8.2382,0,0,1-1.5234-.6968,2.0789,2.0789,0,0,1-.6724-.6763,1.7584,1.7584,0,0,1-.2207-.9033,1.7236,1.7236,0,0,1,.7632-1.4819,3.56,3.56,0,0,1,2.0947-.5425,6.1274,6.1274,0,0,1,2.4239.5044l-.4136.9453a5.5659,5.5659,0,0,0-2.0943-.4761,2.41,2.41,0,0,0-1.247.2593.8011.8011,0,0,0-.42.7144.87.87,0,0,0,.1577.5254,1.554,1.554,0,0,0,.5078.4131,11.35,11.35,0,0,0,1.3452.5673,5.0276,5.0276,0,0,1,1.8457,1.002A1.7661,1.7661,0,0,1,304.9629,208.3866Z"/>
    <path d="M310.0972,210.6214a3.5289,3.5289,0,0,1-2.6866-1.0366,4.016,4.016,0,0,1-.9838-2.8794,4.4505,4.4505,0,0,1,.914-2.9487,3.0364,3.0364,0,0,1,2.4551-1.0928,2.8952,2.8952,0,0,1,2.2837.9492,3.6368,3.6368,0,0,1,.8408,2.5039v.7359h-5.2891a3.0419,3.0419,0,0,0,.6832,2.0522,2.3617,2.3617,0,0,0,1.8247.7007,6.18,6.18,0,0,0,2.4516-.5185v1.0366a6.1266,6.1266,0,0,1-1.166.3818A6.5447,6.5447,0,0,1,310.0972,210.6214Zm-.315-6.9839a1.8973,1.8973,0,0,0-1.4746.6026,2.7745,2.7745,0,0,0-.6479,1.667h4.0136a2.5575,2.5575,0,0,0-.49-1.6846A1.7257,1.7257,0,0,0,309.7822,203.6375Z"/>
    <path d="M319.624,210.4813l-.2309-1.0928h-.0562a3.2265,3.2265,0,0,1-1.1455.9771,3.49,3.49,0,0,1-1.4253.2558,2.5642,2.5642,0,0,1-1.7895-.5883,2.1459,2.1459,0,0,1-.648-1.6744q0-2.3254,3.7193-2.4375l1.3032-.042v-.4765a1.9481,1.9481,0,0,0-.3887-1.3345,1.6,1.6,0,0,0-1.2436-.4307,5.06,5.06,0,0,0-2.1714.5884l-.3575-.89a5.4533,5.4533,0,0,1,1.2437-.4834,5.3841,5.3841,0,0,1,1.3555-.1753,2.9242,2.9242,0,0,1,2.0346.6094,2.5448,2.5448,0,0,1,.6621,1.9545v5.24Zm-2.6269-.82a2.361,2.361,0,0,0,1.706-.5952,2.2033,2.2033,0,0,0,.62-1.667v-.6939l-1.1626.0493a4.2312,4.2312,0,0,0-2,.4307,1.2994,1.2994,0,0,0-.6128,1.1875,1.196,1.196,0,0,0,.3818.96A1.5826,1.5826,0,0,0,316.9971,209.6615Z"/>
    <path d="M324.0439,210.4813h-1.1626v-10.9h1.1626Z"/>
    <path d="M333.6719,203.7074h-1.9546v6.7739h-1.1626v-6.7739h-1.3731v-.5254l1.3731-.42v-.4273q0-2.8293,2.4726-2.83a5.0868,5.0868,0,0,1,1.4292.2451l-.3012.9317a3.8421,3.8421,0,0,0-1.149-.2173,1.1186,1.1186,0,0,0-.9736.438,2.4436,2.4436,0,0,0-.3154,1.4043v.4975h1.9546Z"/>
    <path d="M339.7939,210.4813l-.2309-1.0928h-.0562a3.2265,3.2265,0,0,1-1.1455.9771,3.4892,3.4892,0,0,1-1.4253.2558,2.5642,2.5642,0,0,1-1.7895-.5883,2.1462,2.1462,0,0,1-.648-1.6744q0-2.3254,3.7193-2.4375l1.3032-.042v-.4765a1.9481,1.9481,0,0,0-.3887-1.3345,1.6,1.6,0,0,0-1.2436-.4307,5.06,5.06,0,0,0-2.1714.5884l-.3574-.89a5.4507,5.4507,0,0,1,1.2436-.4834,5.3847,5.3847,0,0,1,1.3555-.1753,2.9246,2.9246,0,0,1,2.0347.6094,2.5448,2.5448,0,0,1,.6621,1.9545v5.24Zm-2.6269-.82a2.361,2.361,0,0,0,1.706-.5952,2.2033,2.2033,0,0,0,.62-1.667v-.6939l-1.1626.0493a4.2315,4.2315,0,0,0-2,.4307,1.2994,1.2994,0,0,0-.6128,1.1875,1.196,1.196,0,0,0,.3818.96A1.5826,1.5826,0,0,0,337.167,209.6615Z"/>
    <path d="M342.9531,200.7235a.7724.7724,0,0,1,.1963-.585.7265.7265,0,0,1,.9736.0034.7589.7589,0,0,1,.2032.5816.7712.7712,0,0,1-.2032.5849.6788.6788,0,0,1-.4834.1924.67.67,0,0,1-.49-.1924A.787.787,0,0,1,342.9531,200.7235Zm1.2608,9.7578h-1.1626V202.804h1.1626Z"/>
    <path d="M347.8428,210.4813H346.68v-10.9h1.1626Z"/>
    <path d="M355.2612,208.3866a1.9225,1.9225,0,0,1-.7988,1.6533,3.7522,3.7522,0,0,1-2.2417.5815,4.87,4.87,0,0,1-2.3813-.4834v-1.0786a5.7715,5.7715,0,0,0,1.187.4414,4.9584,4.9584,0,0,0,1.2226.1607,2.77,2.77,0,0,0,1.4009-.2906,1.0012,1.0012,0,0,0,.1016-1.6533,6.12,6.12,0,0,0-1.5166-.7529,8.2366,8.2366,0,0,1-1.5235-.6968,2.0785,2.0785,0,0,1-.6723-.6763,1.7574,1.7574,0,0,1-.2207-.9033,1.7237,1.7237,0,0,1,.7631-1.4819,3.5606,3.5606,0,0,1,2.0948-.5425,6.1272,6.1272,0,0,1,2.4238.5044l-.4136.9453a5.5654,5.5654,0,0,0-2.0942-.4761,2.41,2.41,0,0,0-1.2471.2593.8011.8011,0,0,0-.42.7144.87.87,0,0,0,.1577.5254,1.554,1.554,0,0,0,.5078.4131,11.3576,11.3576,0,0,0,1.3452.5673,5.0291,5.0291,0,0,1,1.8458,1.002A1.766,1.766,0,0,1,355.2612,208.3866Z"/>
  </g>
  <circle class="cls-1" cx="327.3613" cy="237.8532" r="17.0081" transform="translate(-33.8728 55.5088) rotate(-9.2175)"/>
  <circle class="cls-2" cx="327.3613" cy="237.8532" r="17.0081" transform="translate(-33.8728 55.5088) rotate(-9.2175)"/>
  <rect class="cls-1" x="399.691" y="175.0164" width="110.4621" height="45.8287"/>
  <rect class="cls-2" x="399.691" y="175.0164" width="110.4621" height="45.8287"/>
  <g>
    <path d="M416.4414,183.2245a3.3477,3.3477,0,0,0-2.665,1.1245,4.5328,4.5328,0,0,0-.9776,3.0786,4.6223,4.6223,0,0,0,.9424,3.1064,3.3484,3.3484,0,0,0,2.6865,1.0967,9.171,9.171,0,0,0,2.4444-.3852v1.0434a7.5285,7.5285,0,0,1-2.6265.3994,4.4435,4.4435,0,0,1-3.4922-1.373,5.6552,5.6552,0,0,1-1.2295-3.9019,6.1534,6.1534,0,0,1,.5923-2.7739,4.2479,4.2479,0,0,1,1.709-1.8355,5.1768,5.1768,0,0,1,2.63-.644,6.3414,6.3414,0,0,1,2.8159.5884l-.5044,1.0224A5.427,5.427,0,0,0,416.4414,183.2245Z"/>
    <path d="M427.5581,188.7025a4.2386,4.2386,0,0,1-.9453,2.9316A3.3327,3.3327,0,0,1,424,192.6883a3.4588,3.4588,0,0,1-1.8281-.4834,3.1863,3.1863,0,0,1-1.2324-1.3872,4.8226,4.8226,0,0,1-.4346-2.1152,4.2283,4.2283,0,0,1,.9385-2.9248,3.32,3.32,0,0,1,2.6054-1.0469,3.2469,3.2469,0,0,1,2.5606,1.0718A4.2162,4.2162,0,0,1,427.5581,188.7025Zm-5.8486,0a3.65,3.65,0,0,0,.5879,2.2417,2.3352,2.3352,0,0,0,3.4638.0034,3.6255,3.6255,0,0,0,.5918-2.2451,3.5674,3.5674,0,0,0-.5918-2.2241,2.0778,2.0778,0,0,0-1.747-.76,2.0475,2.0475,0,0,0-1.7237.75A3.608,3.608,0,0,0,421.71,188.7025Z"/>
    <path d="M439.3823,192.5482v-4.9946a2.0774,2.0774,0,0,0-.3916-1.3765,1.5191,1.5191,0,0,0-1.22-.459,1.9674,1.9674,0,0,0-1.6035.6235,2.9637,2.9637,0,0,0-.5186,1.9195v4.2871h-1.1631v-4.9946a2.0774,2.0774,0,0,0-.3916-1.3765,1.5291,1.5291,0,0,0-1.2265-.459,1.9,1.9,0,0,0-1.6006.6553,3.5421,3.5421,0,0,0-.5078,2.147v4.0278h-1.1631v-7.6773h.9463l.1894,1.05h.0557a2.2874,2.2874,0,0,1,.9277-.8755,2.84,2.84,0,0,1,1.3418-.3149,2.2807,2.2807,0,0,1,2.3535,1.3027h.0567a2.4445,2.4445,0,0,1,.9941-.9526,3.09,3.09,0,0,1,1.4854-.35,2.6008,2.6008,0,0,1,1.9511.669,2.9929,2.9929,0,0,1,.6475,2.14v5.0088Z"/>
    <path d="M446.5142,192.6883a3.3271,3.3271,0,0,1-1.37-.2768,2.5715,2.5715,0,0,1-1.04-.8511h-.084a10.1719,10.1719,0,0,1,.084,1.2749v3.1592h-1.1631V184.8709h.9463l.1611,1.05h.0557a2.7019,2.7019,0,0,1,1.0439-.9106,3.1773,3.1773,0,0,1,1.3663-.28,2.8358,2.8358,0,0,1,2.3564,1.0435,5.5533,5.5533,0,0,1-.0137,5.8667A2.8417,2.8417,0,0,1,446.5142,192.6883Zm-.168-6.97a2.0584,2.0584,0,0,0-1.7022.6519,3.3524,3.3524,0,0,0-.54,2.0732v.2593a3.8353,3.8353,0,0,0,.54,2.3149,2.0491,2.0491,0,0,0,1.7295.6973,1.7991,1.7991,0,0,0,1.5586-.8057,3.82,3.82,0,0,0,.5645-2.2207,3.6776,3.6776,0,0,0-.5645-2.2031A1.8541,1.8541,0,0,0,446.3462,185.7181Z"/>
    <path d="M455.2349,184.7308a4.5465,4.5465,0,0,1,.9179.084l-.1611,1.0786a3.9829,3.9829,0,0,0-.8408-.105,2.0464,2.0464,0,0,0-1.5938.7564,2.7588,2.7588,0,0,0-.6621,1.8842v4.1192h-1.1631v-7.6773h.96l.1328,1.4219h.0566a3.3729,3.3729,0,0,1,1.0293-1.1557A2.3188,2.3188,0,0,1,455.2349,184.7308Z"/>
    <path d="M460.8325,192.6883a3.5287,3.5287,0,0,1-2.6865-1.0366,4.0137,4.0137,0,0,1-.9844-2.8794,4.4506,4.4506,0,0,1,.9141-2.9487,3.0363,3.0363,0,0,1,2.4551-1.0928,2.8966,2.8966,0,0,1,2.2841.9492,3.6407,3.6407,0,0,1,.84,2.5039v.7359h-5.2881a3.0443,3.0443,0,0,0,.6826,2.0522,2.361,2.361,0,0,0,1.8252.7007,6.18,6.18,0,0,0,2.4512-.5186v1.0367a6.15,6.15,0,0,1-1.166.3818A6.55,6.55,0,0,1,460.8325,192.6883Zm-.3154-6.9839a1.898,1.898,0,0,0-1.4746.6026,2.7724,2.7724,0,0,0-.6485,1.667h4.0147a2.5552,2.5552,0,0,0-.4912-1.6846A1.7242,1.7242,0,0,0,460.5171,185.7044Z"/>
    <path d="M470.59,190.4535a1.9237,1.9237,0,0,1-.7988,1.6533,3.7515,3.7515,0,0,1-2.2412.5815,4.8713,4.8713,0,0,1-2.3818-.4834v-1.0786a5.7759,5.7759,0,0,0,1.1875.4414,4.9506,4.9506,0,0,0,1.2216.1607,2.7723,2.7723,0,0,0,1.4014-.2906,1.0012,1.0012,0,0,0,.1016-1.6533,6.11,6.11,0,0,0-1.5166-.7529,8.2046,8.2046,0,0,1-1.5235-.6968,2.08,2.08,0,0,1-.6728-.6763,1.7673,1.7673,0,0,1-.2207-.9033,1.7242,1.7242,0,0,1,.7636-1.4819,3.5585,3.5585,0,0,1,2.0948-.5425,6.1272,6.1272,0,0,1,2.4238.5044l-.4131.9453a5.5657,5.5657,0,0,0-2.0947-.4761,2.4113,2.4113,0,0,0-1.2471.2593.8006.8006,0,0,0-.42.7144.8675.8675,0,0,0,.1572.5254,1.558,1.558,0,0,0,.5078.413,11.313,11.313,0,0,0,1.3448.5674,5.0206,5.0206,0,0,1,1.8457,1.002A1.7643,1.7643,0,0,1,470.59,190.4535Z"/>
    <path d="M477.4341,190.4535a1.9237,1.9237,0,0,1-.7988,1.6533,3.7519,3.7519,0,0,1-2.2413.5815,4.8715,4.8715,0,0,1-2.3818-.4834v-1.0786a5.7781,5.7781,0,0,0,1.1875.4414,4.952,4.952,0,0,0,1.2217.1607,2.7728,2.7728,0,0,0,1.4014-.2906,1.0011,1.0011,0,0,0,.1015-1.6533,6.1084,6.1084,0,0,0-1.5166-.7529,8.2061,8.2061,0,0,1-1.5234-.6968,2.0807,2.0807,0,0,1-.6729-.6763,1.7673,1.7673,0,0,1-.2207-.9033,1.724,1.724,0,0,1,.7637-1.4819,3.5582,3.5582,0,0,1,2.0947-.5425,6.1265,6.1265,0,0,1,2.4238.5044l-.413.9453a5.5662,5.5662,0,0,0-2.0948-.4761,2.4108,2.4108,0,0,0-1.247.2593.8007.8007,0,0,0-.42.7144.8669.8669,0,0,0,.1573.5254,1.5569,1.5569,0,0,0,.5078.413,11.3093,11.3093,0,0,0,1.3447.5674,5.02,5.02,0,0,1,1.8457,1.002A1.7644,1.7644,0,0,1,477.4341,190.4535Z"/>
    <path d="M479.2271,182.79a.7722.7722,0,0,1,.1962-.585.7266.7266,0,0,1,.9737.0034.7574.7574,0,0,1,.2031.5816.77.77,0,0,1-.2031.5849.6791.6791,0,0,1-.4834.1924.671.671,0,0,1-.49-.1924A.7869.7869,0,0,1,479.2271,182.79Zm1.2607,9.7578h-1.1631v-7.6773h1.1631Z"/>
    <path d="M489.5806,188.7025a4.2391,4.2391,0,0,1-.9453,2.9316,3.3327,3.3327,0,0,1-2.6133,1.0542,3.4592,3.4592,0,0,1-1.8282-.4834,3.1869,3.1869,0,0,1-1.2324-1.3872,4.824,4.824,0,0,1-.4345-2.1152,4.2288,4.2288,0,0,1,.9384-2.9248,3.32,3.32,0,0,1,2.6055-1.0469,3.2468,3.2468,0,0,1,2.56,1.0718A4.2158,4.2158,0,0,1,489.5806,188.7025Zm-5.8487,0a3.65,3.65,0,0,0,.5879,2.2417,2.3353,2.3353,0,0,0,3.4639.0034,3.6261,3.6261,0,0,0,.5918-2.2451,3.568,3.568,0,0,0-.5918-2.2241,2.078,2.078,0,0,0-1.7471-.76,2.0474,2.0474,0,0,0-1.7236.75A3.6079,3.6079,0,0,0,483.7319,188.7025Z"/>
    <path d="M496.8726,192.5482v-4.9663a2.0084,2.0084,0,0,0-.4268-1.4014,1.7425,1.7425,0,0,0-1.3379-.4624,2.2066,2.2066,0,0,0-1.7656.6519,3.2852,3.2852,0,0,0-.5606,2.15v4.0278h-1.163v-7.6773h.9462l.1895,1.05h.0557a2.3779,2.3779,0,0,1,1.0019-.8789,3.2582,3.2582,0,0,1,1.4356-.3115,2.9165,2.9165,0,0,1,2.0878.669,2.8468,2.8468,0,0,1,.7,2.14v5.0088Z"/>
  </g>
  <g>
    <path d="M424.5884,208.3866a1.9213,1.9213,0,0,1-.7988,1.6533,3.7485,3.7485,0,0,1-2.24.5815,4.871,4.871,0,0,1-2.3823-.4834v-1.0786a5.7715,5.7715,0,0,0,1.187.4414,4.9536,4.9536,0,0,0,1.2227.1607,2.7661,2.7661,0,0,0,1.4-.2906,1.0011,1.0011,0,0,0,.1015-1.6533,6.08,6.08,0,0,0-1.5156-.7529,8.224,8.224,0,0,1-1.5239-.6968,2.0789,2.0789,0,0,1-.6724-.6763,1.7574,1.7574,0,0,1-.2207-.9033,1.7236,1.7236,0,0,1,.7632-1.4819,3.5588,3.5588,0,0,1,2.0952-.5425,6.1265,6.1265,0,0,1,2.4238.5044l-.414.9453a5.562,5.562,0,0,0-2.0938-.4761,2.4171,2.4171,0,0,0-1.248.2593.8027.8027,0,0,0-.42.7144.8681.8681,0,0,0,.1582.5254,1.5492,1.5492,0,0,0,.5079.4131,11.294,11.294,0,0,0,1.3437.5673,5.0023,5.0023,0,0,1,1.8457,1.002A1.7644,1.7644,0,0,1,424.5884,208.3866Z"/>
    <path d="M429.7241,210.6214a3.5287,3.5287,0,0,1-2.6865-1.0366,4.0137,4.0137,0,0,1-.9844-2.8794,4.4506,4.4506,0,0,1,.9141-2.9487,3.0363,3.0363,0,0,1,2.4551-1.0928,2.8966,2.8966,0,0,1,2.2841.9492,3.6407,3.6407,0,0,1,.84,2.5039v.7359h-5.2881a3.0443,3.0443,0,0,0,.6826,2.0522,2.361,2.361,0,0,0,1.8252.7007,6.18,6.18,0,0,0,2.4512-.5185v1.0366a6.15,6.15,0,0,1-1.166.3818A6.55,6.55,0,0,1,429.7241,210.6214Zm-.3154-6.9839a1.898,1.898,0,0,0-1.4746.6026,2.7724,2.7724,0,0,0-.6485,1.667H431.3a2.5554,2.5554,0,0,0-.4912-1.6846A1.7242,1.7242,0,0,0,429.4087,203.6375Z"/>
    <path d="M439.25,210.4813l-.2314-1.0928h-.0557a3.2265,3.2265,0,0,1-1.1455.9771,3.4906,3.4906,0,0,1-1.4248.2558,2.5646,2.5646,0,0,1-1.79-.5883,2.1444,2.1444,0,0,1-.6485-1.6744q0-2.3254,3.72-2.4375l1.3028-.042v-.4765a1.943,1.943,0,0,0-.3887-1.3345,1.5988,1.5988,0,0,0-1.2432-.4307,5.0658,5.0658,0,0,0-2.1718.5884l-.3565-.89a5.4384,5.4384,0,0,1,1.2432-.4834,5.3841,5.3841,0,0,1,1.3555-.1753,2.9256,2.9256,0,0,1,2.0351.6094,2.5483,2.5483,0,0,1,.6611,1.9545v5.24Zm-2.6269-.82a2.3611,2.3611,0,0,0,1.706-.5952,2.2035,2.2035,0,0,0,.62-1.667v-.6939l-1.1631.0493a4.23,4.23,0,0,0-2,.4307,1.3007,1.3007,0,0,0-.6132,1.1875,1.1992,1.1992,0,0,0,.3818.96A1.5856,1.5856,0,0,0,436.6226,209.6615Z"/>
    <path d="M443.67,210.4813h-1.1631v-10.9H443.67Z"/>
    <path d="M453.2974,203.7074h-1.9541v6.7739H450.18v-6.7739h-1.3731v-.5254l1.3731-.42v-.4273q0-2.8293,2.4726-2.83a5.0814,5.0814,0,0,1,1.4287.2451l-.3007.9317a3.8392,3.8392,0,0,0-1.1485-.2173,1.1211,1.1211,0,0,0-.9746.438,2.4444,2.4444,0,0,0-.3144,1.4043v.4975h1.9541Z"/>
    <path d="M459.42,210.4813l-.2314-1.0928h-.0557a3.2265,3.2265,0,0,1-1.1455.9771,3.4906,3.4906,0,0,1-1.4248.2558,2.5651,2.5651,0,0,1-1.79-.5883,2.1447,2.1447,0,0,1-.6484-1.6744q0-2.3254,3.72-2.4375l1.3028-.042v-.4765a1.943,1.943,0,0,0-.3887-1.3345,1.5988,1.5988,0,0,0-1.2432-.4307,5.0658,5.0658,0,0,0-2.1718.5884l-.3565-.89a5.4384,5.4384,0,0,1,1.2432-.4834,5.3839,5.3839,0,0,1,1.3554-.1753,2.9257,2.9257,0,0,1,2.0352.6094,2.5483,2.5483,0,0,1,.6611,1.9545v5.24Zm-2.6269-.82a2.3611,2.3611,0,0,0,1.706-.5952,2.2035,2.2035,0,0,0,.62-1.667v-.6939l-1.1631.0493a4.23,4.23,0,0,0-2,.4307,1.3007,1.3007,0,0,0-.6132,1.1875,1.1992,1.1992,0,0,0,.3818.96A1.5856,1.5856,0,0,0,456.7935,209.6615Z"/>
    <path d="M462.58,200.7235a.772.772,0,0,1,.1963-.585.7265.7265,0,0,1,.9736.0034.757.757,0,0,1,.2031.5816.7693.7693,0,0,1-.2031.5849.6789.6789,0,0,1-.4834.1924.6706.6706,0,0,1-.49-.1924A.7866.7866,0,0,1,462.58,200.7235Zm1.2607,9.7578h-1.1631V202.804H463.84Z"/>
    <path d="M467.4683,210.4813h-1.1631v-10.9h1.1631Z"/>
    <path d="M471.0269,202.804v4.9805a2.0022,2.0022,0,0,0,.4277,1.4009,1.741,1.741,0,0,0,1.3379.4624,2.182,2.182,0,0,0,1.7617-.6587,3.3226,3.3226,0,0,0,.5566-2.15V202.804h1.1631v7.6773h-.96l-.168-1.03h-.0625a2.3213,2.3213,0,0,1-.9912.8687,3.338,3.338,0,0,1-1.4473.3012,2.9335,2.9335,0,0,1-2.0976-.6655,2.8312,2.8312,0,0,1-.6973-2.1294V202.804Z"/>
    <path d="M482.2427,202.6639a4.5458,4.5458,0,0,1,.9179.084L483,203.8265a3.9814,3.9814,0,0,0-.8408-.105,2.0464,2.0464,0,0,0-1.5938.7564,2.7589,2.7589,0,0,0-.6621,1.8843v4.1191H478.74V202.804h.96l.1328,1.4219h.0567a3.3709,3.3709,0,0,1,1.0293-1.1557A2.3183,2.3183,0,0,1,482.2427,202.6639Z"/>
    <path d="M487.8394,210.6214a3.5289,3.5289,0,0,1-2.6866-1.0366,4.0141,4.0141,0,0,1-.9843-2.8794,4.4505,4.4505,0,0,1,.914-2.9487,3.0364,3.0364,0,0,1,2.4551-1.0928,2.897,2.897,0,0,1,2.2842.9492,3.6411,3.6411,0,0,1,.84,2.5039v.7359h-5.2881a3.0443,3.0443,0,0,0,.6827,2.0522,2.3606,2.3606,0,0,0,1.8251.7007,6.18,6.18,0,0,0,2.4512-.5185v1.0366a6.15,6.15,0,0,1-1.166.3818A6.55,6.55,0,0,1,487.8394,210.6214Zm-.3155-6.9839a1.898,1.898,0,0,0-1.4746.6026,2.7717,2.7717,0,0,0-.6484,1.667h4.0146a2.5548,2.5548,0,0,0-.4912-1.6846A1.7241,1.7241,0,0,0,487.5239,203.6375Z"/>
  </g>
  <path class="cls-1" d="M442.4712,242.4107a24.9042,24.9042,0,0,1,12.4508-21.5655,24.9043,24.9043,0,0,1,12.4509,21.5655v12.4509a24.9023,24.9023,0,0,0-24.9017,0Z"/>
  <path class="cls-2" d="M442.4712,242.4107a24.9042,24.9042,0,0,1,12.4508-21.5655,24.9043,24.9043,0,0,1,12.4509,21.5655v12.4509a24.9023,24.9023,0,0,0-24.9017,0Z"/>
  <rect class="cls-1" x="520.9975" y="175.0164" width="94.6237" height="45.8287"/>
  <rect class="cls-2" x="520.9975" y="175.0164" width="94.6237" height="45.8287"/>
  <g>
    <path d="M534.5522,192.5482h-1.19V182.307h5.709v1.0576h-4.5186v3.7476h4.2452V188.17h-4.2452Z"/>
    <path d="M541.6831,184.8709v4.9805a2.0027,2.0027,0,0,0,.4277,1.4009,1.7411,1.7411,0,0,0,1.3379.4624,2.1819,2.1819,0,0,0,1.7617-.6587,3.3225,3.3225,0,0,0,.5567-2.15v-4.0347H546.93v7.6773h-.96l-.168-1.03H545.74a2.3207,2.3207,0,0,1-.9912.8687,3.3372,3.3372,0,0,1-1.4472.3012,2.9344,2.9344,0,0,1-2.0977-.6655,2.8316,2.8316,0,0,1-.6973-2.1294v-5.0225Z"/>
    <path d="M554.3491,190.4535a1.9237,1.9237,0,0,1-.7988,1.6533,3.7515,3.7515,0,0,1-2.2412.5815,4.8719,4.8719,0,0,1-2.3819-.4834v-1.0786a5.78,5.78,0,0,0,1.1875.4414,4.952,4.952,0,0,0,1.2217.1607,2.7728,2.7728,0,0,0,1.4014-.2906,1.0012,1.0012,0,0,0,.1016-1.6533,6.11,6.11,0,0,0-1.5166-.7529,8.2046,8.2046,0,0,1-1.5235-.6968,2.08,2.08,0,0,1-.6728-.6763,1.7673,1.7673,0,0,1-.2207-.9033,1.7239,1.7239,0,0,1,.7636-1.4819,3.5585,3.5585,0,0,1,2.0948-.5425,6.1272,6.1272,0,0,1,2.4238.5044l-.4131.9453a5.5657,5.5657,0,0,0-2.0947-.4761,2.4113,2.4113,0,0,0-1.2471.2593.8006.8006,0,0,0-.42.7144.8668.8668,0,0,0,.1572.5254,1.558,1.558,0,0,0,.5078.413,11.3169,11.3169,0,0,0,1.3447.5674,5.02,5.02,0,0,1,1.8458,1.002A1.7643,1.7643,0,0,1,554.3491,190.4535Z"/>
    <path d="M559.4839,192.6883a3.5285,3.5285,0,0,1-2.6865-1.0366,4.0137,4.0137,0,0,1-.9844-2.8794,4.4506,4.4506,0,0,1,.9141-2.9487,3.0361,3.0361,0,0,1,2.455-1.0928,2.8968,2.8968,0,0,1,2.2842.9492,3.6407,3.6407,0,0,1,.84,2.5039v.7359h-5.2881a3.0438,3.0438,0,0,0,.6826,2.0522,2.3607,2.3607,0,0,0,1.8252.7007,6.18,6.18,0,0,0,2.4512-.5186v1.0367a6.1527,6.1527,0,0,1-1.1661.3818A6.549,6.549,0,0,1,559.4839,192.6883Zm-.3154-6.9839a1.8982,1.8982,0,0,0-1.4747.6026,2.7723,2.7723,0,0,0-.6484,1.667H561.06a2.5546,2.5546,0,0,0-.4913-1.6846A1.7239,1.7239,0,0,0,559.1685,185.7044Z"/>
    <path d="M569.5151,191.5184h-.0634a2.7325,2.7325,0,0,1-2.41,1.17,2.8492,2.8492,0,0,1-2.3428-1.03,4.5356,4.5356,0,0,1-.8369-2.9282,4.6077,4.6077,0,0,1,.8408-2.9487,2.8274,2.8274,0,0,1,2.3389-1.0508,2.7916,2.7916,0,0,1,2.3965,1.1348h.0908l-.0488-.5537-.0283-.5391v-3.1245h1.163v10.9h-.9462Zm-2.3261.1963a2.1161,2.1161,0,0,0,1.7265-.648,3.2737,3.2737,0,0,0,.5362-2.0913V188.73a3.85,3.85,0,0,0-.543-2.3291,2.0623,2.0623,0,0,0-1.7334-.6968,1.7794,1.7794,0,0,0-1.5654.795,3.95,3.95,0,0,0-.543,2.2451,3.7933,3.7933,0,0,0,.5391,2.2207A1.8272,1.8272,0,0,0,567.189,191.7147Z"/>
    <path d="M580.3687,192.6883a3.3271,3.3271,0,0,1-1.37-.2768,2.5708,2.5708,0,0,1-1.04-.8511h-.084a10.1719,10.1719,0,0,1,.084,1.2749v3.1592h-1.1631V184.8709h.9463l.1611,1.05h.0557a2.7019,2.7019,0,0,1,1.0439-.9106,3.1773,3.1773,0,0,1,1.3663-.28,2.8358,2.8358,0,0,1,2.3564,1.0435,5.5533,5.5533,0,0,1-.0137,5.8667A2.8417,2.8417,0,0,1,580.3687,192.6883Zm-.168-6.97a2.0582,2.0582,0,0,0-1.7022.6519,3.3518,3.3518,0,0,0-.54,2.0732v.2593a3.8353,3.8353,0,0,0,.54,2.3149,2.0491,2.0491,0,0,0,1.7295.6973,1.7992,1.7992,0,0,0,1.5586-.8057,3.82,3.82,0,0,0,.5645-2.2207,3.6776,3.6776,0,0,0-.5645-2.2031A1.8542,1.8542,0,0,0,580.2007,185.7181Z"/>
    <path d="M586.75,192.5482h-1.1631v-10.9H586.75Z"/>
    <path d="M590.3081,184.8709v4.9805a2.0027,2.0027,0,0,0,.4277,1.4009,1.7411,1.7411,0,0,0,1.3379.4624,2.1819,2.1819,0,0,0,1.7617-.6587,3.3225,3.3225,0,0,0,.5567-2.15v-4.0347h1.1631v7.6773h-.96l-.168-1.03h-.0625a2.3207,2.3207,0,0,1-.9912.8687,3.3372,3.3372,0,0,1-1.4472.3012,2.9344,2.9344,0,0,1-2.0977-.6655,2.8316,2.8316,0,0,1-.6973-2.1294v-5.0225Z"/>
    <path d="M604.3042,184.8709v.7354l-1.4219.168a2.5052,2.5052,0,0,1,.5039,1.5341,2.2692,2.2692,0,0,1-.7705,1.8,3.1077,3.1077,0,0,1-2.1152.6724,3.4919,3.4919,0,0,1-.6445-.0562,1.1455,1.1455,0,0,0-.7432.9878.5015.5015,0,0,0,.26.4659,1.89,1.89,0,0,0,.89.1508h1.3584a3.0386,3.0386,0,0,1,1.916.5254,1.8237,1.8237,0,0,1,.669,1.5269,2.18,2.18,0,0,1-1.0225,1.9438,5.476,5.476,0,0,1-2.9844.669,4.0772,4.0772,0,0,1-2.3222-.56,1.81,1.81,0,0,1-.8155-1.5835,1.7769,1.7769,0,0,1,.4483-1.2114,2.28,2.28,0,0,1,1.2607-.6939,1.2189,1.2189,0,0,1-.4941-.413,1.0954,1.0954,0,0,1-.1992-.6514,1.2374,1.2374,0,0,1,.2236-.7358,2.3623,2.3623,0,0,1,.708-.6094,2.0747,2.0747,0,0,1-.9707-.8335,2.4564,2.4564,0,0,1-.374-1.3452,2.4861,2.4861,0,0,1,.7558-1.9439,3.0906,3.0906,0,0,1,2.1436-.6826,3.8841,3.8841,0,0,1,1.0859.14Zm-6.123,8.9664a1.0428,1.0428,0,0,0,.5253.9453,2.9028,2.9028,0,0,0,1.5069.3222,4.2081,4.2081,0,0,0,2.1679-.4375,1.3423,1.3423,0,0,0,.7041-1.1875.94.94,0,0,0-.3857-.8652,2.9926,2.9926,0,0,0-1.45-.2417H599.856a1.8391,1.8391,0,0,0-1.2334.3784A1.3532,1.3532,0,0,0,598.1812,193.8373Zm.6308-6.5079a1.562,1.562,0,0,0,.4551,1.2188,1.818,1.818,0,0,0,1.2685.4136,1.4834,1.4834,0,0,0,1.7022-1.6534,1.5265,1.5265,0,0,0-1.7236-1.73,1.7069,1.7069,0,0,0-1.2608.4409A1.779,1.779,0,0,0,598.812,187.3294Z"/>
  </g>
  <g>
    <path d="M559.5288,203.7074h-1.9541v6.7739h-1.1631v-6.7739h-1.373v-.5254l1.373-.42v-.4273q0-2.8293,2.4727-2.83a5.0819,5.0819,0,0,1,1.4287.2451l-.3008.9317a3.8381,3.8381,0,0,0-1.1484-.2173,1.1209,1.1209,0,0,0-.9746.438,2.4436,2.4436,0,0,0-.3145,1.4043v.4975h1.9541Z"/>
    <path d="M565.6509,210.4813l-.2315-1.0928h-.0556a3.2274,3.2274,0,0,1-1.1455.9771,3.4906,3.4906,0,0,1-1.4248.2558,2.5649,2.5649,0,0,1-1.79-.5883,2.1447,2.1447,0,0,1-.6484-1.6744q0-2.3254,3.72-2.4375l1.3027-.042v-.4765a1.9435,1.9435,0,0,0-.3886-1.3345,1.599,1.599,0,0,0-1.2432-.4307,5.0661,5.0661,0,0,0-2.1719.5884l-.3564-.89a5.4394,5.4394,0,0,1,1.2431-.4834,5.3847,5.3847,0,0,1,1.3555-.1753,2.9257,2.9257,0,0,1,2.0352.6094,2.5483,2.5483,0,0,1,.6611,1.9545v5.24Zm-2.627-.82a2.3612,2.3612,0,0,0,1.7061-.5952,2.2035,2.2035,0,0,0,.62-1.667v-.6939l-1.1631.0493a4.23,4.23,0,0,0-2,.4307,1.3008,1.3008,0,0,0-.6133,1.1875,1.1992,1.1992,0,0,0,.3819.96A1.5854,1.5854,0,0,0,563.0239,209.6615Z"/>
    <path d="M568.81,200.7235a.7724.7724,0,0,1,.1962-.585.7266.7266,0,0,1,.9737.0034.7574.7574,0,0,1,.2031.5816.77.77,0,0,1-.2031.5849.6791.6791,0,0,1-.4834.1924.671.671,0,0,1-.49-.1924A.7869.7869,0,0,1,568.81,200.7235Zm1.2607,9.7578h-1.1631V202.804h1.1631Z"/>
    <path d="M573.7,210.4813h-1.1631v-10.9H573.7Z"/>
    <path d="M581.1187,208.3866a1.9236,1.9236,0,0,1-.7989,1.6533,3.7515,3.7515,0,0,1-2.2412.5815,4.8715,4.8715,0,0,1-2.3818-.4834v-1.0786a5.7759,5.7759,0,0,0,1.1875.4414,4.952,4.952,0,0,0,1.2217.1607,2.7721,2.7721,0,0,0,1.4013-.2906,1.0011,1.0011,0,0,0,.1016-1.6533,6.11,6.11,0,0,0-1.5166-.7529,8.2046,8.2046,0,0,1-1.5235-.6968,2.0813,2.0813,0,0,1-.6728-.6763,1.7673,1.7673,0,0,1-.2207-.9033,1.724,1.724,0,0,1,.7637-1.4819,3.5582,3.5582,0,0,1,2.0947-.5425,6.1265,6.1265,0,0,1,2.4238.5044l-.4131.9453a5.5657,5.5657,0,0,0-2.0947-.4761,2.4113,2.4113,0,0,0-1.2471.2593.8008.8008,0,0,0-.42.7144.8675.8675,0,0,0,.1572.5254,1.56,1.56,0,0,0,.5079.4131,11.3313,11.3313,0,0,0,1.3447.5673,5.0206,5.0206,0,0,1,1.8457,1.002A1.7644,1.7644,0,0,1,581.1187,208.3866Z"/>
  </g>
  <circle class="cls-1" cx="568.3093" cy="237.8532" r="17.0081" transform="translate(131.079 671.8801) rotate(-67.5)"/>
  <circle class="cls-2" cx="568.3093" cy="237.8532" r="17.0081" transform="translate(131.079 671.8801) rotate(-67.5)"/>
  <polyline class="cls-2" points="450.387 157.111 450.387 168.45 327.361 168.45 327.361 175.016"/>
  <polyline class="cls-2" points="454.922 157.111 454.922 168.45 454.922 175.016"/>
  <polyline class="cls-2" points="459.457 157.111 459.457 168.45 568.309 168.45 568.309 175.016"/>
  <rect class="cls-1" x="334.4933" y="274.115" width="110.4621" height="45.8287"/>
  <rect class="cls-2" x="334.4933" y="274.115" width="110.4621" height="45.8287"/>
  <g>
    <path d="M351.2446,282.3231a3.3459,3.3459,0,0,0-2.665,1.124,4.5307,4.5307,0,0,0-.9775,3.0781,4.6263,4.6263,0,0,0,.9423,3.1075,3.35,3.35,0,0,0,2.6866,1.0957,9.1683,9.1683,0,0,0,2.4443-.3848v1.0439a7.5393,7.5393,0,0,1-2.6265.3985,4.4448,4.4448,0,0,1-3.4922-1.3721,5.6588,5.6588,0,0,1-1.23-3.9023,6.15,6.15,0,0,1,.5923-2.7735,4.2494,4.2494,0,0,1,1.709-1.8359,5.172,5.172,0,0,1,2.63-.6445,6.3414,6.3414,0,0,1,2.8159.5888l-.5044,1.0225A5.425,5.425,0,0,0,351.2446,282.3231Z"/>
    <path d="M362.3613,287.8006a4.2356,4.2356,0,0,1-.9453,2.9317,3.3291,3.3291,0,0,1-2.6128,1.0537,3.4714,3.4714,0,0,1-1.8286-.4824,3.1935,3.1935,0,0,1-1.2329-1.3877,4.8335,4.8335,0,0,1-.4341-2.1153,4.2278,4.2278,0,0,1,.9385-2.9248,3.32,3.32,0,0,1,2.606-1.0469,3.2508,3.2508,0,0,1,2.56,1.0713A4.221,4.221,0,0,1,362.3613,287.8006Zm-5.8491,0a3.6443,3.6443,0,0,0,.5884,2.2412,2.3362,2.3362,0,0,0,3.4643.0039,3.6263,3.6263,0,0,0,.5918-2.2451,3.565,3.565,0,0,0-.5918-2.2236,2.081,2.081,0,0,0-1.748-.7607,2.0459,2.0459,0,0,0-1.7231.75A3.6059,3.6059,0,0,0,356.5122,287.8006Z"/>
    <path d="M374.1865,291.6463v-4.9941a2.0719,2.0719,0,0,0-.3926-1.377,1.5185,1.5185,0,0,0-1.2187-.4589,1.9658,1.9658,0,0,0-1.604.624,2.9591,2.9591,0,0,0-.5186,1.9189v4.2871H369.29v-4.9941a2.0724,2.0724,0,0,0-.3925-1.377,1.5275,1.5275,0,0,0-1.2256-.4589,1.9006,1.9006,0,0,0-1.6011.6552,3.5453,3.5453,0,0,0-.5078,2.1465v4.0283H364.4v-7.6777h.9458l.189,1.0508h.0561a2.2831,2.2831,0,0,1,.9282-.875,2.8241,2.8241,0,0,1,1.3413-.3155,2.2811,2.2811,0,0,1,2.3536,1.3028h.0561a2.4583,2.4583,0,0,1,.9946-.9531,3.0882,3.0882,0,0,1,1.4854-.35,2.5984,2.5984,0,0,1,1.9507.669,2.992,2.992,0,0,1,.6479,2.14v5.0088Z"/>
    <path d="M381.3169,291.786a3.3181,3.3181,0,0,1-1.3691-.2764,2.5761,2.5761,0,0,1-1.0406-.8506h-.084a10.2622,10.2622,0,0,1,.084,1.2744v3.1592h-1.1626v-11.124h.9458l.1612,1.0508h.0556a2.7,2.7,0,0,1,1.044-.91,3.1759,3.1759,0,0,1,1.3657-.28,2.8366,2.8366,0,0,1,2.3574,1.044,5.557,5.557,0,0,1-.0141,5.8662A2.842,2.842,0,0,1,381.3169,291.786Zm-.168-6.97a2.0623,2.0623,0,0,0-1.7021.6513,3.3555,3.3555,0,0,0-.54,2.0742v.2588a3.8408,3.8408,0,0,0,.54,2.3155,2.0507,2.0507,0,0,0,1.73.6962,1.799,1.799,0,0,0,1.5586-.8056,3.8183,3.8183,0,0,0,.5635-2.22,3.6775,3.6775,0,0,0-.5635-2.2032A1.8549,1.8549,0,0,0,381.1489,284.8163Z"/>
    <path d="M390.0386,283.8289a4.58,4.58,0,0,1,.9175.084l-.1612,1.0791a3.9446,3.9446,0,0,0-.84-.1054,2.0452,2.0452,0,0,0-1.5938.7568,2.7558,2.7558,0,0,0-.6621,1.8838v4.1191h-1.1626v-7.6777h.96l.1333,1.4219h.0562a3.37,3.37,0,0,1,1.03-1.1553A2.32,2.32,0,0,1,390.0386,283.8289Z"/>
    <path d="M395.6353,291.786a3.5265,3.5265,0,0,1-2.6866-1.0362,4.0163,4.0163,0,0,1-.9839-2.8789,4.452,4.452,0,0,1,.9141-2.9492,3.0363,3.0363,0,0,1,2.4551-1.0928,2.8953,2.8953,0,0,1,2.2837.9493,3.6374,3.6374,0,0,1,.8408,2.5039v.7353h-5.2891a3.0439,3.0439,0,0,0,.6831,2.0528,2.3635,2.3635,0,0,0,1.8247.7,6.1789,6.1789,0,0,0,2.4517-.5176v1.0361a6.1266,6.1266,0,0,1-1.166.3818A6.5474,6.5474,0,0,1,395.6353,291.786Zm-.315-6.9834a1.8992,1.8992,0,0,0-1.4746.6025,2.7751,2.7751,0,0,0-.6479,1.667h4.0136a2.5566,2.5566,0,0,0-.49-1.6846A1.7274,1.7274,0,0,0,395.32,284.8026Z"/>
    <path d="M405.3936,289.5516a1.9226,1.9226,0,0,1-.7989,1.6533,3.7522,3.7522,0,0,1-2.2417.5811,4.8841,4.8841,0,0,1-2.3813-.4824v-1.0791a5.7773,5.7773,0,0,0,1.187.4414,4.96,4.96,0,0,0,1.2226.1611,2.7657,2.7657,0,0,0,1.4009-.291,1.0011,1.0011,0,0,0,.1016-1.6533,6.155,6.155,0,0,0-1.5166-.753,8.1344,8.1344,0,0,1-1.5234-.6972,2.08,2.08,0,0,1-.6724-.6758,1.7566,1.7566,0,0,1-.2207-.9033,1.7217,1.7217,0,0,1,.7632-1.4815,3.5564,3.5564,0,0,1,2.0947-.543,6.133,6.133,0,0,1,2.4238.504l-.4136.9462a5.5686,5.5686,0,0,0-2.0942-.4765,2.41,2.41,0,0,0-1.2471.2588.8018.8018,0,0,0-.42.7148.8717.8717,0,0,0,.1577.5254,1.5608,1.5608,0,0,0,.5079.4131,11.2588,11.2588,0,0,0,1.3452.5674,5.0346,5.0346,0,0,1,1.8457,1.0019A1.7663,1.7663,0,0,1,405.3936,289.5516Z"/>
    <path d="M412.2373,289.5516a1.9225,1.9225,0,0,1-.7988,1.6533,3.7522,3.7522,0,0,1-2.2417.5811,4.8846,4.8846,0,0,1-2.3814-.4824v-1.0791a5.7816,5.7816,0,0,0,1.187.4414,4.9608,4.9608,0,0,0,1.2227.1611,2.7662,2.7662,0,0,0,1.4009-.291,1.0011,1.0011,0,0,0,.1015-1.6533,6.1512,6.1512,0,0,0-1.5166-.753,8.1407,8.1407,0,0,1-1.5234-.6972,2.08,2.08,0,0,1-.6724-.6758,1.7576,1.7576,0,0,1-.2207-.9033,1.7217,1.7217,0,0,1,.7632-1.4815,3.5566,3.5566,0,0,1,2.0947-.543,6.1339,6.1339,0,0,1,2.4239.504l-.4136.9462a5.569,5.569,0,0,0-2.0942-.4765,2.41,2.41,0,0,0-1.2471.2588.8016.8016,0,0,0-.42.7148.8711.8711,0,0,0,.1577.5254,1.56,1.56,0,0,0,.5078.4131,11.2588,11.2588,0,0,0,1.3452.5674,5.0337,5.0337,0,0,1,1.8457,1.0019A1.7663,1.7663,0,0,1,412.2373,289.5516Z"/>
    <path d="M414.03,281.8885a.7716.7716,0,0,1,.1963-.5849.7255.7255,0,0,1,.9736.0039.7576.7576,0,0,1,.2031.581.7718.7718,0,0,1-.2031.585.6815.6815,0,0,1-.4834.1924.6722.6722,0,0,1-.49-.1924A.7868.7868,0,0,1,414.03,281.8885Zm1.2607,9.7578h-1.1626v-7.6777h1.1626Z"/>
    <path d="M424.3833,287.8006a4.238,4.238,0,0,1-.9453,2.9317,3.3311,3.3311,0,0,1-2.6133,1.0537,3.4708,3.4708,0,0,1-1.8281-.4824,3.1928,3.1928,0,0,1-1.2329-1.3877,4.8335,4.8335,0,0,1-.4341-2.1153,4.2278,4.2278,0,0,1,.9385-2.9248,3.32,3.32,0,0,1,2.6054-1.0469,3.25,3.25,0,0,1,2.5606,1.0713A4.2188,4.2188,0,0,1,424.3833,287.8006Zm-5.8491,0a3.6443,3.6443,0,0,0,.5884,2.2412,2.3357,2.3357,0,0,0,3.4638.0039,3.6263,3.6263,0,0,0,.5918-2.2451,3.565,3.565,0,0,0-.5918-2.2236,2.0784,2.0784,0,0,0-1.747-.7607,2.0464,2.0464,0,0,0-1.7237.75A3.6059,3.6059,0,0,0,418.5342,287.8006Z"/>
    <path d="M431.6753,291.6463V286.68a2.0058,2.0058,0,0,0-.4268-1.4,1.7409,1.7409,0,0,0-1.3379-.4628,2.21,2.21,0,0,0-1.7656.6513,3.2874,3.2874,0,0,0-.56,2.15v4.0283h-1.1631v-7.6777h.9463l.1894,1.0508h.0557a2.3784,2.3784,0,0,1,1.0019-.8789,3.2514,3.2514,0,0,1,1.4356-.3116,2.9169,2.9169,0,0,1,2.0879.669,2.8477,2.8477,0,0,1,.7,2.14v5.0088Z"/>
  </g>
  <g>
    <path d="M361.36,307.4832a1.9224,1.9224,0,0,1-.7989,1.6534,3.7522,3.7522,0,0,1-2.2417.581,4.883,4.883,0,0,1-2.3813-.4824v-1.0791a5.7715,5.7715,0,0,0,1.187.4414,4.9608,4.9608,0,0,0,1.2227.1611,2.7644,2.7644,0,0,0,1.4008-.291,1.0011,1.0011,0,0,0,.1016-1.6533,6.1557,6.1557,0,0,0-1.5166-.7529,8.14,8.14,0,0,1-1.5234-.6973,2.0777,2.0777,0,0,1-.6724-.6758,1.7561,1.7561,0,0,1-.2207-.9033,1.7215,1.7215,0,0,1,.7632-1.4814,3.5566,3.5566,0,0,1,2.0947-.543,6.1347,6.1347,0,0,1,2.4238.5039l-.4135.9463a5.5678,5.5678,0,0,0-2.0943-.4766,2.4105,2.4105,0,0,0-1.2471.2588.8019.8019,0,0,0-.42.7149.871.871,0,0,0,.1578.5253,1.5567,1.5567,0,0,0,.5078.4131,11.2588,11.2588,0,0,0,1.3452.5674,5.033,5.033,0,0,1,1.8457,1.002A1.766,1.766,0,0,1,361.36,307.4832Z"/>
    <path d="M366.4941,309.7176a3.5267,3.5267,0,0,1-2.6865-1.0361,4.0164,4.0164,0,0,1-.9839-2.8789,4.452,4.452,0,0,1,.9141-2.9492,3.036,3.036,0,0,1,2.4551-1.0928,2.8952,2.8952,0,0,1,2.2837.9492,3.6376,3.6376,0,0,1,.8408,2.5039v.7354h-5.2891a3.0438,3.0438,0,0,0,.6831,2.0527,2.3635,2.3635,0,0,0,1.8247.7,6.1789,6.1789,0,0,0,2.4517-.5176v1.0362a6.136,6.136,0,0,1-1.166.3818A6.5557,6.5557,0,0,1,366.4941,309.7176Zm-.3149-6.9834a1.899,1.899,0,0,0-1.4746.6026,2.7752,2.7752,0,0,0-.648,1.667H368.07a2.557,2.557,0,0,0-.49-1.6846A1.7272,1.7272,0,0,0,366.1792,302.7342Z"/>
    <path d="M376.021,309.578l-.231-1.0928h-.0561a3.23,3.23,0,0,1-1.1455.9775,3.4973,3.4973,0,0,1-1.4253.2549,2.5616,2.5616,0,0,1-1.79-.5879,2.1455,2.1455,0,0,1-.6479-1.6738q0-2.3262,3.7192-2.4385l1.3032-.042V304.5a1.9494,1.9494,0,0,0-.3886-1.3349,1.6,1.6,0,0,0-1.2437-.4307,5.0739,5.0739,0,0,0-2.1714.5879l-.3574-.89a5.498,5.498,0,0,1,1.2437-.4834,5.4061,5.4061,0,0,1,1.3554-.1748,2.9247,2.9247,0,0,1,2.0347.6093,2.5442,2.5442,0,0,1,.6621,1.9551v5.2393Zm-2.627-.8194a2.3589,2.3589,0,0,0,1.7061-.5957,2.2031,2.2031,0,0,0,.62-1.667v-.6933l-1.1626.0488a4.2193,4.2193,0,0,0-2,.4307,1.2994,1.2994,0,0,0-.6128,1.1875,1.1981,1.1981,0,0,0,.3819.96A1.587,1.587,0,0,0,373.394,308.7586Z"/>
    <path d="M380.4409,309.578h-1.1626V298.6786h1.1626Z"/>
    <path d="M390.3843,309.578H389.249v-7.2989q0-.9111.0562-1.7236c-.0982.0977-.2075.2012-.3291.3086s-.6773.5625-1.667,1.3652l-.6167-.7978,2.7109-2.0947h.981Z"/>
    <path d="M402.0015,302.8045h-1.9546v6.7735h-1.1626v-6.7735h-1.3731v-.5254l1.3731-.4209v-.4267q0-2.83,2.4726-2.83a5.0693,5.0693,0,0,1,1.4292.2451l-.3012.9317a3.8575,3.8575,0,0,0-1.149-.2178,1.1189,1.1189,0,0,0-.9736.4385,2.4437,2.4437,0,0,0-.3154,1.4043v.497h1.9546Z"/>
    <path d="M408.124,309.578l-.2309-1.0928h-.0562a3.2292,3.2292,0,0,1-1.1455.9775,3.4973,3.4973,0,0,1-1.4253.2549,2.5612,2.5612,0,0,1-1.7895-.5879,2.1452,2.1452,0,0,1-.648-1.6738q0-2.3262,3.7193-2.4385l1.3032-.042V304.5a1.9494,1.9494,0,0,0-.3887-1.3349,1.6,1.6,0,0,0-1.2436-.4307,5.0732,5.0732,0,0,0-2.1714.5879l-.3575-.89a5.5,5.5,0,0,1,1.2437-.4834,5.4063,5.4063,0,0,1,1.3555-.1748,2.9246,2.9246,0,0,1,2.0346.6093,2.5442,2.5442,0,0,1,.6621,1.9551v5.2393Zm-2.6269-.8194a2.3586,2.3586,0,0,0,1.706-.5957,2.2031,2.2031,0,0,0,.62-1.667v-.6933l-1.1626.0488a4.219,4.219,0,0,0-2,.4307,1.2994,1.2994,0,0,0-.6128,1.1875,1.1981,1.1981,0,0,0,.3818.96A1.5873,1.5873,0,0,0,405.4971,308.7586Z"/>
    <path d="M411.2832,299.82a.7718.7718,0,0,1,.1963-.585.7258.7258,0,0,1,.9736.0039.7575.7575,0,0,1,.2032.5811.7712.7712,0,0,1-.2032.5849.6809.6809,0,0,1-.4834.1924.672.672,0,0,1-.49-.1924A.7866.7866,0,0,1,411.2832,299.82Zm1.2607,9.7578h-1.1626V301.9h1.1626Z"/>
    <path d="M416.1724,309.578H415.01V298.6786h1.1626Z"/>
    <path d="M423.5913,307.4832a1.9238,1.9238,0,0,1-.7988,1.6534,3.7516,3.7516,0,0,1-2.2412.581,4.8842,4.8842,0,0,1-2.3819-.4824v-1.0791a5.7758,5.7758,0,0,0,1.187.4414,4.96,4.96,0,0,0,1.2222.1611,2.7672,2.7672,0,0,0,1.4014-.291,1.0011,1.0011,0,0,0,.1015-1.6533,6.1422,6.1422,0,0,0-1.5166-.7529,8.1461,8.1461,0,0,1-1.5234-.6973,2.0777,2.0777,0,0,1-.6724-.6758,1.7571,1.7571,0,0,1-.2207-.9033,1.7215,1.7215,0,0,1,.7632-1.4814,3.5566,3.5566,0,0,1,2.0947-.543,6.1355,6.1355,0,0,1,2.4239.5039l-.4131.9463a5.5676,5.5676,0,0,0-2.0947-.4766,2.4118,2.4118,0,0,0-1.2471.2588.8018.8018,0,0,0-.42.7149.871.871,0,0,0,.1577.5253,1.5578,1.5578,0,0,0,.5078.4131,11.2479,11.2479,0,0,0,1.3447.5674,5.0233,5.0233,0,0,1,1.8457,1.002A1.7639,1.7639,0,0,1,423.5913,307.4832Z"/>
  </g>
  <circle class="cls-1" cx="389.7244" cy="336.9518" r="17.0081"/>
  <circle class="cls-2" cx="389.7244" cy="336.9518" r="17.0081"/>
  <rect class="cls-1" x="464.8886" y="274.115" width="110.4621" height="45.8287"/>
  <rect class="cls-2" x="464.8886" y="274.115" width="110.4621" height="45.8287"/>
  <g>
    <path d="M481.6382,282.3231a3.3468,3.3468,0,0,0-2.6651,1.124,4.5337,4.5337,0,0,0-.9775,3.0781,4.6289,4.6289,0,0,0,.9424,3.1075,3.35,3.35,0,0,0,2.6865,1.0957,9.1707,9.1707,0,0,0,2.4443-.3848v1.0439a7.5394,7.5394,0,0,1-2.6269.3985,4.4432,4.4432,0,0,1-3.4912-1.3721,5.6539,5.6539,0,0,1-1.2295-3.9023,6.157,6.157,0,0,1,.5918-2.7735,4.2489,4.2489,0,0,1,1.709-1.8359,5.1737,5.1737,0,0,1,2.63-.6445,6.3424,6.3424,0,0,1,2.8164.5888l-.5039,1.0225A5.4288,5.4288,0,0,0,481.6382,282.3231Z"/>
    <path d="M492.7554,287.8006a4.2385,4.2385,0,0,1-.9453,2.9317,3.3311,3.3311,0,0,1-2.6133,1.0537,3.4683,3.4683,0,0,1-1.8281-.4824,3.1889,3.1889,0,0,1-1.2325-1.3877,4.8278,4.8278,0,0,1-.4345-2.1153,4.2283,4.2283,0,0,1,.9384-2.9248,3.3191,3.3191,0,0,1,2.6055-1.0469,3.25,3.25,0,0,1,2.5606,1.0713A4.2188,4.2188,0,0,1,492.7554,287.8006Zm-5.8487,0a3.6477,3.6477,0,0,0,.5879,2.2412,2.3358,2.3358,0,0,0,3.4639.0039,3.6269,3.6269,0,0,0,.5918-2.2451,3.5657,3.5657,0,0,0-.5918-2.2236,2.0785,2.0785,0,0,0-1.7471-.7607,2.0464,2.0464,0,0,0-1.7236.75A3.606,3.606,0,0,0,486.9067,287.8006Z"/>
    <path d="M504.58,291.6463v-4.9941a2.078,2.078,0,0,0-.3916-1.377,1.52,1.52,0,0,0-1.22-.4589,1.9662,1.9662,0,0,0-1.6036.624,2.9591,2.9591,0,0,0-.5185,1.9189v4.2871h-1.1631v-4.9941a2.078,2.078,0,0,0-.3916-1.377,1.5294,1.5294,0,0,0-1.2266-.4589,1.8993,1.8993,0,0,0-1.6005.6552,3.5417,3.5417,0,0,0-.5079,2.1465v4.0283h-1.163v-7.6777h.9462l.1895,1.0508h.0557a2.2849,2.2849,0,0,1,.9277-.875,2.8273,2.8273,0,0,1,1.3418-.3155,2.2813,2.2813,0,0,1,2.3535,1.3028h.0567a2.45,2.45,0,0,1,.9941-.9531,3.09,3.09,0,0,1,1.4853-.35,2.6009,2.6009,0,0,1,1.9512.669,2.9939,2.9939,0,0,1,.6475,2.14v5.0088Z"/>
    <path d="M511.7114,291.786a3.3248,3.3248,0,0,1-1.37-.2764,2.577,2.577,0,0,1-1.04-.8506h-.084a10.1856,10.1856,0,0,1,.084,1.2744v3.1592h-1.1631v-11.124h.9463l.1611,1.0508h.0557a2.6966,2.6966,0,0,1,1.0439-.91,3.1772,3.1772,0,0,1,1.3662-.28,2.8349,2.8349,0,0,1,2.3565,1.044,5.553,5.553,0,0,1-.0137,5.8662A2.8416,2.8416,0,0,1,511.7114,291.786Zm-.1679-6.97a2.061,2.061,0,0,0-1.7022.6513,3.3546,3.3546,0,0,0-.54,2.0742v.2588a3.8376,3.8376,0,0,0,.54,2.3155,2.0489,2.0489,0,0,0,1.73.6962,1.7991,1.7991,0,0,0,1.5586-.8056,3.8144,3.8144,0,0,0,.5644-2.22,3.6738,3.6738,0,0,0-.5644-2.2032A1.8533,1.8533,0,0,0,511.5435,284.8163Z"/>
    <path d="M520.4321,283.8289a4.5914,4.5914,0,0,1,.918.084l-.1611,1.0791a3.9535,3.9535,0,0,0-.8409-.1054,2.0452,2.0452,0,0,0-1.5937.7568,2.7558,2.7558,0,0,0-.6621,1.8838v4.1191h-1.1631v-7.6777h.96l.1328,1.4219h.0566a3.37,3.37,0,0,1,1.0293-1.1553A2.3225,2.3225,0,0,1,520.4321,283.8289Z"/>
    <path d="M526.0288,291.786a3.5261,3.5261,0,0,1-2.6865-1.0362,4.0139,4.0139,0,0,1-.9844-2.8789,4.452,4.452,0,0,1,.9141-2.9492,3.0362,3.0362,0,0,1,2.4551-1.0928,2.8967,2.8967,0,0,1,2.2841.9493,3.6414,3.6414,0,0,1,.84,2.5039v.7353H523.563a3.0458,3.0458,0,0,0,.6826,2.0528,2.3622,2.3622,0,0,0,1.8252.7,6.1784,6.1784,0,0,0,2.4512-.5176v1.0361a6.1518,6.1518,0,0,1-1.166.3818A6.5528,6.5528,0,0,1,526.0288,291.786Zm-.3154-6.9834a1.9,1.9,0,0,0-1.4746.6025,2.7729,2.7729,0,0,0-.6485,1.667h4.0147a2.5545,2.5545,0,0,0-.4912-1.6846A1.7257,1.7257,0,0,0,525.7134,284.8026Z"/>
    <path d="M535.7866,289.5516a1.9237,1.9237,0,0,1-.7988,1.6533,3.7516,3.7516,0,0,1-2.2412.5811,4.8854,4.8854,0,0,1-2.3819-.4824v-1.0791a5.7861,5.7861,0,0,0,1.1875.4414,4.9531,4.9531,0,0,0,1.2217.1611,2.7682,2.7682,0,0,0,1.4014-.291,1.0012,1.0012,0,0,0,.1016-1.6533,6.1454,6.1454,0,0,0-1.5166-.753,8.1078,8.1078,0,0,1-1.5235-.6972,2.0811,2.0811,0,0,1-.6728-.6758,1.7665,1.7665,0,0,1-.2207-.9033,1.7221,1.7221,0,0,1,.7636-1.4815,3.5548,3.5548,0,0,1,2.0948-.543,6.1337,6.1337,0,0,1,2.4238.504l-.4131.9462a5.5688,5.5688,0,0,0-2.0947-.4765,2.4107,2.4107,0,0,0-1.2471.2588.8011.8011,0,0,0-.42.7148.8675.8675,0,0,0,.1572.5254,1.5657,1.5657,0,0,0,.5078.4131,11.2479,11.2479,0,0,0,1.3447.5674,5.0264,5.0264,0,0,1,1.8458,1.0019A1.7645,1.7645,0,0,1,535.7866,289.5516Z"/>
    <path d="M542.63,289.5516a1.9236,1.9236,0,0,1-.7989,1.6533,3.7516,3.7516,0,0,1-2.2412.5811,4.8849,4.8849,0,0,1-2.3818-.4824v-1.0791a5.7817,5.7817,0,0,0,1.1875.4414,4.9531,4.9531,0,0,0,1.2217.1611,2.7676,2.7676,0,0,0,1.4013-.291,1.0011,1.0011,0,0,0,.1016-1.6533,6.1435,6.1435,0,0,0-1.5166-.753,8.1062,8.1062,0,0,1-1.5234-.6972,2.0815,2.0815,0,0,1-.6729-.6758,1.7665,1.7665,0,0,1-.2207-.9033,1.7221,1.7221,0,0,1,.7637-1.4815,3.5545,3.5545,0,0,1,2.0947-.543,6.133,6.133,0,0,1,2.4238.504l-.413.9462a5.57,5.57,0,0,0-2.0948-.4765,2.41,2.41,0,0,0-1.247.2588.8012.8012,0,0,0-.42.7148.8675.8675,0,0,0,.1573.5254,1.5646,1.5646,0,0,0,.5078.4131,11.24,11.24,0,0,0,1.3447.5674,5.0258,5.0258,0,0,1,1.8457,1.0019A1.7645,1.7645,0,0,1,542.63,289.5516Z"/>
    <path d="M544.4243,281.8885a.7716.7716,0,0,1,.1963-.5849.7255.7255,0,0,1,.9736.0039.7554.7554,0,0,1,.2032.581.77.77,0,0,1-.2032.585.6813.6813,0,0,1-.4834.1924.6734.6734,0,0,1-.49-.1924A.7868.7868,0,0,1,544.4243,281.8885Zm1.2608,9.7578H544.522v-7.6777h1.1631Z"/>
    <path d="M554.7769,287.8006a4.2381,4.2381,0,0,1-.9454,2.9317,3.3307,3.3307,0,0,1-2.6132,1.0537,3.4687,3.4687,0,0,1-1.8282-.4824,3.1893,3.1893,0,0,1-1.2324-1.3877,4.8278,4.8278,0,0,1-.4346-2.1153,4.2278,4.2278,0,0,1,.9385-2.9248,3.3191,3.3191,0,0,1,2.6055-1.0469,3.25,3.25,0,0,1,2.56,1.0713A4.2188,4.2188,0,0,1,554.7769,287.8006Zm-5.8487,0a3.6477,3.6477,0,0,0,.5879,2.2412,2.3358,2.3358,0,0,0,3.4639.0039,3.6269,3.6269,0,0,0,.5918-2.2451,3.5657,3.5657,0,0,0-.5918-2.2236,2.0787,2.0787,0,0,0-1.7471-.7607,2.0464,2.0464,0,0,0-1.7236.75A3.606,3.606,0,0,0,548.9282,287.8006Z"/>
    <path d="M562.0688,291.6463V286.68a2.0057,2.0057,0,0,0-.4267-1.4,1.7412,1.7412,0,0,0-1.3379-.4628,2.21,2.21,0,0,0-1.7656.6513,3.2874,3.2874,0,0,0-.5606,2.15v4.0283h-1.1631v-7.6777h.9463l.1895,1.0508h.0556a2.3781,2.3781,0,0,1,1.002-.8789,3.2512,3.2512,0,0,1,1.4355-.3116,2.9166,2.9166,0,0,1,2.0879.669,2.8477,2.8477,0,0,1,.7,2.14v5.0088Z"/>
  </g>
  <g>
    <path d="M491.7544,307.4832a1.9238,1.9238,0,0,1-.7988,1.6534,3.7518,3.7518,0,0,1-2.2412.581,4.8842,4.8842,0,0,1-2.3819-.4824v-1.0791a5.78,5.78,0,0,0,1.1875.4414,4.9531,4.9531,0,0,0,1.2217.1611,2.7672,2.7672,0,0,0,1.4014-.291,1.0011,1.0011,0,0,0,.1015-1.6533,6.1442,6.1442,0,0,0-1.5166-.7529,8.1147,8.1147,0,0,1-1.5234-.6973,2.08,2.08,0,0,1-.6729-.6758,1.767,1.767,0,0,1-.2207-.9033,1.722,1.722,0,0,1,.7637-1.4814,3.5545,3.5545,0,0,1,2.0947-.543,6.1355,6.1355,0,0,1,2.4239.5039l-.4131.9463a5.5677,5.5677,0,0,0-2.0948-.4766,2.4116,2.4116,0,0,0-1.247.2588.8013.8013,0,0,0-.42.7149.8674.8674,0,0,0,.1572.5253,1.5632,1.5632,0,0,0,.5078.4131,11.24,11.24,0,0,0,1.3447.5674,5.0233,5.0233,0,0,1,1.8457,1.002A1.7643,1.7643,0,0,1,491.7544,307.4832Z"/>
    <path d="M496.8892,309.7176a3.5268,3.5268,0,0,1-2.6866-1.0361,4.0144,4.0144,0,0,1-.9843-2.8789,4.4519,4.4519,0,0,1,.914-2.9492,3.0361,3.0361,0,0,1,2.4551-1.0928,2.897,2.897,0,0,1,2.2842.9492,3.6415,3.6415,0,0,1,.84,2.5039v.7354h-5.2881a3.0457,3.0457,0,0,0,.6827,2.0527,2.3622,2.3622,0,0,0,1.8252.7,6.1782,6.1782,0,0,0,2.4511-.5176v1.0362a6.1567,6.1567,0,0,1-1.166.3818A6.56,6.56,0,0,1,496.8892,309.7176Zm-.3155-6.9834a1.9,1.9,0,0,0-1.4746.6026,2.7717,2.7717,0,0,0-.6484,1.667h4.0146a2.5537,2.5537,0,0,0-.4912-1.6846A1.7253,1.7253,0,0,0,496.5737,302.7342Z"/>
    <path d="M506.4155,309.578l-.2314-1.0928h-.0557a3.2292,3.2292,0,0,1-1.1455.9775,3.4978,3.4978,0,0,1-1.4248.2549,2.5617,2.5617,0,0,1-1.79-.5879,2.1438,2.1438,0,0,1-.6485-1.6738q0-2.3262,3.72-2.4385l1.3027-.042V304.5a1.9443,1.9443,0,0,0-.3887-1.3349,1.5987,1.5987,0,0,0-1.2431-.4307,5.0787,5.0787,0,0,0-2.1719.5879l-.3565-.89a5.4866,5.4866,0,0,1,1.2432-.4834,5.4063,5.4063,0,0,1,1.3555-.1748,2.926,2.926,0,0,1,2.0351.6093,2.5474,2.5474,0,0,1,.6612,1.9551v5.2393Zm-2.6269-.8194a2.3588,2.3588,0,0,0,1.706-.5957,2.2033,2.2033,0,0,0,.62-1.667v-.6933l-1.163.0488a4.2177,4.2177,0,0,0-2,.4307,1.3008,1.3008,0,0,0-.6133,1.1875,1.2013,1.2013,0,0,0,.3818.96A1.59,1.59,0,0,0,503.7886,308.7586Z"/>
    <path d="M510.8354,309.578h-1.163V298.6786h1.163Z"/>
    <path d="M520.7788,309.578H519.644v-7.2989q0-.9111.0557-1.7236c-.0976.0977-.208.2012-.3291.3086s-.6768.5625-1.667,1.3652l-.6162-.7978,2.7109-2.0947h.9805Z"/>
    <path d="M532.396,302.8045h-1.9541v6.7735h-1.1631v-6.7735h-1.373v-.5254l1.373-.4209v-.4267q0-2.83,2.4727-2.83a5.0639,5.0639,0,0,1,1.4287.2451l-.3008.9317a3.8541,3.8541,0,0,0-1.1484-.2178,1.1215,1.1215,0,0,0-.9747.4385,2.4453,2.4453,0,0,0-.3144,1.4043v.497h1.9541Z"/>
    <path d="M538.5181,309.578l-.2315-1.0928h-.0556a3.23,3.23,0,0,1-1.1456.9775,3.4974,3.4974,0,0,1-1.4248.2549,2.5617,2.5617,0,0,1-1.79-.5879,2.1441,2.1441,0,0,1-.6484-1.6738q0-2.3262,3.72-2.4385l1.3027-.042V304.5a1.9448,1.9448,0,0,0-.3886-1.3349,1.599,1.599,0,0,0-1.2432-.4307,5.0787,5.0787,0,0,0-2.1719.5879l-.3564-.89a5.4858,5.4858,0,0,1,1.2431-.4834,5.4069,5.4069,0,0,1,1.3555-.1748,2.9263,2.9263,0,0,1,2.0352.6093,2.5477,2.5477,0,0,1,.6611,1.9551v5.2393Zm-2.627-.8194a2.359,2.359,0,0,0,1.7061-.5957,2.2033,2.2033,0,0,0,.62-1.667v-.6933l-1.1631.0488a4.2177,4.2177,0,0,0-2,.4307,1.3008,1.3008,0,0,0-.6133,1.1875,1.201,1.201,0,0,0,.3819.96A1.59,1.59,0,0,0,535.8911,308.7586Z"/>
    <path d="M541.6772,299.82a.7722.7722,0,0,1,.1963-.585.7259.7259,0,0,1,.9737.0039.756.756,0,0,1,.2031.5811.77.77,0,0,1-.2031.5849.6812.6812,0,0,1-.4834.1924.673.673,0,0,1-.49-.1924A.787.787,0,0,1,541.6772,299.82Zm1.2608,9.7578h-1.1631V301.9h1.1631Z"/>
    <path d="M546.5669,309.578h-1.1631V298.6786h1.1631Z"/>
    <path d="M553.9858,307.4832a1.9238,1.9238,0,0,1-.7988,1.6534,3.7516,3.7516,0,0,1-2.2412.581,4.8835,4.8835,0,0,1-2.3818-.4824v-1.0791a5.7759,5.7759,0,0,0,1.1875.4414,4.9517,4.9517,0,0,0,1.2216.1611,2.7667,2.7667,0,0,0,1.4014-.291,1.0012,1.0012,0,0,0,.1016-1.6533,6.1461,6.1461,0,0,0-1.5166-.7529,8.1132,8.1132,0,0,1-1.5235-.6973,2.0792,2.0792,0,0,1-.6728-.6758,1.766,1.766,0,0,1-.2207-.9033,1.722,1.722,0,0,1,.7637-1.4814,3.5543,3.5543,0,0,1,2.0947-.543,6.135,6.135,0,0,1,2.4238.5039l-.4131.9463a5.5672,5.5672,0,0,0-2.0947-.4766,2.4118,2.4118,0,0,0-1.2471.2588.8015.8015,0,0,0-.42.7149.868.868,0,0,0,.1572.5253,1.5632,1.5632,0,0,0,.5078.4131,11.2441,11.2441,0,0,0,1.3448.5674,5.025,5.025,0,0,1,1.8457,1.002A1.7642,1.7642,0,0,1,553.9858,307.4832Z"/>
  </g>
  <circle class="cls-1" cx="520.1197" cy="336.9518" r="17.0081"/>
  <circle class="cls-2" cx="520.1197" cy="336.9518" r="17.0081"/>
  <polyline class="cls-2" points="450.772 251.878 450.772 263.216 389.724 263.216 389.724 274.115"/>
  <polyline class="cls-2" points="459.072 251.878 459.072 263.216 520.12 263.216 520.12 274.115"/>
</svg>
