<svg id="Laag_1" data-name="Laag 1" xmlns="http://www.w3.org/2000/svg" width="728.9117" height="620.361" viewBox="0 0 728.9117 620.361">
  <defs>
    <style>
      .cls-1 {
        fill: #b3b3b3;
      }

      .cls-2 {
        fill: none;
        stroke: #000;
        stroke-miterlimit: 10;
        stroke-width: 0.3985px;
      }
    </style>
  </defs>
  <title>pcba</title>
  <rect class="cls-1" x="399.0523" y="0.1992" width="58.3678" height="23.7977"/>
  <rect class="cls-2" x="399.0523" y="0.1992" width="58.3678" height="23.7977"/>
  <g>
    <path d="M411.2214,12.8438a2.5126,2.5126,0,0,1-.98,2.1089,4.2552,4.2552,0,0,1-2.6621.7563,6.6641,6.6641,0,0,1-2.8018-.4692V14.0909a7.3752,7.3752,0,0,0,1.373.42,7.2337,7.2337,0,0,0,1.4708.1538,2.9684,2.9684,0,0,0,1.7934-.4517,1.4832,1.4832,0,0,0,.6025-1.2573,1.6125,1.6125,0,0,0-.2138-.8721,1.9885,1.9885,0,0,0-.7144-.6269,9.9877,9.9877,0,0,0-1.5239-.6514,4.86,4.86,0,0,1-2.0415-1.2119,2.6766,2.6766,0,0,1-.6133-1.8286,2.2751,2.2751,0,0,1,.89-1.8843,3.6992,3.6992,0,0,1,2.354-.7,6.936,6.936,0,0,1,2.8086.56l-.3711,1.0371a6.3466,6.3466,0,0,0-2.4659-.5328,2.3889,2.3889,0,0,0-1.478.4063,1.339,1.339,0,0,0-.5322,1.1279,1.727,1.727,0,0,0,.1963.8721,1.84,1.84,0,0,0,.6616.6235,8.2363,8.2363,0,0,0,1.4258.627,5.6419,5.6419,0,0,1,2.2168,1.2329A2.4255,2.4255,0,0,1,411.2214,12.8438Z"/>
    <path d="M411.9221,7.8916h1.2466L414.85,12.27a16.572,16.572,0,0,1,.6865,2.1645h.0561q.0909-.3575.3819-1.2222t1.9018-5.32h1.2471l-3.2993,8.7422a4.364,4.364,0,0,1-1.1455,1.8384,2.4341,2.4341,0,0,1-1.6079.543,4.6624,4.6624,0,0,1-1.05-.1192v-.9316a4.0423,4.0423,0,0,0,.8613.0845,1.7769,1.7769,0,0,0,1.7095-1.3453l.4272-1.0927Z"/>
    <path d="M425.3225,13.4742a1.9225,1.9225,0,0,1-.7988,1.6533,3.7522,3.7522,0,0,1-2.2417.5815,4.8711,4.8711,0,0,1-2.3814-.4834V14.147a5.7758,5.7758,0,0,0,1.187.4414,4.96,4.96,0,0,0,1.2227.1607,2.7707,2.7707,0,0,0,1.4009-.2906,1.0011,1.0011,0,0,0,.1015-1.6533,6.116,6.116,0,0,0-1.5166-.7529,8.2449,8.2449,0,0,1-1.5234-.6968,2.0789,2.0789,0,0,1-.6724-.6763,1.7584,1.7584,0,0,1-.2207-.9033,1.7236,1.7236,0,0,1,.7632-1.4819,3.56,3.56,0,0,1,2.0947-.5425,6.1274,6.1274,0,0,1,2.4239.5044l-.4136.9453a5.5654,5.5654,0,0,0-2.0942-.4761,2.41,2.41,0,0,0-1.2471.2593.8011.8011,0,0,0-.42.7144.87.87,0,0,0,.1577.5254,1.5526,1.5526,0,0,0,.5078.413,11.3279,11.3279,0,0,0,1.3452.5674,5.0262,5.0262,0,0,1,1.8457,1.002A1.7657,1.7657,0,0,1,425.3225,13.4742Z"/>
    <path d="M429.6936,14.7491a3.7475,3.7475,0,0,0,.5957-.0455,3.8175,3.8175,0,0,0,.4551-.0942v.89a2.1248,2.1248,0,0,1-.5567.15,4.1931,4.1931,0,0,1-.6621.06q-2.2272,0-2.2275-2.3467V8.795h-1.1v-.56l1.1-.4834.49-1.6392h.6729V7.8916h2.2275V8.795h-2.2275v4.5185a1.5534,1.5534,0,0,0,.3291,1.0645A1.1447,1.1447,0,0,0,429.6936,14.7491Z"/>
    <path d="M435.5217,15.709a3.5288,3.5288,0,0,1-2.6865-1.0366,4.0156,4.0156,0,0,1-.9839-2.8794,4.4506,4.4506,0,0,1,.9141-2.9487,3.0363,3.0363,0,0,1,2.4551-1.0928,2.8952,2.8952,0,0,1,2.2837.9492,3.6368,3.6368,0,0,1,.8408,2.5039v.7359h-5.2891a3.0419,3.0419,0,0,0,.6831,2.0522,2.3617,2.3617,0,0,0,1.8247.7007,6.18,6.18,0,0,0,2.4517-.5186v1.0367a6.136,6.136,0,0,1-1.166.3818A6.5522,6.5522,0,0,1,435.5217,15.709Zm-.3149-6.9839a1.8973,1.8973,0,0,0-1.4746.6026,2.7752,2.7752,0,0,0-.648,1.667h4.0137a2.5577,2.5577,0,0,0-.49-1.6846A1.7259,1.7259,0,0,0,435.2068,8.7251Z"/>
    <path d="M450.1135,15.5689V10.5742a2.0717,2.0717,0,0,0-.3926-1.3764,1.5182,1.5182,0,0,0-1.2187-.459,1.9671,1.9671,0,0,0-1.604.6235,2.9637,2.9637,0,0,0-.5186,1.92v4.2871H445.217V10.5742a2.0723,2.0723,0,0,0-.3925-1.3764,1.5272,1.5272,0,0,0-1.2256-.459,1.9007,1.9007,0,0,0-1.6011.6553,3.5455,3.5455,0,0,0-.5078,2.1469v4.0279h-1.1626V7.8916h.9458l.189,1.05h.0561a2.2856,2.2856,0,0,1,.9282-.8755,2.8367,2.8367,0,0,1,1.3413-.3149,2.28,2.28,0,0,1,2.3536,1.3027h.0561a2.452,2.452,0,0,1,.9946-.9526,3.0884,3.0884,0,0,1,1.4854-.35,2.5988,2.5988,0,0,1,1.9507.6689,2.9913,2.9913,0,0,1,.6479,2.14v5.0088Z"/>
  </g>
  <path class="cls-1" d="M410.5975,54.5482A35.2811,35.2811,0,0,1,428.2362,23.997a35.2811,35.2811,0,0,1,17.6387,30.5512V72.1869a35.2779,35.2779,0,0,0-35.2774,0Z"/>
  <path class="cls-2" d="M410.5975,54.5482A35.2811,35.2811,0,0,1,428.2362,23.997a35.2811,35.2811,0,0,1,17.6387,30.5512V72.1869a35.2779,35.2779,0,0,0-35.2774,0Z"/>
  <rect class="cls-1" x="3.5066" y="368.856" width="84.0951" height="45.8287"/>
  <rect class="cls-2" x="3.5066" y="368.856" width="84.0951" height="45.8287"/>
  <g>
    <path d="M23.9319,386.3863l-3.4746-9.0787h-.0562q.0983,1.079.0982,2.564v6.5147H19.4V376.1451h1.7929l3.2437,8.4477h.0556l3.2715-8.4477h1.7793v10.2412H28.3518v-6.5987q0-1.1352.0982-2.4658h-.0562l-3.5024,9.0645Z"/>
    <path d="M36.8977,386.3863l-.231-1.0928h-.0561a3.228,3.228,0,0,1-1.1455.977,3.49,3.49,0,0,1-1.4253.2559,2.5642,2.5642,0,0,1-1.79-.5884,2.1461,2.1461,0,0,1-.6479-1.6743q0-2.3254,3.7192-2.4375l1.3033-.042v-.4766a1.948,1.948,0,0,0-.3887-1.3344,1.6,1.6,0,0,0-1.2437-.4307,5.061,5.061,0,0,0-2.1714.5884l-.3574-.89a5.4561,5.4561,0,0,1,1.2437-.4834,5.3838,5.3838,0,0,1,1.3554-.1752,2.9247,2.9247,0,0,1,2.0347.6093,2.545,2.545,0,0,1,.6621,1.9546v5.24Zm-2.6269-.82a2.3607,2.3607,0,0,0,1.706-.5952,2.2031,2.2031,0,0,0,.62-1.667V382.61l-1.1626.0493a4.2315,4.2315,0,0,0-2,.4307,1.2993,1.2993,0,0,0-.6128,1.1875,1.1957,1.1957,0,0,0,.3819.9594A1.5819,1.5819,0,0,0,34.2708,385.5664Z"/>
    <path d="M42.6345,385.5664a3.7476,3.7476,0,0,0,.5957-.0454,3.8175,3.8175,0,0,0,.4551-.0942v.89a2.1206,2.1206,0,0,1-.5566.15,4.1951,4.1951,0,0,1-.6621.06q-2.2274,0-2.2276-2.3467v-4.5674h-1.1v-.56l1.1-.4834.49-1.6392h.6729v1.7793H43.63v.9033H41.4021v4.5186a1.553,1.553,0,0,0,.3291,1.0644A1.1444,1.1444,0,0,0,42.6345,385.5664Z"/>
    <path d="M48.4631,386.5264a3.5288,3.5288,0,0,1-2.6865-1.0366,4.0161,4.0161,0,0,1-.9839-2.8794,4.4506,4.4506,0,0,1,.9141-2.9487,3.036,3.036,0,0,1,2.4551-1.0928,2.8952,2.8952,0,0,1,2.2837.9492,3.6368,3.6368,0,0,1,.8408,2.5039v.7358H45.9973A3.0425,3.0425,0,0,0,46.68,384.81a2.3617,2.3617,0,0,0,1.8247.7007,6.18,6.18,0,0,0,2.4517-.5186v1.0366a6.13,6.13,0,0,1-1.166.3819A6.5522,6.5522,0,0,1,48.4631,386.5264Zm-.3149-6.9839a1.8973,1.8973,0,0,0-1.4746.6026,2.7752,2.7752,0,0,0-.648,1.6669h4.0137a2.5576,2.5576,0,0,0-.49-1.6845A1.7256,1.7256,0,0,0,48.1482,379.5425Z"/>
    <path d="M56.7708,378.5689a4.5344,4.5344,0,0,1,.9174.084l-.1611,1.0786a3.9748,3.9748,0,0,0-.84-.105,2.0463,2.0463,0,0,0-1.5938.7563,2.7591,2.7591,0,0,0-.6621,1.8843v4.1192H53.2683V378.709h.9595l.1333,1.4219h.0561a3.3744,3.3744,0,0,1,1.03-1.1558A2.316,2.316,0,0,1,56.7708,378.5689Z"/>
    <path d="M59.0266,376.6284a.7716.7716,0,0,1,.1963-.5849.7262.7262,0,0,1,.9736.0034.7587.7587,0,0,1,.2032.5815.7713.7713,0,0,1-.2032.585.6792.6792,0,0,1-.4834.1924.67.67,0,0,1-.49-.1924A.7867.7867,0,0,1,59.0266,376.6284Zm1.2608,9.7579H59.1248V378.709h1.1626Z"/>
    <path d="M67.4744,386.3863l-.231-1.0928h-.0561a3.2282,3.2282,0,0,1-1.1456.977,3.4889,3.4889,0,0,1-1.4252.2559,2.5638,2.5638,0,0,1-1.79-.5884,2.1461,2.1461,0,0,1-.6479-1.6743q0-2.3254,3.7192-2.4375l1.3032-.042v-.4766a1.948,1.948,0,0,0-.3887-1.3344,1.6,1.6,0,0,0-1.2436-.4307,5.06,5.06,0,0,0-2.1714.5884l-.3574-.89a5.4571,5.4571,0,0,1,1.2436-.4834,5.3845,5.3845,0,0,1,1.3555-.1752,2.9249,2.9249,0,0,1,2.0347.6093,2.545,2.545,0,0,1,.6621,1.9546v5.24Zm-2.627-.82a2.3609,2.3609,0,0,0,1.7061-.5952,2.2031,2.2031,0,0,0,.62-1.667V382.61l-1.1626.0493a4.2315,4.2315,0,0,0-2,.4307,1.2993,1.2993,0,0,0-.6128,1.1875,1.1959,1.1959,0,0,0,.3818.9594A1.5821,1.5821,0,0,0,64.8474,385.5664Z"/>
    <path d="M71.8948,386.3863H70.7322v-10.9h1.1626Z"/>
  </g>
  <g>
    <path d="M24.0544,399.0992a5.1719,5.1719,0,0,1-1.3764,3.8774,5.4483,5.4483,0,0,1-3.9614,1.3413H15.88V394.0767h3.1382A5.02,5.02,0,0,1,22.73,395.4,5,5,0,0,1,24.0544,399.0992Zm-1.2612.0419a4.1237,4.1237,0,0,0-1.0049-3.019,4.03,4.03,0,0,0-2.9878-1.0156H17.07v8.1816h1.45a4.4083,4.4083,0,0,0,3.2011-1.0473A4.1437,4.1437,0,0,0,22.7932,399.1411Z"/>
    <path d="M29.406,404.458a3.5285,3.5285,0,0,1-2.6865-1.0366,4.0156,4.0156,0,0,1-.9839-2.8794,4.4506,4.4506,0,0,1,.9141-2.9487,3.0361,3.0361,0,0,1,2.455-1.0928,2.8949,2.8949,0,0,1,2.2837.9492,3.6364,3.6364,0,0,1,.8408,2.5039v.7359H26.94a3.0417,3.0417,0,0,0,.6831,2.0522,2.3617,2.3617,0,0,0,1.8247.7007,6.1805,6.1805,0,0,0,2.4517-.5185v1.0366a6.13,6.13,0,0,1-1.1661.3818A6.544,6.544,0,0,1,29.406,404.458Zm-.3149-6.9838a1.8972,1.8972,0,0,0-1.4746.6025,2.7749,2.7749,0,0,0-.648,1.667h4.0137a2.5575,2.5575,0,0,0-.49-1.6846A1.7255,1.7255,0,0,0,29.0911,397.4742Z"/>
    <path d="M37.6721,397.544H35.7175v6.7739H34.5549V397.544h-1.373v-.5254l1.373-.42v-.4273q0-2.8293,2.4727-2.83a5.0848,5.0848,0,0,1,1.4292.2452l-.3013.9316a3.8409,3.8409,0,0,0-1.1489-.2173,1.1184,1.1184,0,0,0-.9736.438,2.4427,2.4427,0,0,0-.3155,1.4043v.4976h1.9546Z"/>
    <path d="M42.3162,404.458a3.5289,3.5289,0,0,1-2.6866-1.0366,4.016,4.016,0,0,1-.9838-2.8794,4.4505,4.4505,0,0,1,.914-2.9487,3.0363,3.0363,0,0,1,2.4551-1.0928,2.8952,2.8952,0,0,1,2.2837.9492,3.6369,3.6369,0,0,1,.8408,2.5039v.7359H39.85a3.0422,3.0422,0,0,0,.6831,2.0522,2.3621,2.3621,0,0,0,1.8248.7007,6.18,6.18,0,0,0,2.4516-.5185v1.0366a6.1266,6.1266,0,0,1-1.166.3818A6.5447,6.5447,0,0,1,42.3162,404.458Zm-.315-6.9838a1.8972,1.8972,0,0,0-1.4746.6025,2.7748,2.7748,0,0,0-.6479,1.667h4.0136a2.5575,2.5575,0,0,0-.49-1.6846A1.7256,1.7256,0,0,0,42.0012,397.4742Z"/>
    <path d="M50.19,404.458a3.2769,3.2769,0,0,1-2.5816-1.0263,4.22,4.22,0,0,1-.914-2.9033,4.35,4.35,0,0,1,.9282-2.9771,3.3405,3.3405,0,0,1,2.644-1.0508,5.2359,5.2359,0,0,1,1.107.1192,3.6367,3.6367,0,0,1,.8686.28l-.3574.9878a5.4548,5.4548,0,0,0-.84-.2553,3.7446,3.7446,0,0,0-.8057-.1016q-2.34,0-2.34,2.9839a3.5507,3.5507,0,0,0,.5713,2.1714,1.9855,1.9855,0,0,0,1.6914.7568,5.165,5.165,0,0,0,1.9682-.4136v1.03A4.1942,4.1942,0,0,1,50.19,404.458Z"/>
    <path d="M56.4309,403.4981a3.7594,3.7594,0,0,0,.5957-.0454,3.8347,3.8347,0,0,0,.4551-.0943v.89a2.1282,2.1282,0,0,1-.5567.15,4.2039,4.2039,0,0,1-.6621.06q-2.2272,0-2.2275-2.3466V397.544h-1.1v-.56l1.1-.4834.49-1.6391h.6729v1.7793H57.426v.9033H55.1985v4.5185a1.5534,1.5534,0,0,0,.3291,1.0645A1.1447,1.1447,0,0,0,56.4309,403.4981Z"/>
    <path d="M58.9182,394.56a.772.772,0,0,1,.1963-.585.7265.7265,0,0,1,.9736.0034.7589.7589,0,0,1,.2032.5816.7716.7716,0,0,1-.2032.585.6791.6791,0,0,1-.4834.1923.67.67,0,0,1-.49-.1923A.787.787,0,0,1,58.9182,394.56Zm1.2608,9.7578H59.0164v-7.6772H60.179Z"/>
    <path d="M64.3259,404.3179l-2.914-7.6772h1.247l1.6529,4.5532a21.6316,21.6316,0,0,1,.6587,2.0732h.0561a15.6078,15.6078,0,0,1,.4868-1.5376q.4095-1.1659,1.8389-5.0888h1.2466l-2.9141,7.6772Z"/>
    <path d="M73.075,404.458a3.5289,3.5289,0,0,1-2.6866-1.0366,4.0161,4.0161,0,0,1-.9839-2.8794,4.4506,4.4506,0,0,1,.9141-2.9487,3.0363,3.0363,0,0,1,2.4551-1.0928,2.8952,2.8952,0,0,1,2.2837.9492,3.6369,3.6369,0,0,1,.8408,2.5039v.7359H70.6091a3.0422,3.0422,0,0,0,.6831,2.0522,2.362,2.362,0,0,0,1.8247.7007,6.18,6.18,0,0,0,2.4517-.5185v1.0366a6.1266,6.1266,0,0,1-1.166.3818A6.5447,6.5447,0,0,1,73.075,404.458Zm-.315-6.9838a1.8972,1.8972,0,0,0-1.4746.6025,2.7748,2.7748,0,0,0-.6479,1.667h4.0136a2.5581,2.5581,0,0,0-.49-1.6846A1.7259,1.7259,0,0,0,72.76,397.4742Z"/>
  </g>
  <path class="cls-1" d="M32.0657,438.0475a26.98,26.98,0,0,1,13.4884-23.3627,26.98,26.98,0,0,1,13.4884,23.3627v13.4884a26.9775,26.9775,0,0,0-26.9768,0Z"/>
  <path class="cls-2" d="M32.0657,438.0475a26.98,26.98,0,0,1,13.4884-23.3627,26.98,26.98,0,0,1,13.4884,23.3627v13.4884a26.9775,26.9775,0,0,0-26.9768,0Z"/>
  <rect class="cls-1" x="141.2955" y="99.5613" width="120.3322" height="45.8287"/>
  <rect class="cls-2" x="141.2955" y="99.5613" width="120.3322" height="45.8287"/>
  <g>
    <path d="M158.29,117.0943l-3.4746-9.0786h-.0562q.0983,1.0788.0982,2.5639v6.5147h-1.1V106.8531h1.7929l3.2437,8.4477h.0557l3.2714-8.4477h1.7793v10.2412H162.71v-6.5987q0-1.1352.0982-2.4658h-.0562l-3.5024,9.0645Z"/>
    <path d="M171.2556,117.0943l-.2309-1.0928h-.0562a3.2261,3.2261,0,0,1-1.1455.977,3.4881,3.4881,0,0,1-1.4253.2559,2.5637,2.5637,0,0,1-1.7895-.5884,2.1458,2.1458,0,0,1-.648-1.6743q0-2.3254,3.7192-2.4375l1.3033-.042v-.4765a1.9481,1.9481,0,0,0-.3887-1.3345,1.6,1.6,0,0,0-1.2437-.4307,5.06,5.06,0,0,0-2.1713.5884l-.3575-.89a5.4577,5.4577,0,0,1,1.2437-.4833,5.3841,5.3841,0,0,1,1.3555-.1753,2.9246,2.9246,0,0,1,2.0346.6093,2.545,2.545,0,0,1,.6621,1.9546v5.24Zm-2.6269-.82a2.3607,2.3607,0,0,0,1.706-.5952,2.2029,2.2029,0,0,0,.62-1.667v-.6938l-1.1626.0493a4.2315,4.2315,0,0,0-2,.4307,1.3,1.3,0,0,0-.6127,1.1875,1.1956,1.1956,0,0,0,.3818.9594A1.5819,1.5819,0,0,0,168.6287,116.2744Z"/>
    <path d="M179.7668,117.0943V112.128a2.0036,2.0036,0,0,0-.4277-1.4014,1.74,1.74,0,0,0-1.3379-.4624,2.2057,2.2057,0,0,0-1.7651.6518,3.2879,3.2879,0,0,0-.5606,2.15v4.0279h-1.1626V109.417h.9458l.189,1.05h.0562a2.3765,2.3765,0,0,1,1.0014-.8789,3.2589,3.2589,0,0,1,1.4361-.3115,2.9139,2.9139,0,0,1,2.0874.6689,2.8455,2.8455,0,0,1,.7006,2.14v5.0088Z"/>
    <path d="M184.4114,109.417v4.98a2.0051,2.0051,0,0,0,.4272,1.4009,1.7411,1.7411,0,0,0,1.3379.4624,2.183,2.183,0,0,0,1.7617-.6587,3.3193,3.3193,0,0,0,.5572-2.15V109.417h1.1626v7.6773h-.9595l-.168-1.03h-.0635a2.3118,2.3118,0,0,1-.9912.8686,3.3317,3.3317,0,0,1-1.4463.3013,2.9346,2.9346,0,0,1-2.0981-.6655,2.8315,2.8315,0,0,1-.6968-2.1294V109.417Z"/>
    <path d="M195.5842,110.32H193.63v6.774H192.467V110.32h-1.373v-.5253l1.373-.4205v-.4272q0-2.8293,2.4727-2.83a5.0843,5.0843,0,0,1,1.4292.2451l-.3013.9317a3.8378,3.8378,0,0,0-1.1489-.2173,1.1184,1.1184,0,0,0-.9736.438,2.4425,2.4425,0,0,0-.3155,1.4043v.4975h1.9546Z"/>
    <path d="M201.7063,117.0943l-.231-1.0928h-.0561a3.2269,3.2269,0,0,1-1.1455.977,3.4881,3.4881,0,0,1-1.4253.2559,2.5642,2.5642,0,0,1-1.79-.5884,2.1461,2.1461,0,0,1-.6479-1.6743q0-2.3254,3.7192-2.4375l1.3033-.042v-.4765a1.9481,1.9481,0,0,0-.3887-1.3345,1.6,1.6,0,0,0-1.2437-.4307,5.061,5.061,0,0,0-2.1714.5884l-.3574-.89a5.4559,5.4559,0,0,1,1.2437-.4833,5.3839,5.3839,0,0,1,1.3554-.1753,2.9247,2.9247,0,0,1,2.0347.6093,2.545,2.545,0,0,1,.6621,1.9546v5.24Zm-2.627-.82a2.3608,2.3608,0,0,0,1.7061-.5952,2.2029,2.2029,0,0,0,.62-1.667v-.6938l-1.1626.0493a4.2315,4.2315,0,0,0-2,.4307,1.2994,1.2994,0,0,0-.6128,1.1875,1.1957,1.1957,0,0,0,.3819.9594A1.5818,1.5818,0,0,0,199.0793,116.2744Z"/>
    <path d="M208.032,117.2344a3.277,3.277,0,0,1-2.5816-1.0264,4.22,4.22,0,0,1-.914-2.9033,4.3493,4.3493,0,0,1,.9282-2.977,3.3405,3.3405,0,0,1,2.644-1.0508,5.2357,5.2357,0,0,1,1.107.1191,3.6362,3.6362,0,0,1,.8686.28l-.3574.9878a5.4658,5.4658,0,0,0-.84-.2554,3.75,3.75,0,0,0-.8057-.1015q-2.34,0-2.34,2.9839a3.55,3.55,0,0,0,.5713,2.1713,1.9856,1.9856,0,0,0,1.6914.7569,5.165,5.165,0,0,0,1.9682-.4136v1.03A4.1942,4.1942,0,0,1,208.032,117.2344Z"/>
    <path d="M214.2732,116.2744a3.7476,3.7476,0,0,0,.5957-.0454,3.8175,3.8175,0,0,0,.4551-.0942v.89a2.12,2.12,0,0,1-.5567.15,4.1931,4.1931,0,0,1-.6621.06q-2.2272,0-2.2275-2.3467V110.32h-1.1v-.56l1.1-.4834.49-1.6392h.6729v1.7793h2.2275v.9033h-2.2275v4.5186a1.5529,1.5529,0,0,0,.3291,1.0645A1.1446,1.1446,0,0,0,214.2732,116.2744Z"/>
    <path d="M217.9509,109.417v4.98a2.0046,2.0046,0,0,0,.4273,1.4009,1.7408,1.7408,0,0,0,1.3379.4624,2.183,2.183,0,0,0,1.7617-.6587,3.3194,3.3194,0,0,0,.5571-2.15V109.417h1.1626v7.6773h-.9595l-.1679-1.03h-.0635a2.3124,2.3124,0,0,1-.9912.8686,3.332,3.332,0,0,1-1.4463.3013,2.9349,2.9349,0,0,1-2.0982-.6655,2.8315,2.8315,0,0,1-.6967-2.1294V109.417Z"/>
    <path d="M229.1658,109.2769a4.5361,4.5361,0,0,1,.9175.084l-.1612,1.0786a3.9741,3.9741,0,0,0-.84-.105,2.0464,2.0464,0,0,0-1.5938.7564,2.7586,2.7586,0,0,0-.6621,1.8842v4.1192h-1.1626V109.417h.96l.1333,1.4219h.0562a3.3732,3.3732,0,0,1,1.03-1.1558A2.316,2.316,0,0,1,229.1658,109.2769Z"/>
    <path d="M231.4216,107.3365a.7721.7721,0,0,1,.1963-.585.7263.7263,0,0,1,.9737.0034.7591.7591,0,0,1,.2031.5816.7716.7716,0,0,1-.2031.5849.68.68,0,0,1-.4834.1924.6706.6706,0,0,1-.49-.1924A.787.787,0,0,1,231.4216,107.3365Zm1.2608,9.7578H231.52V109.417h1.1626Z"/>
    <path d="M240.4021,117.0943V112.128a2.0041,2.0041,0,0,0-.4277-1.4014,1.74,1.74,0,0,0-1.3379-.4624,2.2061,2.2061,0,0,0-1.7652.6518,3.2885,3.2885,0,0,0-.56,2.15v4.0279h-1.1626V109.417h.9458l.189,1.05h.0561a2.3774,2.3774,0,0,1,1.0015-.8789,3.2587,3.2587,0,0,1,1.436-.3115,2.9139,2.9139,0,0,1,2.0874.6689,2.8452,2.8452,0,0,1,.7007,2.14v5.0088Z"/>
    <path d="M250.2366,109.417v.7354l-1.4219.1679a2.4933,2.4933,0,0,1,.5044,1.5342,2.2692,2.2692,0,0,1-.77,1.8,3.1085,3.1085,0,0,1-2.1157.6724,3.4984,3.4984,0,0,1-.6441-.0562,1.1448,1.1448,0,0,0-.7427.9878.5011.5011,0,0,0,.2593.4658,1.8891,1.8891,0,0,0,.89.1509h1.3589a3.0425,3.0425,0,0,1,1.916.5254,1.825,1.825,0,0,1,.6689,1.5269,2.18,2.18,0,0,1-1.0229,1.9438,5.4755,5.4755,0,0,1-2.9839.669,4.0774,4.0774,0,0,1-2.3223-.56,1.81,1.81,0,0,1-.8159-1.5835,1.7749,1.7749,0,0,1,.4482-1.2114,2.2807,2.2807,0,0,1,1.2608-.6939,1.2108,1.2108,0,0,1-.4937-.4131,1.0923,1.0923,0,0,1-.2-.6513,1.2383,1.2383,0,0,1,.2241-.7359,2.3627,2.3627,0,0,1,.7076-.6093,2.0743,2.0743,0,0,1-.97-.8335,2.4489,2.4489,0,0,1-.375-1.3452,2.485,2.485,0,0,1,.7569-1.9439,3.09,3.09,0,0,1,2.1435-.6826,3.8861,3.8861,0,0,1,1.0855.14Zm-6.1221,8.9663a1.0418,1.0418,0,0,0,.5254.9453,2.8974,2.8974,0,0,0,1.5059.3223,4.2058,4.2058,0,0,0,2.1679-.4375,1.34,1.34,0,0,0,.7041-1.1875.94.94,0,0,0-.3852-.8652,2.991,2.991,0,0,0-1.45-.2417h-1.3941a1.8366,1.8366,0,0,0-1.2329.3784A1.3517,1.3517,0,0,0,244.1145,118.3833Zm.63-6.5078a1.5622,1.5622,0,0,0,.4555,1.2188,1.816,1.816,0,0,0,1.2676.4135,1.4834,1.4834,0,0,0,1.7022-1.6533,1.5261,1.5261,0,0,0-1.7232-1.73,1.7058,1.7058,0,0,0-1.2607.441A1.7765,1.7765,0,0,0,244.7449,111.8755Z"/>
  </g>
  <g>
    <path d="M157.0632,135.167a3.32,3.32,0,0,1-1.3691-.2768,2.5683,2.5683,0,0,1-1.04-.8511h-.084a10.2868,10.2868,0,0,1,.084,1.2749v3.1592H153.491V127.35h.9458l.1611,1.05h.0557a2.7048,2.7048,0,0,1,1.0439-.9106,3.1765,3.1765,0,0,1,1.3657-.28,2.8379,2.8379,0,0,1,2.3575,1.0435,5.5581,5.5581,0,0,1-.0142,5.8667A2.8423,2.8423,0,0,1,157.0632,135.167Zm-.1679-6.97a2.06,2.06,0,0,0-1.7022.6519,3.3513,3.3513,0,0,0-.5395,2.0732v.2593a3.8393,3.8393,0,0,0,.5395,2.3149,2.051,2.051,0,0,0,1.7305.6973,1.7992,1.7992,0,0,0,1.5586-.8057,3.8236,3.8236,0,0,0,.5635-2.2207,3.6813,3.6813,0,0,0-.5635-2.2031A1.856,1.856,0,0,0,156.8953,128.1968Z"/>
    <path d="M165.7844,127.21a4.5354,4.5354,0,0,1,.9175.084l-.1611,1.0786a3.9749,3.9749,0,0,0-.84-.105,2.0462,2.0462,0,0,0-1.5937.7564,2.7588,2.7588,0,0,0-.6621,1.8842v4.1192H162.282V127.35h.9595l.1333,1.4219h.0561a3.3721,3.3721,0,0,1,1.03-1.1557A2.316,2.316,0,0,1,165.7844,127.21Z"/>
    <path d="M174.7649,131.1812a4.2362,4.2362,0,0,1-.9453,2.9316,3.3309,3.3309,0,0,1-2.6128,1.0542,3.4619,3.4619,0,0,1-1.8286-.4834,3.19,3.19,0,0,1-1.2329-1.3872,4.83,4.83,0,0,1-.4341-2.1152,4.2283,4.2283,0,0,1,.9385-2.9248,3.3212,3.3212,0,0,1,2.6059-1.0469,3.2478,3.2478,0,0,1,2.5606,1.0718A4.2184,4.2184,0,0,1,174.7649,131.1812Zm-5.8491,0a3.6461,3.6461,0,0,0,.5884,2.2417,2.3357,2.3357,0,0,0,3.4643.0034,3.6261,3.6261,0,0,0,.5918-2.2451,3.568,3.568,0,0,0-.5918-2.2241,2.08,2.08,0,0,0-1.748-.76,2.0471,2.0471,0,0,0-1.7232.75A3.6076,3.6076,0,0,0,168.9158,131.1812Z"/>
    <path d="M179.8718,135.167a3.277,3.277,0,0,1-2.5815-1.0263,4.22,4.22,0,0,1-.9141-2.9034,4.35,4.35,0,0,1,.9282-2.977,3.3406,3.3406,0,0,1,2.6441-1.0508,5.2413,5.2413,0,0,1,1.1069.1191,3.6372,3.6372,0,0,1,.8687.28l-.3574.9878a5.46,5.46,0,0,0-.84-.2553,3.7438,3.7438,0,0,0-.8056-.1016q-2.34,0-2.34,2.9839a3.5509,3.5509,0,0,0,.5713,2.1714,1.9856,1.9856,0,0,0,1.6914.7568,5.1655,5.1655,0,0,0,1.9683-.4136v1.03A4.1949,4.1949,0,0,1,179.8718,135.167Z"/>
    <path d="M186.8767,135.167A3.5285,3.5285,0,0,1,184.19,134.13a4.0156,4.0156,0,0,1-.9839-2.8794,4.4506,4.4506,0,0,1,.9141-2.9487,3.0361,3.0361,0,0,1,2.455-1.0928,2.8949,2.8949,0,0,1,2.2837.9492,3.6363,3.6363,0,0,1,.8409,2.5039v.7359h-5.2891a3.0419,3.0419,0,0,0,.6831,2.0522,2.3617,2.3617,0,0,0,1.8247.7007,6.1806,6.1806,0,0,0,2.4517-.5186V134.67a6.13,6.13,0,0,1-1.1661.3818A6.5512,6.5512,0,0,1,186.8767,135.167Zm-.3149-6.9839a1.8973,1.8973,0,0,0-1.4746.6026,2.7746,2.7746,0,0,0-.648,1.667h4.0137a2.5573,2.5573,0,0,0-.49-1.6846A1.7256,1.7256,0,0,0,186.5618,128.1831Z"/>
    <path d="M196.6345,132.9322a1.9225,1.9225,0,0,1-.7988,1.6533,3.7522,3.7522,0,0,1-2.2417.5815,4.8711,4.8711,0,0,1-2.3814-.4834V133.605a5.7745,5.7745,0,0,0,1.1871.4414,4.9584,4.9584,0,0,0,1.2226.1607,2.7707,2.7707,0,0,0,1.4009-.2906,1.0012,1.0012,0,0,0,.1016-1.6533,6.12,6.12,0,0,0-1.5166-.7529,8.2433,8.2433,0,0,1-1.5235-.6968,2.0775,2.0775,0,0,1-.6723-.6763,1.7574,1.7574,0,0,1-.2207-.9033,1.7235,1.7235,0,0,1,.7631-1.4819,3.5606,3.5606,0,0,1,2.0948-.5425,6.1272,6.1272,0,0,1,2.4238.5044l-.4136.9453a5.5654,5.5654,0,0,0-2.0942-.4761,2.41,2.41,0,0,0-1.2471.2593.8011.8011,0,0,0-.42.7144.87.87,0,0,0,.1577.5254,1.5526,1.5526,0,0,0,.5078.413,11.3355,11.3355,0,0,0,1.3452.5674,5.0276,5.0276,0,0,1,1.8457,1.002A1.7657,1.7657,0,0,1,196.6345,132.9322Z"/>
    <path d="M203.4788,132.9322a1.9226,1.9226,0,0,1-.7989,1.6533,3.7522,3.7522,0,0,1-2.2417.5815,4.8707,4.8707,0,0,1-2.3813-.4834V133.605a5.7715,5.7715,0,0,0,1.187.4414,4.9591,4.9591,0,0,0,1.2227.1607,2.77,2.77,0,0,0,1.4008-.2906,1.0011,1.0011,0,0,0,.1016-1.6533,6.12,6.12,0,0,0-1.5166-.7529,8.2385,8.2385,0,0,1-1.5234-.6968,2.0789,2.0789,0,0,1-.6724-.6763,1.7574,1.7574,0,0,1-.2207-.9033,1.7236,1.7236,0,0,1,.7632-1.4819,3.56,3.56,0,0,1,2.0947-.5425,6.1265,6.1265,0,0,1,2.4238.5044l-.4135.9453a5.5663,5.5663,0,0,0-2.0943-.4761,2.41,2.41,0,0,0-1.2471.2593.8013.8013,0,0,0-.42.7144.8711.8711,0,0,0,.1577.5254,1.5531,1.5531,0,0,0,.5079.413,11.3279,11.3279,0,0,0,1.3452.5674,5.0285,5.0285,0,0,1,1.8457,1.002A1.7661,1.7661,0,0,1,203.4788,132.9322Z"/>
    <path d="M212.5461,128.253h-1.9545v6.7739H209.429V128.253h-1.3731v-.5254l1.3731-.42V126.88q0-2.8293,2.4726-2.83a5.0873,5.0873,0,0,1,1.4292.2451l-.3013.9317a3.8409,3.8409,0,0,0-1.1489-.2173,1.1185,1.1185,0,0,0-.9736.438,2.4428,2.4428,0,0,0-.3154,1.4043v.4975h1.9545Z"/>
    <path d="M218.6682,135.0269l-.2309-1.0928h-.0562a3.2265,3.2265,0,0,1-1.1455.9771,3.49,3.49,0,0,1-1.4253.2558,2.5637,2.5637,0,0,1-1.79-.5884,2.1456,2.1456,0,0,1-.648-1.6743q0-2.3254,3.7192-2.4375l1.3033-.042v-.4765a1.9481,1.9481,0,0,0-.3887-1.3345,1.6,1.6,0,0,0-1.2437-.4307,5.06,5.06,0,0,0-2.1713.5884l-.3575-.89a5.4515,5.4515,0,0,1,1.2437-.4834,5.3841,5.3841,0,0,1,1.3555-.1753,2.9242,2.9242,0,0,1,2.0346.6094,2.5448,2.5448,0,0,1,.6621,1.9545v5.24Zm-2.6269-.82a2.3607,2.3607,0,0,0,1.706-.5953,2.2028,2.2028,0,0,0,.62-1.6669v-.6939l-1.1626.0493a4.2315,4.2315,0,0,0-2,.4307,1.3,1.3,0,0,0-.6127,1.1875,1.196,1.196,0,0,0,.3818.9595A1.5824,1.5824,0,0,0,216.0413,134.2071Z"/>
    <path d="M221.8274,125.2691a.7718.7718,0,0,1,.1963-.585.7265.7265,0,0,1,.9736.0034.7589.7589,0,0,1,.2031.5816.7712.7712,0,0,1-.2031.5849.6789.6789,0,0,1-.4834.1924.67.67,0,0,1-.49-.1924A.7866.7866,0,0,1,221.8274,125.2691Zm1.2607,9.7578h-1.1626V127.35h1.1626Z"/>
    <path d="M226.7166,135.0269H225.554v-10.9h1.1626Z"/>
    <path d="M230.2756,127.35v4.98a2.0046,2.0046,0,0,0,.4273,1.4009,1.7408,1.7408,0,0,0,1.3379.4624,2.1827,2.1827,0,0,0,1.7617-.6587,3.3194,3.3194,0,0,0,.5571-2.15V127.35h1.1626v7.6773h-.9595l-.1679-1.03h-.0635a2.3132,2.3132,0,0,1-.9912.8687,3.3334,3.3334,0,0,1-1.4463.3012,2.9345,2.9345,0,0,1-2.0981-.6655,2.8311,2.8311,0,0,1-.6968-2.1294V127.35Z"/>
    <path d="M241.4905,127.21a4.5354,4.5354,0,0,1,.9175.084l-.1612,1.0786a3.9741,3.9741,0,0,0-.84-.105,2.0465,2.0465,0,0,0-1.5938.7564,2.7588,2.7588,0,0,0-.6621,1.8842v4.1192H237.988V127.35h.9595l.1333,1.4219h.0562a3.3719,3.3719,0,0,1,1.03-1.1557A2.3161,2.3161,0,0,1,241.4905,127.21Z"/>
    <path d="M247.0872,135.167a3.5289,3.5289,0,0,1-2.6866-1.0366,4.0161,4.0161,0,0,1-.9839-2.8794,4.4506,4.4506,0,0,1,.9141-2.9487,3.0363,3.0363,0,0,1,2.4551-1.0928,2.8952,2.8952,0,0,1,2.2837.9492,3.6368,3.6368,0,0,1,.8408,2.5039v.7359h-5.2891a3.0424,3.0424,0,0,0,.6831,2.0522,2.3621,2.3621,0,0,0,1.8248.7007,6.18,6.18,0,0,0,2.4516-.5186V134.67a6.1266,6.1266,0,0,1-1.166.3818A6.5519,6.5519,0,0,1,247.0872,135.167Zm-.315-6.9839a1.8973,1.8973,0,0,0-1.4746.6026,2.7745,2.7745,0,0,0-.6479,1.667h4.0136a2.5573,2.5573,0,0,0-.49-1.6846A1.7258,1.7258,0,0,0,246.7722,128.1831Z"/>
  </g>
  <path class="cls-1" d="M183.8229,175.9412A35.2811,35.2811,0,0,1,201.4616,145.39,35.2811,35.2811,0,0,1,219.1,175.9412V193.58a35.2779,35.2779,0,0,0-35.2774,0Z"/>
  <path class="cls-2" d="M183.8229,175.9412A35.2811,35.2811,0,0,1,201.4616,145.39,35.2811,35.2811,0,0,1,219.1,175.9412V193.58a35.2779,35.2779,0,0,0-35.2774,0Z"/>
  <rect class="cls-1" x="391.2533" y="368.856" width="73.9657" height="45.8287"/>
  <rect class="cls-2" x="391.2533" y="368.856" width="73.9657" height="45.8287"/>
  <g>
    <path d="M414.9973,381.1675a5.1727,5.1727,0,0,1-1.3764,3.8775,5.4484,5.4484,0,0,1-3.9615,1.3413h-2.8369V376.1451h3.1382a4.5973,4.5973,0,0,1,5.0366,5.0224Zm-1.2612.042a4.1241,4.1241,0,0,0-1.0049-3.019,4.0292,4.0292,0,0,0-2.9878-1.0157h-1.7305v8.1817h1.45a4.408,4.408,0,0,0,3.2012-1.0474A4.1433,4.1433,0,0,0,413.7361,381.21Z"/>
    <path d="M420.3489,386.5264a3.5285,3.5285,0,0,1-2.6865-1.0366,4.0156,4.0156,0,0,1-.9839-2.8794,4.4511,4.4511,0,0,1,.914-2.9487,3.0361,3.0361,0,0,1,2.4551-1.0928,2.8952,2.8952,0,0,1,2.2837.9492,3.6368,3.6368,0,0,1,.8408,2.5039v.7358h-5.289a3.0414,3.0414,0,0,0,.6831,2.0523,2.3617,2.3617,0,0,0,1.8247.7007,6.18,6.18,0,0,0,2.4516-.5186v1.0366a6.1273,6.1273,0,0,1-1.166.3819A6.5519,6.5519,0,0,1,420.3489,386.5264Zm-.315-6.9839a1.8973,1.8973,0,0,0-1.4746.6026,2.7745,2.7745,0,0,0-.6479,1.6669h4.0136a2.557,2.557,0,0,0-.49-1.6845A1.7254,1.7254,0,0,0,420.0339,379.5425Z"/>
    <path d="M430.1072,384.2915a1.9226,1.9226,0,0,1-.7988,1.6534,3.7524,3.7524,0,0,1-2.2417.5815,4.8709,4.8709,0,0,1-2.3814-.4834v-1.0786a5.7758,5.7758,0,0,0,1.187.4414,4.96,4.96,0,0,0,1.2227.1606,2.7708,2.7708,0,0,0,1.4009-.2905,1.0011,1.0011,0,0,0,.1015-1.6533,6.1179,6.1179,0,0,0-1.5166-.7529,8.2484,8.2484,0,0,1-1.5234-.6968,2.0789,2.0789,0,0,1-.6724-.6763,1.7574,1.7574,0,0,1-.2207-.9033,1.7236,1.7236,0,0,1,.7632-1.4819,3.56,3.56,0,0,1,2.0947-.5425,6.1248,6.1248,0,0,1,2.4238.5044l-.4135.9453a5.5659,5.5659,0,0,0-2.0943-.4761,2.4086,2.4086,0,0,0-1.247.2593.8008.8008,0,0,0-.42.7143.87.87,0,0,0,.1577.5254,1.5517,1.5517,0,0,0,.5078.4131,11.3453,11.3453,0,0,0,1.3452.5674,5.0256,5.0256,0,0,1,1.8457,1.002A1.7659,1.7659,0,0,1,430.1072,384.2915Z"/>
    <path d="M431.9,376.6284a.772.772,0,0,1,.1963-.5849.7263.7263,0,0,1,.9737.0034.759.759,0,0,1,.2031.5815.7717.7717,0,0,1-.2031.585.68.68,0,0,1-.4834.1924.6706.6706,0,0,1-.49-.1924A.7871.7871,0,0,1,431.9,376.6284Zm1.2608,9.7579h-1.1626V378.709h1.1626Z"/>
    <path d="M441.91,378.709v.7354l-1.4219.1679a2.4926,2.4926,0,0,1,.5044,1.5342,2.2692,2.2692,0,0,1-.77,1.8,3.1082,3.1082,0,0,1-2.1157.6724,3.4973,3.4973,0,0,1-.644-.0562,1.1446,1.1446,0,0,0-.7427.9878.5009.5009,0,0,0,.2593.4658,1.8883,1.8883,0,0,0,.89.1509h1.3589a3.0423,3.0423,0,0,1,1.916.5254,1.8251,1.8251,0,0,1,.669,1.5269,2.18,2.18,0,0,1-1.023,1.9438,5.4753,5.4753,0,0,1-2.9839.669,4.0769,4.0769,0,0,1-2.3222-.56,1.81,1.81,0,0,1-.816-1.5835,1.775,1.775,0,0,1,.4483-1.2114,2.28,2.28,0,0,1,1.2607-.6939,1.2113,1.2113,0,0,1-.4936-.4131,1.0923,1.0923,0,0,1-.2-.6513,1.2383,1.2383,0,0,1,.2241-.7359,2.36,2.36,0,0,1,.7075-.6093,2.0741,2.0741,0,0,1-.97-.8335,2.449,2.449,0,0,1-.375-1.3453,2.4849,2.4849,0,0,1,.7568-1.9438,3.09,3.09,0,0,1,2.1436-.6826,3.8854,3.8854,0,0,1,1.0854.14Zm-6.1221,8.9663a1.0418,1.0418,0,0,0,.5254.9453,2.8977,2.8977,0,0,0,1.5059.3223,4.2062,4.2062,0,0,0,2.168-.4375,1.34,1.34,0,0,0,.7041-1.1875.94.94,0,0,0-.3853-.8652,2.99,2.99,0,0,0-1.45-.2417h-1.394a1.8367,1.8367,0,0,0-1.233.3784A1.3516,1.3516,0,0,0,435.7878,387.6753Zm.63-6.5078a1.5623,1.5623,0,0,0,.4556,1.2188,1.8158,1.8158,0,0,0,1.2676.4135,1.4833,1.4833,0,0,0,1.7021-1.6533,1.526,1.526,0,0,0-1.7231-1.73,1.7062,1.7062,0,0,0-1.2608.441A1.777,1.777,0,0,0,436.4182,381.1675Z"/>
    <path d="M448.7405,386.3863V381.42a2.0036,2.0036,0,0,0-.4278-1.4014,1.74,1.74,0,0,0-1.3378-.4624,2.2059,2.2059,0,0,0-1.7652.6518,3.2885,3.2885,0,0,0-.56,2.15v4.0279h-1.1626V378.709h.9458l.1889,1.05h.0562a2.3774,2.3774,0,0,1,1.0015-.8789,3.2584,3.2584,0,0,1,1.436-.3115,2.9139,2.9139,0,0,1,2.0874.6689,2.8452,2.8452,0,0,1,.7007,2.14v5.0088Z"/>
  </g>
  <g>
    <path d="M408.1536,404.3179l-3.4746-9.0786h-.0562q.0981,1.0788.0981,2.564v6.5146h-1.1V394.0767h1.793l3.2437,8.4477h.0556l3.2715-8.4477h1.7793v10.2412h-1.1909v-6.5986q0-1.1353.0981-2.4659h-.0561l-3.5025,9.0645Z"/>
    <path d="M416.3,394.56a.7724.7724,0,0,1,.1963-.585.7266.7266,0,0,1,.9737.0034.7592.7592,0,0,1,.2031.5816.772.772,0,0,1-.2031.585.6794.6794,0,0,1-.4834.1923.6705.6705,0,0,1-.49-.1923A.7874.7874,0,0,1,416.3,394.56Zm1.2608,9.7578h-1.1626v-7.6772h1.1626Z"/>
    <path d="M424.9792,402.2232a1.9225,1.9225,0,0,1-.7988,1.6533,3.7522,3.7522,0,0,1-2.2417.5815,4.8707,4.8707,0,0,1-2.3813-.4834V402.896a5.7657,5.7657,0,0,0,1.187.4414,4.9542,4.9542,0,0,0,1.2226.1607,2.7714,2.7714,0,0,0,1.4009-.2905,1.0011,1.0011,0,0,0,.1016-1.6534,6.1234,6.1234,0,0,0-1.5166-.7529,8.2366,8.2366,0,0,1-1.5235-.6968,2.08,2.08,0,0,1-.6723-.6762,1.758,1.758,0,0,1-.2207-.9034,1.7237,1.7237,0,0,1,.7632-1.4819,3.56,3.56,0,0,1,2.0947-.5425,6.1269,6.1269,0,0,1,2.4238.5044l-.4136.9453a5.5651,5.5651,0,0,0-2.0942-.476,2.41,2.41,0,0,0-1.2471.2592.8013.8013,0,0,0-.42.7144.8709.8709,0,0,0,.1577.5254,1.5545,1.5545,0,0,0,.5079.4131,11.3423,11.3423,0,0,0,1.3452.5673,5.0294,5.0294,0,0,1,1.8457,1.002A1.766,1.766,0,0,1,424.9792,402.2232Z"/>
    <path d="M429.35,403.4981a3.7594,3.7594,0,0,0,.5957-.0454,3.83,3.83,0,0,0,.4551-.0943v.89a2.1285,2.1285,0,0,1-.5566.15,4.2039,4.2039,0,0,1-.6621.06q-2.2273,0-2.2276-2.3466V397.544h-1.1v-.56l1.1-.4834.49-1.6391h.6728v1.7793h2.2276v.9033h-2.2276v4.5185a1.5534,1.5534,0,0,0,.3291,1.0645A1.1448,1.1448,0,0,0,429.35,403.4981Z"/>
    <path d="M436.6565,404.3179l-.231-1.0928h-.0561a3.2274,3.2274,0,0,1-1.1455.9771,3.49,3.49,0,0,1-1.4253.2558,2.5646,2.5646,0,0,1-1.79-.5883,2.1461,2.1461,0,0,1-.6479-1.6744q0-2.3253,3.7192-2.4375l1.3032-.0419v-.4766a1.9481,1.9481,0,0,0-.3886-1.3345,1.6,1.6,0,0,0-1.2437-.4306,5.0621,5.0621,0,0,0-2.1714.5883l-.3574-.89a5.4515,5.4515,0,0,1,1.2437-.4834,5.3839,5.3839,0,0,1,1.3554-.1753,2.9243,2.9243,0,0,1,2.0347.6094,2.5449,2.5449,0,0,1,.6621,1.9546v5.24Zm-2.627-.82a2.3612,2.3612,0,0,0,1.7061-.5952,2.2032,2.2032,0,0,0,.62-1.667v-.6939l-1.1626.0493a4.2327,4.2327,0,0,0-2,.4307,1.2994,1.2994,0,0,0-.6128,1.1875,1.196,1.196,0,0,0,.3819.9595A1.5823,1.5823,0,0,0,434.03,403.4981Z"/>
    <path d="M441.0627,400.3882a13.65,13.65,0,0,1,.9175-1.1211l2.48-2.6264h1.38l-3.11,3.271,3.3277,4.4062h-1.4082l-2.711-3.6284-.8755.7563v2.8721h-1.1489v-10.9h1.1489v5.7793q0,.3852-.0561,1.1909Z"/>
    <path d="M450.6873,404.458a3.5289,3.5289,0,0,1-2.6866-1.0366,4.0161,4.0161,0,0,1-.9839-2.8794,4.4506,4.4506,0,0,1,.9141-2.9487,3.0363,3.0363,0,0,1,2.4551-1.0928,2.8952,2.8952,0,0,1,2.2837.9492,3.6369,3.6369,0,0,1,.8408,2.5039v.7359h-5.2891a3.0422,3.0422,0,0,0,.6831,2.0522,2.362,2.362,0,0,0,1.8247.7007,6.18,6.18,0,0,0,2.4517-.5185v1.0366a6.1266,6.1266,0,0,1-1.166.3818A6.5447,6.5447,0,0,1,450.6873,404.458Zm-.315-6.9838a1.8972,1.8972,0,0,0-1.4746.6025,2.7748,2.7748,0,0,0-.6479,1.667h4.0136a2.5575,2.5575,0,0,0-.49-1.6846A1.7259,1.7259,0,0,0,450.3723,397.4742Z"/>
  </g>
  <path class="cls-1" d="M414.7478,438.0475a26.98,26.98,0,0,1,13.4884-23.3627,26.98,26.98,0,0,1,13.4884,23.3627v13.4884a26.9775,26.9775,0,0,0-26.9768,0Z"/>
  <path class="cls-2" d="M414.7478,438.0475a26.98,26.98,0,0,1,13.4884-23.3627,26.98,26.98,0,0,1,13.4884,23.3627v13.4884a26.9775,26.9775,0,0,0-26.9768,0Z"/>
  <rect class="cls-1" x="508.2083" y="99.5613" width="95.1771" height="45.8287"/>
  <rect class="cls-2" x="508.2083" y="99.5613" width="95.1771" height="45.8287"/>
  <g>
    <path d="M526.2834,117.0943h-5.7089V106.8531h5.7089v1.0576h-4.5185V111.21H526.01v1.0508h-4.2451v3.7685h4.5185Z"/>
    <path d="M531.1028,117.2344a2.8007,2.8007,0,0,1-2.3189-1.0439,4.5572,4.5572,0,0,1-.8335-2.9141,4.6164,4.6164,0,0,1,.84-2.9419,3.0888,3.0888,0,0,1,4.7636.1328h.063l.168-1.05h.918v11.1236H533.54v-3.2852a7.85,7.85,0,0,1,.0771-1.1909h-.0913A2.7461,2.7461,0,0,1,531.1028,117.2344Zm.1748-.9736a2.1126,2.1126,0,0,0,1.6953-.6236,3.377,3.377,0,0,0,.5674-2.1015v-.2593a3.84,3.84,0,0,0-.5464-2.3184,2.0487,2.0487,0,0,0-1.73-.7075,1.78,1.78,0,0,0-1.5659.7949,3.955,3.955,0,0,0-.543,2.2452,3.8138,3.8138,0,0,0,.5362,2.21A1.815,1.815,0,0,0,531.2776,116.2608Z"/>
    <path d="M538.262,109.417v4.98a2.0046,2.0046,0,0,0,.4272,1.4009,1.7411,1.7411,0,0,0,1.3379.4624,2.183,2.183,0,0,0,1.7617-.6587,3.3194,3.3194,0,0,0,.5571-2.15V109.417h1.1626v7.6773h-.9594l-.168-1.03h-.0635a2.3118,2.3118,0,0,1-.9912.8686,3.3317,3.3317,0,0,1-1.4463.3013,2.9345,2.9345,0,0,1-2.0981-.6655,2.8311,2.8311,0,0,1-.6968-2.1294V109.417Z"/>
    <path d="M545.8762,107.3365a.7721.7721,0,0,1,.1963-.585.7262.7262,0,0,1,.9736.0034.7587.7587,0,0,1,.2032.5816.7712.7712,0,0,1-.2032.5849.6792.6792,0,0,1-.4834.1924.6706.6706,0,0,1-.49-.1924A.787.787,0,0,1,545.8762,107.3365Zm1.2608,9.7578h-1.1626V109.417h1.1626Z"/>
    <path d="M553.175,117.2344a3.32,3.32,0,0,1-1.3691-.2768,2.569,2.569,0,0,1-1.04-.8511h-.084a10.2868,10.2868,0,0,1,.084,1.2749v3.1592h-1.1626V109.417h.9458l.1611,1.05h.0557a2.7055,2.7055,0,0,1,1.0439-.9106,3.175,3.175,0,0,1,1.3657-.28,2.8379,2.8379,0,0,1,2.3575,1.0434,5.5581,5.5581,0,0,1-.0142,5.8667A2.8419,2.8419,0,0,1,553.175,117.2344Zm-.1679-6.97a2.06,2.06,0,0,0-1.7022.6518,3.3523,3.3523,0,0,0-.5395,2.0733v.2593a3.8393,3.8393,0,0,0,.5395,2.3149,2.0512,2.0512,0,0,0,1.7305.6973,1.7992,1.7992,0,0,0,1.5586-.8057,3.8236,3.8236,0,0,0,.5635-2.2207,3.6813,3.6813,0,0,0-.5635-2.2031A1.856,1.856,0,0,0,553.0071,110.2642Z"/>
    <path d="M568.18,117.0943V112.1a2.0717,2.0717,0,0,0-.3926-1.3764,1.5182,1.5182,0,0,0-1.2187-.459,1.9671,1.9671,0,0,0-1.604.6235,2.9636,2.9636,0,0,0-.5186,1.9195v4.2871h-1.1626V112.1a2.0723,2.0723,0,0,0-.3925-1.3764,1.5272,1.5272,0,0,0-1.2256-.459,1.9,1.9,0,0,0-1.6011.6553,3.5455,3.5455,0,0,0-.5078,2.1469v4.0279h-1.1626V109.417h.9458l.189,1.05h.0561a2.2856,2.2856,0,0,1,.9282-.8755,2.8367,2.8367,0,0,1,1.3413-.3149,2.28,2.28,0,0,1,2.3536,1.3027h.0561a2.452,2.452,0,0,1,.9946-.9526,3.0884,3.0884,0,0,1,1.4854-.35,2.5984,2.5984,0,0,1,1.9507.6689,2.9913,2.9913,0,0,1,.6479,2.14v5.0088Z"/>
    <path d="M574.9817,117.2344a3.5285,3.5285,0,0,1-2.6865-1.0366,4.0156,4.0156,0,0,1-.9839-2.8794,4.4511,4.4511,0,0,1,.914-2.9487,3.0361,3.0361,0,0,1,2.4551-1.0928,2.8951,2.8951,0,0,1,2.2837.9492,3.6363,3.6363,0,0,1,.8408,2.5039v.7359h-5.289a3.0414,3.0414,0,0,0,.6831,2.0522,2.3617,2.3617,0,0,0,1.8247.7007,6.18,6.18,0,0,0,2.4516-.5186v1.0366a6.1273,6.1273,0,0,1-1.166.3819A6.5519,6.5519,0,0,1,574.9817,117.2344Zm-.315-6.9839a1.8974,1.8974,0,0,0-1.4746.6026,2.7745,2.7745,0,0,0-.6479,1.667h4.0137a2.5572,2.5572,0,0,0-.49-1.6846A1.7254,1.7254,0,0,0,574.6667,110.2505Z"/>
    <path d="M585.0413,117.0943V112.128a2.0036,2.0036,0,0,0-.4278-1.4014,1.74,1.74,0,0,0-1.3379-.4624,2.2057,2.2057,0,0,0-1.7651.6518,3.2885,3.2885,0,0,0-.56,2.15v4.0279h-1.1626V109.417h.9458l.1889,1.05h.0562a2.3771,2.3771,0,0,1,1.0014-.8789,3.2589,3.2589,0,0,1,1.4361-.3115,2.9139,2.9139,0,0,1,2.0874.6689,2.8452,2.8452,0,0,1,.7007,2.14v5.0088Z"/>
    <path d="M591.072,116.2744a3.7476,3.7476,0,0,0,.5957-.0454,3.8175,3.8175,0,0,0,.4551-.0942v.89a2.1206,2.1206,0,0,1-.5566.15,4.1951,4.1951,0,0,1-.6621.06q-2.2273,0-2.2276-2.3467V110.32h-1.1v-.56l1.1-.4834.49-1.6392h.6729v1.7793h2.2275v.9033H589.84v4.5186a1.5534,1.5534,0,0,0,.3291,1.0645A1.1446,1.1446,0,0,0,591.072,116.2744Z"/>
  </g>
  <g>
    <path d="M535.719,135.0269h-1.19V124.7857h5.7089v1.0576H535.719v3.7476h4.2451v1.0581H535.719Z"/>
    <path d="M546.4788,135.0269l-.231-1.0928h-.0561a3.2276,3.2276,0,0,1-1.1456.9771,3.489,3.489,0,0,1-1.4252.2558,2.5638,2.5638,0,0,1-1.79-.5884,2.1459,2.1459,0,0,1-.6479-1.6743q0-2.3254,3.7192-2.4375l1.3032-.042v-.4765a1.9481,1.9481,0,0,0-.3887-1.3345,1.6,1.6,0,0,0-1.2436-.4307,5.06,5.06,0,0,0-2.1714.5884l-.3574-.89a5.4525,5.4525,0,0,1,1.2436-.4834,5.3847,5.3847,0,0,1,1.3555-.1753,2.9244,2.9244,0,0,1,2.0347.6094,2.5448,2.5448,0,0,1,.6621,1.9545v5.24Zm-2.627-.82a2.361,2.361,0,0,0,1.7061-.5953,2.2032,2.2032,0,0,0,.62-1.6669v-.6939l-1.1626.0493a4.2315,4.2315,0,0,0-2,.4307,1.2994,1.2994,0,0,0-.6128,1.1875,1.1963,1.1963,0,0,0,.3818.9595A1.5826,1.5826,0,0,0,543.8518,134.2071Z"/>
    <path d="M549.6379,125.2691a.7722.7722,0,0,1,.1963-.585.7266.7266,0,0,1,.9737.0034.7592.7592,0,0,1,.2031.5816.7716.7716,0,0,1-.2031.5849.6791.6791,0,0,1-.4834.1924.67.67,0,0,1-.49-.1924A.787.787,0,0,1,549.6379,125.2691Zm1.2608,9.7578h-1.1626V127.35h1.1626Z"/>
    <path d="M554.5276,135.0269H553.365v-10.9h1.1626Z"/>
    <path d="M558.0862,127.35v4.98a2.0051,2.0051,0,0,0,.4272,1.4009,1.7411,1.7411,0,0,0,1.3379.4624,2.1827,2.1827,0,0,0,1.7617-.6587,3.3193,3.3193,0,0,0,.5572-2.15V127.35h1.1626v7.6773h-.96l-.168-1.03h-.0635a2.3121,2.3121,0,0,1-.9912.8687,3.3328,3.3328,0,0,1-1.4463.3012,2.9346,2.9346,0,0,1-2.0981-.6655,2.8315,2.8315,0,0,1-.6968-2.1294V127.35Z"/>
    <path d="M569.301,127.21a4.5354,4.5354,0,0,1,.9175.084l-.1611,1.0786a3.9749,3.9749,0,0,0-.84-.105,2.0462,2.0462,0,0,0-1.5937.7564,2.7588,2.7588,0,0,0-.6621,1.8842v4.1192h-1.1626V127.35h.96l.1333,1.4219h.0561a3.3721,3.3721,0,0,1,1.03-1.1557A2.316,2.316,0,0,1,569.301,127.21Z"/>
    <path d="M574.8977,135.167a3.5285,3.5285,0,0,1-2.6865-1.0366,4.0156,4.0156,0,0,1-.9839-2.8794,4.4506,4.4506,0,0,1,.9141-2.9487,3.0361,3.0361,0,0,1,2.455-1.0928,2.8949,2.8949,0,0,1,2.2837.9492,3.6363,3.6363,0,0,1,.8408,2.5039v.7359h-5.289a3.0419,3.0419,0,0,0,.6831,2.0522,2.3617,2.3617,0,0,0,1.8247.7007,6.1806,6.1806,0,0,0,2.4517-.5186V134.67a6.13,6.13,0,0,1-1.1661.3818A6.5512,6.5512,0,0,1,574.8977,135.167Zm-.3149-6.9839a1.8973,1.8973,0,0,0-1.4746.6026,2.7746,2.7746,0,0,0-.648,1.667h4.0137a2.5573,2.5573,0,0,0-.49-1.6846A1.7256,1.7256,0,0,0,574.5828,128.1831Z"/>
  </g>
  <path class="cls-1" d="M538.1581,175.9412A35.281,35.281,0,0,1,555.7969,145.39a35.2811,35.2811,0,0,1,17.6387,30.5512V193.58a35.2781,35.2781,0,0,0-35.2775,0Z"/>
  <path class="cls-2" d="M538.1581,175.9412A35.281,35.281,0,0,1,555.7969,145.39a35.2811,35.2811,0,0,1,17.6387,30.5512V193.58a35.2781,35.2781,0,0,0-35.2775,0Z"/>
  <rect class="cls-1" x="633.0593" y="368.856" width="89.2578" height="45.8287"/>
  <rect class="cls-2" x="633.0593" y="368.856" width="89.2578" height="45.8287"/>
  <g>
    <path d="M651.9163,379.1289a2.87,2.87,0,0,1-1.0606,2.3926,4.8087,4.8087,0,0,1-3.0371.8369h-1.2051v4.0279h-1.19V376.1451h2.6543Q651.9168,376.1451,651.9163,379.1289Zm-5.3028,2.2066h1.0723a3.9822,3.9822,0,0,0,2.29-.5113,1.8845,1.8845,0,0,0,.708-1.6391,1.7658,1.7658,0,0,0-.666-1.5132,3.4759,3.4759,0,0,0-2.0732-.4971h-1.3311Z"/>
    <path d="M657.1282,386.5264a3.5285,3.5285,0,0,1-2.6865-1.0366,4.0137,4.0137,0,0,1-.9844-2.8794,4.4511,4.4511,0,0,1,.914-2.9487,3.0361,3.0361,0,0,1,2.4551-1.0928,2.897,2.897,0,0,1,2.2842.9492,3.6406,3.6406,0,0,1,.84,2.5039v.7358h-5.288a3.0439,3.0439,0,0,0,.6826,2.0523,2.3607,2.3607,0,0,0,1.8252.7007,6.18,6.18,0,0,0,2.4511-.5186v1.0366a6.15,6.15,0,0,1-1.166.3819A6.5563,6.5563,0,0,1,657.1282,386.5264Zm-.3155-6.9839a1.898,1.898,0,0,0-1.4746.6026,2.7717,2.7717,0,0,0-.6484,1.6669h4.0146a2.5543,2.5543,0,0,0-.4912-1.6845A1.7237,1.7237,0,0,0,656.8127,379.5425Z"/>
    <path d="M665.4358,378.5689a4.5475,4.5475,0,0,1,.918.084l-.1612,1.0786a3.9814,3.9814,0,0,0-.8408-.105,2.0461,2.0461,0,0,0-1.5937.7563,2.7591,2.7591,0,0,0-.6622,1.8843v4.1192h-1.163V378.709h.96l.1328,1.4219h.0567a3.3723,3.3723,0,0,1,1.0293-1.1558A2.3182,2.3182,0,0,1,665.4358,378.5689Z"/>
    <path d="M672.7424,384.2915a1.9238,1.9238,0,0,1-.7988,1.6534,3.7515,3.7515,0,0,1-2.2412.5815,4.8713,4.8713,0,0,1-2.3818-.4834v-1.0786a5.7759,5.7759,0,0,0,1.1875.4414,4.95,4.95,0,0,0,1.2216.1606,2.7724,2.7724,0,0,0,1.4014-.2905,1.0012,1.0012,0,0,0,.1016-1.6533,6.11,6.11,0,0,0-1.5166-.7529,8.2179,8.2179,0,0,1-1.5235-.6968,2.08,2.08,0,0,1-.6728-.6763,1.7673,1.7673,0,0,1-.2207-.9033,1.7242,1.7242,0,0,1,.7636-1.4819,3.5578,3.5578,0,0,1,2.0948-.5425,6.1255,6.1255,0,0,1,2.4238.5044l-.4131.9453a5.5657,5.5657,0,0,0-2.0947-.4761,2.41,2.41,0,0,0-1.2471.2593.8.8,0,0,0-.42.7143.8671.8671,0,0,0,.1572.5254,1.5581,1.5581,0,0,0,.5078.4131,11.33,11.33,0,0,0,1.3448.5674,5.0177,5.0177,0,0,1,1.8457,1.002A1.7641,1.7641,0,0,1,672.7424,384.2915Z"/>
    <path d="M681.26,382.5406a4.2386,4.2386,0,0,1-.9453,2.9316,3.3331,3.3331,0,0,1-2.6133,1.0542,3.4588,3.4588,0,0,1-1.8281-.4834,3.1874,3.1874,0,0,1-1.2324-1.3872,4.8229,4.8229,0,0,1-.4346-2.1152,4.2283,4.2283,0,0,1,.9385-2.9248,3.32,3.32,0,0,1,2.6054-1.0469,3.2469,3.2469,0,0,1,2.5606,1.0718A4.2162,4.2162,0,0,1,681.26,382.5406Zm-5.8486,0a3.65,3.65,0,0,0,.5879,2.2417,2.3352,2.3352,0,0,0,3.4638.0034,3.6257,3.6257,0,0,0,.5918-2.2451,3.5679,3.5679,0,0,0-.5918-2.2242,2.078,2.078,0,0,0-1.747-.76,2.0475,2.0475,0,0,0-1.7237.75A3.6078,3.6078,0,0,0,675.4114,382.5406Z"/>
    <path d="M688.552,386.3863V381.42a2.0084,2.0084,0,0,0-.4268-1.4014,1.7422,1.7422,0,0,0-1.3378-.4624,2.2071,2.2071,0,0,0-1.7657.6518,3.2856,3.2856,0,0,0-.5605,2.15v4.0279h-1.1631V378.709h.9463l.1894,1.05h.0557a2.3788,2.3788,0,0,1,1.002-.8789,3.2578,3.2578,0,0,1,1.4355-.3115,2.9169,2.9169,0,0,1,2.0879.6689,2.8471,2.8471,0,0,1,.7,2.14v5.0088Z"/>
    <path d="M697.3577,386.3863V381.42a2.0084,2.0084,0,0,0-.4268-1.4014,1.7423,1.7423,0,0,0-1.3379-.4624,2.2068,2.2068,0,0,0-1.7656.6518,3.2855,3.2855,0,0,0-.5606,2.15v4.0279h-1.163V378.709h.9462l.19,1.05h.0557a2.3779,2.3779,0,0,1,1.0019-.8789,3.2582,3.2582,0,0,1,1.4356-.3115,2.9169,2.9169,0,0,1,2.0879.6689,2.8471,2.8471,0,0,1,.7,2.14v5.0088Z"/>
    <path d="M704.1526,386.5264a3.5285,3.5285,0,0,1-2.6865-1.0366,4.0137,4.0137,0,0,1-.9844-2.8794,4.4506,4.4506,0,0,1,.9141-2.9487,3.0358,3.0358,0,0,1,2.455-1.0928,2.8968,2.8968,0,0,1,2.2842.9492,3.6407,3.6407,0,0,1,.84,2.5039v.7358h-5.2881a3.0439,3.0439,0,0,0,.6826,2.0523,2.3607,2.3607,0,0,0,1.8252.7007,6.18,6.18,0,0,0,2.4512-.5186v1.0366a6.1534,6.1534,0,0,1-1.1661.3819A6.5563,6.5563,0,0,1,704.1526,386.5264Zm-.3154-6.9839a1.8982,1.8982,0,0,0-1.4747.6026,2.7723,2.7723,0,0,0-.6484,1.6669h4.0147a2.5544,2.5544,0,0,0-.4913-1.6845A1.7236,1.7236,0,0,0,703.8372,379.5425Z"/>
    <path d="M710.12,386.3863h-1.1631v-10.9H710.12Z"/>
  </g>
  <g>
    <path d="M667.6965,404.3179h-5.709V394.0767h5.709v1.0576H663.178v3.2993h4.2451v1.0508H663.178v3.7686h4.5185Z"/>
    <path d="M673.2932,396.5005a4.5548,4.5548,0,0,1,.918.084l-.1612,1.0786a3.9814,3.9814,0,0,0-.8408-.105,2.0462,2.0462,0,0,0-1.5937.7564,2.7589,2.7589,0,0,0-.6621,1.8843v4.1191H669.79v-7.6772h.96l.1329,1.4218h.0566a3.3719,3.3719,0,0,1,1.0293-1.1557A2.3185,2.3185,0,0,1,673.2932,396.5005Z"/>
    <path d="M679.15,396.5005a4.5538,4.5538,0,0,1,.9179.084l-.1611,1.0786a3.9829,3.9829,0,0,0-.8408-.105,2.0464,2.0464,0,0,0-1.5938.7564,2.7589,2.7589,0,0,0-.6621,1.8843v4.1191h-1.1631v-7.6772h.96l.1328,1.4218h.0566a3.3729,3.3729,0,0,1,1.0293-1.1557A2.3188,2.3188,0,0,1,679.15,396.5005Z"/>
    <path d="M688.13,400.4722a4.2384,4.2384,0,0,1-.9453,2.9316,3.3325,3.3325,0,0,1-2.6133,1.0542,3.4588,3.4588,0,0,1-1.8281-.4834,3.1863,3.1863,0,0,1-1.2324-1.3872,4.8226,4.8226,0,0,1-.4346-2.1152,4.2283,4.2283,0,0,1,.9385-2.9248,3.32,3.32,0,0,1,2.6055-1.0469,3.2472,3.2472,0,0,1,2.56,1.0718A4.2164,4.2164,0,0,1,688.13,400.4722Zm-5.8486,0a3.65,3.65,0,0,0,.5879,2.2417,2.3353,2.3353,0,0,0,3.4639.0034,3.6259,3.6259,0,0,0,.5917-2.2451,3.5681,3.5681,0,0,0-.5917-2.2241,2.0781,2.0781,0,0,0-1.7471-.76,2.0476,2.0476,0,0,0-1.7237.75A3.6086,3.6086,0,0,0,682.2815,400.4722Z"/>
    <path d="M693.6711,396.5005a4.5541,4.5541,0,0,1,.918.084l-.1611,1.0786a3.9829,3.9829,0,0,0-.8408-.105,2.0464,2.0464,0,0,0-1.5938.7564,2.7589,2.7589,0,0,0-.6621,1.8843v4.1191h-1.1631v-7.6772h.96l.1328,1.4218h.0566a3.3729,3.3729,0,0,1,1.0293-1.1557A2.3187,2.3187,0,0,1,693.6711,396.5005Z"/>
  </g>
  <path class="cls-1" d="M664.2,438.0475a26.98,26.98,0,0,1,13.4884-23.3627,26.98,26.98,0,0,1,13.4884,23.3627v13.4884a26.9775,26.9775,0,0,0-26.9768,0Z"/>
  <path class="cls-2" d="M664.2,438.0475a26.98,26.98,0,0,1,13.4884-23.3627,26.98,26.98,0,0,1,13.4884,23.3627v13.4884a26.9775,26.9775,0,0,0-26.9768,0Z"/>
  <polyline class="cls-2" points="416.477 69.492 416.477 80.831 45.554 80.831 45.554 368.856"/>
  <polyline class="cls-2" points="422.357 67.959 422.357 84.967 201.462 84.967 201.462 99.561"/>
  <polyline class="cls-2" points="428.236 67.461 428.236 81.634 428.236 81.634 428.236 368.856"/>
  <polyline class="cls-2" points="434.116 67.959 434.116 84.967 555.797 84.967 555.797 99.561"/>
  <polyline class="cls-2" points="439.995 69.492 439.995 80.831 677.688 80.831 677.688 368.856"/>
  <rect class="cls-1" x="67.2149" y="482.3701" width="19.0413" height="20.2462"/>
  <rect class="cls-2" x="67.2149" y="482.3701" width="19.0413" height="20.2462"/>
  <path d="M80.0471,497.6289l-1.2749-3.2573h-4.105l-1.2607,3.2573H72.2014L76.25,487.3457h1.002L81.28,497.6289ZM78.4006,493.3l-1.19-3.1733q-.2315-.6021-.4766-1.478a13.2482,13.2482,0,0,1-.4414,1.478L75.0876,493.3Z"/>
  <path class="cls-1" d="M63.2472,525.979a26.98,26.98,0,0,1,13.4884-23.3627A26.98,26.98,0,0,1,90.2241,525.979v13.4884a26.9777,26.9777,0,0,0-26.9769,0Z"/>
  <path class="cls-2" d="M63.2472,525.979a26.98,26.98,0,0,1,13.4884-23.3627A26.98,26.98,0,0,1,90.2241,525.979v13.4884a26.9777,26.9777,0,0,0-26.9769,0Z"/>
  <rect class="cls-1" x="4.7434" y="482.3911" width="19.2585" height="20.2042"/>
  <rect class="cls-2" x="4.7434" y="482.3911" width="19.2585" height="20.2042"/>
  <path d="M11.1384,487.3667h2.8931a5.4575,5.4575,0,0,1,2.9487.6094,2.1505,2.1505,0,0,1,.9107,1.9263,2.2235,2.2235,0,0,1-.5078,1.5024,2.4427,2.4427,0,0,1-1.4815.7671v.07q2.3328.3991,2.3325,2.4517a2.6318,2.6318,0,0,1-.9282,2.1435,3.95,3.95,0,0,1-2.5952.77H11.1384Zm1.1905,4.3853H14.29a3.1944,3.1944,0,0,0,1.8144-.396,1.5283,1.5283,0,0,0,.5533-1.3345,1.35,1.35,0,0,0-.6163-1.2431,3.8484,3.8484,0,0,0-1.9614-.3819H12.3289Zm0,1.0083v3.832h2.1367a3.0427,3.0427,0,0,0,1.8667-.48,1.7716,1.7716,0,0,0,.6269-1.5024,1.5905,1.5905,0,0,0-.6406-1.4009,3.4275,3.4275,0,0,0-1.9512-.4487Z"/>
  <circle class="cls-1" cx="14.3726" cy="516.7687" r="14.1734" transform="translate(-432.7732 257.3135) rotate(-58.2825)"/>
  <circle class="cls-2" cx="14.3726" cy="516.7687" r="14.1734" transform="translate(-432.7732 257.3135) rotate(-58.2825)"/>
  <rect class="cls-1" x="36.0475" y="482.2475" width="19.0133" height="20.4914"/>
  <rect class="cls-2" x="36.0475" y="482.2475" width="19.0133" height="20.4914"/>
  <path d="M46.8274,488.2871a3.3474,3.3474,0,0,0-2.665,1.1246,4.5328,4.5328,0,0,0-.9776,3.0786,4.6224,4.6224,0,0,0,.9424,3.1064,3.3484,3.3484,0,0,0,2.6865,1.0967,9.1675,9.1675,0,0,0,2.4444-.3853v1.0435a7.5285,7.5285,0,0,1-2.6265.3994,4.4435,4.4435,0,0,1-3.4922-1.373,5.6553,5.6553,0,0,1-1.23-3.9019,6.1534,6.1534,0,0,1,.5923-2.7739,4.2473,4.2473,0,0,1,1.709-1.8355,5.1768,5.1768,0,0,1,2.63-.644,6.3417,6.3417,0,0,1,2.8159.5884l-.5044,1.0224A5.4272,5.4272,0,0,0,46.8274,488.2871Z"/>
  <circle class="cls-1" cx="45.5541" cy="516.9123" r="14.1734" transform="translate(-449.4434 361.1852) rotate(-67.5)"/>
  <circle class="cls-2" cx="45.5541" cy="516.9123" r="14.1734" transform="translate(-449.4434 361.1852) rotate(-67.5)"/>
  <polyline class="cls-2" points="52.298 448.787 52.298 462.96 76.736 462.96 76.736 482.37"/>
  <polyline class="cls-2" points="38.81 448.787 38.81 462.96 14.373 462.96 14.373 482.391"/>
  <polyline class="cls-2" points="45.554 447.922 45.554 462.095 45.554 462.095 45.554 482.248"/>
  <rect class="cls-1" x="26.2626" y="570.3016" width="27.2443" height="20.2462"/>
  <rect class="cls-2" x="26.2626" y="570.3016" width="27.2443" height="20.2462"/>
  <g>
    <path d="M39.095,585.5591,37.82,582.3018h-4.105l-1.2608,3.2573h-1.205l4.0488-10.2832H36.3l4.0279,10.2832ZM37.4485,581.23l-1.19-3.1733q-.2314-.6021-.4766-1.4781a13.2431,13.2431,0,0,1-.4414,1.4781L34.1355,581.23Z"/>
    <path d="M45.3367,585.5591H44.2014V578.26q0-.91.0562-1.7231-.1473.1472-.3291.3081t-1.667,1.3662l-.6167-.7989,2.7109-2.0942h.981Z"/>
  </g>
  <circle class="cls-1" cx="39.8848" cy="604.7212" r="14.1734"/>
  <circle class="cls-2" cx="39.8848" cy="604.7212" r="14.1734"/>
  <rect class="cls-1" x="63.1135" y="570.2491" width="27.2443" height="20.3513"/>
  <rect class="cls-2" x="63.1135" y="570.2491" width="27.2443" height="20.3513"/>
  <g>
    <path d="M75.9451,585.6118,74.67,582.3545h-4.105l-1.2608,3.2573h-1.205l4.0488-10.2832H73.15l4.0279,10.2832Zm-1.6465-4.3291-1.19-3.1733q-.2314-.6021-.4766-1.478a13.2482,13.2482,0,0,1-.4414,1.478l-1.2046,3.1733Z"/>
    <path d="M84.61,585.6118H77.8787V584.61l2.6967-2.7105A19.92,19.92,0,0,0,82.2,580.12a4.5278,4.5278,0,0,0,.5884-1.0371,2.963,2.963,0,0,0,.1963-1.0854,1.7229,1.7229,0,0,0-.4976-1.3,1.9048,1.9048,0,0,0-1.38-.48,3.47,3.47,0,0,0-1.2085.21,4.8111,4.8111,0,0,0-1.271.7636l-.6167-.7915a4.7209,4.7209,0,0,1,3.0825-1.1767,3.2556,3.2556,0,0,1,2.2622.7387,2.5421,2.5421,0,0,1,.82,1.9859,3.8324,3.8324,0,0,1-.5464,1.9262,12.2419,12.2419,0,0,1-2.0454,2.41l-2.2417,2.1924v.0556H84.61Z"/>
  </g>
  <circle class="cls-1" cx="76.7356" cy="604.7738" r="14.1734" transform="translate(-511.368 444.2315) rotate(-67.5)"/>
  <circle class="cls-2" cx="76.7356" cy="604.7738" r="14.1734" transform="translate(-511.368 444.2315) rotate(-67.5)"/>
  <rect class="cls-1" x="99.9643" y="570.179" width="27.2443" height="20.4914"/>
  <rect class="cls-2" x="99.9643" y="570.179" width="27.2443" height="20.4914"/>
  <g>
    <path d="M112.7961,585.5425l-1.2749-3.2573h-4.1049l-1.2608,3.2573H104.95l4.0489-10.2832h1.0019l4.0279,10.2832Zm-1.6464-4.3291-1.19-3.1733q-.2314-.6021-.4765-1.4781a13.2643,13.2643,0,0,1-.4414,1.4781l-1.2046,3.1733Z"/>
    <path d="M121.0759,577.711a2.3345,2.3345,0,0,1-.55,1.604,2.749,2.749,0,0,1-1.5586.8335v.0561a2.9321,2.9321,0,0,1,1.8282.7847,2.31,2.31,0,0,1,.5957,1.6533,2.681,2.681,0,0,1-1.0157,2.2515,4.6192,4.6192,0,0,1-2.8862.7881,8.3416,8.3416,0,0,1-1.4888-.1221,5.1134,5.1134,0,0,1-1.313-.4307v-1.1069a6.72,6.72,0,0,0,2.8438.6724q2.655,0,2.6548-2.0806,0-1.8633-2.9278-1.8633H116.25V579.75h1.0224a3.0789,3.0789,0,0,0,1.8985-.5288,1.736,1.736,0,0,0,.7006-1.4677,1.4465,1.4465,0,0,0-.5151-1.1768,2.1226,2.1226,0,0,0-1.3975-.4272,4.3014,4.3014,0,0,0-1.2675.1821,5.6967,5.6967,0,0,0-1.3594.6723l-.5884-.7846a4.9021,4.9021,0,0,1,1.4536-.7808,5.2763,5.2763,0,0,1,1.7339-.2837,3.5431,3.5431,0,0,1,2.3184.6826A2.3,2.3,0,0,1,121.0759,577.711Z"/>
  </g>
  <circle class="cls-1" cx="113.5865" cy="604.8438" r="14.1734"/>
  <circle class="cls-2" cx="113.5865" cy="604.8438" r="14.1734"/>
  <polyline class="cls-2" points="69.991 536.718 69.991 550.892 39.885 550.892 39.885 570.302"/>
  <polyline class="cls-2" points="76.736 535.853 76.736 550.027 76.736 570.249"/>
  <polyline class="cls-2" points="83.48 536.718 83.48 550.892 113.586 550.892 113.586 570.179"/>
  <rect class="cls-1" x="55.1862" y="219.5932" width="20.4213" height="20.2042"/>
  <rect class="cls-2" x="55.1862" y="219.5932" width="20.4213" height="20.2042"/>
  <path d="M69.7551,229.5943a5.1723,5.1723,0,0,1-1.3764,3.8774,5.448,5.448,0,0,1-3.9615,1.3413H61.58V224.5718h3.1382a4.5973,4.5973,0,0,1,5.0366,5.0225Zm-1.2612.042a4.1243,4.1243,0,0,0-1.0049-3.0191,4.03,4.03,0,0,0-2.9878-1.0156h-1.73v8.1816h1.45a4.4084,4.4084,0,0,0,3.2012-1.0473A4.1436,4.1436,0,0,0,68.4939,229.6363Z"/>
  <circle class="cls-1" cx="65.3969" cy="253.9708" r="14.1734" transform="translate(-142.4458 94.0354) rotate(-37.9818)"/>
  <circle class="cls-2" cx="65.3969" cy="253.9708" r="14.1734" transform="translate(-142.4458 94.0354) rotate(-37.9818)"/>
  <rect class="cls-1" x="93.277" y="219.5932" width="17.9415" height="20.2042"/>
  <rect class="cls-2" x="93.277" y="219.5932" width="17.9415" height="20.2042"/>
  <path d="M105.3792,234.813H99.67V224.5718h5.709v1.0576h-4.5186v3.2993h4.2451V229.98h-4.2451v3.7686h4.5186Z"/>
  <path class="cls-1" d="M88.7593,263.16a26.98,26.98,0,0,1,13.4885-23.3627A26.98,26.98,0,0,1,115.7362,263.16v13.4884a26.977,26.977,0,0,0-26.9769,0Z"/>
  <path class="cls-2" d="M88.7593,263.16a26.98,26.98,0,0,1,13.4885-23.3627A26.98,26.98,0,0,1,115.7362,263.16v13.4884a26.977,26.977,0,0,0-26.9769,0Z"/>
  <rect class="cls-1" x="158.7619" y="219.5932" width="17.3671" height="20.2042"/>
  <rect class="cls-2" x="158.7619" y="219.5932" width="17.3671" height="20.2042"/>
  <path d="M166.3459,234.813h-1.19V224.5718h5.709v1.0576h-4.5186v3.7476h4.2452v1.0581h-4.2452Z"/>
  <path class="cls-1" d="M152.7054,254.5375a14.74,14.74,0,1,1,29.48,0v22.11h-29.48Z"/>
  <path class="cls-2" d="M152.7054,254.5375a14.74,14.74,0,1,1,29.48,0v22.11h-29.48Z"/>
  <rect class="cls-1" x="222.4395" y="219.4496" width="20.4073" height="20.4913"/>
  <rect class="cls-2" x="222.4395" y="219.4496" width="20.4073" height="20.4913"/>
  <path d="M233.3352,229.4512h3.4815v4.9805a11.1509,11.1509,0,0,1-1.6529.3921,12.5809,12.5809,0,0,1-1.9477.1333,4.72,4.72,0,0,1-3.6216-1.3833,5.4539,5.4539,0,0,1-1.2959-3.8775,5.8579,5.8579,0,0,1,.6411-2.7983,4.3339,4.3339,0,0,1,1.8457-1.8355,5.9771,5.9771,0,0,1,2.8232-.6338,7.7184,7.7184,0,0,1,3.0542.6021l-.4624,1.0508a6.8271,6.8271,0,0,0-2.6689-.5884,3.8217,3.8217,0,0,0-2.9209,1.1138,4.3223,4.3223,0,0,0-1.0508,3.0893,4.4145,4.4145,0,0,0,1.0122,3.145,3.8965,3.8965,0,0,0,2.9737,1.0718,8.8231,8.8231,0,0,0,2.08-.2451v-3.1523h-2.2905Z"/>
  <path class="cls-1" d="M219.1547,263.3036a26.98,26.98,0,0,1,13.4884-23.3627,26.98,26.98,0,0,1,13.4885,23.3627v13.4885a26.977,26.977,0,0,0-26.9769,0Z"/>
  <path class="cls-2" d="M219.1547,263.3036a26.98,26.98,0,0,1,13.4884-23.3627,26.98,26.98,0,0,1,13.4885,23.3627v13.4885a26.977,26.977,0,0,0-26.9769,0Z"/>
  <rect class="cls-1" x="290.4018" y="219.5932" width="20.5474" height="20.2042"/>
  <rect class="cls-2" x="290.4018" y="219.5932" width="20.5474" height="20.2042"/>
  <path d="M304.5686,234.813h-1.1909v-4.8193h-5.3941v4.8193h-1.19V224.5718h1.19v4.3569h5.3941v-4.3569h1.1909Z"/>
  <path class="cls-1" d="M287.1871,263.16a26.98,26.98,0,0,1,13.4884-23.3627A26.98,26.98,0,0,1,314.1639,263.16v13.4884a26.9768,26.9768,0,0,0-26.9768,0Z"/>
  <path class="cls-2" d="M287.1871,263.16a26.98,26.98,0,0,1,13.4884-23.3627A26.98,26.98,0,0,1,314.1639,263.16v13.4884a26.9768,26.9768,0,0,0-26.9768,0Z"/>
  <rect class="cls-1" x="358.8919" y="219.5932" width="13.9626" height="20.2042"/>
  <rect class="cls-2" x="358.8919" y="219.5932" width="13.9626" height="20.2042"/>
  <path d="M365.2825,234.813V224.5718h1.19V234.813Z"/>
  <path class="cls-1" d="M352.3848,263.16a26.98,26.98,0,0,1,13.4884-23.3627A26.98,26.98,0,0,1,379.3616,263.16v13.4884a26.9768,26.9768,0,0,0-26.9768,0Z"/>
  <path class="cls-2" d="M352.3848,263.16a26.98,26.98,0,0,1,13.4884-23.3627A26.98,26.98,0,0,1,379.3616,263.16v13.4884a26.9768,26.9768,0,0,0-26.9768,0Z"/>
  <polyline class="cls-2" points="188.863 191.196 188.863 202.534 65.397 202.534 65.397 219.593"/>
  <polyline class="cls-2" points="193.902 189.68 193.902 206.688 102.248 206.688 102.248 219.593"/>
  <polyline class="cls-2" points="198.942 188.946 198.942 211.623 167.445 211.623 167.445 219.593"/>
  <polyline class="cls-2" points="203.981 188.946 203.981 211.623 232.643 211.623 232.643 219.45"/>
  <polyline class="cls-2" points="209.021 189.68 209.021 206.688 300.676 206.688 300.676 219.593"/>
  <polyline class="cls-2" points="214.061 191.195 214.061 202.534 365.873 202.534 365.873 219.593"/>
  <rect class="cls-1" x="52.3247" y="307.5036" width="26.1445" height="20.2042"/>
  <rect class="cls-2" x="52.3247" y="307.5036" width="26.1445" height="20.2042"/>
  <g>
    <path d="M64.4285,322.7232H58.72V312.482h5.709V313.54H59.91v3.2993H64.155V317.89H59.91v3.7685h4.5186Z"/>
    <path d="M70.2986,322.7232H69.1633v-7.2993q0-.9105.0562-1.7232c-.0982.0982-.2075.2007-.3291.3081s-.6773.563-1.667,1.3662l-.6167-.7988,2.7109-2.0942h.981Z"/>
  </g>
  <circle class="cls-1" cx="65.3969" cy="341.8812" r="14.1734"/>
  <circle class="cls-2" cx="65.3969" cy="341.8812" r="14.1734"/>
  <rect class="cls-1" x="89.1755" y="307.4301" width="26.1445" height="20.3513"/>
  <rect class="cls-2" x="89.1755" y="307.4301" width="26.1445" height="20.3513"/>
  <g>
    <path d="M101.2786,322.7959H95.57V312.5547h5.709v1.0576H96.76v3.2994h4.2451v1.0507H96.76v3.7686h4.5186Z"/>
    <path d="M109.572,322.7959h-6.7314V321.794l2.6968-2.71a19.9525,19.9525,0,0,0,1.625-1.7793,4.5351,4.5351,0,0,0,.5883-1.0371,2.963,2.963,0,0,0,.1963-1.0854,1.7232,1.7232,0,0,0-.4975-1.3,1.9046,1.9046,0,0,0-1.38-.4795,3.4721,3.4721,0,0,0-1.2085.21,4.8145,4.8145,0,0,0-1.271.7637l-.6167-.7915a4.72,4.72,0,0,1,3.0825-1.1768,3.2552,3.2552,0,0,1,2.2622.7388,2.5421,2.5421,0,0,1,.82,1.9859,3.8332,3.8332,0,0,1-.5463,1.9262,12.2467,12.2467,0,0,1-2.0455,2.41l-2.2417,2.1924v.0561h5.2676Z"/>
  </g>
  <circle class="cls-1" cx="102.2478" cy="341.9547" r="14.1734"/>
  <circle class="cls-2" cx="102.2478" cy="341.9547" r="14.1734"/>
  <rect class="cls-1" x="126.0264" y="307.36" width="26.1445" height="20.4914"/>
  <rect class="cls-2" x="126.0264" y="307.36" width="26.1445" height="20.4914"/>
  <g>
    <path d="M138.1282,322.7261h-5.709V312.4849h5.709v1.0576H133.61v3.2993h4.2451v1.0508H133.61v3.7686h4.5186Z"/>
    <path d="M146.0364,314.8946a2.3345,2.3345,0,0,1-.55,1.604,2.7493,2.7493,0,0,1-1.5586.8335v.0561a2.9318,2.9318,0,0,1,1.8281.7847,2.3092,2.3092,0,0,1,.5957,1.6533,2.6828,2.6828,0,0,1-1.0156,2.252,4.62,4.62,0,0,1-2.8862.788,8.3866,8.3866,0,0,1-1.4888-.1225,5.079,5.079,0,0,1-1.313-.4307v-1.1069a6.6982,6.6982,0,0,0,2.8437.6723q2.6552,0,2.6548-2.08,0-1.8633-2.9277-1.8633H141.21v-1.0015h1.0225a3.0786,3.0786,0,0,0,1.8984-.5288,1.7361,1.7361,0,0,0,.7007-1.4677,1.4468,1.4468,0,0,0-.5151-1.1768,2.1226,2.1226,0,0,0-1.3975-.4272,4.3021,4.3021,0,0,0-1.2676.1821,5.6967,5.6967,0,0,0-1.3594.6723l-.5883-.7846a4.9008,4.9008,0,0,1,1.4536-.7808,5.2754,5.2754,0,0,1,1.7339-.2837,3.5428,3.5428,0,0,1,2.3183.6826A2.3,2.3,0,0,1,146.0364,314.8946Z"/>
  </g>
  <circle class="cls-1" cx="139.0986" cy="342.0248" r="14.1734"/>
  <circle class="cls-2" cx="139.0986" cy="342.0248" r="14.1734"/>
  <polyline class="cls-2" points="95.504 273.899 95.504 288.072 65.397 288.072 65.397 307.504"/>
  <polyline class="cls-2" points="102.248 273.035 102.248 287.208 102.248 287.208 102.248 307.43"/>
  <polyline class="cls-2" points="108.992 273.899 108.992 288.072 139.099 288.072 139.099 307.36"/>
  <rect class="cls-1" x="137.6523" y="368.4053" width="25.57" height="20.2042"/>
  <rect class="cls-2" x="137.6523" y="368.4053" width="25.57" height="20.2042"/>
  <g>
    <path d="M145.2356,383.6231h-1.19V373.3819h5.709V374.44h-4.5186v3.7475h4.2451v1.0581h-4.2451Z"/>
    <path d="M155.05,383.6231h-1.1352v-7.2993q0-.9105.0561-1.7232-.1471.1473-.3291.3081t-1.6669,1.3662l-.6167-.7988,2.7109-2.0942h.9809Z"/>
  </g>
  <circle class="cls-1" cx="150.4374" cy="402.7829" r="14.1734"/>
  <circle class="cls-2" cx="150.4374" cy="402.7829" r="14.1734"/>
  <rect class="cls-1" x="171.6685" y="368.3318" width="25.57" height="20.3513"/>
  <rect class="cls-2" x="171.6685" y="368.3318" width="25.57" height="20.3513"/>
  <g>
    <path d="M179.2517,383.6968h-1.19V373.4556h5.709v1.0576h-4.5186v3.7476h4.2451v1.0581h-4.2451Z"/>
    <path d="M191.49,383.6968h-6.7314v-1.0019l2.6967-2.7105a19.92,19.92,0,0,0,1.625-1.7793,4.532,4.532,0,0,0,.5884-1.0371,2.9633,2.9633,0,0,0,.1963-1.0854,1.7233,1.7233,0,0,0-.4976-1.3,1.9048,1.9048,0,0,0-1.38-.4794,3.4721,3.4721,0,0,0-1.2085.21,4.8118,4.8118,0,0,0-1.271.7637l-.6167-.7915a4.72,4.72,0,0,1,3.0825-1.1768,3.2552,3.2552,0,0,1,2.2622.7388,2.5421,2.5421,0,0,1,.82,1.9858,3.833,3.833,0,0,1-.5464,1.9263,12.2455,12.2455,0,0,1-2.0454,2.41l-2.2417,2.1923v.0562H191.49Z"/>
  </g>
  <circle class="cls-1" cx="184.4536" cy="402.8564" r="14.1734"/>
  <circle class="cls-2" cx="184.4536" cy="402.8564" r="14.1734"/>
  <polyline class="cls-2" points="162.532 276.648 162.532 361.688 150.437 361.688 150.437 368.405"/>
  <polyline class="cls-2" points="172.359 276.648 172.359 361.688 184.454 361.688 184.454 368.332"/>
  <rect class="cls-1" x="181.4871" y="307.5036" width="28.6103" height="20.4914"/>
  <rect class="cls-2" x="181.4871" y="307.5036" width="28.6103" height="20.4914"/>
  <g>
    <path d="M192.3835,317.5044h3.4815v4.9805a11.15,11.15,0,0,1-1.6528.3921,12.5708,12.5708,0,0,1-1.9478.1333,4.7206,4.7206,0,0,1-3.6216-1.3833,5.4544,5.4544,0,0,1-1.2959-3.8775,5.8579,5.8579,0,0,1,.6411-2.7983,4.3337,4.3337,0,0,1,1.8457-1.8354,5.9766,5.9766,0,0,1,2.8233-.6338,7.7187,7.7187,0,0,1,3.0542.602l-.4624,1.0508a6.8276,6.8276,0,0,0-2.669-.5884,3.8218,3.8218,0,0,0-2.9209,1.1138,4.3229,4.3229,0,0,0-1.0507,3.0893,4.4147,4.4147,0,0,0,1.0122,3.1451,3.8967,3.8967,0,0,0,2.9736,1.0717,8.824,8.824,0,0,0,2.08-.2451v-3.1523h-2.2906Z"/>
    <path d="M201.9246,322.87h-1.1353v-7.2993q0-.91.0562-1.7231-.1473.1472-.3291.3081t-1.667,1.3662l-.6167-.7988,2.7109-2.0943h.981Z"/>
  </g>
  <circle class="cls-1" cx="195.7923" cy="342.1684" r="14.1734"/>
  <circle class="cls-2" cx="195.7923" cy="342.1684" r="14.1734"/>
  <rect class="cls-1" x="218.338" y="307.5036" width="28.6103" height="20.4914"/>
  <rect class="cls-2" x="218.338" y="307.5036" width="28.6103" height="20.4914"/>
  <g>
    <path d="M229.2341,317.5044h3.4815v4.9805a11.1479,11.1479,0,0,1-1.6529.3921,12.5685,12.5685,0,0,1-1.9477.1333,4.7206,4.7206,0,0,1-3.6216-1.3833,5.4539,5.4539,0,0,1-1.2959-3.8775,5.8579,5.8579,0,0,1,.6411-2.7983,4.3337,4.3337,0,0,1,1.8457-1.8354,5.9764,5.9764,0,0,1,2.8233-.6338,7.7191,7.7191,0,0,1,3.0542.602l-.4624,1.0508a6.8276,6.8276,0,0,0-2.669-.5884A3.8218,3.8218,0,0,0,226.51,314.66a4.3225,4.3225,0,0,0-1.0508,3.0893,4.4152,4.4152,0,0,0,1.0122,3.1451,3.8971,3.8971,0,0,0,2.9737,1.0717,8.824,8.824,0,0,0,2.08-.2451v-3.1523h-2.2906Z"/>
    <path d="M241.1985,322.87H234.467v-1.0019l2.6968-2.7105a19.92,19.92,0,0,0,1.625-1.7793,4.5353,4.5353,0,0,0,.5884-1.0371,2.963,2.963,0,0,0,.1963-1.0854,1.7229,1.7229,0,0,0-.4976-1.3,1.9049,1.9049,0,0,0-1.38-.4795,3.47,3.47,0,0,0-1.2085.21,4.8123,4.8123,0,0,0-1.2709.7636l-.6167-.7915a4.7209,4.7209,0,0,1,3.0825-1.1767,3.2556,3.2556,0,0,1,2.2622.7387,2.5421,2.5421,0,0,1,.82,1.9859,3.8324,3.8324,0,0,1-.5464,1.9262,12.2455,12.2455,0,0,1-2.0454,2.41l-2.2417,2.1924v.0561h5.2676Z"/>
  </g>
  <circle class="cls-1" cx="232.6431" cy="342.1684" r="14.1734"/>
  <circle class="cls-2" cx="232.6431" cy="342.1684" r="14.1734"/>
  <rect class="cls-1" x="255.1888" y="307.5036" width="28.6103" height="20.4914"/>
  <rect class="cls-2" x="255.1888" y="307.5036" width="28.6103" height="20.4914"/>
  <g>
    <path d="M266.0842,317.5044h3.4815v4.9805a11.1479,11.1479,0,0,1-1.6529.3921,12.5685,12.5685,0,0,1-1.9477.1333,4.7206,4.7206,0,0,1-3.6216-1.3833,5.4539,5.4539,0,0,1-1.2959-3.8775,5.8579,5.8579,0,0,1,.6411-2.7983,4.3337,4.3337,0,0,1,1.8457-1.8354,5.9764,5.9764,0,0,1,2.8233-.6338,7.7191,7.7191,0,0,1,3.0542.602l-.4624,1.0508a6.8276,6.8276,0,0,0-2.669-.5884A3.8217,3.8217,0,0,0,263.36,314.66a4.3225,4.3225,0,0,0-1.0508,3.0893,4.4152,4.4152,0,0,0,1.0122,3.1451,3.8971,3.8971,0,0,0,2.9737,1.0717,8.824,8.824,0,0,0,2.08-.2451v-3.1523h-2.2906Z"/>
    <path d="M277.6633,315.0386a2.3343,2.3343,0,0,1-.55,1.604,2.7484,2.7484,0,0,1-1.5586.8335v.0562a2.9321,2.9321,0,0,1,1.8282.7846,2.31,2.31,0,0,1,.5957,1.6533,2.6826,2.6826,0,0,1-1.0157,2.252,4.6192,4.6192,0,0,1-2.8862.7881,8.3768,8.3768,0,0,1-1.4888-.1226,5.0812,5.0812,0,0,1-1.313-.4306V321.35a6.7,6.7,0,0,0,2.8438.6724q2.655,0,2.6548-2.0806,0-1.8633-2.9278-1.8633h-1.0087v-1.0014H273.86a3.08,3.08,0,0,0,1.8985-.5288,1.7362,1.7362,0,0,0,.7006-1.4678,1.4467,1.4467,0,0,0-.5151-1.1768,2.1231,2.1231,0,0,0-1.3975-.4272,4.3014,4.3014,0,0,0-1.2675.1821,5.6937,5.6937,0,0,0-1.3594.6724l-.5884-.7847a4.9018,4.9018,0,0,1,1.4536-.7807,5.2737,5.2737,0,0,1,1.7339-.2837,3.5425,3.5425,0,0,1,2.3184.6826A2.3,2.3,0,0,1,277.6633,315.0386Z"/>
  </g>
  <circle class="cls-1" cx="269.494" cy="342.1684" r="14.1734"/>
  <circle class="cls-2" cx="269.494" cy="342.1684" r="14.1734"/>
  <polyline class="cls-2" points="225.899 274.043 225.899 288.216 195.792 288.216 195.792 307.504"/>
  <polyline class="cls-2" points="232.643 273.178 232.643 287.352 232.643 307.504"/>
  <polyline class="cls-2" points="239.387 274.043 239.387 288.216 269.494 288.216 269.494 307.504"/>
  <rect class="cls-1" x="249.4495" y="369.8666" width="28.7504" height="20.2042"/>
  <rect class="cls-2" x="249.4495" y="369.8666" width="28.7504" height="20.2042"/>
  <g>
    <path d="M263.6169,385.085H262.426v-4.8193h-5.394v4.8193h-1.19V374.8438h1.19v4.3569h5.394v-4.3569h1.1909Z"/>
    <path d="M270.0266,385.085h-1.1352v-7.2993q0-.9105.0561-1.7232-.1472.1473-.3291.3081t-1.667,1.3662l-.6167-.7988,2.711-2.0942h.9809Z"/>
  </g>
  <circle class="cls-1" cx="263.8246" cy="404.2442" r="14.1734"/>
  <circle class="cls-2" cx="263.8246" cy="404.2442" r="14.1734"/>
  <rect class="cls-1" x="286.3003" y="369.7931" width="28.7504" height="20.3513"/>
  <rect class="cls-2" x="286.3003" y="369.7931" width="28.7504" height="20.3513"/>
  <g>
    <path d="M300.467,385.1582h-1.1909v-4.8193h-5.394v4.8193h-1.19V374.917h1.19v4.357h5.394v-4.357h1.1909Z"/>
    <path d="M309.3,385.1582h-6.7314v-1.0019l2.6968-2.71a19.92,19.92,0,0,0,1.625-1.7793,4.5353,4.5353,0,0,0,.5884-1.0371,2.965,2.965,0,0,0,.1962-1.0854,1.7232,1.7232,0,0,0-.4975-1.3,1.9046,1.9046,0,0,0-1.38-.4795,3.4725,3.4725,0,0,0-1.2085.21,4.8145,4.8145,0,0,0-1.271.7637l-.6167-.7915a4.7205,4.7205,0,0,1,3.0825-1.1767,3.2548,3.2548,0,0,1,2.2622.7387,2.5422,2.5422,0,0,1,.82,1.9859,3.8334,3.8334,0,0,1-.5464,1.9262,12.249,12.249,0,0,1-2.0454,2.41l-2.2417,2.1924v.0561H309.3Z"/>
  </g>
  <circle class="cls-1" cx="300.6755" cy="404.3178" r="14.1734"/>
  <circle class="cls-2" cx="300.6755" cy="404.3178" r="14.1734"/>
  <rect class="cls-1" x="323.1512" y="369.7231" width="28.7504" height="20.4914"/>
  <rect class="cls-2" x="323.1512" y="369.7231" width="28.7504" height="20.4914"/>
  <g>
    <path d="M337.3176,385.0879h-1.1909v-4.8193h-5.394v4.8193h-1.1905V374.8467h1.1905v4.3569h5.394v-4.3569h1.1909Z"/>
    <path d="M345.7654,377.2564a2.3343,2.3343,0,0,1-.55,1.604,2.7493,2.7493,0,0,1-1.5586.8335v.0561a2.9324,2.9324,0,0,1,1.8281.7847,2.3092,2.3092,0,0,1,.5957,1.6533,2.6828,2.6828,0,0,1-1.0156,2.252,4.62,4.62,0,0,1-2.8862.7881,8.3861,8.3861,0,0,1-1.4888-.1226,5.0752,5.0752,0,0,1-1.313-.4307v-1.1069a6.7,6.7,0,0,0,2.8437.6724q2.6551,0,2.6548-2.0806,0-1.8633-2.9277-1.8633h-1.0088V379.295h1.0225a3.0786,3.0786,0,0,0,1.8984-.5289,1.7361,1.7361,0,0,0,.7007-1.4677,1.447,1.447,0,0,0-.5151-1.1768,2.1226,2.1226,0,0,0-1.3975-.4272,4.3025,4.3025,0,0,0-1.2676.1821,5.6937,5.6937,0,0,0-1.3594.6724l-.5883-.7847a4.9008,4.9008,0,0,1,1.4536-.7808A5.2754,5.2754,0,0,1,342.62,374.7a3.5422,3.5422,0,0,1,2.3183.6827A2.3,2.3,0,0,1,345.7654,377.2564Z"/>
  </g>
  <circle class="cls-1" cx="337.5264" cy="404.3878" r="14.1734" transform="translate(-165.245 561.4691) rotate(-67.5)"/>
  <circle class="cls-2" cx="337.5264" cy="404.3878" r="14.1734" transform="translate(-165.245 561.4691) rotate(-67.5)"/>
  <polyline class="cls-2" points="293.931 273.899 293.931 358.94 263.825 358.94 263.825 369.867"/>
  <polyline class="cls-2" points="300.676 273.035 300.676 358.075 300.676 369.793"/>
  <polyline class="cls-2" points="307.42 273.899 307.42 358.94 337.526 358.94 337.526 369.723"/>
  <rect class="cls-1" x="317.9395" y="307.5036" width="22.1656" height="20.2042"/>
  <rect class="cls-2" x="317.9395" y="307.5036" width="22.1656" height="20.2042"/>
  <g>
    <path d="M324.33,322.7232V312.482h1.19v10.2412Z"/>
    <path d="M331.9309,322.7232h-1.1352v-7.2993q0-.9105.0561-1.7232-.1472.1473-.3291.3081t-1.667,1.3662l-.6167-.7988,2.711-2.0942h.9809Z"/>
  </g>
  <circle class="cls-1" cx="329.0223" cy="341.8812" r="14.1734"/>
  <circle class="cls-2" cx="329.0223" cy="341.8812" r="14.1734"/>
  <rect class="cls-1" x="354.7904" y="307.4301" width="22.1656" height="20.3513"/>
  <rect class="cls-2" x="354.7904" y="307.4301" width="22.1656" height="20.3513"/>
  <g>
    <path d="M361.18,322.7959V312.5547h1.19v10.2412Z"/>
    <path d="M371.2043,322.7959h-6.7314V321.794l2.6968-2.71a19.92,19.92,0,0,0,1.625-1.7793,4.54,4.54,0,0,0,.5884-1.0371,2.965,2.965,0,0,0,.1962-1.0854,1.7232,1.7232,0,0,0-.4975-1.3,1.9046,1.9046,0,0,0-1.38-.4795,3.4725,3.4725,0,0,0-1.2085.21,4.8145,4.8145,0,0,0-1.271.7637l-.6167-.7915a4.7206,4.7206,0,0,1,3.0825-1.1768,3.255,3.255,0,0,1,2.2622.7388,2.5422,2.5422,0,0,1,.82,1.9859,3.8334,3.8334,0,0,1-.5464,1.9262,12.249,12.249,0,0,1-2.0454,2.41l-2.2417,2.1924v.0561h5.2675Z"/>
  </g>
  <circle class="cls-1" cx="365.8732" cy="341.9547" r="14.1734"/>
  <circle class="cls-2" cx="365.8732" cy="341.9547" r="14.1734"/>
  <rect class="cls-1" x="391.6412" y="307.36" width="22.1656" height="20.4914"/>
  <rect class="cls-2" x="391.6412" y="307.36" width="22.1656" height="20.4914"/>
  <g>
    <path d="M398.0315,322.7261V312.4849h1.19v10.2412Z"/>
    <path d="M407.67,314.8946a2.3345,2.3345,0,0,1-.55,1.604,2.7493,2.7493,0,0,1-1.5586.8335v.0561a2.9321,2.9321,0,0,1,1.8281.7847,2.3092,2.3092,0,0,1,.5957,1.6533,2.6828,2.6828,0,0,1-1.0156,2.252,4.62,4.62,0,0,1-2.8863.788,8.3854,8.3854,0,0,1-1.4887-.1225,5.079,5.079,0,0,1-1.313-.4307v-1.1069a6.6973,6.6973,0,0,0,2.8437.6723q2.6551,0,2.6548-2.08,0-1.8633-2.9277-1.8633H402.844v-1.0015h1.0225a3.0786,3.0786,0,0,0,1.8984-.5288,1.7361,1.7361,0,0,0,.7007-1.4677,1.4466,1.4466,0,0,0-.5152-1.1768,2.1221,2.1221,0,0,0-1.3974-.4272,4.3021,4.3021,0,0,0-1.2676.1821,5.6967,5.6967,0,0,0-1.3594.6723l-.5884-.7846a4.9026,4.9026,0,0,1,1.4537-.7808,5.2753,5.2753,0,0,1,1.7338-.2837,3.5429,3.5429,0,0,1,2.3184.6826A2.3,2.3,0,0,1,407.67,314.8946Z"/>
  </g>
  <circle class="cls-1" cx="402.724" cy="342.0248" r="14.1734"/>
  <circle class="cls-2" cx="402.724" cy="342.0248" r="14.1734"/>
  <polyline class="cls-2" points="359.129 273.899 359.129 288.072 329.022 288.072 329.022 307.504"/>
  <polyline class="cls-2" points="365.873 273.035 365.873 287.208 365.873 287.208 365.873 307.43"/>
  <polyline class="cls-2" points="372.617 273.899 372.617 288.072 402.724 288.072 402.724 307.36"/>
  <rect class="cls-1" x="384.4881" y="481.0426" width="13.7945" height="22.9011"/>
  <rect class="cls-2" x="384.4881" y="481.0426" width="13.7945" height="22.9011"/>
  <path d="M389.386,498.9556a2.3488,2.3488,0,0,1-1.0366-.189V497.751a3.8064,3.8064,0,0,0,1.0366.14,1.3127,1.3127,0,0,0,1.0542-.42,1.811,1.811,0,0,0,.3608-1.2119V486.0176h1.1909v10.1431a2.9364,2.9364,0,0,1-.6728,2.063A2.4942,2.4942,0,0,1,389.386,498.9556Z"/>
  <path class="cls-1" d="M376.6452,518.6839a14.74,14.74,0,0,1,29.48,0v22.11h-29.48Z"/>
  <path class="cls-2" d="M376.6452,518.6839a14.74,14.74,0,0,1,29.48,0v22.11h-29.48Z"/>
  <rect class="cls-1" x="418.8521" y="482.3911" width="18.7681" height="20.2042"/>
  <rect class="cls-2" x="418.8521" y="482.3911" width="18.7681" height="20.2042"/>
  <path d="M432.6384,497.6079h-1.4009l-3.7338-4.9663-1.0718.9527v4.0136h-1.19V487.3667h1.19v5.0786l4.6445-5.0786h1.4082l-4.1191,4.4483Z"/>
  <circle class="cls-1" cx="428.2362" cy="516.7687" r="14.1734" transform="translate(-239.9832 454.1668) rotate(-45)"/>
  <circle class="cls-2" cx="428.2362" cy="516.7687" r="14.1734" transform="translate(-239.9832 454.1668) rotate(-45)"/>
  <rect class="cls-1" x="456.3824" y="482.3911" width="17.4092" height="20.2042"/>
  <rect class="cls-2" x="456.3824" y="482.3911" width="17.4092" height="20.2042"/>
  <path d="M462.7712,497.6079V487.3667h1.19v9.1626H468.48v1.0786Z"/>
  <circle class="cls-1" cx="465.087" cy="516.7687" r="14.1734" transform="translate(-190.326 748.6944) rotate(-67.5)"/>
  <circle class="cls-2" cx="465.087" cy="516.7687" r="14.1734" transform="translate(-190.326 748.6944) rotate(-67.5)"/>
  <polyline class="cls-2" points="421.492 448.787 421.492 462.96 391.385 462.96 391.385 481.043"/>
  <polyline class="cls-2" points="428.236 447.922 428.236 462.095 428.236 482.391"/>
  <polyline class="cls-2" points="434.98 448.787 434.98 462.96 465.087 462.96 465.087 482.391"/>
  <rect class="cls-1" x="363.3785" y="568.8402" width="21.9975" height="22.9011"/>
  <rect class="cls-2" x="363.3785" y="568.8402" width="21.9975" height="22.9011"/>
  <g>
    <path d="M368.2771,586.7534a2.3483,2.3483,0,0,1-1.0366-.1894v-1.0156a3.83,3.83,0,0,0,1.0366.14,1.3125,1.3125,0,0,0,1.0542-.42,1.8123,1.8123,0,0,0,.3608-1.2119V573.815h1.191v10.143a2.9373,2.9373,0,0,1-.6729,2.063A2.4927,2.4927,0,0,1,368.2771,586.7534Z"/>
    <path d="M377.2014,584.0562h-1.1352v-7.2993q0-.91.0561-1.7232-.1472.1473-.3291.3081t-1.667,1.3662l-.6167-.7988,2.711-2.0942h.9809Z"/>
  </g>
  <circle class="cls-1" cx="374.3773" cy="605.9148" r="14.1734"/>
  <circle class="cls-2" cx="374.3773" cy="605.9148" r="14.1734"/>
  <rect class="cls-1" x="397.3947" y="568.7667" width="21.9975" height="23.0482"/>
  <rect class="cls-2" x="397.3947" y="568.7667" width="21.9975" height="23.0482"/>
  <g>
    <path d="M402.2922,586.8257a2.3361,2.3361,0,0,1-1.0366-.1894v-1.0157a3.7884,3.7884,0,0,0,1.0366.1407,1.3157,1.3157,0,0,0,1.0542-.42,1.8137,1.8137,0,0,0,.3609-1.2124V573.8877h1.1909v10.1431a2.9363,2.9363,0,0,1-.6729,2.0625A2.4926,2.4926,0,0,1,402.2922,586.8257Z"/>
    <path d="M413.64,584.1289h-6.7315V583.127l2.6968-2.71a19.92,19.92,0,0,0,1.625-1.7793,4.5353,4.5353,0,0,0,.5884-1.0371,2.963,2.963,0,0,0,.1963-1.0854,1.7229,1.7229,0,0,0-.4976-1.3,1.9048,1.9048,0,0,0-1.38-.4795,3.4717,3.4717,0,0,0-1.2085.21,4.8145,4.8145,0,0,0-1.271.7637l-.6167-.7915a4.72,4.72,0,0,1,3.0825-1.1767,3.2551,3.2551,0,0,1,2.2622.7387,2.5421,2.5421,0,0,1,.82,1.9859,3.8324,3.8324,0,0,1-.5464,1.9262,12.2455,12.2455,0,0,1-2.0454,2.41l-2.2417,2.1924v.0561H413.64Z"/>
  </g>
  <circle class="cls-1" cx="408.3934" cy="605.9883" r="14.1734"/>
  <circle class="cls-2" cx="408.3934" cy="605.9883" r="14.1734"/>
  <polyline class="cls-2" points="386.472 540.794 386.472 554.967 374.377 554.967 374.377 568.84"/>
  <polyline class="cls-2" points="396.299 540.794 396.299 554.967 408.393 554.967 408.393 568.767"/>
  <rect class="cls-1" x="484.811" y="219.5932" width="22.9152" height="20.2042"/>
  <rect class="cls-2" x="484.811" y="219.5932" width="22.9152" height="20.2042"/>
  <path d="M495.7317,234.813l-3.4746-9.0786h-.0562q.0982,1.0788.0982,2.564v6.5146h-1.1V224.5718h1.7929l3.2437,8.4478h.0556l3.2715-8.4478h1.7793V234.813h-1.1909v-6.5986q0-1.1352.0982-2.4658h-.0562l-3.5024,9.0644Z"/>
  <path class="cls-1" d="M482.78,263.16a26.98,26.98,0,0,1,13.4884-23.3627A26.98,26.98,0,0,1,509.757,263.16v13.4884a26.9768,26.9768,0,0,0-26.9768,0Z"/>
  <path class="cls-2" d="M482.78,263.16a26.98,26.98,0,0,1,13.4884-23.3627A26.98,26.98,0,0,1,509.757,263.16v13.4884a26.9768,26.9768,0,0,0-26.9768,0Z"/>
  <rect class="cls-1" x="604.9359" y="219.5932" width="20.7786" height="20.2042"/>
  <rect class="cls-2" x="604.9359" y="219.5932" width="20.7786" height="20.2042"/>
  <path d="M619.323,234.813h-1.3589l-5.5972-8.5952h-.0561q.112,1.5132.1123,2.7739v5.8213h-1.1V224.5718h1.3447l5.583,8.56h.0562q-.0147-.189-.063-1.2154t-.0352-1.4677v-5.877h1.1138Z"/>
  <path class="cls-1" d="M600.5851,254.5375a14.74,14.74,0,0,1,29.48,0v22.11h-29.48Z"/>
  <path class="cls-2" d="M600.5851,254.5375a14.74,14.74,0,0,1,29.48,0v22.11h-29.48Z"/>
  <rect class="cls-1" x="525.3862" y="219.4425" width="21.1359" height="20.5055"/>
  <rect class="cls-2" x="525.3862" y="219.4425" width="21.1359" height="20.5055"/>
  <path d="M540.6638,229.689a5.6368,5.6368,0,0,1-1.2436,3.8667,4.3693,4.3693,0,0,1-3.4566,1.4082,4.4266,4.4266,0,0,1-3.4922-1.3833,5.6856,5.6856,0,0,1-1.23-3.9053,5.6131,5.6131,0,0,1,1.233-3.8774,4.4585,4.4585,0,0,1,3.5024-1.3765,4.363,4.363,0,0,1,3.4468,1.4009A5.635,5.635,0,0,1,540.6638,229.689Zm-8.1606,0a4.86,4.86,0,0,0,.8857,3.1558,3.145,3.145,0,0,0,2.5747,1.0752,3.113,3.113,0,0,0,2.5708-1.0718,6.1449,6.1449,0,0,0,.0034-6.294,3.1,3.1,0,0,0-2.56-1.0678,3.1609,3.1609,0,0,0-2.5884,1.0752A4.81,4.81,0,0,0,532.5032,229.689Z"/>
  <circle class="cls-1" cx="535.9541" cy="254.1214" r="14.1734"/>
  <circle class="cls-2" cx="535.9541" cy="254.1214" r="14.1734"/>
  <rect class="cls-1" x="566.3396" y="219.5932" width="18.6" height="20.2042"/>
  <rect class="cls-2" x="566.3396" y="219.5932" width="18.6" height="20.2042"/>
  <path d="M579.2209,227.5557a2.8688,2.8688,0,0,1-1.0615,2.3926,4.8071,4.8071,0,0,1-3.0366.8369h-1.2051v4.0278h-1.19V224.5718h2.6548Q579.2207,224.5718,579.2209,227.5557Zm-5.3032,2.2065H574.99a3.9857,3.9857,0,0,0,2.291-.5112,1.8843,1.8843,0,0,0,.7075-1.6392,1.768,1.768,0,0,0-.6655-1.5131,3.4771,3.4771,0,0,0-2.0737-.4971h-1.3311Z"/>
  <circle class="cls-1" cx="575.6396" cy="253.9708" r="14.1734" transform="translate(-53.3724 239.6198) rotate(-22.5)"/>
  <circle class="cls-2" cx="575.6396" cy="253.9708" r="14.1734" transform="translate(-53.3724 239.6198) rotate(-22.5)"/>
  <polyline class="cls-2" points="545.214 190.49 545.214 201.829 496.269 201.829 496.269 219.593"/>
  <polyline class="cls-2" points="566.38 190.49 566.38 201.829 615.325 201.829 615.325 219.593"/>
  <polyline class="cls-2" points="552.269 189.034 552.269 206.042 535.954 206.042 535.954 219.443"/>
  <polyline class="cls-2" points="559.325 189.034 559.325 206.042 575.64 206.042 575.64 219.593"/>
  <rect class="cls-1" x="443.8586" y="307.5036" width="31.1181" height="20.2042"/>
  <rect class="cls-2" x="443.8586" y="307.5036" width="31.1181" height="20.2042"/>
  <g>
    <path d="M454.7805,322.7232l-3.4746-9.0786H451.25q.0981,1.0788.0981,2.5639v6.5147h-1.1V312.482h1.793l3.2436,8.4477h.0557l3.2715-8.4477h1.7793v10.2412H459.2v-6.5987q0-1.1352.0982-2.4658h-.0562l-3.5024,9.0645Z"/>
    <path d="M466.801,322.7232h-1.1352v-7.2993q0-.9105.0561-1.7232-.1472.1473-.3291.3081t-1.667,1.3662l-.6167-.7988,2.711-2.0942h.9809Z"/>
  </g>
  <circle class="cls-1" cx="459.4177" cy="341.8812" r="14.1734"/>
  <circle class="cls-2" cx="459.4177" cy="341.8812" r="14.1734"/>
  <rect class="cls-1" x="480.7095" y="307.4301" width="31.118" height="20.3513"/>
  <rect class="cls-2" x="480.7095" y="307.4301" width="31.118" height="20.3513"/>
  <g>
    <path d="M491.6306,322.7959l-3.4746-9.0786H488.1q.0981,1.0789.0981,2.564v6.5146h-1.1V312.5547h1.793l3.2436,8.4478h.0557l3.2715-8.4478h1.7793v10.2412h-1.191v-6.5986q0-1.1352.0982-2.4658h-.0562l-3.5024,9.0644Z"/>
    <path d="M506.0745,322.7959H499.343V321.794l2.6968-2.71a19.92,19.92,0,0,0,1.625-1.7793,4.54,4.54,0,0,0,.5884-1.0371,2.965,2.965,0,0,0,.1963-1.0854,1.7233,1.7233,0,0,0-.4976-1.3,1.9045,1.9045,0,0,0-1.38-.4795,3.4725,3.4725,0,0,0-1.2085.21,4.816,4.816,0,0,0-1.271.7637l-.6167-.7915a4.7207,4.7207,0,0,1,3.0826-1.1768,3.2552,3.2552,0,0,1,2.2622.7388,2.5425,2.5425,0,0,1,.82,1.9859,3.8324,3.8324,0,0,1-.5464,1.9262,12.249,12.249,0,0,1-2.0454,2.41l-2.2417,2.1924v.0561h5.2676Z"/>
  </g>
  <circle class="cls-1" cx="496.2686" cy="341.9547" r="14.1734"/>
  <circle class="cls-2" cx="496.2686" cy="341.9547" r="14.1734"/>
  <rect class="cls-1" x="517.5604" y="307.36" width="31.1181" height="20.4914"/>
  <rect class="cls-2" x="517.5604" y="307.36" width="31.1181" height="20.4914"/>
  <g>
    <path d="M528.4807,322.7261l-3.4746-9.0786H524.95q.0981,1.0788.0981,2.564v6.5146h-1.1V312.4849h1.793l3.2436,8.4477h.0557l3.2715-8.4477h1.7793v10.2412h-1.191v-6.5986q0-1.1353.0982-2.4658h-.0562l-3.5024,9.0644Z"/>
    <path d="M542.5393,314.8946a2.3345,2.3345,0,0,1-.55,1.604,2.749,2.749,0,0,1-1.5586.8335v.0561a2.9316,2.9316,0,0,1,1.8281.7847,2.3092,2.3092,0,0,1,.5957,1.6533,2.6825,2.6825,0,0,1-1.0156,2.252,4.62,4.62,0,0,1-2.8862.788,8.3866,8.3866,0,0,1-1.4888-.1225,5.079,5.079,0,0,1-1.313-.4307v-1.1069a6.6981,6.6981,0,0,0,2.8438.6723q2.655,0,2.6548-2.08,0-1.8633-2.9278-1.8633h-1.0088v-1.0015h1.0225a3.0786,3.0786,0,0,0,1.8984-.5288,1.7361,1.7361,0,0,0,.7007-1.4677,1.4468,1.4468,0,0,0-.5151-1.1768,2.1226,2.1226,0,0,0-1.3975-.4272,4.3025,4.3025,0,0,0-1.2676.1821,5.6962,5.6962,0,0,0-1.3593.6723l-.5884-.7846a4.9021,4.9021,0,0,1,1.4536-.7808,5.2759,5.2759,0,0,1,1.7339-.2837,3.5426,3.5426,0,0,1,2.3183.6826A2.3,2.3,0,0,1,542.5393,314.8946Z"/>
  </g>
  <circle class="cls-1" cx="533.1194" cy="342.0248" r="14.1734"/>
  <circle class="cls-2" cx="533.1194" cy="342.0248" r="14.1734"/>
  <polyline class="cls-2" points="489.524 273.899 489.524 288.072 459.418 288.072 459.418 307.504"/>
  <polyline class="cls-2" points="496.269 273.035 496.269 287.208 496.269 307.43"/>
  <polyline class="cls-2" points="503.013 273.899 503.013 288.072 533.119 288.072 533.119 307.36"/>
  <rect class="cls-1" x="563.9836" y="306.0423" width="28.9815" height="20.2042"/>
  <rect class="cls-2" x="563.9836" y="306.0423" width="28.9815" height="20.2042"/>
  <g>
    <path d="M578.3709,321.2613H577.012l-5.5972-8.5953h-.0562q.1122,1.5132.1123,2.774v5.8213h-1.1V311.02h1.3448l5.583,8.56h.0561q-.0145-.189-.063-1.2153t-.0351-1.4678V311.02h1.1138Z"/>
    <path d="M584.7878,321.2613h-1.1352v-7.2994q0-.91.0561-1.7231-.1472.1471-.3291.3081t-1.667,1.3662l-.6167-.7988,2.711-2.0942h.9809Z"/>
  </g>
  <circle class="cls-1" cx="578.4743" cy="340.4198" r="14.1734"/>
  <circle class="cls-2" cx="578.4743" cy="340.4198" r="14.1734"/>
  <rect class="cls-1" x="600.8344" y="305.9688" width="28.9816" height="20.3513"/>
  <rect class="cls-2" x="600.8344" y="305.9688" width="28.9816" height="20.3513"/>
  <g>
    <path d="M615.2209,321.335h-1.3588l-5.5972-8.5952h-.0562q.1121,1.5132.1123,2.7739v5.8213h-1.1V311.0938h1.3448l5.583,8.56h.0561q-.0145-.1889-.063-1.2153t-.0351-1.4678v-5.8769h1.1137Z"/>
    <path d="M624.0613,321.335H617.33v-1.002l2.6968-2.71a19.9345,19.9345,0,0,0,1.625-1.7793,4.54,4.54,0,0,0,.5884-1.0371,2.9639,2.9639,0,0,0,.1963-1.0855,1.7229,1.7229,0,0,0-.4976-1.3,1.9049,1.9049,0,0,0-1.38-.48,3.4726,3.4726,0,0,0-1.2085.21,4.8106,4.8106,0,0,0-1.271.7637l-.6167-.7915a4.7209,4.7209,0,0,1,3.0826-1.1768,3.2552,3.2552,0,0,1,2.2622.7388,2.5421,2.5421,0,0,1,.82,1.9858,3.833,3.833,0,0,1-.5464,1.9263,12.2455,12.2455,0,0,1-2.0454,2.41L618.7937,320.2v.0562h5.2676Z"/>
  </g>
  <circle class="cls-1" cx="615.3252" cy="340.4934" r="14.1734" transform="translate(65.2757 778.6787) rotate(-67.5)"/>
  <circle class="cls-2" cx="615.3252" cy="340.4934" r="14.1734" transform="translate(65.2757 778.6787) rotate(-67.5)"/>
  <rect class="cls-1" x="637.6853" y="305.8987" width="28.9815" height="20.4914"/>
  <rect class="cls-2" x="637.6853" y="305.8987" width="28.9815" height="20.4914"/>
  <g>
    <path d="M652.0715,321.2652h-1.3584l-5.5966-8.5952H645.06q.1128,1.513.1123,2.7739v5.8213h-1.1V311.024h1.3447l5.583,8.56h.0557q-.0132-.189-.0625-1.2153t-.0351-1.4678V311.024h1.1132Z"/>
    <path d="M660.5266,313.4336a2.3367,2.3367,0,0,1-.55,1.604,2.7451,2.7451,0,0,1-1.5586.8335v.0562a2.929,2.929,0,0,1,1.8281.7846,2.3073,2.3073,0,0,1,.5957,1.6534,2.6825,2.6825,0,0,1-1.0156,2.2519,4.6206,4.6206,0,0,1-2.8857.7881,8.3866,8.3866,0,0,1-1.4893-.1226,5.0884,5.0884,0,0,1-1.3135-.4306v-1.107a6.7046,6.7046,0,0,0,2.8448.6724q2.6543,0,2.6543-2.0806,0-1.8632-2.9278-1.8632H655.7v-1.0015h1.0225a3.0793,3.0793,0,0,0,1.8984-.5288,1.7358,1.7358,0,0,0,.7-1.4678,1.4448,1.4448,0,0,0-.5146-1.1767,2.1208,2.1208,0,0,0-1.3975-.4273,4.3058,4.3058,0,0,0-1.2676.1821,5.6769,5.6769,0,0,0-1.3593.6724l-.5879-.7847a4.8929,4.8929,0,0,1,1.4531-.7807,5.2746,5.2746,0,0,1,1.7334-.2837,3.5459,3.5459,0,0,1,2.3193.6826A2.3011,2.3011,0,0,1,660.5266,313.4336Z"/>
  </g>
  <circle class="cls-1" cx="652.176" cy="340.5634" r="14.1734"/>
  <circle class="cls-2" cx="652.176" cy="340.5634" r="14.1734"/>
  <polyline class="cls-2" points="607.955 276.648 607.955 290.821 578.474 290.821 578.474 306.042"/>
  <polyline class="cls-2" points="615.325 276.648 615.325 290.821 615.325 305.969"/>
  <polyline class="cls-2" points="622.695 276.648 622.695 290.821 652.176 290.821 652.176 305.899"/>
  <rect class="cls-1" x="630.2694" y="481.0917" width="21.1359" height="22.803"/>
  <rect class="cls-2" x="630.2694" y="481.0917" width="21.1359" height="22.803"/>
  <path d="M645.5452,491.3345a6.21,6.21,0,0,1-.791,3.2715,3.9473,3.9473,0,0,1-2.2344,1.7651l2.4375,2.5357h-1.7305l-1.9961-2.3116-.3857.0142a4.425,4.425,0,0,1-3.4912-1.3833,5.68,5.68,0,0,1-1.23-3.9053,5.6107,5.6107,0,0,1,1.2324-3.8774,4.459,4.459,0,0,1,3.5029-1.3765,4.3632,4.3632,0,0,1,3.4463,1.4009A5.6344,5.6344,0,0,1,645.5452,491.3345Zm-8.16,0a4.86,4.86,0,0,0,.8858,3.1558,3.62,3.62,0,0,0,5.1455.0034,6.147,6.147,0,0,0,.0029-6.294,3.0987,3.0987,0,0,0-2.56-1.0678,3.1619,3.1619,0,0,0-2.5888,1.0752A4.8091,4.8091,0,0,0,637.385,491.3345Z"/>
  <circle class="cls-1" cx="640.8373" cy="518.0681" r="14.1734" transform="translate(-83.0329 911.8687) rotate(-67.5)"/>
  <circle class="cls-2" cx="640.8373" cy="518.0681" r="14.1734" transform="translate(-83.0329 911.8687) rotate(-67.5)"/>
  <rect class="cls-1" x="668.2726" y="482.3911" width="18.8312" height="20.2042"/>
  <rect class="cls-2" x="668.2726" y="482.3911" width="18.8312" height="20.2042"/>
  <path d="M675.85,493.3492v4.2587h-1.1905V487.3667h2.8086a4.4225,4.4225,0,0,1,2.7852.7217,2.6165,2.6165,0,0,1,.8994,2.1714,2.72,2.72,0,0,1-2.06,2.7461l2.7813,4.602h-1.4082l-2.48-4.2587Zm0-1.023h1.6328a2.8161,2.8161,0,0,0,1.8486-.501,1.8618,1.8618,0,0,0,.5889-1.5024,1.7092,1.7092,0,0,0-.6-1.4639,3.2432,3.2432,0,0,0-1.9229-.4487H675.85Z"/>
  <circle class="cls-1" cx="677.6882" cy="516.7687" r="14.1734" transform="translate(-59.0837 945.1124) rotate(-67.5)"/>
  <circle class="cls-2" cx="677.6882" cy="516.7687" r="14.1734" transform="translate(-59.0837 945.1124) rotate(-67.5)"/>
  <rect class="cls-1" x="705.6209" y="482.2475" width="17.8364" height="20.4914"/>
  <rect class="cls-2" x="705.6209" y="482.2475" width="17.8364" height="20.4914"/>
  <path d="M717.7854,494.8858a2.5121,2.5121,0,0,1-.9814,2.1089,4.2536,4.2536,0,0,1-2.6612.7563,6.669,6.669,0,0,1-2.8027-.4692v-1.149a7.3909,7.3909,0,0,0,1.373.4205,7.2431,7.2431,0,0,0,1.4717.1538,2.966,2.966,0,0,0,1.793-.4517,1.4832,1.4832,0,0,0,.6025-1.2573,1.6134,1.6134,0,0,0-.2138-.8721,1.9853,1.9853,0,0,0-.7149-.6269,9.99,9.99,0,0,0-1.5234-.6514,4.8714,4.8714,0,0,1-2.042-1.2119,2.6786,2.6786,0,0,1-.6123-1.8286,2.2726,2.2726,0,0,1,.89-1.8843,3.6961,3.6961,0,0,1,2.3535-.7,6.9372,6.9372,0,0,1,2.8086.56l-.3711,1.0372a6.3484,6.3484,0,0,0-2.4658-.5328,2.3871,2.3871,0,0,0-1.4775.4063,1.3385,1.3385,0,0,0-.5332,1.1279,1.727,1.727,0,0,0,.1963.8721,1.8443,1.8443,0,0,0,.6621.6235,8.254,8.254,0,0,0,1.4258.627,5.6419,5.6419,0,0,1,2.2168,1.2329A2.4236,2.4236,0,0,1,717.7854,494.8858Z"/>
  <circle class="cls-1" cx="714.5391" cy="516.9123" r="14.1734" transform="translate(-36.4678 979.2467) rotate(-67.5)"/>
  <circle class="cls-2" cx="714.5391" cy="516.9123" r="14.1734" transform="translate(-36.4678 979.2467) rotate(-67.5)"/>
  <polyline class="cls-2" points="670.944 448.787 670.944 462.96 640.837 462.96 640.837 481.092"/>
  <polyline class="cls-2" points="677.688 447.922 677.688 462.095 677.688 462.095 677.688 482.391"/>
  <polyline class="cls-2" points="684.432 448.787 684.432 462.96 714.539 462.96 714.539 482.248"/>
</svg>
