<svg id="Laag_1" data-name="Laag 1" xmlns="http://www.w3.org/2000/svg" width="729.2279" height="409.587" viewBox="0 0 729.2279 409.587">
  <defs>
    <style>
      .cls-1 {
        fill: #b3b3b3;
      }

      .cls-2, .cls-3, .cls-4 {
        fill: none;
        stroke: #000;
        stroke-miterlimit: 10;
      }

      .cls-2, .cls-3 {
        stroke-width: 0.3985px;
      }

      .cls-3 {
        stroke-linecap: round;
      }

      .cls-4 {
        stroke-width: 2.8347px;
      }
    </style>
  </defs>
  <title>ema</title>
  <rect class="cls-1" x="416.0604" y="0.1992" width="58.3678" height="23.7978"/>
  <rect class="cls-2" x="416.0604" y="0.1992" width="58.3678" height="23.7978"/>
  <g>
    <path d="M428.23,12.8441a2.512,2.512,0,0,1-.9815,2.1089,4.2531,4.2531,0,0,1-2.6611.7563,6.6692,6.6692,0,0,1-2.8028-.4692V14.0912a7.4,7.4,0,0,0,1.3731.42,7.2416,7.2416,0,0,0,1.4717.1538,2.9657,2.9657,0,0,0,1.7929-.4517,1.4833,1.4833,0,0,0,.6026-1.2573,1.6125,1.6125,0,0,0-.2139-.8721,1.9859,1.9859,0,0,0-.7148-.6269,9.9976,9.9976,0,0,0-1.5235-.6514,4.8721,4.8721,0,0,1-2.042-1.2119,2.6786,2.6786,0,0,1-.6123-1.8286,2.2724,2.2724,0,0,1,.89-1.8843,3.696,3.696,0,0,1,2.3535-.7,6.9356,6.9356,0,0,1,2.8086.56l-.3711,1.0371a6.3482,6.3482,0,0,0-2.4658-.5327,2.3874,2.3874,0,0,0-1.4776.4062,1.3388,1.3388,0,0,0-.5332,1.1279,1.728,1.728,0,0,0,.1963.8721,1.846,1.846,0,0,0,.6621.6235,8.2612,8.2612,0,0,0,1.4258.627,5.6419,5.6419,0,0,1,2.2168,1.2329A2.4236,2.4236,0,0,1,428.23,12.8441Z"/>
    <path d="M428.93,7.8919h1.247l1.6817,4.378a16.8139,16.8139,0,0,1,.6865,2.1645h.0557q.0907-.3575.3818-1.2221t1.9014-5.32h1.247l-3.2988,8.7422a4.364,4.364,0,0,1-1.1455,1.8384,2.4335,2.4335,0,0,1-1.6074.543,4.6635,4.6635,0,0,1-1.0508-.1192v-.9316a4.0456,4.0456,0,0,0,.8613.0845,1.7759,1.7759,0,0,0,1.709-1.3453l.4277-1.0927Z"/>
    <path d="M442.33,13.4745a1.9237,1.9237,0,0,1-.7988,1.6533,3.7515,3.7515,0,0,1-2.2412.5815,4.8715,4.8715,0,0,1-2.3818-.4834V14.1473a5.7759,5.7759,0,0,0,1.1875.4414,4.9506,4.9506,0,0,0,1.2216.1607,2.7723,2.7723,0,0,0,1.4014-.2906,1.0011,1.0011,0,0,0,.1016-1.6533,6.11,6.11,0,0,0-1.5166-.7529,8.2112,8.2112,0,0,1-1.5235-.6968,2.08,2.08,0,0,1-.6728-.6763,1.7673,1.7673,0,0,1-.2207-.9033,1.724,1.724,0,0,1,.7637-1.4819,3.558,3.558,0,0,1,2.0947-.5425,6.1269,6.1269,0,0,1,2.4238.5044l-.4131.9453a5.5657,5.5657,0,0,0-2.0947-.4761,2.4113,2.4113,0,0,0-1.2471.2593.8008.8008,0,0,0-.42.7144.8675.8675,0,0,0,.1572.5254,1.558,1.558,0,0,0,.5078.413,11.313,11.313,0,0,0,1.3448.5674,5.0206,5.0206,0,0,1,1.8457,1.002A1.7643,1.7643,0,0,1,442.33,13.4745Z"/>
    <path d="M446.7015,14.7494a3.7406,3.7406,0,0,0,.5948-.0455,3.86,3.86,0,0,0,.456-.0942v.89a2.1262,2.1262,0,0,1-.5576.15,4.2023,4.2023,0,0,1-.6611.0595q-2.2281,0-2.2276-2.3467V8.7953h-1.1006v-.56l1.1006-.4834.49-1.6392h.6718V7.8919h2.2276v.9034h-2.2276v4.5185a1.5585,1.5585,0,0,0,.3291,1.0645A1.1477,1.1477,0,0,0,446.7015,14.7494Z"/>
    <path d="M452.53,15.7093a3.5289,3.5289,0,0,1-2.6866-1.0366,4.0141,4.0141,0,0,1-.9843-2.8794,4.4511,4.4511,0,0,1,.914-2.9487,3.0364,3.0364,0,0,1,2.4551-1.0928,2.897,2.897,0,0,1,2.2842.9492,3.6406,3.6406,0,0,1,.84,2.5039v.7359h-5.2881a3.0443,3.0443,0,0,0,.6827,2.0522,2.3607,2.3607,0,0,0,1.8252.7007,6.18,6.18,0,0,0,2.4511-.5186v1.0367a6.1567,6.1567,0,0,1-1.166.3818A6.5569,6.5569,0,0,1,452.53,15.7093Zm-.3155-6.9839a1.898,1.898,0,0,0-1.4746.6026,2.7717,2.7717,0,0,0-.6484,1.667h4.0146a2.5546,2.5546,0,0,0-.4912-1.6846A1.724,1.724,0,0,0,452.2142,8.7254Z"/>
    <path d="M467.1205,15.5692V10.5746a2.078,2.078,0,0,0-.3916-1.3765,1.5192,1.5192,0,0,0-1.22-.459,1.9675,1.9675,0,0,0-1.6036.6235,2.9638,2.9638,0,0,0-.5185,1.9195v4.2871H462.224V10.5746a2.078,2.078,0,0,0-.3916-1.3765,1.5291,1.5291,0,0,0-1.2266-.459,1.9,1.9,0,0,0-1.6006.6553,3.5428,3.5428,0,0,0-.5078,2.147v4.0278h-1.163V7.8919h.9462l.19,1.05h.0557a2.2874,2.2874,0,0,1,.9277-.8755,2.84,2.84,0,0,1,1.3418-.3149,2.2807,2.2807,0,0,1,2.3535,1.3027h.0566a2.4448,2.4448,0,0,1,.9942-.9526,3.09,3.09,0,0,1,1.4853-.35,2.6012,2.6012,0,0,1,1.9512.6689,2.9936,2.9936,0,0,1,.6475,2.14v5.0088Z"/>
  </g>
  <path class="cls-1" d="M432.7935,45.5626A24.9044,24.9044,0,0,1,445.2443,23.997a24.9044,24.9044,0,0,1,12.4508,21.5656V58.0135a24.9015,24.9015,0,0,0-24.9016,0Z"/>
  <path class="cls-2" d="M432.7935,45.5626A24.9044,24.9044,0,0,1,445.2443,23.997a24.9044,24.9044,0,0,1,12.4508,21.5656V58.0135a24.9015,24.9015,0,0,0-24.9016,0Z"/>
  <rect class="cls-1" x="174.5639" y="75.9057" width="31.1181" height="20.2042"/>
  <rect class="cls-2" x="174.5639" y="75.9057" width="31.1181" height="20.2042"/>
  <g>
    <path d="M185.4886,91.1273l-3.4746-9.0786h-.0561q.0981,1.0788.0981,2.5639v6.5147h-1.1V80.8861h1.793l3.2436,8.4477h.0557l3.2715-8.4477H191.1V91.1273h-1.1909V84.5287q0-1.1354.0981-2.4659h-.0561l-3.5025,9.0645Z"/>
    <path d="M197.5092,91.1273h-1.1353V83.828q0-.91.0562-1.7232-.1473.1473-.3291.3081t-1.667,1.3662l-.6167-.7988,2.7109-2.0942h.981Z"/>
  </g>
  <path class="cls-1" d="M177.6721,117.6754A24.9042,24.9042,0,0,1,190.1229,96.11a24.9043,24.9043,0,0,1,12.4509,21.5655v12.4509a24.9023,24.9023,0,0,0-24.9017,0Z"/>
  <path class="cls-2" d="M177.6721,117.6754A24.9042,24.9042,0,0,1,190.1229,96.11a24.9043,24.9043,0,0,1,12.4509,21.5655v12.4509a24.9023,24.9023,0,0,0-24.9017,0Z"/>
  <rect class="cls-1" x="372.9916" y="75.8322" width="31.1181" height="20.3513"/>
  <rect class="cls-2" x="372.9916" y="75.8322" width="31.1181" height="20.3513"/>
  <g>
    <path d="M383.9135,91.201l-3.4747-9.0786h-.0556q.0966,1.0788.0976,2.564V91.201h-1.1V80.96h1.793l3.2432,8.4478h.0566l3.2705-8.4478h1.7793V91.201h-1.19V84.6024q0-1.1352.0976-2.4658h-.0556l-3.502,9.0644Z"/>
    <path d="M398.3578,91.201h-6.7324V90.1991l2.6972-2.71a19.84,19.84,0,0,0,1.625-1.7793,4.5388,4.5388,0,0,0,.5889-1.0371,2.9834,2.9834,0,0,0,.1953-1.0854,1.7207,1.7207,0,0,0-.4971-1.3,1.9028,1.9028,0,0,0-1.38-.48,3.4653,3.4653,0,0,0-1.208.21,4.8084,4.8084,0,0,0-1.2715.7637l-.6162-.7915a4.72,4.72,0,0,1,3.082-1.1768,3.2574,3.2574,0,0,1,2.2627.7388,2.5434,2.5434,0,0,1,.8193,1.9858,3.8334,3.8334,0,0,1-.5469,1.9263,12.2393,12.2393,0,0,1-2.0449,2.41l-2.2422,2.1924v.0561h5.2686Z"/>
  </g>
  <path class="cls-1" d="M374.9444,109.79a13.6063,13.6063,0,1,1,27.2126,0v20.4092H374.9444Z"/>
  <path class="cls-2" d="M374.9444,109.79a13.6063,13.6063,0,1,1,27.2126,0v20.4092H374.9444Z"/>
  <path class="cls-1" d="M523.1981,114.3546V103.0158h-21.26v11.3388Zm-42.52-14.1734h42.52m-42.52,14.1734h42.52V86.0078h-42.52Z"/>
  <path class="cls-3" d="M523.1981,114.3546V103.0158h-21.26v11.3388Zm-42.52-14.1734h42.52m-42.52,14.1734h42.52V86.0078h-42.52Z"/>
  <g>
    <path d="M497.3,99.7162l-3.4746-9.0787H493.77q.0968,1.079.0977,2.564v6.5147h-1.1V89.4749h1.793l3.2432,8.4478h.0566l3.27-8.4478h1.7793V99.7162h-1.19V93.1175q0-1.1352.0976-2.4658h-.0556l-3.502,9.0645Z"/>
    <path d="M511.3588,91.8846a2.3367,2.3367,0,0,1-.55,1.604,2.7458,2.7458,0,0,1-1.5586.8335v.0562a2.93,2.93,0,0,1,1.8281.7846,2.3071,2.3071,0,0,1,.5957,1.6534,2.6827,2.6827,0,0,1-1.0156,2.2519,4.6211,4.6211,0,0,1-2.8858.7881,8.3846,8.3846,0,0,1-1.4892-.1226,5.0884,5.0884,0,0,1-1.3135-.4306v-1.107a6.7037,6.7037,0,0,0,2.8447.6724q2.6544,0,2.6543-2.0806,0-1.8633-2.9277-1.8632h-1.0088V93.9232h1.0225a3.0793,3.0793,0,0,0,1.8984-.5288,1.7359,1.7359,0,0,0,.7-1.4678,1.4449,1.4449,0,0,0-.5147-1.1768,2.121,2.121,0,0,0-1.3974-.4272,4.3021,4.3021,0,0,0-1.2676.1821,5.6756,5.6756,0,0,0-1.3594.6724l-.5879-.7847a4.8935,4.8935,0,0,1,1.4532-.7807,5.2742,5.2742,0,0,1,1.7334-.2837,3.5461,3.5461,0,0,1,2.3193.6826A2.3011,2.3011,0,0,1,511.3588,91.8846Z"/>
  </g>
  <rect class="cls-1" x="599.7662" y="75.8777" width="31.118" height="20.2602"/>
  <rect class="cls-2" x="599.7662" y="75.8777" width="31.118" height="20.2602"/>
  <g>
    <path d="M610.6859,91.1551l-3.4746-9.0786h-.0557q.0967,1.0788.0977,2.564v6.5146h-1.1V80.9139h1.793l3.2431,8.4478h.0567l3.2705-8.4478h1.7793V91.1551h-1.19V84.5565q0-1.1352.0977-2.4658h-.0557l-3.5019,9.0644Z"/>
    <path d="M625.6136,88.8016h-1.52v2.3535H622.98V88.8016h-4.9815V87.7855l4.8623-6.9277h1.2324v6.8857h1.52ZM622.98,87.7435V84.3392q0-1.0012.0693-2.2627h-.0557a10.5522,10.5522,0,0,1-.6308,1.1138l-3.2012,4.5532Z"/>
  </g>
  <path class="cls-1" d="M602.8743,117.7035a24.9045,24.9045,0,0,1,12.4509-21.5656,24.9045,24.9045,0,0,1,12.4509,21.5656v12.4508a24.9025,24.9025,0,0,0-24.9018,0Z"/>
  <path class="cls-2" d="M602.8743,117.7035a24.9045,24.9045,0,0,1,12.4509-21.5656,24.9045,24.9045,0,0,1,12.4509,21.5656v12.4508a24.9025,24.9025,0,0,0-24.9018,0Z"/>
  <polyline class="cls-2" points="437.774 55.835 437.774 64.339 190.123 64.339 190.123 75.906"/>
  <polyline class="cls-2" points="442.754 54.804 442.754 68.978 388.551 68.978 388.551 75.832"/>
  <polyline class="cls-2" points="447.734 54.804 447.734 68.978 501.938 68.978 501.938 86.008"/>
  <polyline class="cls-2" points="452.715 55.835 452.715 64.339 615.325 64.339 615.325 75.878"/>
  <path class="cls-1" d="M97.9958,186.4674V175.1287h-21.26v11.3387Zm-42.52-14.1733h42.52m-42.52,14.1733h42.52V158.1207h-42.52Z"/>
  <path class="cls-3" d="M97.9958,186.4674V175.1287h-21.26v11.3387Zm-42.52-14.1733h42.52m-42.52,14.1733h42.52V158.1207h-42.52Z"/>
  <g>
    <path d="M68.0018,171.68l-3.4746-9.0786h-.0561q.0981,1.0788.0981,2.564V171.68h-1.1V161.4388h1.793l3.2436,8.4478h.0557l3.2715-8.4478h1.7793V171.68H72.4218v-6.5986q0-1.1352.0981-2.4658h-.0562L68.9613,171.68Z"/>
    <path d="M80.0223,171.68H78.8871v-7.2993q0-.91.0561-1.7231-.1471.1471-.3291.3081t-1.667,1.3662l-.6167-.7988,2.711-2.0943h.9809Z"/>
    <path d="M88.2255,171.68H87.09v-7.2993q0-.91.0562-1.7231-.1473.1471-.3291.3081t-1.667,1.3662l-.6167-.7988,2.7109-2.0943h.981Z"/>
  </g>
  <rect class="cls-1" x="170.4624" y="147.945" width="39.321" height="20.3513"/>
  <rect class="cls-2" x="170.4624" y="147.945" width="39.321" height="20.3513"/>
  <g>
    <path d="M181.3876,163.3133l-3.4746-9.0786h-.0562q.0981,1.0788.0982,2.564v6.5146h-1.1V153.0721h1.793l3.2437,8.4478h.0556l3.2715-8.4478h1.7793v10.2412h-1.1909v-6.5986q0-1.1352.0981-2.4658H185.85l-3.5025,9.0644Z"/>
    <path d="M193.4081,163.3133h-1.1353V156.014q0-.91.0562-1.7231c-.0982.0981-.2075.2006-.3291.3081s-.6773.563-1.667,1.3662l-.6167-.7988,2.7109-2.0943h.981Z"/>
    <path d="M204.0345,163.3133h-6.7314v-1.0019l2.6968-2.71a19.92,19.92,0,0,0,1.625-1.7793,4.54,4.54,0,0,0,.5884-1.0371,2.965,2.965,0,0,0,.1962-1.0854,1.7232,1.7232,0,0,0-.4975-1.3,1.9046,1.9046,0,0,0-1.38-.48,3.4725,3.4725,0,0,0-1.2085.21,4.8145,4.8145,0,0,0-1.271.7637l-.6167-.7915a4.7206,4.7206,0,0,1,3.0825-1.1768,3.255,3.255,0,0,1,2.2622.7388,2.5422,2.5422,0,0,1,.82,1.9859,3.8334,3.8334,0,0,1-.5464,1.9262,12.249,12.249,0,0,1-2.0454,2.41l-2.2417,2.1924v.0561h5.2675Z"/>
  </g>
  <path class="cls-1" d="M177.6721,189.8619a24.9043,24.9043,0,0,1,12.4508-21.5656,24.9044,24.9044,0,0,1,12.4509,21.5656v12.4508a24.9023,24.9023,0,0,0-24.9017,0Z"/>
  <path class="cls-2" d="M177.6721,189.8619a24.9043,24.9043,0,0,1,12.4508-21.5656,24.9044,24.9044,0,0,1,12.4509,21.5656v12.4508a24.9023,24.9023,0,0,0-24.9017,0Z"/>
  <path class="cls-1" d="M268.0767,172.2948l10.63,7.0859-10.63,7.086Zm0-.0007h42.52m-42.52,14.1733h42.52V158.1207h-42.52Z"/>
  <path class="cls-3" d="M268.0767,172.2948l10.63,7.0859-10.63,7.086Zm0-.0007h42.52m-42.52,14.1733h42.52V158.1207h-42.52Z"/>
  <g>
    <path d="M280.6,171.828l-3.4746-9.0786h-.0562q.0981,1.0788.0982,2.5639v6.5147h-1.1V161.5868h1.793l3.2437,8.4477h.0556l3.2715-8.4477h1.7793V171.828H285.02v-6.5987q0-1.1352.0981-2.4658h-.0561l-3.5025,9.0645Z"/>
    <path d="M292.6205,171.828h-1.1353v-7.2993q0-.91.0562-1.7232c-.0982.0982-.2075.2007-.3291.3081s-.6773.563-1.667,1.3662l-.6167-.7988,2.7109-2.0942h.981Z"/>
    <path d="M302.8617,163.9964a2.3343,2.3343,0,0,1-.55,1.604,2.7484,2.7484,0,0,1-1.5586.8335v.0562a2.9313,2.9313,0,0,1,1.8281.7847,2.309,2.309,0,0,1,.5957,1.6533,2.6825,2.6825,0,0,1-1.0156,2.2519,4.6194,4.6194,0,0,1-2.8862.7881,8.3866,8.3866,0,0,1-1.4888-.1225,5.079,5.079,0,0,1-1.313-.4307V170.308a6.7021,6.7021,0,0,0,2.8438.6723q2.655,0,2.6547-2.0805,0-1.8633-2.9277-1.8633h-1.0088V166.035h1.0225a3.0793,3.0793,0,0,0,1.8984-.5288,1.7362,1.7362,0,0,0,.7007-1.4678,1.4466,1.4466,0,0,0-.5151-1.1767,2.1226,2.1226,0,0,0-1.3975-.4273,4.3058,4.3058,0,0,0-1.2676.1821,5.697,5.697,0,0,0-1.3593.6724l-.5884-.7847a4.9018,4.9018,0,0,1,1.4536-.7807,5.2733,5.2733,0,0,1,1.7339-.2837,3.542,3.542,0,0,1,2.3183.6826A2.3,2.3,0,0,1,302.8617,163.9964Z"/>
  </g>
  <polyline class="cls-2" points="185.973 127.142 185.973 141.316 76.736 141.316 76.736 158.121"/>
  <polyline class="cls-2" points="190.123 126.79 190.123 140.964 190.123 147.945"/>
  <polyline class="cls-2" points="194.273 127.142 194.273 141.316 289.337 141.316 289.337 158.121"/>
  <rect class="cls-1" x="12.8503" y="204.6912" width="48.3996" height="20.2462"/>
  <rect class="cls-2" x="12.8503" y="204.6912" width="48.3996" height="20.2462"/>
  <g>
    <path d="M23.7777,219.953l-3.4746-9.0786h-.0562q.0983,1.0788.0982,2.5639v6.5147h-1.1V209.7118h1.793l3.2436,8.4477h.0557l3.2715-8.4477h1.7793V219.953h-1.191v-6.5987q0-1.1352.0982-2.4658H28.24l-3.5024,9.0645Z"/>
    <path d="M35.7982,219.953H34.663v-7.2993q0-.91.0561-1.7232-.1471.1473-.3291.3081t-1.667,1.3662l-.6167-.7988,2.711-2.0942h.9809Z"/>
    <path d="M44.0013,219.953H42.8661v-7.2993q0-.91.0561-1.7232-.1471.1473-.3291.3081t-1.667,1.3662l-.6167-.7988,2.711-2.0942h.9809Z"/>
    <path d="M55.0409,219.953l-1.2749-3.2574H49.661L48.4,219.953H47.1952L51.244,209.67h1.002l4.0278,10.2832Zm-1.6465-4.3291-1.19-3.1734q-.2315-.6019-.4766-1.478a13.2482,13.2482,0,0,1-.4414,1.478l-1.2046,3.1734Z"/>
  </g>
  <path class="cls-1" d="M24.5992,246.503A24.9044,24.9044,0,0,1,37.05,224.9374,24.9044,24.9044,0,0,1,49.501,246.503v12.4508a24.9025,24.9025,0,0,0-24.9018,0Z"/>
  <path class="cls-2" d="M24.5992,246.503A24.9044,24.9044,0,0,1,37.05,224.9374,24.9044,24.9044,0,0,1,49.501,246.503v12.4508a24.9025,24.9025,0,0,0-24.9018,0Z"/>
  <rect class="cls-1" x="92.1128" y="204.7122" width="48.6167" height="20.2041"/>
  <rect class="cls-2" x="92.1128" y="204.7122" width="48.6167" height="20.2041"/>
  <g>
    <path d="M103.0389,219.932l-3.4746-9.0786h-.0561q.0981,1.0788.0981,2.5639v6.5147h-1.1V209.6908H100.3l3.2436,8.4477h.0557l3.2715-8.4477H108.65V219.932h-1.1909v-6.5987q0-1.1352.0981-2.4658h-.0561l-3.5025,9.0645Z"/>
    <path d="M115.0594,219.932h-1.1352v-7.2993q0-.9105.0561-1.7232-.1472.1473-.3291.3081t-1.6669,1.3662l-.6167-.7988,2.7109-2.0942h.9809Z"/>
    <path d="M123.2626,219.932h-1.1353v-7.2993q0-.9105.0562-1.7232c-.0982.0982-.2075.2007-.3291.3081s-.6773.563-1.667,1.3662l-.6167-.7988,2.7109-2.0942h.981Z"/>
    <path d="M127.8646,209.6908h2.8931a5.4576,5.4576,0,0,1,2.9487.6093,2.1506,2.1506,0,0,1,.9107,1.9263,2.2239,2.2239,0,0,1-.5078,1.5025,2.4426,2.4426,0,0,1-1.4815.767v.07q2.3328.3991,2.3325,2.4516a2.6322,2.6322,0,0,1-.9282,2.1436,3.9507,3.9507,0,0,1-2.5952.77h-3.5723Zm1.1905,4.3852h1.9614a3.1944,3.1944,0,0,0,1.8144-.396,1.5281,1.5281,0,0,0,.5533-1.3344,1.35,1.35,0,0,0-.6163-1.2432,3.8485,3.8485,0,0,0-1.9614-.3818h-1.7514Zm0,1.0083v3.8321h2.1367a3.0434,3.0434,0,0,0,1.8667-.48,1.7718,1.7718,0,0,0,.6269-1.5025,1.5907,1.5907,0,0,0-.6406-1.4008,3.4266,3.4266,0,0,0-1.9512-.4488Z"/>
  </g>
  <path class="cls-1" d="M103.97,246.4819a24.9043,24.9043,0,0,1,12.4509-21.5655,24.9042,24.9042,0,0,1,12.4508,21.5655v12.4509a24.9017,24.9017,0,0,0-24.9017,0Z"/>
  <path class="cls-2" d="M103.97,246.4819a24.9043,24.9043,0,0,1,12.4509-21.5655,24.9042,24.9042,0,0,1,12.4508,21.5655v12.4509a24.9017,24.9017,0,0,0-24.9017,0Z"/>
  <polyline class="cls-2" points="66.106 186.467 66.106 200.641 37.05 200.641 37.05 204.691"/>
  <polyline class="cls-2" points="87.366 186.467 87.366 200.641 116.421 200.641 116.421 204.712"/>
  <rect class="cls-1" x="3.9845" y="276.8461" width="26.4457" height="20.2042"/>
  <rect class="cls-2" x="3.9845" y="276.8461" width="26.4457" height="20.2042"/>
  <g>
    <path d="M17.1952,292.0653H15.8436l-2.7529-4.5039-2.8022,4.5039H9.0277l3.4043-5.3516-3.1733-4.89h1.3169l2.5429,4.0556,2.564-4.0556H16.95l-3.1734,4.8476Z"/>
    <path d="M22.26,292.0653H21.1249v-7.2989q0-.9111.0561-1.7236c-.0981.0977-.2075.2012-.3291.3086s-.6772.5625-1.667,1.3652l-.6167-.7978,2.711-2.0947H22.26Z"/>
  </g>
  <circle class="cls-1" cx="17.2074" cy="314.0583" r="17.0081"/>
  <circle class="cls-2" cx="17.2074" cy="314.0583" r="17.0081"/>
  <rect class="cls-1" x="43.67" y="276.7725" width="26.4457" height="20.3513"/>
  <rect class="cls-2" x="43.67" y="276.7725" width="26.4457" height="20.3513"/>
  <g>
    <path d="M56.88,292.14H55.5282l-2.7529-4.5039L49.973,292.14H48.7123l3.4043-5.3516-3.1734-4.89H50.26l2.543,4.0556,2.564-4.0556h1.2675l-3.1733,4.8476Z"/>
    <path d="M64.368,292.14H57.6366v-1.002l2.6968-2.7109a19.7781,19.7781,0,0,0,1.625-1.7793,4.5343,4.5343,0,0,0,.5884-1.0361,2.972,2.972,0,0,0,.1962-1.086,1.7226,1.7226,0,0,0-.4975-1.3,1.9072,1.9072,0,0,0-1.38-.4795,3.4842,3.4842,0,0,0-1.2085.21,4.8226,4.8226,0,0,0-1.271.7637l-.6167-.792a4.7233,4.7233,0,0,1,3.0825-1.1768,3.2577,3.2577,0,0,1,2.2622.7393,2.5424,2.5424,0,0,1,.82,1.9863,3.835,3.835,0,0,1-.5464,1.9258,12.2346,12.2346,0,0,1-2.0454,2.41l-2.2417,2.1924v.0557H64.368Z"/>
  </g>
  <circle class="cls-1" cx="56.8929" cy="314.1319" r="17.0081" transform="translate(-58.3781 16.4269) rotate(-10.9007)"/>
  <circle class="cls-2" cx="56.8929" cy="314.1319" r="17.0081" transform="translate(-58.3781 16.4269) rotate(-10.9007)"/>
  <rect class="cls-1" x="83.3556" y="276.6814" width="26.4457" height="20.4914"/>
  <rect class="cls-2" x="83.3556" y="276.6814" width="26.4457" height="20.4914"/>
  <g>
    <path d="M96.5648,292.0477H95.2133l-2.753-4.5039-2.8022,4.5039H88.3973l3.4043-5.3516-3.1733-4.89h1.3169l2.543,4.0557,2.5639-4.0557H96.32l-3.1733,4.8476Z"/>
    <path d="M103.6678,284.2157a2.3341,2.3341,0,0,1-.55,1.6045,2.7546,2.7546,0,0,1-1.5586.8339v.0557a2.9319,2.9319,0,0,1,1.8282.7842,2.3113,2.3113,0,0,1,.5957,1.6533,2.681,2.681,0,0,1-1.0156,2.252,4.62,4.62,0,0,1-2.8863.788,8.34,8.34,0,0,1-1.4887-.122,5.1173,5.1173,0,0,1-1.313-.4307v-1.1074a6.7079,6.7079,0,0,0,2.8437.6728q2.655,0,2.6548-2.08,0-1.8633-2.9277-1.8633H98.8417v-1.002h1.0224a3.0788,3.0788,0,0,0,1.8985-.5293,1.7356,1.7356,0,0,0,.7007-1.4668,1.4486,1.4486,0,0,0-.5152-1.1777,2.1249,2.1249,0,0,0-1.3974-.4268,4.3186,4.3186,0,0,0-1.2676.1817,5.7007,5.7007,0,0,0-1.3594.6728l-.5884-.7841a4.88,4.88,0,0,1,1.4536-.7813,5.2766,5.2766,0,0,1,1.7339-.2842,3.5374,3.5374,0,0,1,2.3184.6836A2.2987,2.2987,0,0,1,103.6678,284.2157Z"/>
  </g>
  <circle class="cls-1" cx="96.5784" cy="314.1809" r="17.0081"/>
  <circle class="cls-2" cx="96.5784" cy="314.1809" r="17.0081"/>
  <rect class="cls-1" x="123.0411" y="276.797" width="26.4457" height="20.2602"/>
  <rect class="cls-2" x="123.0411" y="276.797" width="26.4457" height="20.2602"/>
  <g>
    <path d="M136.25,292.0721h-1.3516l-2.7529-4.5039-2.8023,4.5039h-1.2607l3.4043-5.3515-3.1733-4.89H129.63l2.543,4.0557,2.564-4.0557h1.2676l-3.1734,4.8477Z"/>
    <path d="M144.2216,289.7186h-1.52v2.3535h-1.1137v-2.3535h-4.98V288.703l4.8613-6.9278h1.2329v6.8858h1.52Zm-2.6338-1.0576v-3.4043q0-1.002.07-2.2627h-.0557a10.5556,10.5556,0,0,1-.63,1.1133L137.77,288.661Z"/>
  </g>
  <circle class="cls-1" cx="136.2639" cy="314.0653" r="17.0081"/>
  <circle class="cls-2" cx="136.2639" cy="314.0653" r="17.0081"/>
  <polyline class="cls-2" points="32.9 255.97 32.9 270.143 17.207 270.143 17.207 276.846"/>
  <polyline class="cls-2" points="41.2 255.97 41.2 270.143 56.893 270.143 56.893 276.773"/>
  <polyline class="cls-2" points="112.271 255.949 112.271 270.122 96.578 270.122 96.578 276.681"/>
  <polyline class="cls-2" points="120.571 255.949 120.571 270.122 136.264 270.122 136.264 276.797"/>
  <rect class="cls-1" x="157.0573" y="220.1349" width="26.4457" height="20.3443"/>
  <rect class="cls-2" x="157.0573" y="220.1349" width="26.4457" height="20.3443"/>
  <g>
    <path d="M170.266,235.3553h-1.3516l-2.7529-4.5044-2.8022,4.5044h-1.2608l3.4043-5.3515-3.1733-4.89h1.3169l2.5429,4.0557,2.564-4.0557h1.2676l-3.1734,4.8472Z"/>
    <path d="M174.224,229.1a3.7669,3.7669,0,0,1,2.5464.8018,2.7526,2.7526,0,0,1,.9282,2.1963,3.1727,3.1727,0,0,1-1.0122,2.4936,4.0434,4.0434,0,0,1-2.7915.9039,5.1392,5.1392,0,0,1-2.6411-.5533v-1.1211a4.002,4.002,0,0,0,1.2187.4942,6.0407,6.0407,0,0,0,1.4361.1782,2.8684,2.8684,0,0,0,1.916-.5811,2.0864,2.0864,0,0,0,.6831-1.6811q0-2.1438-2.627-2.1436a10.4224,10.4224,0,0,0-1.7793.2032l-.6025-.3853.3853-4.7915h5.0927v1.0718h-4.0981l-.2588,3.0752A8.1595,8.1595,0,0,1,174.224,229.1Z"/>
  </g>
  <circle class="cls-1" cx="170.2802" cy="257.4873" r="17.0081" transform="translate(-54.6033 46.0104) rotate(-13.2825)"/>
  <circle class="cls-2" cx="170.2802" cy="257.4873" r="17.0081" transform="translate(-54.6033 46.0104) rotate(-13.2825)"/>
  <rect class="cls-1" x="196.7428" y="220.0614" width="26.4457" height="20.4914"/>
  <rect class="cls-2" x="196.7428" y="220.0614" width="26.4457" height="20.4914"/>
  <g>
    <path d="M209.9511,235.4281H208.6l-2.7529-4.5044-2.8023,4.5044h-1.2607l3.4043-5.3516-3.1734-4.89h1.3169l2.543,4.0556,2.564-4.0556h1.2675l-3.1733,4.8471Z"/>
    <path d="M210.827,231.05A7.2446,7.2446,0,0,1,212,226.5355a4.1434,4.1434,0,0,1,3.4712-1.4956,4.6409,4.6409,0,0,1,1.247.1328v1.002a3.991,3.991,0,0,0-1.2329-.1753,3.1115,3.1115,0,0,0-2.5151,1.0263,5.2608,5.2608,0,0,0-.9526,3.2256h.0844a2.6809,2.6809,0,0,1,2.4375-1.2046,2.8624,2.8624,0,0,1,2.1748.8335,3.1421,3.1421,0,0,1,.7954,2.2627,3.49,3.49,0,0,1-.872,2.5112,3.1047,3.1047,0,0,1-2.3574.9141,3.0277,3.0277,0,0,1-2.5215-1.1943A5.281,5.281,0,0,1,210.827,231.05Zm3.439,3.53a1.9469,1.9469,0,0,0,1.5449-.6269,2.6643,2.6643,0,0,0,.55-1.8106,2.3357,2.3357,0,0,0-.5112-1.5972,1.9275,1.9275,0,0,0-1.5274-.5815,2.5737,2.5737,0,0,0-1.1557.2593,2.1357,2.1357,0,0,0-.8369.7143,1.6507,1.6507,0,0,0-.312.9458,3.2466,3.2466,0,0,0,.28,1.3448,2.37,2.37,0,0,0,.7954.9878A1.9772,1.9772,0,0,0,214.266,234.58Z"/>
  </g>
  <circle class="cls-1" cx="209.9657" cy="257.5609" r="17.0081"/>
  <circle class="cls-2" cx="209.9657" cy="257.5609" r="17.0081"/>
  <polyline class="cls-2" points="185.973 199.329 185.973 213.502 170.28 213.502 170.28 220.135"/>
  <polyline class="cls-2" points="194.273 199.329 194.273 213.502 209.966 213.502 209.966 220.061"/>
  <rect class="cls-1" x="276.114" y="204.5686" width="26.4457" height="20.4914"/>
  <rect class="cls-2" x="276.114" y="204.5686" width="26.4457" height="20.4914"/>
  <g>
    <path d="M289.3212,219.9359H287.97l-2.7529-4.5044-2.8023,4.5044h-1.2607l3.4043-5.3516-3.1734-4.89h1.3169l2.543,4.0556,2.564-4.0556h1.2676l-3.1734,4.8471Z"/>
    <path d="M296.8094,214.0658q0,6.01-4.6513,6.01a4.7417,4.7417,0,0,1-1.2886-.14v-1.002a4.1118,4.1118,0,0,0,1.2749.1822,3.101,3.101,0,0,0,2.5391-1.04,5.2559,5.2559,0,0,0,.935-3.1909h-.084a2.4922,2.4922,0,0,1-1.0224.8862,3.289,3.289,0,0,1-1.436.3047,2.8861,2.8861,0,0,1-2.1578-.8125,3.1,3.1,0,0,1-.7983-2.2695,3.4762,3.4762,0,0,1,.8931-2.522,3.4183,3.4183,0,0,1,4.1748-.3887,3.39,3.39,0,0,1,1.2016,1.5621A6.3715,6.3715,0,0,1,296.8094,214.0658Zm-3.4462-3.5235a1.9183,1.9183,0,0,0-1.5484.6446,2.6891,2.6891,0,0,0-.5464,1.7929,2.3338,2.3338,0,0,0,.5044,1.5869,1.929,1.929,0,0,0,1.5342.5777,2.6567,2.6567,0,0,0,1.1733-.2593,2.1114,2.1114,0,0,0,.8443-.7075,1.63,1.63,0,0,0,.3081-.9385,3.2091,3.2091,0,0,0-.2871-1.3589,2.3708,2.3708,0,0,0-.8023-.9809A2.0212,2.0212,0,0,0,293.3632,210.5423Z"/>
  </g>
  <circle class="cls-1" cx="289.3368" cy="242.0681" r="17.0081"/>
  <circle class="cls-2" cx="289.3368" cy="242.0681" r="17.0081"/>
  <polyline class="cls-2" points="289.337 186.467 289.337 200.641 289.337 204.569"/>
  <rect class="cls-1" x="236.7902" y="275.4356" width="48.3996" height="20.4914"/>
  <rect class="cls-2" x="236.7902" y="275.4356" width="48.3996" height="20.4914"/>
  <g>
    <path d="M247.7147,290.8016l-3.4746-9.0781h-.0561q.0981,1.0781.0981,2.5635v6.5146h-1.1V280.56h1.793l3.2436,8.4482h.0557l3.2715-8.4482h1.7793v10.2412h-1.191V284.203q0-1.1353.0982-2.4658h-.0562l-3.5024,9.0644Z"/>
    <path d="M259.7352,290.8016H258.6v-7.2988q0-.9111.0561-1.7237c-.0981.0977-.2075.2012-.3291.3086s-.6772.5625-1.667,1.3653l-.6167-.7979,2.711-2.0947h.9809Z"/>
    <path d="M269.9764,282.97a2.3341,2.3341,0,0,1-.55,1.6045,2.7553,2.7553,0,0,1-1.5586.834v.0556a2.9324,2.9324,0,0,1,1.8282.7842,2.3113,2.3113,0,0,1,.5957,1.6533,2.6807,2.6807,0,0,1-1.0157,2.252,4.6192,4.6192,0,0,1-2.8862.7881,8.3416,8.3416,0,0,1-1.4888-.1221,5.114,5.114,0,0,1-1.3129-.4307v-1.1074a6.7079,6.7079,0,0,0,2.8437.6728q2.655,0,2.6548-2.08,0-1.8633-2.9277-1.8633H265.15v-1.002h1.0224a3.0788,3.0788,0,0,0,1.8985-.5293,1.7356,1.7356,0,0,0,.7007-1.4668,1.4486,1.4486,0,0,0-.5152-1.1777,2.1249,2.1249,0,0,0-1.3974-.4267,4.3186,4.3186,0,0,0-1.2676.1816,5.7007,5.7007,0,0,0-1.3594.6728l-.5884-.7841a4.88,4.88,0,0,1,1.4536-.7813,5.2766,5.2766,0,0,1,1.7339-.2842,3.5374,3.5374,0,0,1,2.3184.6836A2.2987,2.2987,0,0,1,269.9764,282.97Z"/>
    <path d="M278.9779,290.8016l-1.2749-3.2568h-4.105l-1.2607,3.2568h-1.2051l4.0488-10.2832h1.002l4.0278,10.2832Zm-1.6465-4.3291-1.19-3.1728q-.2315-.6036-.4766-1.4786a13.2553,13.2553,0,0,1-.4414,1.4786l-1.2046,3.1728Z"/>
  </g>
  <path class="cls-1" d="M248.5391,317.4926A24.9045,24.9045,0,0,1,260.99,295.927a24.9045,24.9045,0,0,1,12.4509,21.5656v12.4508a24.9025,24.9025,0,0,0-24.9018,0Z"/>
  <path class="cls-2" d="M248.5391,317.4926A24.9045,24.9045,0,0,1,260.99,295.927a24.9045,24.9045,0,0,1,12.4509,21.5656v12.4508a24.9025,24.9025,0,0,0-24.9018,0Z"/>
  <polyline class="cls-2" points="268.077 179.381 260.99 179.381 260.99 275.436"/>
  <rect class="cls-1" x="227.9244" y="347.8357" width="26.4457" height="20.2042"/>
  <rect class="cls-2" x="227.9244" y="347.8357" width="26.4457" height="20.2042"/>
  <g>
    <path d="M241.1322,363.0545h-1.3516l-2.7529-4.5039-2.8022,4.5039h-1.2608l3.4043-5.3515-3.1733-4.89h1.3169l2.5429,4.0557,2.564-4.0557h1.2676l-3.1734,4.8477Z"/>
    <path d="M243.1849,363.0545l4.2447-9.17H241.847v-1.0713h6.8155v.9317l-4.189,9.31Z"/>
  </g>
  <circle class="cls-1" cx="241.1472" cy="385.048" r="17.0081"/>
  <circle class="cls-2" cx="241.1472" cy="385.048" r="17.0081"/>
  <rect class="cls-1" x="267.6099" y="347.6921" width="26.4457" height="20.4914"/>
  <rect class="cls-2" x="267.6099" y="347.6921" width="26.4457" height="20.4914"/>
  <g>
    <path d="M280.8168,363.0575h-1.3516l-2.7529-4.5039-2.8023,4.5039h-1.2607l3.4043-5.3516-3.1734-4.89h1.3169l2.543,4.0556,2.564-4.0556h1.2676l-3.1734,4.8476Z"/>
    <path d="M284.9637,352.6688a3.4765,3.4765,0,0,1,2.2207.6514,2.1738,2.1738,0,0,1,.8194,1.8007,2.242,2.242,0,0,1-.4693,1.38,4.14,4.14,0,0,1-1.499,1.1348,5.0547,5.0547,0,0,1,1.7725,1.25,2.3568,2.3568,0,0,1,.5254,1.5166,2.5413,2.5413,0,0,1-.89,2.0351,3.6315,3.6315,0,0,1-2.438.76,3.9034,3.9034,0,0,1-2.5214-.7178,2.4731,2.4731,0,0,1-.8829-2.0351q0-1.7579,2.1436-2.7383a3.9562,3.9562,0,0,1-1.3872-1.1807,2.5133,2.5133,0,0,1-.42-1.4179,2.1612,2.1612,0,0,1,.8227-1.7764A3.4132,3.4132,0,0,1,284.9637,352.6688Zm-2.2133,7.8037a1.5834,1.5834,0,0,0,.5849,1.31,2.558,2.558,0,0,0,1.6426.47,2.4458,2.4458,0,0,0,1.625-.49,1.6661,1.6661,0,0,0,.5815-1.3448,1.6415,1.6415,0,0,0-.5463-1.2089,5.5678,5.5678,0,0,0-1.9053-1.0254,4.1419,4.1419,0,0,0-1.5132.9912A1.9181,1.9181,0,0,0,282.75,360.4725Zm2.1992-6.8574a2.0608,2.0608,0,0,0-1.3726.42,1.3932,1.3932,0,0,0-.4975,1.1211,1.604,1.604,0,0,0,.4131,1.1064,4.3168,4.3168,0,0,0,1.5273.9248,3.8228,3.8228,0,0,0,1.4185-.9033,1.6741,1.6741,0,0,0,.4169-1.1279,1.381,1.381,0,0,0-.5078-1.125A2.145,2.145,0,0,0,284.95,353.6151Z"/>
  </g>
  <circle class="cls-1" cx="280.8328" cy="385.1916" r="17.0081"/>
  <circle class="cls-2" cx="280.8328" cy="385.1916" r="17.0081"/>
  <polyline class="cls-2" points="256.84 326.96 256.84 341.133 241.147 341.133 241.147 347.836"/>
  <polyline class="cls-2" points="265.14 326.96 265.14 341.133 280.833 341.133 280.833 347.692"/>
  <rect class="cls-1" x="351.3836" y="146.5926" width="34.6486" height="20.5054"/>
  <rect class="cls-2" x="351.3836" y="146.5926" width="34.6486" height="20.5054"/>
  <g>
    <path d="M364.59,161.974h-1.3516l-2.7529-4.5044-2.8017,4.5044h-1.2618l3.4053-5.3516-3.1738-4.89h1.3174l2.542,4.0556,2.5644-4.0556h1.2676l-3.1729,4.8471Z"/>
    <path d="M369.6556,161.974h-1.1347v-7.2993q0-.91.0556-1.7232c-.0976.0982-.208.2007-.3291.3081s-.6767.563-1.667,1.3662l-.6162-.7988,2.711-2.0942h.98Z"/>
    <path d="M380.3373,156.8392a7.4825,7.4825,0,0,1-.8369,3.9648,3.0914,3.0914,0,0,1-5.0752-.0312,7.3339,7.3339,0,0,1-.8614-3.9336,7.477,7.477,0,0,1,.8331-3.9717,3.094,3.094,0,0,1,5.0751.0562A7.2944,7.2944,0,0,1,380.3373,156.8392Zm-5.5967,0a7.4961,7.4961,0,0,0,.5254,3.2539,1.887,1.887,0,0,0,3.3584-.0142,10.2839,10.2839,0,0,0,0-6.4726,1.8931,1.8931,0,0,0-3.3584-.0137A7.4442,7.4442,0,0,0,374.7406,156.8392Z"/>
  </g>
  <circle class="cls-1" cx="368.7079" cy="184.106" r="17.0081" transform="translate(-32.4356 89.6367) rotate(-13.2825)"/>
  <circle class="cls-2" cx="368.7079" cy="184.106" r="17.0081" transform="translate(-32.4356 89.6367) rotate(-13.2825)"/>
  <rect class="cls-1" x="391.0692" y="146.7432" width="34.6486" height="20.2041"/>
  <rect class="cls-2" x="391.0692" y="146.7432" width="34.6486" height="20.2041"/>
  <g>
    <path d="M404.2748,161.9642h-1.3516L400.17,157.46l-2.8018,4.5044h-1.2617l3.4053-5.3516-3.1738-4.89h1.3173l2.542,4.0557,2.5645-4.0557H404.03l-3.1729,4.8472Z"/>
    <path d="M409.34,161.9642h-1.1348v-7.2993q0-.91.0557-1.7232c-.0976.0982-.208.2007-.3291.3081s-.6768.563-1.667,1.3663l-.6162-.7989,2.7109-2.0942h.9805Z"/>
    <path d="M417.5424,161.9642h-1.1348v-7.2993q0-.91.0557-1.7232c-.0977.0982-.2081.2007-.3291.3081s-.6768.563-1.667,1.3663l-.6162-.7989,2.7109-2.0942h.9805Z"/>
  </g>
  <circle class="cls-1" cx="408.3934" cy="183.9554" r="17.0081"/>
  <circle class="cls-2" cx="408.3934" cy="183.9554" r="17.0081"/>
  <polyline class="cls-2" points="384.015 130.199 384.015 138.703 368.708 138.703 368.708 146.593"/>
  <polyline class="cls-2" points="393.086 130.199 393.086 138.703 408.393 138.703 408.393 146.743"/>
  <rect class="cls-1" x="442.5919" y="132.4557" width="39.321" height="20.4914"/>
  <rect class="cls-2" x="442.5919" y="132.4557" width="39.321" height="20.4914"/>
  <g>
    <path d="M453.514,147.8241l-3.4746-9.0786h-.0556q.0966,1.0788.0976,2.5639v6.5147h-1.1V137.5829h1.793l3.2431,8.4477h.0567l3.2705-8.4477h1.7793v10.2412h-1.19v-6.5987q0-1.1352.0976-2.4658h-.0556l-3.502,9.0645Z"/>
    <path d="M467.5726,139.9925a2.3367,2.3367,0,0,1-.55,1.604,2.7451,2.7451,0,0,1-1.5586.8335v.0562a2.93,2.93,0,0,1,1.8282.7846,2.3077,2.3077,0,0,1,.5957,1.6534,2.6825,2.6825,0,0,1-1.0157,2.2519,4.6206,4.6206,0,0,1-2.8857.7881,8.3866,8.3866,0,0,1-1.4893-.1226,5.0877,5.0877,0,0,1-1.3134-.4306v-1.107a6.7037,6.7037,0,0,0,2.8447.6724q2.6542,0,2.6543-2.0806,0-1.8632-2.9278-1.8632h-1.0087v-1.0015h1.0224a3.08,3.08,0,0,0,1.8985-.5288,1.7358,1.7358,0,0,0,.7-1.4678,1.4446,1.4446,0,0,0-.5147-1.1767,2.1208,2.1208,0,0,0-1.3975-.4273,4.3052,4.3052,0,0,0-1.2675.1821,5.6756,5.6756,0,0,0-1.3594.6724l-.5879-.7847a4.8929,4.8929,0,0,1,1.4531-.7807,5.275,5.275,0,0,1,1.7334-.2837,3.5464,3.5464,0,0,1,2.3194.6826A2.3013,2.3013,0,0,1,467.5726,139.9925Z"/>
    <path d="M473.7377,147.8241h-1.1348v-7.2993q0-.91.0557-1.7232c-.0977.0982-.208.2007-.3291.3081s-.6768.563-1.667,1.3662l-.6162-.7988,2.7109-2.0942h.9805Z"/>
  </g>
  <path class="cls-1" d="M449.8015,174.5127a24.9042,24.9042,0,0,1,12.4509-21.5656,24.9043,24.9043,0,0,1,12.4508,21.5656v12.4508a24.9023,24.9023,0,0,0-24.9017,0Z"/>
  <path class="cls-2" d="M449.8015,174.5127a24.9042,24.9042,0,0,1,12.4509-21.5656,24.9043,24.9043,0,0,1,12.4508,21.5656v12.4508a24.9023,24.9023,0,0,0-24.9017,0Z"/>
  <rect class="cls-1" x="521.963" y="132.4557" width="39.321" height="20.4914"/>
  <rect class="cls-2" x="521.963" y="132.4557" width="39.321" height="20.4914"/>
  <g>
    <path d="M532.8842,147.8241l-3.4747-9.0786h-.0556q.0966,1.0788.0976,2.5639v6.5147h-1.1V137.5829h1.793l3.2432,8.4477h.0566l3.27-8.4477h1.7793v10.2412h-1.19v-6.5987q0-1.1352.0976-2.4658h-.0556l-3.502,9.0645Z"/>
    <path d="M546.9427,139.9925a2.3362,2.3362,0,0,1-.55,1.604,2.7451,2.7451,0,0,1-1.5585.8335v.0562a2.93,2.93,0,0,1,1.8281.7846,2.3077,2.3077,0,0,1,.5957,1.6534,2.6827,2.6827,0,0,1-1.0156,2.2519,4.6211,4.6211,0,0,1-2.8858.7881,8.3846,8.3846,0,0,1-1.4892-.1226,5.0884,5.0884,0,0,1-1.3135-.4306v-1.107a6.7037,6.7037,0,0,0,2.8447.6724q2.6542,0,2.6543-2.0806,0-1.8632-2.9277-1.8632h-1.0088v-1.0015h1.0224a3.0794,3.0794,0,0,0,1.8985-.5288,1.7358,1.7358,0,0,0,.7-1.4678,1.4446,1.4446,0,0,0-.5147-1.1767,2.1207,2.1207,0,0,0-1.3974-.4273,4.3053,4.3053,0,0,0-1.2676.1821,5.6756,5.6756,0,0,0-1.3594.6724l-.5879-.7847a4.8929,4.8929,0,0,1,1.4531-.7807,5.275,5.275,0,0,1,1.7334-.2837,3.5462,3.5462,0,0,1,2.3194.6826A2.301,2.301,0,0,1,546.9427,139.9925Z"/>
    <path d="M555.5316,147.8241h-6.7324v-1.002l2.6973-2.71a19.9005,19.9005,0,0,0,1.625-1.7793,4.5382,4.5382,0,0,0,.5888-1.0371,2.9843,2.9843,0,0,0,.1953-1.0855,1.721,1.721,0,0,0-.497-1.3,1.9034,1.9034,0,0,0-1.38-.48,3.4634,3.4634,0,0,0-1.208.21,4.805,4.805,0,0,0-1.2715.7636l-.6162-.7915a4.7206,4.7206,0,0,1,3.082-1.1767,3.2574,3.2574,0,0,1,2.2627.7388,2.5431,2.5431,0,0,1,.8193,1.9858,3.8346,3.8346,0,0,1-.5468,1.9263,12.2434,12.2434,0,0,1-2.045,2.41l-2.2421,2.1924v.0562h5.2685Z"/>
  </g>
  <path class="cls-1" d="M529.1726,174.5127a24.9042,24.9042,0,0,1,12.4509-21.5656,24.9045,24.9045,0,0,1,12.4508,21.5656v12.4508a24.9023,24.9023,0,0,0-24.9017,0Z"/>
  <path class="cls-2" d="M529.1726,174.5127a24.9042,24.9042,0,0,1,12.4509-21.5656,24.9045,24.9045,0,0,1,12.4508,21.5656v12.4508a24.9023,24.9023,0,0,0-24.9017,0Z"/>
  <polyline class="cls-2" points="491.308 114.355 491.308 128.528 462.252 128.528 462.252 132.456"/>
  <polyline class="cls-2" points="512.568 114.355 512.568 128.528 541.623 128.528 541.623 132.456"/>
  <rect class="cls-1" x="425.0853" y="204.7823" width="34.6486" height="20.3513"/>
  <rect class="cls-2" x="425.0853" y="204.7823" width="34.6486" height="20.3513"/>
  <g>
    <path d="M438.2914,220.1493H436.94l-2.7529-4.5044-2.8018,4.5044h-1.2617l3.4053-5.3516-3.1738-4.89h1.3173l2.542,4.0556,2.5645-4.0556h1.2676l-3.1729,4.8471Z"/>
    <path d="M443.3568,220.1493H442.222V212.85q0-.91.0557-1.7231c-.0976.0981-.208.2007-.3291.3081s-.6767.563-1.667,1.3662l-.6162-.7988,2.7109-2.0942h.9805Z"/>
    <path d="M453.9828,220.1493H447.25v-1.002l2.6972-2.71a19.8684,19.8684,0,0,0,1.625-1.7793,4.5388,4.5388,0,0,0,.5889-1.0371,2.9843,2.9843,0,0,0,.1953-1.0855,1.7207,1.7207,0,0,0-.4971-1.3,1.9032,1.9032,0,0,0-1.38-.48,3.463,3.463,0,0,0-1.208.21,4.805,4.805,0,0,0-1.2715.7636l-.6162-.7915a4.7206,4.7206,0,0,1,3.082-1.1767,3.2578,3.2578,0,0,1,2.2627.7387,2.5435,2.5435,0,0,1,.8193,1.9859,3.8337,3.8337,0,0,1-.5469,1.9263,12.2422,12.2422,0,0,1-2.0449,2.41l-2.2422,2.1924v.0561h5.2686Z"/>
  </g>
  <circle class="cls-1" cx="442.4096" cy="242.1416" r="17.0081" transform="translate(148.0273 651.6509) rotate(-82.9819)"/>
  <circle class="cls-2" cx="442.4096" cy="242.1416" r="17.0081" transform="translate(148.0273 651.6509) rotate(-82.9819)"/>
  <rect class="cls-1" x="464.7708" y="204.7122" width="34.6486" height="20.4914"/>
  <rect class="cls-2" x="464.7708" y="204.7122" width="34.6486" height="20.4914"/>
  <g>
    <path d="M477.976,220.0789h-1.3516l-2.7529-4.5043-2.8018,4.5043H469.808l3.4053-5.3515-3.1739-4.89h1.3174l2.542,4.0557,2.5645-4.0557h1.2675l-3.1728,4.8472Z"/>
    <path d="M483.0414,220.0789h-1.1348V212.78q0-.91.0557-1.7231c-.0977.0981-.208.2007-.3291.3081s-.6768.563-1.667,1.3662l-.6162-.7988,2.7109-2.0943h.9805Z"/>
    <path d="M493.2816,212.2474a2.3367,2.3367,0,0,1-.55,1.604,2.7451,2.7451,0,0,1-1.5586.8335v.0562a2.929,2.929,0,0,1,1.8281.7846,2.307,2.307,0,0,1,.5957,1.6533,2.6825,2.6825,0,0,1-1.0156,2.252,4.6206,4.6206,0,0,1-2.8857.7881,8.3866,8.3866,0,0,1-1.4893-.1226,5.0884,5.0884,0,0,1-1.3135-.4306v-1.107a6.7046,6.7046,0,0,0,2.8448.6724q2.6542,0,2.6543-2.0806,0-1.8633-2.9278-1.8633h-1.0088V214.286h1.0225a3.0793,3.0793,0,0,0,1.8984-.5288,1.7359,1.7359,0,0,0,.7-1.4678,1.4451,1.4451,0,0,0-.5146-1.1768,2.1213,2.1213,0,0,0-1.3975-.4272,4.3014,4.3014,0,0,0-1.2675.1821,5.6756,5.6756,0,0,0-1.3594.6724l-.5879-.7847a4.8929,4.8929,0,0,1,1.4531-.7807,5.2746,5.2746,0,0,1,1.7334-.2837,3.5459,3.5459,0,0,1,2.3193.6826A2.301,2.301,0,0,1,493.2816,212.2474Z"/>
  </g>
  <circle class="cls-1" cx="482.0951" cy="242.2117" r="17.0081" transform="translate(165.7878 679.2836) rotate(-80.7825)"/>
  <circle class="cls-2" cx="482.0951" cy="242.2117" r="17.0081" transform="translate(165.7878 679.2836) rotate(-80.7825)"/>
  <rect class="cls-1" x="504.4564" y="204.8278" width="34.6486" height="20.2602"/>
  <rect class="cls-2" x="504.4564" y="204.8278" width="34.6486" height="20.2602"/>
  <g>
    <path d="M517.66,220.1043H516.309L513.556,215.6l-2.8017,4.5044h-1.2617l3.4052-5.3515-3.1738-4.89h1.3174l2.542,4.0557,2.5644-4.0557h1.2676l-3.1728,4.8472Z"/>
    <path d="M522.726,220.1043h-1.1348V212.805q0-.91.0557-1.7231c-.0977.0981-.2081.2007-.3292.3081s-.6767.563-1.6669,1.3662l-.6163-.7988,2.711-2.0943h.9805Z"/>
    <path d="M533.8353,217.7508h-1.52v2.3535h-1.1133v-2.3535H526.22v-1.0161l4.8623-6.9277h1.2324v6.8857h1.52Zm-2.6338-1.0581v-3.4043q0-1.0012.0694-2.2627h-.0557a10.56,10.56,0,0,1-.6308,1.1138l-3.2012,4.5532Z"/>
  </g>
  <circle class="cls-1" cx="521.7807" cy="242.0961" r="17.0081" transform="translate(98.4362 631.5124) rotate(-67.5)"/>
  <circle class="cls-2" cx="521.7807" cy="242.0961" r="17.0081" transform="translate(98.4362 631.5124) rotate(-67.5)"/>
  <rect class="cls-1" x="544.1419" y="204.7858" width="34.6486" height="20.3442"/>
  <rect class="cls-2" x="544.1419" y="204.7858" width="34.6486" height="20.3442"/>
  <g>
    <path d="M557.3461,220.0062h-1.3516l-2.7529-4.5044-2.8018,4.5044h-1.2617l3.4053-5.3516-3.1739-4.89h1.3174l2.542,4.0556,2.5645-4.0556h1.2676l-3.1729,4.8472Z"/>
    <path d="M562.4115,220.0062h-1.1348v-7.2993q0-.91.0557-1.7232c-.0977.0982-.208.2007-.3291.3081s-.6768.563-1.667,1.3663l-.6162-.7989,2.7109-2.0942h.9805Z"/>
    <path d="M569.5062,213.7508a3.7672,3.7672,0,0,1,2.5469.8018,2.7534,2.7534,0,0,1,.9277,2.1963,3.1709,3.1709,0,0,1-1.0117,2.4936,4.043,4.043,0,0,1-2.792.9038,5.14,5.14,0,0,1-2.6406-.5532V218.472a4.0126,4.0126,0,0,0,1.2187.4942,6.0416,6.0416,0,0,0,1.4366.1782,2.8654,2.8654,0,0,0,1.915-.5811,2.0838,2.0838,0,0,0,.6836-1.6811q0-2.1438-2.6269-2.1436a10.4286,10.4286,0,0,0-1.7793.2031l-.6026-.3852.3858-4.7915h5.0918v1.0718h-4.0977l-.2588,3.0752A8.1507,8.1507,0,0,1,569.5062,213.7508Z"/>
  </g>
  <circle class="cls-1" cx="561.4662" cy="242.1381" r="17.0081"/>
  <circle class="cls-2" cx="561.4662" cy="242.1381" r="17.0081"/>
  <polyline class="cls-2" points="458.102 183.98 458.102 198.153 442.41 198.153 442.41 204.782"/>
  <polyline class="cls-2" points="466.403 183.98 466.403 198.153 482.095 198.153 482.095 204.712"/>
  <polyline class="cls-2" points="537.473 183.98 537.473 198.153 521.781 198.153 521.781 204.828"/>
  <polyline class="cls-2" points="545.774 183.98 545.774 198.153 561.466 198.153 561.466 204.786"/>
  <rect class="cls-1" x="578.1581" y="147.903" width="34.6486" height="20.4913"/>
  <rect class="cls-2" x="578.1581" y="147.903" width="34.6486" height="20.4913"/>
  <g>
    <path d="M591.3607,163.2713h-1.3515l-2.753-4.5044-2.8017,4.5044h-1.2618l3.4053-5.3515-3.1738-4.89h1.3174l2.542,4.0557,2.5644-4.0557h1.2676l-3.1729,4.8472Z"/>
    <path d="M596.4261,163.2713h-1.1347V155.972q0-.91.0556-1.7231c-.0976.0981-.208.2007-.3291.3081s-.6767.563-1.6669,1.3662l-.6163-.7988,2.711-2.0943h.98Z"/>
    <path d="M600.4388,158.8934a7.2435,7.2435,0,0,1,1.1739-4.5146,4.1418,4.1418,0,0,1,3.4707-1.4957,4.6428,4.6428,0,0,1,1.247.1329v1.0019a3.99,3.99,0,0,0-1.2334-.1753,3.1119,3.1119,0,0,0-2.5146,1.0264,5.2583,5.2583,0,0,0-.9522,3.2256h.084a2.6815,2.6815,0,0,1,2.4375-1.2046,2.8627,2.8627,0,0,1,2.1748.8335,3.1416,3.1416,0,0,1,.795,2.2627,3.4865,3.4865,0,0,1-.8721,2.5112,3.1032,3.1032,0,0,1-2.3565.9141,3.03,3.03,0,0,1-2.5224-1.1944A5.284,5.284,0,0,1,600.4388,158.8934Zm3.4395,3.53a1.9473,1.9473,0,0,0,1.5449-.627,2.6666,2.6666,0,0,0,.55-1.81,2.3357,2.3357,0,0,0-.5117-1.5972,1.9249,1.9249,0,0,0-1.5264-.5815,2.5771,2.5771,0,0,0-1.1562.2592,2.1368,2.1368,0,0,0-.8369.7144,1.65,1.65,0,0,0-.3116.9458,3.23,3.23,0,0,0,.28,1.3447,2.3609,2.3609,0,0,0,.7949.9878A1.9777,1.9777,0,0,0,603.8783,162.4237Z"/>
  </g>
  <circle class="cls-1" cx="595.4824" cy="185.4025" r="17.0081"/>
  <circle class="cls-2" cx="595.4824" cy="185.4025" r="17.0081"/>
  <rect class="cls-1" x="650.7587" y="148.2273" width="42.5202" height="28.3468"/>
  <rect class="cls-2" x="650.7587" y="148.2273" width="42.5202" height="28.3468"/>
  <g>
    <path d="M663.2777,161.8431l-3.4746-9.0786h-.0557q.0968,1.0788.0977,2.564v6.5146h-1.1V151.6019h1.793l3.2431,8.4478h.0567l3.27-8.4478h1.7793v10.2412h-1.1905v-6.5986q0-1.1353.0977-2.4658H667.74l-3.5019,9.0644Z"/>
    <path d="M678.2054,159.49h-1.5205v2.3535h-1.1132V159.49H670.59v-1.0161l4.8623-6.9278h1.2324v6.8858h1.5205Zm-2.6337-1.0581v-3.4043q0-1.0012.0693-2.2627h-.0557a10.5624,10.5624,0,0,1-.6308,1.1138l-3.2012,4.5532Z"/>
    <path d="M683.5013,161.8431h-1.1347v-7.2993q0-.91.0556-1.7232c-.0976.0982-.208.2007-.3291.3082s-.6767.5629-1.667,1.3662l-.6162-.7989,2.711-2.0942h.98Z"/>
  </g>
  <line class="cls-4" x1="650.7587" y1="162.4007" x2="687.6322" y2="162.4007"/>
  <polyline points="693.279 162.401 684.244 157.883 687.632 162.401 684.244 166.918"/>
  <polyline class="cls-2" points="611.175 127.17 611.175 141.344 595.482 141.344 595.482 147.903"/>
  <polyline class="cls-2" points="619.475 127.17 619.475 141.344 672.019 141.344 672.019 148.227"/>
  <rect class="cls-1" x="615.009" y="217.4963" width="34.6486" height="20.2041"/>
  <rect class="cls-2" x="615.009" y="217.4963" width="34.6486" height="20.2041"/>
  <g>
    <path d="M628.2123,232.7162h-1.3516l-2.7529-4.5044-2.8018,4.5044h-1.2617l3.4053-5.3516-3.1738-4.89h1.3173l2.542,4.0557,2.5645-4.0557h1.2676l-3.1729,4.8472Z"/>
    <path d="M633.2777,232.7162h-1.1348v-7.2994q0-.91.0557-1.7231c-.0976.0981-.208.2007-.3291.3081s-.6768.563-1.667,1.3662l-.6162-.7988,2.7109-2.0943h.9805Z"/>
    <path d="M638.4672,232.7162l4.2451-9.1695h-5.583v-1.0718h6.8164v.9317l-4.1895,9.31Z"/>
  </g>
  <circle class="cls-1" cx="632.3333" cy="254.7085" r="17.0081" transform="translate(-32.6347 104.5775) rotate(-9.2175)"/>
  <circle class="cls-2" cx="632.3333" cy="254.7085" r="17.0081" transform="translate(-32.6347 104.5775) rotate(-9.2175)"/>
  <rect class="cls-1" x="654.6945" y="217.3527" width="34.6486" height="20.4914"/>
  <rect class="cls-2" x="654.6945" y="217.3527" width="34.6486" height="20.4914"/>
  <g>
    <path d="M667.8969,232.72h-1.3516l-2.7529-4.5044-2.8018,4.5044h-1.2617l3.4053-5.3516-3.1739-4.89h1.3174l2.542,4.0556,2.5645-4.0556h1.2675l-3.1728,4.8471Z"/>
    <path d="M672.9623,232.72h-1.1348v-7.2994q0-.91.0557-1.7231c-.0977.0981-.208.2007-.3291.3081s-.6768.563-1.667,1.3662l-.6162-.7988,2.7109-2.0942h.9805Z"/>
    <path d="M680.2465,222.3319a3.4732,3.4732,0,0,1,2.2207.6513,2.1731,2.1731,0,0,1,.8193,1.8,2.2425,2.2425,0,0,1-.4688,1.38,4.15,4.15,0,0,1-1.499,1.1348,5.0337,5.0337,0,0,1,1.7715,1.25,2.3511,2.3511,0,0,1,.5254,1.5166,2.5374,2.5374,0,0,1-.89,2.0346,3.63,3.63,0,0,1-2.4375.76,3.9,3.9,0,0,1-2.5215-.7183,2.4719,2.4719,0,0,1-.8828-2.0346q0-1.7586,2.1435-2.7388a3.954,3.954,0,0,1-1.3867-1.1807,2.51,2.51,0,0,1-.4209-1.4184,2.1613,2.1613,0,0,1,.8232-1.7759A3.4133,3.4133,0,0,1,680.2465,222.3319Zm-2.2139,7.8032a1.5863,1.5863,0,0,0,.585,1.31,2.5631,2.5631,0,0,0,1.6425.4692,2.4478,2.4478,0,0,0,1.626-.49,1.6685,1.6685,0,0,0,.5811-1.3453,1.64,1.64,0,0,0-.5469-1.208,5.572,5.572,0,0,0-1.9053-1.0263,4.1457,4.1457,0,0,0-1.5127.9912A1.9222,1.9222,0,0,0,678.0326,230.1351Zm2.2-6.8579a2.0606,2.0606,0,0,0-1.3731.42,1.3918,1.3918,0,0,0-.497,1.1206,1.6035,1.6035,0,0,0,.4131,1.1069,4.3121,4.3121,0,0,0,1.5263.9248,3.83,3.83,0,0,0,1.419-.9038,1.6758,1.6758,0,0,0,.417-1.1279,1.3805,1.3805,0,0,0-.5079-1.124A2.1416,2.1416,0,0,0,680.2328,223.2772Z"/>
  </g>
  <circle class="cls-1" cx="672.0188" cy="254.8521" r="17.0081" transform="translate(312.8117 877.3706) rotate(-80.7825)"/>
  <circle class="cls-2" cx="672.0188" cy="254.8521" r="17.0081" transform="translate(312.8117 877.3706) rotate(-80.7825)"/>
  <rect class="cls-1" x="694.3801" y="217.3527" width="34.6486" height="20.4914"/>
  <rect class="cls-2" x="694.3801" y="217.3527" width="34.6486" height="20.4914"/>
  <g>
    <path d="M707.5824,232.72h-1.3516l-2.7529-4.5044-2.8018,4.5044h-1.2617l3.4053-5.3516-3.1738-4.89h1.3174l2.5419,4.0556,2.5645-4.0556h1.2676l-3.1729,4.8471Z"/>
    <path d="M712.6478,232.72h-1.1347v-7.2994q0-.91.0556-1.7231c-.0976.0981-.208.2007-.3291.3081s-.6767.563-1.667,1.3662l-.6162-.7988,2.711-2.0942h.98Z"/>
    <path d="M723.2738,226.85q0,6.01-4.6514,6.01a4.7425,4.7425,0,0,1-1.289-.14v-1.002a4.1108,4.1108,0,0,0,1.2744.1821,3.1027,3.1027,0,0,0,2.54-1.04,5.26,5.26,0,0,0,.9346-3.1909h-.084a2.4922,2.4922,0,0,1-1.0224.8862,3.2888,3.2888,0,0,1-1.4366.3047,2.8863,2.8863,0,0,1-2.1572-.8125,3.1,3.1,0,0,1-.7988-2.2695,3.4764,3.4764,0,0,1,.8935-2.522,3.4183,3.4183,0,0,1,4.1748-.3887,3.39,3.39,0,0,1,1.2012,1.562A6.3616,6.3616,0,0,1,723.2738,226.85Zm-3.4473-3.5234a1.9185,1.9185,0,0,0-1.5478.6445,2.6889,2.6889,0,0,0-.5459,1.793,2.3336,2.3336,0,0,0,.5039,1.5869,1.93,1.93,0,0,0,1.5342.5777,2.6618,2.6618,0,0,0,1.1738-.2593,2.1208,2.1208,0,0,0,.8438-.7075,1.6351,1.6351,0,0,0,.3085-.9385,3.1961,3.1961,0,0,0-.288-1.3589,2.3669,2.3669,0,0,0-.8018-.981A2.0208,2.0208,0,0,0,719.8265,223.3265Z"/>
  </g>
  <circle class="cls-1" cx="711.7044" cy="254.8521" r="17.0081" transform="translate(346.1404 916.5437) rotate(-80.7825)"/>
  <circle class="cls-2" cx="711.7044" cy="254.8521" r="17.0081" transform="translate(346.1404 916.5437) rotate(-80.7825)"/>
  <polyline class="cls-2" points="663.515 176.574 663.515 210.59 632.333 210.59 632.333 217.496"/>
  <polyline class="cls-2" points="672.019 176.574 672.019 210.59 672.019 217.353"/>
  <polyline class="cls-2" points="680.523 176.574 680.523 210.59 711.704 210.59 711.704 217.353"/>
  <path class="cls-1" d="M412.6456,298.8363l14.882,9.92-14.882,9.92Zm0-.0011h59.528m0-19.8426h-59.528v39.6853h59.528Z"/>
  <path class="cls-3" d="M412.6456,298.8363l14.882,9.92-14.882,9.92Zm0-.0011h59.528m0-19.8426h-59.528v39.6853h59.528Z"/>
  <g>
    <path d="M435.4506,283.3748a3.3468,3.3468,0,0,0-2.6651,1.1241,4.5337,4.5337,0,0,0-.9775,3.0781,4.6281,4.6281,0,0,0,.9424,3.1074,3.3494,3.3494,0,0,0,2.6865,1.0957,9.17,9.17,0,0,0,2.4443-.3847v1.0439a7.5419,7.5419,0,0,1-2.6269.3984,4.4431,4.4431,0,0,1-3.4912-1.372,5.6535,5.6535,0,0,1-1.23-3.9024,6.1553,6.1553,0,0,1,.5918-2.7734,4.248,4.248,0,0,1,1.709-1.836,5.1746,5.1746,0,0,1,2.63-.6445,6.3418,6.3418,0,0,1,2.8164.5889l-.5039,1.0224A5.43,5.43,0,0,0,435.4506,283.3748Z"/>
    <path d="M444.5013,283.3748a3.3466,3.3466,0,0,0-2.665,1.1241,4.5332,4.5332,0,0,0-.9775,3.0781,4.6286,4.6286,0,0,0,.9423,3.1074,3.35,3.35,0,0,0,2.6866,1.0957,9.1708,9.1708,0,0,0,2.4443-.3847v1.0439a7.5427,7.5427,0,0,1-2.6269.3984,4.4433,4.4433,0,0,1-3.4913-1.372,5.654,5.654,0,0,1-1.2294-3.9024,6.1566,6.1566,0,0,1,.5917-2.7734,4.2491,4.2491,0,0,1,1.709-1.836,5.175,5.175,0,0,1,2.63-.6445,6.3421,6.3421,0,0,1,2.8164.5889l-.5039,1.0224A5.43,5.43,0,0,0,444.5013,283.3748Z"/>
    <path d="M450.3568,292.6981h-1.19V282.4569h5.709v1.0576h-4.5186v3.748h4.2451V288.32h-4.2451Z"/>
  </g>
  <rect class="cls-1" x="385.3998" y="319.764" width="34.6486" height="20.5054"/>
  <rect class="cls-2" x="385.3998" y="319.764" width="34.6486" height="20.5054"/>
  <g>
    <path d="M398.6049,335.1444h-1.3516L394.5,330.6405l-2.8018,4.5039h-1.2617l3.4053-5.3516-3.1739-4.89h1.3174l2.542,4.0556,2.5645-4.0556H398.36l-3.1728,4.8476Z"/>
    <path d="M406.0941,335.1444h-6.7324v-1.002l2.6973-2.7109a19.7446,19.7446,0,0,0,1.625-1.7793,4.533,4.533,0,0,0,.5888-1.0361,2.9909,2.9909,0,0,0,.1953-1.086,1.72,1.72,0,0,0-.497-1.3,1.9056,1.9056,0,0,0-1.38-.4795,3.475,3.475,0,0,0-1.208.21,4.8165,4.8165,0,0,0-1.2715.7637l-.6162-.792a4.7228,4.7228,0,0,1,3.082-1.1768,3.26,3.26,0,0,1,2.2627.7393,2.5436,2.5436,0,0,1,.8193,1.9863,3.8356,3.8356,0,0,1-.5468,1.9258,12.2262,12.2262,0,0,1-2.045,2.41l-2.2421,2.1924v.0557h5.2685Z"/>
    <path d="M414.3519,330.01a7.4819,7.4819,0,0,1-.8369,3.9649,3.0922,3.0922,0,0,1-5.0752-.0313,7.3328,7.3328,0,0,1-.8613-3.9336,7.4771,7.4771,0,0,1,.833-3.9717,3.0944,3.0944,0,0,1,5.0752.0557A7.2976,7.2976,0,0,1,414.3519,330.01Zm-5.5967,0a7.4961,7.4961,0,0,0,.5254,3.2539,1.8868,1.8868,0,0,0,3.3584-.0137,10.2839,10.2839,0,0,0,0-6.4726,1.8931,1.8931,0,0,0-3.3584-.0147A7.45,7.45,0,0,0,408.7552,330.01Z"/>
  </g>
  <circle class="cls-1" cx="402.7241" cy="357.2775" r="17.0081" transform="translate(-86.2533 132.0332) rotate(-16.845)"/>
  <circle class="cls-2" cx="402.7241" cy="357.2775" r="17.0081" transform="translate(-86.2533 132.0332) rotate(-16.845)"/>
  <polyline class="cls-2" points="412.646 308.757 402.724 308.757 402.724 319.764"/>
  <polyline class="cls-2" points="431.071 318.678 431.071 409.388 280.833 409.388 280.833 402.2"/>
  <polyline class="cls-2" points="453.748 318.678 453.748 409.388 595.482 409.388 595.482 202.411"/>
  <path d="M418.3939,396.9325l-.4834,1.6113a5.9585,5.9585,0,0,1,1.3633-1.2539,2.3584,2.3584,0,0,1,1.2217-.3574,1.3805,1.3805,0,0,1,1.0654.4941,1.8572,1.8572,0,0,1,.4414,1.2852,5.0947,5.0947,0,0,1-1.2539,3.1347,3.6567,3.6567,0,0,1-2.9219,1.5938,2.2391,2.2391,0,0,1-.6191-.0772,2.675,2.675,0,0,1-.6064-.2734l-.5118,1.8076a3.34,3.34,0,0,0-.1533.6934.4286.4286,0,0,0,.08.2627.512.512,0,0,0,.2627.1679,2.774,2.774,0,0,0,.7217.06l-.0635.26h-3.2988l.07-.26a1.5127,1.5127,0,0,0,.8789-.2236,2.578,2.578,0,0,0,.4795-1.086l1.7724-6.1367a4.0271,4.0271,0,0,0,.1612-.7207.3917.3917,0,0,0-.1084-.2949.4664.4664,0,0,0-.333-.1045,4.63,4.63,0,0,0-.5674.0488V397.29Zm-1.6318,5.6045a1.448,1.448,0,0,0,1.17.5185,1.5668,1.5668,0,0,0,.7422-.2031,2.8024,2.8024,0,0,0,.7393-.6026,4.92,4.92,0,0,0,.6484-.9218,7.0392,7.0392,0,0,0,.5146-1.2285,4.57,4.57,0,0,0,.2276-1.4014,1.28,1.28,0,0,0-.2559-.8584.7689.7689,0,0,0-.5986-.2979,2.0384,2.0384,0,0,0-1.4961.8692,5.4914,5.4914,0,0,0-1.082,2.0312Z"/>
  <path d="M426.43,398.6913l-1.5665,5.4531a2.932,2.932,0,0,0-.1357.6953.3254.3254,0,0,0,.124.2754,1.2911,1.2911,0,0,0,.5811.1289l-.0488.18h-2.5049l.0674-.18a1.724,1.724,0,0,0,.5253-.0635.7011.7011,0,0,0,.3067-.2334,2.8157,2.8157,0,0,0,.3262-.8027l1.1289-3.916c.0673-.2364.1054-.3731.1113-.4082a1.2858,1.2858,0,0,0,.0146-.19.37.37,0,0,0-.0927-.2675.3326.3326,0,0,0-.253-.0967,2.1273,2.1273,0,0,0-.3935.0576l-.0635-.1748,1.64-.457Z"/>
  <path d="M460.2416,396.9325l-.4834,1.6113a5.9544,5.9544,0,0,1,1.3633-1.2539,2.3583,2.3583,0,0,1,1.2216-.3574,1.3807,1.3807,0,0,1,1.0655.4941,1.8577,1.8577,0,0,1,.4414,1.2852,5.0952,5.0952,0,0,1-1.2539,3.1347,3.657,3.657,0,0,1-2.9219,1.5938,2.2386,2.2386,0,0,1-.6191-.0772,2.6755,2.6755,0,0,1-.6065-.2734l-.5117,1.8076a3.34,3.34,0,0,0-.1533.6934.4285.4285,0,0,0,.08.2627.5124.5124,0,0,0,.2627.1679,2.774,2.774,0,0,0,.7217.06l-.0635.26h-3.2988l.07-.26a1.5124,1.5124,0,0,0,.8789-.2236,2.5754,2.5754,0,0,0,.4795-1.086l1.7725-6.1367a4.0325,4.0325,0,0,0,.1611-.7207.3914.3914,0,0,0-.1084-.2949.4663.4663,0,0,0-.333-.1045,4.6326,4.6326,0,0,0-.5674.0488V397.29ZM458.61,402.537a1.4482,1.4482,0,0,0,1.17.5185,1.5671,1.5671,0,0,0,.7422-.2031,2.8,2.8,0,0,0,.7392-.6026,4.9156,4.9156,0,0,0,.6484-.9218,7.0314,7.0314,0,0,0,.5147-1.2285,4.57,4.57,0,0,0,.2275-1.4014,1.28,1.28,0,0,0-.2558-.8584.769.769,0,0,0-.5987-.2979,2.0386,2.0386,0,0,0-1.4961.8692,5.4929,5.4929,0,0,0-1.082,2.0312Z"/>
  <path d="M467.559,405.4237h-3.2842v-.18a19.4567,19.4567,0,0,0,3.3183-3.4492,2.2073,2.2073,0,0,0,.3741-1.2159,1.13,1.13,0,0,0-.3116-.8251,1.0786,1.0786,0,0,0-.8066-.3184,1.319,1.319,0,0,0-1.1289.6562l-.17-.0771a2.1372,2.1372,0,0,1,.7246-.9756,1.7156,1.7156,0,0,1,1.0312-.3476,1.4654,1.4654,0,0,1,1.4834,1.4736,2.0554,2.0554,0,0,1-.15.793,4.7132,4.7132,0,0,1-.8613,1.2744,29.63,29.63,0,0,1-2.5439,2.4863h1.6533a1.1955,1.1955,0,0,0,.6572-.166.9266.9266,0,0,0,.3692-.4424h.1953Z"/>
</svg>
